%FSLAX25Y25*%
%MOIN*%
G70*
G01*
G75*
%ADD10R,0.04500X0.04500*%
%ADD11R,0.01969X0.08858*%
%ADD12R,0.07874X0.09843*%
G04:AMPARAMS|DCode=13|XSize=31.5mil|YSize=11.81mil|CornerRadius=0mil|HoleSize=0mil|Usage=FLASHONLY|Rotation=180.000|XOffset=0mil|YOffset=0mil|HoleType=Round|Shape=Octagon|*
%AMOCTAGOND13*
4,1,8,-0.01575,0.00295,-0.01575,-0.00295,-0.01280,-0.00591,0.01280,-0.00591,0.01575,-0.00295,0.01575,0.00295,0.01280,0.00591,-0.01280,0.00591,-0.01575,0.00295,0.0*
%
%ADD13OCTAGOND13*%

%ADD14R,0.03150X0.01181*%
%ADD15R,0.03150X0.02362*%
%ADD16C,0.01000*%
%ADD17C,0.02000*%
%ADD18R,0.06250X0.06250*%
%ADD19R,0.15748X0.11811*%
%ADD20R,0.11811X0.15748*%
%ADD21R,0.03937X0.15748*%
%ADD22R,0.03937X0.11811*%
%ADD23R,0.06250X0.06250*%
%ADD24C,0.02500*%
%ADD25R,0.11024X0.09449*%
%ADD26R,0.03500X0.03100*%
G04:AMPARAMS|DCode=27|XSize=59.06mil|YSize=12.8mil|CornerRadius=0mil|HoleSize=0mil|Usage=FLASHONLY|Rotation=90.000|XOffset=0mil|YOffset=0mil|HoleType=Round|Shape=Octagon|*
%AMOCTAGOND27*
4,1,8,0.00320,0.02953,-0.00320,0.02953,-0.00640,0.02633,-0.00640,-0.02633,-0.00320,-0.02953,0.00320,-0.02953,0.00640,-0.02633,0.00640,0.02633,0.00320,0.02953,0.0*
%
%ADD27OCTAGOND27*%

%ADD28R,0.01280X0.05906*%
%ADD29R,0.02362X0.03150*%
%ADD30C,0.00600*%
%ADD31C,0.00750*%
D30*
X415823Y321866D02*
X418823D01*
X415823D02*
X417323Y319866D01*
X418823Y321866D01*
X415823Y319866D02*
X418823D01*
X380390Y321866D02*
X383390D01*
X380390D02*
X381890Y319866D01*
X383390Y321866D01*
X380390Y319866D02*
X383390D01*
X392201Y321866D02*
X395201D01*
X392201D02*
X393701Y319866D01*
X395201Y321866D01*
X392201Y319866D02*
X395201D01*
X398606Y256358D02*
Y257358D01*
X387106Y256358D02*
X398606D01*
Y267858D02*
Y268858D01*
X387106D02*
X398606D01*
X387106Y256358D02*
Y257358D01*
Y267858D02*
Y268858D01*
X357299Y268232D02*
Y269232D01*
X368799D01*
X357299Y256732D02*
Y257732D01*
Y256732D02*
X368799D01*
Y268232D02*
Y269232D01*
Y256732D02*
Y257732D01*
D31*
X407480Y280558D02*
Y277559D01*
X408980D01*
X409480Y278059D01*
Y278559D01*
X408980Y279059D01*
X407480D01*
X408980D01*
X409480Y279558D01*
Y280058D01*
X408980Y280558D01*
X407480D01*
X410479D02*
Y278059D01*
X410979Y277559D01*
X411979D01*
X412479Y278059D01*
Y280558D01*
X415478D02*
X413478D01*
Y279059D01*
X414478D01*
X413478D01*
Y277559D01*
X418477Y280558D02*
X416477D01*
Y279059D01*
X417477D01*
X416477D01*
Y277559D01*
X422475D02*
Y280558D01*
X423975D01*
X424475Y280058D01*
Y279059D01*
X423975Y278559D01*
X422475D01*
X426974Y280558D02*
X425974D01*
X425475Y280058D01*
Y278059D01*
X425974Y277559D01*
X426974D01*
X427474Y278059D01*
Y280058D01*
X426974Y280558D01*
X428474D02*
Y277559D01*
X429473Y278559D01*
X430473Y277559D01*
Y280558D01*
X394514Y289536D02*
X394015Y290036D01*
X393015D01*
X392515Y289536D01*
Y287537D01*
X393015Y287037D01*
X394015D01*
X394514Y287537D01*
X397513Y287037D02*
X395514D01*
X397513Y289036D01*
Y289536D01*
X397013Y290036D01*
X396014D01*
X395514Y289536D01*
X406305Y309146D02*
X405805Y309646D01*
X404805D01*
X404306Y309146D01*
Y307146D01*
X404805Y306646D01*
X405805D01*
X406305Y307146D01*
X407304Y309646D02*
X409304D01*
Y309146D01*
X407304Y307146D01*
Y306646D01*
X371094Y308601D02*
X370594Y309101D01*
X369594D01*
X369094Y308601D01*
Y306602D01*
X369594Y306102D01*
X370594D01*
X371094Y306602D01*
X372094Y306102D02*
X373093D01*
X372593D01*
Y309101D01*
X372094Y308601D01*
X374593D02*
X375093Y309101D01*
X376092D01*
X376592Y308601D01*
Y306602D01*
X376092Y306102D01*
X375093D01*
X374593Y306602D01*
Y308601D01*
X349456Y270638D02*
Y271638D01*
Y271138D01*
X346956D01*
X346457Y271638D01*
Y272138D01*
X346956Y272638D01*
X346457Y269639D02*
Y268639D01*
Y269139D01*
X349456D01*
X348956Y269639D01*
X392500Y306700D02*
Y309699D01*
X394000D01*
X394499Y309199D01*
Y308200D01*
X394000Y307700D01*
X392500D01*
X393500D02*
X394499Y306700D01*
X395499Y309199D02*
X395999Y309699D01*
X396999D01*
X397498Y309199D01*
Y308699D01*
X396999Y308200D01*
X396499D01*
X396999D01*
X397498Y307700D01*
Y307200D01*
X396999Y306700D01*
X395999D01*
X395499Y307200D01*
X380674Y306737D02*
Y309736D01*
X382173D01*
X382673Y309236D01*
Y308237D01*
X382173Y307737D01*
X380674D01*
X381674D02*
X382673Y306737D01*
X385173D02*
Y309736D01*
X383673Y308237D01*
X385672D01*
X370079Y286417D02*
Y289416D01*
X371578D01*
X372078Y288916D01*
Y287917D01*
X371578Y287417D01*
X370079D01*
X371078D02*
X372078Y286417D01*
X375077Y289416D02*
X374077Y288916D01*
X373078Y287917D01*
Y286917D01*
X373578Y286417D01*
X374577D01*
X375077Y286917D01*
Y287417D01*
X374577Y287917D01*
X373078D01*
X379921Y286417D02*
Y289416D01*
X381421D01*
X381921Y288916D01*
Y287917D01*
X381421Y287417D01*
X379921D01*
X380921D02*
X381921Y286417D01*
X382920Y289416D02*
X384920D01*
Y288916D01*
X382920Y286917D01*
Y286417D01*
X391789Y330768D02*
Y333768D01*
X393288D01*
X393788Y333268D01*
Y332268D01*
X393288Y331768D01*
X391789D01*
X392789D02*
X393788Y330768D01*
X394788Y333768D02*
X396787Y330768D01*
Y333768D02*
X394788Y330768D01*
X380031Y333793D02*
X382031D01*
X381031D01*
Y330795D01*
X383031Y333793D02*
X385030Y330795D01*
Y333793D02*
X383031Y330795D01*
X355047Y275305D02*
Y272805D01*
X355547Y272305D01*
X356547D01*
X357047Y272805D01*
Y275305D01*
X360046Y272305D02*
X358046D01*
X360046Y274305D01*
Y274805D01*
X359546Y275305D01*
X358546D01*
X358046Y274805D01*
X385038Y274941D02*
Y272442D01*
X385538Y271942D01*
X386537D01*
X387037Y272442D01*
Y274941D01*
X388037Y274441D02*
X388537Y274941D01*
X389536D01*
X390036Y274441D01*
Y273941D01*
X389536Y273441D01*
X389036D01*
X389536D01*
X390036Y272941D01*
Y272442D01*
X389536Y271942D01*
X388537D01*
X388037Y272442D01*
X329724Y293353D02*
Y290854D01*
X330224Y290354D01*
X331224D01*
X331724Y290854D01*
Y293353D01*
X334723Y292853D02*
X334223Y293353D01*
X333223D01*
X332723Y292853D01*
Y292354D01*
X333223Y291854D01*
X334223D01*
X334723Y291354D01*
Y290854D01*
X334223Y290354D01*
X333223D01*
X332723Y290854D01*
X335722Y293353D02*
Y290354D01*
X337222D01*
X337722Y290854D01*
Y291354D01*
X337222Y291854D01*
X335722D01*
X337222D01*
X337722Y292354D01*
Y292853D01*
X337222Y293353D01*
X335722D01*
X338721Y290354D02*
X339721D01*
X339221D01*
Y293353D01*
X338721Y292853D01*
X403543Y258905D02*
Y256905D01*
X404543Y255906D01*
X405543Y256905D01*
Y258905D01*
X406542Y255906D02*
Y258905D01*
X408042D01*
X408542Y258405D01*
Y257405D01*
X408042Y256905D01*
X406542D01*
X407542D02*
X408542Y255906D01*
X411541Y258905D02*
X409541D01*
Y255906D01*
X411541D01*
X409541Y257405D02*
X410541D01*
X414540Y258405D02*
X414040Y258905D01*
X413040D01*
X412540Y258405D01*
Y256405D01*
X413040Y255906D01*
X414040D01*
X414540Y256405D01*
Y257405D01*
X413540D01*
X415539Y255906D02*
X417539Y257905D01*
X418539Y258905D02*
Y256905D01*
X419538Y255906D01*
X420538Y256905D01*
Y258905D01*
X421537D02*
Y256405D01*
X422037Y255906D01*
X423037D01*
X423537Y256405D01*
Y258905D01*
X426536Y258405D02*
X426036Y258905D01*
X425036D01*
X424537Y258405D01*
Y257905D01*
X425036Y257405D01*
X426036D01*
X426536Y256905D01*
Y256405D01*
X426036Y255906D01*
X425036D01*
X424537Y256405D01*
X427535Y258905D02*
Y255906D01*
X429035D01*
X429535Y256405D01*
Y256905D01*
X429035Y257405D01*
X427535D01*
X429035D01*
X429535Y257905D01*
Y258405D01*
X429035Y258905D01*
X427535D01*
X413386Y330709D02*
Y333708D01*
X414885D01*
X415385Y333208D01*
Y332208D01*
X414885Y331708D01*
X413386D01*
X417884Y333708D02*
X416885D01*
X416385Y333208D01*
Y331208D01*
X416885Y330709D01*
X417884D01*
X418384Y331208D01*
Y333208D01*
X417884Y333708D01*
X419384D02*
Y330709D01*
X420384Y331708D01*
X421383Y330709D01*
Y333708D01*
X416069Y306726D02*
Y309725D01*
X417568D01*
X418068Y309225D01*
Y308225D01*
X417568Y307726D01*
X416069D01*
X417068D02*
X418068Y306726D01*
X419067Y309225D02*
X419567Y309725D01*
X420567D01*
X421067Y309225D01*
Y308725D01*
X420567Y308225D01*
X421067Y307726D01*
Y307226D01*
X420567Y306726D01*
X419567D01*
X419067Y307226D01*
Y307726D01*
X419567Y308225D01*
X419067Y308725D01*
Y309225D01*
X419567Y308225D02*
X420567D01*
X349410Y244094D02*
Y246094D01*
X350409Y247094D01*
X351409Y246094D01*
Y244094D01*
Y245594D01*
X349410D01*
X352409Y244094D02*
Y247094D01*
X353908D01*
X354408Y246594D01*
Y245594D01*
X353908Y245094D01*
X352409D01*
X353408D02*
X354408Y244094D01*
X355408Y247094D02*
Y244094D01*
X356907D01*
X357407Y244594D01*
Y246594D01*
X356907Y247094D01*
X355408D01*
X361406Y244094D02*
Y247094D01*
X362905D01*
X363405Y246594D01*
Y245594D01*
X362905Y245094D01*
X361406D01*
X366404Y246594D02*
X365904Y247094D01*
X364904D01*
X364405Y246594D01*
Y244594D01*
X364904Y244094D01*
X365904D01*
X366404Y244594D01*
Y245594D01*
X365404D01*
X367404Y244094D02*
Y247094D01*
X368403Y246094D01*
X369403Y247094D01*
Y244094D01*
M02*
