%FSLAX25Y25*%
%MOIN*%
G70*
G01*
G75*
G04 Layer_Color=8388736*
%ADD10R,0.04500X0.04500*%
%ADD11R,0.01969X0.08858*%
%ADD12R,0.07874X0.09843*%
G04:AMPARAMS|DCode=13|XSize=31.5mil|YSize=11.81mil|CornerRadius=0mil|HoleSize=0mil|Usage=FLASHONLY|Rotation=180.000|XOffset=0mil|YOffset=0mil|HoleType=Round|Shape=Octagon|*
%AMOCTAGOND13*
4,1,8,-0.01575,0.00295,-0.01575,-0.00295,-0.01280,-0.00591,0.01280,-0.00591,0.01575,-0.00295,0.01575,0.00295,0.01280,0.00591,-0.01280,0.00591,-0.01575,0.00295,0.0*
%
%ADD13OCTAGOND13*%

%ADD14R,0.03150X0.01181*%
%ADD15R,0.03150X0.02362*%
%ADD16C,0.01000*%
%ADD17C,0.02000*%
%ADD18R,0.06250X0.06250*%
%ADD19R,0.15748X0.11811*%
%ADD20R,0.11811X0.15748*%
%ADD21R,0.03937X0.15748*%
%ADD22R,0.03937X0.11811*%
%ADD23R,0.06250X0.06250*%
%ADD24C,0.02500*%
%ADD25R,0.11024X0.09449*%
%ADD26R,0.03500X0.03100*%
G04:AMPARAMS|DCode=27|XSize=59.06mil|YSize=12.8mil|CornerRadius=0mil|HoleSize=0mil|Usage=FLASHONLY|Rotation=90.000|XOffset=0mil|YOffset=0mil|HoleType=Round|Shape=Octagon|*
%AMOCTAGOND27*
4,1,8,0.00320,0.02953,-0.00320,0.02953,-0.00640,0.02633,-0.00640,-0.02633,-0.00320,-0.02953,0.00320,-0.02953,0.00640,-0.02633,0.00640,0.02633,0.00320,0.02953,0.0*
%
%ADD27OCTAGOND27*%

%ADD28R,0.01280X0.05906*%
%ADD29R,0.02362X0.03150*%
%ADD30C,0.00600*%
%ADD31C,0.00750*%
%ADD32R,0.15748X1.25984*%
%ADD33R,1.41732X0.15748*%
%ADD34R,0.15748X1.25984*%
%ADD35R,1.10236X0.15748*%
%ADD36R,0.05300X0.05300*%
%ADD37R,0.02769X0.09658*%
%ADD38R,0.08674X0.10642*%
G04:AMPARAMS|DCode=39|XSize=39.5mil|YSize=19.81mil|CornerRadius=0mil|HoleSize=0mil|Usage=FLASHONLY|Rotation=180.000|XOffset=0mil|YOffset=0mil|HoleType=Round|Shape=Octagon|*
%AMOCTAGOND39*
4,1,8,-0.01975,0.00495,-0.01975,-0.00495,-0.01480,-0.00991,0.01480,-0.00991,0.01975,-0.00495,0.01975,0.00495,0.01480,0.00991,-0.01480,0.00991,-0.01975,0.00495,0.0*
%
%ADD39OCTAGOND39*%

%ADD40R,0.03950X0.01981*%
%ADD41R,0.03950X0.03162*%
%ADD42R,0.07050X0.07050*%
%ADD43R,0.00800X0.00800*%
%ADD44R,0.16548X0.12611*%
%ADD45R,0.12611X0.16548*%
%ADD46R,0.04737X0.16548*%
%ADD47R,0.04737X0.12611*%
%ADD48R,0.07050X0.07050*%
%ADD49C,0.03300*%
D32*
X440945Y275591D02*
D03*
D33*
X377953Y346457D02*
D03*
D34*
X314961Y275591D02*
D03*
D35*
X377953Y220473D02*
D03*
D36*
X417323Y325366D02*
D03*
Y316366D02*
D03*
X381890Y325366D02*
D03*
Y316366D02*
D03*
X393701Y325366D02*
D03*
Y316366D02*
D03*
D37*
X351772Y329823D02*
D03*
X348622D02*
D03*
X345472D02*
D03*
X342323D02*
D03*
X339173D02*
D03*
D38*
X362992Y307992D02*
D03*
X327953D02*
D03*
Y329331D02*
D03*
X362992D02*
D03*
D39*
X399606Y258858D02*
D03*
X356299Y266732D02*
D03*
D40*
X399606Y261417D02*
D03*
Y263976D02*
D03*
Y266535D02*
D03*
X386221Y258858D02*
D03*
Y261417D02*
D03*
Y263976D02*
D03*
Y266535D02*
D03*
X356299Y264173D02*
D03*
Y261614D02*
D03*
Y259055D02*
D03*
X369685Y266732D02*
D03*
Y264173D02*
D03*
Y261614D02*
D03*
Y259055D02*
D03*
D41*
X417323Y302362D02*
D03*
Y296063D02*
D03*
X381890Y282677D02*
D03*
Y276378D02*
D03*
X370079Y282677D02*
D03*
Y276378D02*
D03*
X381890Y302362D02*
D03*
Y296063D02*
D03*
X393701Y302362D02*
D03*
Y296063D02*
D03*
X371063D02*
D03*
Y302362D02*
D03*
X405512D02*
D03*
Y296063D02*
D03*
X393701Y276378D02*
D03*
Y282677D02*
D03*
X404528Y276378D02*
D03*
Y282677D02*
D03*
D42*
X407323Y250000D02*
D03*
X417323D02*
D03*
X427323D02*
D03*
X350236Y238189D02*
D03*
X360236D02*
D03*
D43*
X313087Y220472D02*
D03*
X312992Y346457D02*
D03*
X438976D02*
D03*
Y220472D02*
D03*
X405512Y332677D02*
D03*
Y314961D02*
D03*
D44*
X440945Y283465D02*
D03*
X314961D02*
D03*
D45*
X377953Y346457D02*
D03*
Y220472D02*
D03*
D46*
X421260D02*
D03*
X334646D02*
D03*
D47*
X342520Y222441D02*
D03*
X350394D02*
D03*
X358268D02*
D03*
X366142D02*
D03*
X389764D02*
D03*
X397638D02*
D03*
X405512D02*
D03*
X413386D02*
D03*
D48*
X332677Y241968D02*
D03*
Y251969D02*
D03*
Y261968D02*
D03*
D49*
X374016Y326772D02*
D03*
X342520Y319882D02*
D03*
X339567Y322835D02*
D03*
X345472Y299213D02*
D03*
X351378Y319882D02*
D03*
X381890Y292323D02*
D03*
X375000Y299213D02*
D03*
X376969Y288386D02*
D03*
X374016Y266732D02*
D03*
X380906Y257874D02*
D03*
X399606Y279528D02*
D03*
X417323Y292323D02*
D03*
X405512Y292323D02*
D03*
X352362Y256890D02*
D03*
Y266732D02*
D03*
X364611Y260827D02*
D03*
X373031Y291339D02*
D03*
X366339Y293307D02*
D03*
X365158Y274606D02*
D03*
X389764Y286614D02*
D03*
Y243110D02*
D03*
X370079Y271654D02*
D03*
X378937D02*
D03*
X377953Y266732D02*
D03*
X391732Y258858D02*
D03*
X394684Y264763D02*
D03*
X400591Y269685D02*
D03*
X370079Y306102D02*
D03*
X379724Y235236D02*
D03*
X372047Y246063D02*
D03*
X352362Y261811D02*
D03*
X338583D02*
D03*
X367126Y238189D02*
D03*
M02*
