%FSLAX25Y25*%
%MOIN*%
G70*
G01*
G75*
G04 Layer_Physical_Order=1*
G04 Layer_Color=255*
%ADD10R,0.04500X0.04500*%
%ADD11R,0.01969X0.08858*%
%ADD12R,0.07874X0.09843*%
G04:AMPARAMS|DCode=13|XSize=31.5mil|YSize=11.81mil|CornerRadius=0mil|HoleSize=0mil|Usage=FLASHONLY|Rotation=180.000|XOffset=0mil|YOffset=0mil|HoleType=Round|Shape=Octagon|*
%AMOCTAGOND13*
4,1,8,-0.01575,0.00295,-0.01575,-0.00295,-0.01280,-0.00591,0.01280,-0.00591,0.01575,-0.00295,0.01575,0.00295,0.01280,0.00591,-0.01280,0.00591,-0.01575,0.00295,0.0*
%
%ADD13OCTAGOND13*%

%ADD14R,0.03150X0.01181*%
%ADD15R,0.03150X0.02362*%
%ADD16C,0.01000*%
%ADD17C,0.02000*%
%ADD18R,0.06250X0.06250*%
%ADD19R,0.15748X0.11811*%
%ADD20R,0.11811X0.15748*%
%ADD21R,0.03937X0.15748*%
%ADD22R,0.03937X0.11811*%
%ADD23R,0.06250X0.06250*%
%ADD24C,0.02500*%
G36*
X430118Y231299D02*
X420207D01*
X418765Y232741D01*
X418103Y233183D01*
X417323Y233338D01*
X382004D01*
X381630Y234038D01*
X381844Y234358D01*
X382018Y235236D01*
X381844Y236114D01*
X381347Y236858D01*
X380602Y237356D01*
X379724Y237530D01*
X378846Y237356D01*
X378102Y236858D01*
X378040Y236766D01*
X369659D01*
X369276Y237466D01*
X369420Y238189D01*
X369245Y239067D01*
X368748Y239811D01*
X368655Y239873D01*
Y248382D01*
X377939Y257666D01*
X378699Y257436D01*
X378786Y256996D01*
X379283Y256252D01*
X380028Y255755D01*
X380906Y255580D01*
X381783Y255755D01*
X382528Y256252D01*
X383025Y256996D01*
X383029Y257014D01*
X383646Y257268D01*
X383646D01*
X383646Y257268D01*
X383646Y257268D01*
X388795D01*
Y257329D01*
X390048D01*
X390110Y257236D01*
X390854Y256739D01*
X391732Y256564D01*
X392610Y256739D01*
X393354Y257236D01*
X393852Y257980D01*
X393939Y258420D01*
X394699Y258650D01*
X395572Y257777D01*
X396068Y257445D01*
X396653Y257329D01*
X397765D01*
X397827Y257268D01*
X401386D01*
X402181Y258063D01*
Y259127D01*
X402181Y259653D01*
X402181Y259827D01*
D01*
X402181D01*
X402181Y259827D01*
Y262386D01*
Y262528D01*
X402357Y262563D01*
X402853Y262895D01*
X404625Y264667D01*
X404956Y265163D01*
X405073Y265748D01*
Y270669D01*
X404956Y271255D01*
X404625Y271751D01*
X402825Y273550D01*
X403093Y274197D01*
X403825D01*
X415284Y262738D01*
Y254125D01*
X413198D01*
Y245875D01*
X421448D01*
Y254125D01*
X419362D01*
Y263583D01*
X419362Y263583D01*
X419207Y264363D01*
X418765Y265024D01*
X407102Y276687D01*
Y276790D01*
X413483Y283171D01*
X413814Y283667D01*
X413931Y284252D01*
Y312475D01*
X414073Y313116D01*
X414631Y313116D01*
X415793D01*
Y304543D01*
X414748D01*
Y300181D01*
X419898D01*
Y304543D01*
X418852D01*
Y313116D01*
X420573D01*
Y319616D01*
X414631D01*
X414132Y319616D01*
X413973Y320275D01*
X415814Y322116D01*
X420573D01*
Y328616D01*
X414073D01*
Y324700D01*
X411320Y321948D01*
X410989Y321451D01*
X410872Y320866D01*
Y284886D01*
X407749Y281762D01*
X407102Y282030D01*
Y284858D01*
X401953D01*
Y283945D01*
X401675Y283759D01*
X399716Y281800D01*
X399606Y281822D01*
X398728Y281647D01*
X397984Y281150D01*
X397487Y280405D01*
X397312Y279528D01*
X397487Y278650D01*
X397984Y277905D01*
X398728Y277408D01*
X399606Y277234D01*
X400484Y277408D01*
X401229Y277905D01*
X401253Y277942D01*
X401953Y277729D01*
Y275358D01*
X401253Y274984D01*
X401176Y275035D01*
X400591Y275151D01*
X396276D01*
Y278559D01*
X393683D01*
X392392Y279849D01*
X392660Y280496D01*
X396276D01*
Y284858D01*
X393683D01*
X392036Y286505D01*
X392058Y286614D01*
X391883Y287492D01*
X391386Y288236D01*
X390642Y288734D01*
X389764Y288908D01*
X389683Y288892D01*
X389338Y289537D01*
X393683Y293882D01*
X396276D01*
Y298244D01*
X391126D01*
Y295651D01*
X385390Y289915D01*
X383596D01*
X383384Y290615D01*
X383512Y290701D01*
X384009Y291445D01*
X384184Y292323D01*
X384013Y293182D01*
X383993Y293308D01*
X384392Y293882D01*
X384465D01*
Y298244D01*
X379315D01*
Y293882D01*
X379388D01*
X379787Y293308D01*
X379767Y293182D01*
X379596Y292323D01*
X379770Y291445D01*
X380268Y290701D01*
X380396Y290615D01*
X380183Y289915D01*
X378653D01*
X378591Y290008D01*
X377846Y290505D01*
X376969Y290680D01*
X376091Y290505D01*
X375346Y290008D01*
X374849Y289264D01*
X374674Y288386D01*
X374849Y287508D01*
X375346Y286764D01*
X376091Y286266D01*
X376969Y286092D01*
X377846Y286266D01*
X378591Y286764D01*
X378653Y286856D01*
X386024D01*
X386609Y286973D01*
X386861Y287141D01*
X387491Y286720D01*
X387470Y286614D01*
X387644Y285736D01*
X388142Y284992D01*
X388886Y284495D01*
X389764Y284320D01*
X389873Y284342D01*
X391126Y283089D01*
Y281494D01*
X390585Y281050D01*
X390551Y281057D01*
X367126D01*
X366541Y280941D01*
X366044Y280609D01*
X364076Y278641D01*
X363744Y278144D01*
X363628Y277559D01*
Y276290D01*
X363535Y276228D01*
X363038Y275484D01*
X362863Y274606D01*
X363038Y273728D01*
X363535Y272984D01*
X364280Y272487D01*
X365158Y272312D01*
X366035Y272487D01*
X366780Y272984D01*
X367277Y273728D01*
X367277Y273728D01*
X367277Y273728D01*
X367740Y274197D01*
X368003D01*
X368575D01*
X368788Y273497D01*
X368457Y273276D01*
X367959Y272531D01*
X367785Y271654D01*
X367806Y271544D01*
X361965Y265703D01*
X359477D01*
X358874Y265937D01*
Y267528D01*
X358079Y268323D01*
X354520D01*
X353984Y268354D01*
X353240Y268852D01*
X352362Y269026D01*
X351484Y268852D01*
X350740Y268354D01*
X350243Y267610D01*
X350068Y266732D01*
X350243Y265854D01*
X350740Y265110D01*
X351448Y264637D01*
X351484Y264369D01*
Y264174D01*
X351448Y263906D01*
X350740Y263433D01*
X350243Y262689D01*
X350068Y261811D01*
X350243Y260933D01*
X350740Y260189D01*
X351448Y259716D01*
X351484Y259448D01*
Y259253D01*
X351448Y258985D01*
X350740Y258512D01*
X350243Y257768D01*
X350068Y256890D01*
X350243Y256012D01*
X350740Y255268D01*
X351484Y254770D01*
X352362Y254596D01*
X353240Y254770D01*
X353984Y255268D01*
X354482Y256012D01*
X354656Y256890D01*
X354644Y256954D01*
X355101Y257465D01*
X358874D01*
Y260024D01*
Y262583D01*
Y262644D01*
X362277D01*
X362668Y261980D01*
X362669Y261970D01*
X362492Y261705D01*
X362317Y260827D01*
X362492Y259949D01*
X362989Y259205D01*
X363733Y258707D01*
X364611Y258533D01*
X365489Y258707D01*
X366233Y259205D01*
X366410Y259470D01*
X367110Y259257D01*
Y257465D01*
X369268D01*
X369297Y257445D01*
X369882Y257329D01*
X372286D01*
X372576Y256629D01*
X366044Y250097D01*
X365713Y249601D01*
X365597Y249016D01*
Y239873D01*
X365504Y239811D01*
X365434Y239707D01*
X364498Y239566D01*
X364361Y239678D01*
Y242314D01*
X356111D01*
Y234064D01*
X363527D01*
X363545Y234038D01*
X363193Y233338D01*
X338583D01*
X337802Y233183D01*
X337141Y232741D01*
X335699Y231299D01*
X325787D01*
Y250151D01*
X326487Y250411D01*
X326975Y250085D01*
X327756Y249929D01*
X328552D01*
Y247844D01*
X336802D01*
Y256094D01*
X328552D01*
Y254971D01*
X327906Y254703D01*
X326842Y255766D01*
Y268840D01*
X332538Y274536D01*
X344488D01*
X345269Y274691D01*
X345930Y275133D01*
X367126Y296329D01*
X368488Y294967D01*
Y293882D01*
X373638D01*
Y294967D01*
X375736Y297065D01*
X375878Y297093D01*
X376622Y297590D01*
X377119Y298335D01*
X377294Y299213D01*
X377119Y300091D01*
X376622Y300835D01*
X375878Y301332D01*
X375000Y301507D01*
X374338Y301375D01*
X373638Y301786D01*
Y304543D01*
X372592D01*
Y305118D01*
X372476Y305703D01*
X372335Y305914D01*
X372373Y306102D01*
X372198Y306980D01*
X371701Y307724D01*
X370957Y308222D01*
X370079Y308396D01*
X369201Y308222D01*
X368629Y307840D01*
X368045Y308056D01*
X367929Y308150D01*
Y313913D01*
X358055D01*
Y302071D01*
X367318D01*
X367786Y301597D01*
X367290Y301219D01*
X367126Y301252D01*
X366346Y301097D01*
X365684Y300655D01*
X343643Y278614D01*
X331693D01*
X330913Y278459D01*
X330251Y278017D01*
X326434Y274200D01*
X325787Y274468D01*
Y302071D01*
X332890D01*
Y313913D01*
X325787D01*
Y323410D01*
X332890D01*
Y335252D01*
X333433Y335630D01*
X336646D01*
X337189Y335252D01*
X337189Y334930D01*
Y324394D01*
X337189Y324394D01*
X337189D01*
X337460Y323794D01*
X337444Y323694D01*
X337273Y322835D01*
X337448Y321957D01*
X337945Y321213D01*
X338689Y320715D01*
X339567Y320541D01*
X339771Y320581D01*
X340266Y320086D01*
X340226Y319882D01*
X340400Y319004D01*
X340897Y318260D01*
X341642Y317762D01*
X342520Y317588D01*
X343243Y317732D01*
X343943Y317349D01*
Y300897D01*
X343850Y300835D01*
X343353Y300091D01*
X343178Y299213D01*
X343353Y298335D01*
X343850Y297590D01*
X344594Y297093D01*
X345472Y296919D01*
X346350Y297093D01*
X347094Y297590D01*
X347592Y298335D01*
X347766Y299213D01*
X347592Y300091D01*
X347094Y300835D01*
X347002Y300897D01*
Y324394D01*
X349849D01*
Y321566D01*
X349756Y321504D01*
X349258Y320760D01*
X349084Y319882D01*
X349258Y319004D01*
X349756Y318260D01*
X350500Y317762D01*
X351378Y317588D01*
X352256Y317762D01*
X353000Y318260D01*
X353497Y319004D01*
X353672Y319882D01*
X353497Y320760D01*
X353000Y321504D01*
X352907Y321566D01*
Y324394D01*
X353756D01*
Y334930D01*
X353756Y335252D01*
X354299Y335630D01*
X354299Y335630D01*
X357512D01*
X358055Y335252D01*
X358055Y334930D01*
Y323410D01*
X367929D01*
Y334930D01*
X367929Y335252D01*
X368473Y335630D01*
X368473Y335630D01*
X401755D01*
X402065Y335002D01*
X401887Y334770D01*
X401469Y333760D01*
X401326Y332677D01*
X401469Y331594D01*
X401887Y330584D01*
X402552Y329717D01*
X403419Y329052D01*
X404428Y328634D01*
X405512Y328491D01*
X406595Y328634D01*
X407605Y329052D01*
X408472Y329717D01*
X409137Y330584D01*
X409555Y331594D01*
X409698Y332677D01*
X409555Y333760D01*
X409137Y334770D01*
X408959Y335002D01*
X409268Y335630D01*
X430118D01*
Y231299D01*
D02*
G37*
%LPC*%
G36*
X411448Y254125D02*
X403198D01*
Y245875D01*
X411448D01*
Y254125D01*
D02*
G37*
G36*
X336802Y266093D02*
X328552D01*
Y257843D01*
X336802D01*
Y259453D01*
X337502Y259827D01*
X337705Y259692D01*
X338583Y259517D01*
X339461Y259692D01*
X340205Y260189D01*
X340702Y260933D01*
X340877Y261811D01*
X340702Y262689D01*
X340205Y263433D01*
X339461Y263931D01*
X338583Y264105D01*
X337705Y263931D01*
X337502Y263795D01*
X336802Y264169D01*
Y266093D01*
D02*
G37*
G36*
X372047Y248357D02*
X371169Y248182D01*
X370425Y247685D01*
X369928Y246941D01*
X369753Y246063D01*
X369928Y245185D01*
X370425Y244441D01*
X371169Y243944D01*
X372047Y243769D01*
X372925Y243944D01*
X373669Y244441D01*
X374167Y245185D01*
X374341Y246063D01*
X374167Y246941D01*
X373669Y247685D01*
X372925Y248182D01*
X372047Y248357D01*
D02*
G37*
G36*
X354361Y242314D02*
X346111D01*
Y234064D01*
X354361D01*
Y242314D01*
D02*
G37*
G36*
X336802Y246094D02*
X328552D01*
Y237843D01*
X336802D01*
Y246094D01*
D02*
G37*
G36*
X396951Y319616D02*
X390451D01*
Y313116D01*
X392171D01*
Y304543D01*
X391126D01*
Y300181D01*
X396276D01*
Y304543D01*
X395230D01*
Y313116D01*
X396951D01*
Y319616D01*
D02*
G37*
G36*
X405512Y319550D02*
X404324Y319393D01*
X403217Y318935D01*
X402267Y318206D01*
X401537Y317255D01*
X401079Y316148D01*
X400923Y314961D01*
X401079Y313773D01*
X401537Y312666D01*
X402267Y311716D01*
X403217Y310986D01*
X404324Y310528D01*
X405512Y310371D01*
X406700Y310528D01*
X407806Y310986D01*
X408757Y311716D01*
X409486Y312666D01*
X409945Y313773D01*
X410101Y314961D01*
X409945Y316148D01*
X409486Y317255D01*
X408757Y318206D01*
X407806Y318935D01*
X406700Y319393D01*
X405512Y319550D01*
D02*
G37*
G36*
X385140Y319616D02*
X378640D01*
Y313116D01*
X380360D01*
Y304543D01*
X379315D01*
Y300181D01*
X384465D01*
Y304543D01*
X383419D01*
Y313116D01*
X385140D01*
Y319616D01*
D02*
G37*
G36*
X408087Y298244D02*
X402937D01*
Y293882D01*
X403010D01*
X403409Y293308D01*
X403389Y293182D01*
X403218Y292323D01*
X403392Y291445D01*
X403890Y290701D01*
X404634Y290203D01*
X405512Y290029D01*
X406390Y290203D01*
X407134Y290701D01*
X407631Y291445D01*
X407806Y292323D01*
X407635Y293182D01*
X407615Y293308D01*
X408014Y293882D01*
X408087D01*
Y298244D01*
D02*
G37*
G36*
X419898D02*
X414748D01*
Y293882D01*
X414821D01*
X415220Y293308D01*
X415200Y293182D01*
X415029Y292323D01*
X415203Y291445D01*
X415701Y290701D01*
X416445Y290203D01*
X417323Y290029D01*
X418201Y290203D01*
X418945Y290701D01*
X419442Y291445D01*
X419617Y292323D01*
X419446Y293182D01*
X419426Y293308D01*
X419825Y293882D01*
X419898D01*
Y298244D01*
D02*
G37*
%LPD*%
D10*
X417323Y325366D02*
D03*
Y316366D02*
D03*
X381890Y325366D02*
D03*
Y316366D02*
D03*
X393701Y325366D02*
D03*
Y316366D02*
D03*
D11*
X351772Y329823D02*
D03*
X348622D02*
D03*
X345472D02*
D03*
X342323D02*
D03*
X339173D02*
D03*
D12*
X362992Y307992D02*
D03*
X327953D02*
D03*
Y329331D02*
D03*
X362992D02*
D03*
D13*
X399606Y258858D02*
D03*
X356299Y266732D02*
D03*
D14*
X399606Y261417D02*
D03*
Y263976D02*
D03*
Y266535D02*
D03*
X386221Y258858D02*
D03*
Y261417D02*
D03*
Y263976D02*
D03*
Y266535D02*
D03*
X356299Y264173D02*
D03*
Y261614D02*
D03*
Y259055D02*
D03*
X369685Y266732D02*
D03*
Y264173D02*
D03*
Y261614D02*
D03*
Y259055D02*
D03*
D15*
X417323Y302362D02*
D03*
Y296063D02*
D03*
X381890Y282677D02*
D03*
Y276378D02*
D03*
X370079Y282677D02*
D03*
Y276378D02*
D03*
X381890Y302362D02*
D03*
Y296063D02*
D03*
X393701Y302362D02*
D03*
Y296063D02*
D03*
X371063D02*
D03*
Y302362D02*
D03*
X405512D02*
D03*
Y296063D02*
D03*
X393701Y276378D02*
D03*
Y282677D02*
D03*
X404528Y276378D02*
D03*
Y282677D02*
D03*
D16*
X366142Y220473D02*
X366142Y220472D01*
X381890Y302362D02*
Y316366D01*
X393701Y302362D02*
Y316366D01*
X399606Y308268D02*
X405512Y302362D01*
X399606Y308268D02*
Y319461D01*
X393701Y325366D02*
X399606Y319461D01*
X381890Y325366D02*
X393701D01*
X375421D02*
X381890D01*
X374016Y326772D02*
X375421Y325366D01*
X345472Y299213D02*
Y329823D01*
X342323D02*
X342520Y329626D01*
Y319882D02*
Y329626D01*
X339567Y322835D02*
Y329429D01*
X339173Y329823D02*
X339567Y329429D01*
X351378Y329429D02*
X351772Y329823D01*
X351378Y319882D02*
Y329429D01*
X381890Y292323D02*
Y296063D01*
X381890Y292323D02*
X381890Y292323D01*
X417323Y302362D02*
Y316366D01*
X376969Y288386D02*
X386024D01*
X393701Y296063D01*
X417323D02*
X417323Y296063D01*
X369685Y266732D02*
X374016D01*
X369685Y266732D02*
X369685Y266732D01*
X381890Y258858D02*
X386221D01*
X386024Y266732D02*
X386221Y266535D01*
X369685Y261614D02*
X372835D01*
X377953Y266732D01*
X386024D01*
X369882Y258858D02*
X373031D01*
X378150Y263976D01*
X386221D01*
X366142Y220472D02*
Y226378D01*
X379528Y261417D02*
X386221D01*
Y258858D02*
X391732D01*
X399606Y279528D02*
X402756Y282677D01*
X404528D01*
X405512Y292323D02*
Y296063D01*
Y292323D02*
X405512Y292323D01*
X417323Y292323D02*
Y296063D01*
Y292323D02*
X417323Y292323D01*
X399606Y261417D02*
Y263976D01*
X362598Y264173D02*
X370079Y271654D01*
X356299Y264173D02*
X362598D01*
X356299Y261614D02*
Y264173D01*
X354528Y259055D02*
X356299D01*
X352362Y256890D02*
X354528Y259055D01*
X367957Y264173D02*
X369685D01*
X364611Y260827D02*
X367957Y264173D01*
X352362Y266732D02*
X356299D01*
X352362Y266732D02*
X352362Y266732D01*
X412402Y320866D02*
X416902Y325366D01*
X412402Y284252D02*
Y320866D01*
X404528Y276378D02*
X412402Y284252D01*
X390551Y279528D02*
X393701Y276378D01*
X365158Y274606D02*
Y277559D01*
X367126Y279528D01*
X390551D01*
X389764Y286614D02*
X393701Y282677D01*
X381890Y274606D02*
Y276378D01*
X378937Y271654D02*
X381890Y274606D01*
X370079Y276378D02*
X377953Y268504D01*
Y266732D02*
Y268504D01*
X369685Y259055D02*
X369882Y258858D01*
X381890Y276378D02*
X387992D01*
X390748Y273622D01*
X400591D01*
X403543Y270669D01*
Y265748D02*
Y270669D01*
X401772Y263976D02*
X403543Y265748D01*
X399606Y263976D02*
X401772D01*
X386221D02*
X394882D01*
X391732Y258858D02*
X391732Y258858D01*
X386221Y261417D02*
X386411Y261608D01*
X396653Y258858D02*
X399606D01*
X386411Y261608D02*
X393903D01*
X396653Y258858D01*
X391732Y258858D02*
Y258858D01*
X394684Y264174D02*
X394882Y263976D01*
X394684Y264174D02*
Y264763D01*
X399606Y266535D02*
Y268701D01*
X400591Y269685D01*
X371063Y302362D02*
Y305118D01*
X370079Y306102D02*
X371063Y305118D01*
X352559Y261614D02*
X356299D01*
X352362Y261811D02*
X352559Y261614D01*
X332835Y261811D02*
X338583D01*
X332677Y261969D02*
X332835Y261811D01*
X362205Y238189D02*
X365158Y235236D01*
X379724D01*
X367126Y249016D02*
X379528Y261417D01*
X367126Y238189D02*
Y249016D01*
D17*
X370275Y296063D02*
X371063D01*
X367126Y299213D02*
X370275Y296063D01*
X344488Y276575D02*
X367126Y299213D01*
X331693Y276575D02*
X344488D01*
X324803Y269685D02*
X331693Y276575D01*
X324803Y254921D02*
Y269685D01*
Y254921D02*
X327756Y251969D01*
X332677D01*
X371063Y296063D02*
X371850D01*
X375000Y299213D01*
X417323Y250000D02*
Y263583D01*
X404528Y276378D02*
X417323Y263583D01*
X416902Y325366D02*
X417323D01*
X415354Y250000D02*
X417323D01*
X415354Y248031D02*
Y250000D01*
X421260Y220472D02*
Y227362D01*
X417323Y231299D02*
X421260Y227362D01*
X334646Y227362D02*
X338583Y231299D01*
X334646Y220472D02*
Y227362D01*
X338583Y231299D02*
X417323D01*
D18*
X407323Y250000D02*
D03*
X417323D02*
D03*
X427323D02*
D03*
X350236Y238189D02*
D03*
X360236D02*
D03*
D19*
X440945Y283465D02*
D03*
X314961D02*
D03*
D20*
X377953Y346457D02*
D03*
Y220472D02*
D03*
D21*
X421260D02*
D03*
X334646D02*
D03*
D22*
X342520Y222441D02*
D03*
X350394D02*
D03*
X358268D02*
D03*
X366142D02*
D03*
X389764D02*
D03*
X397638D02*
D03*
X405512D02*
D03*
X413386D02*
D03*
D23*
X332677Y241968D02*
D03*
Y251969D02*
D03*
Y261968D02*
D03*
D24*
X374016Y326772D02*
D03*
X342520Y319882D02*
D03*
X339567Y322835D02*
D03*
X345472Y299213D02*
D03*
X351378Y319882D02*
D03*
X381890Y292323D02*
D03*
X375000Y299213D02*
D03*
X376969Y288386D02*
D03*
X374016Y266732D02*
D03*
X380906Y257874D02*
D03*
X399606Y279528D02*
D03*
X417323Y292323D02*
D03*
X405512Y292323D02*
D03*
X352362Y256890D02*
D03*
Y266732D02*
D03*
X364611Y260827D02*
D03*
X373031Y291339D02*
D03*
X366339Y293307D02*
D03*
X365158Y274606D02*
D03*
X389764Y286614D02*
D03*
Y243110D02*
D03*
X370079Y271654D02*
D03*
X378937D02*
D03*
X377953Y266732D02*
D03*
X391732Y258858D02*
D03*
X394684Y264763D02*
D03*
X400591Y269685D02*
D03*
X370079Y306102D02*
D03*
X379724Y235236D02*
D03*
X372047Y246063D02*
D03*
X352362Y261811D02*
D03*
X338583D02*
D03*
X367126Y238189D02*
D03*
M02*
