%FSLAX25Y25*%
%MOIN*%
G70*
G01*
G75*
G04 Layer_Physical_Order=2*
G04 Layer_Color=16711680*
%ADD10R,0.04500X0.04500*%
%ADD11R,0.01969X0.08858*%
%ADD12R,0.07874X0.09843*%
G04:AMPARAMS|DCode=13|XSize=31.5mil|YSize=11.81mil|CornerRadius=0mil|HoleSize=0mil|Usage=FLASHONLY|Rotation=180.000|XOffset=0mil|YOffset=0mil|HoleType=Round|Shape=Octagon|*
%AMOCTAGOND13*
4,1,8,-0.01575,0.00295,-0.01575,-0.00295,-0.01280,-0.00591,0.01280,-0.00591,0.01575,-0.00295,0.01575,0.00295,0.01280,0.00591,-0.01280,0.00591,-0.01575,0.00295,0.0*
%
%ADD13OCTAGOND13*%

%ADD14R,0.03150X0.01181*%
%ADD15R,0.03150X0.02362*%
%ADD16C,0.01000*%
%ADD17C,0.02000*%
%ADD18R,0.06250X0.06250*%
%ADD19R,0.15748X0.11811*%
%ADD20R,0.11811X0.15748*%
%ADD21R,0.03937X0.15748*%
%ADD22R,0.03937X0.11811*%
%ADD23R,0.06250X0.06250*%
%ADD24C,0.02500*%
%ADD25R,0.11024X0.09449*%
%ADD26R,0.03500X0.03100*%
G04:AMPARAMS|DCode=27|XSize=59.06mil|YSize=12.8mil|CornerRadius=0mil|HoleSize=0mil|Usage=FLASHONLY|Rotation=90.000|XOffset=0mil|YOffset=0mil|HoleType=Round|Shape=Octagon|*
%AMOCTAGOND27*
4,1,8,0.00320,0.02953,-0.00320,0.02953,-0.00640,0.02633,-0.00640,-0.02633,-0.00320,-0.02953,0.00320,-0.02953,0.00640,-0.02633,0.00640,0.02633,0.00320,0.02953,0.0*
%
%ADD27OCTAGOND27*%

%ADD28R,0.01280X0.05906*%
%ADD29R,0.02362X0.03150*%
G36*
X377346Y326953D02*
X381819D01*
Y314386D01*
X377346D01*
Y305033D01*
X373263Y300950D01*
X372821Y300288D01*
X372666Y299508D01*
X372715Y299259D01*
X372706Y299213D01*
X372881Y298335D01*
X373378Y297590D01*
X374122Y297093D01*
X375000Y296919D01*
X375878Y297093D01*
X376622Y297590D01*
X377119Y298335D01*
X377294Y299213D01*
X377294Y299213D01*
X381018Y302937D01*
X386699D01*
X403473Y286163D01*
Y282078D01*
X402762D01*
Y276978D01*
X408262D01*
Y282078D01*
X407551D01*
Y287008D01*
X407396Y287788D01*
X406954Y288450D01*
X390370Y305033D01*
Y314386D01*
X385897D01*
Y326953D01*
X390370D01*
Y336614D01*
X402676D01*
X402913Y335914D01*
X402552Y335637D01*
X401887Y334770D01*
X401469Y333761D01*
X401326Y332677D01*
X401469Y331594D01*
X401887Y330584D01*
X402552Y329717D01*
X403419Y329052D01*
X404428Y328634D01*
X405512Y328491D01*
X406595Y328634D01*
X407605Y329052D01*
X408472Y329717D01*
X409137Y330584D01*
X409555Y331594D01*
X409698Y332677D01*
X409555Y333761D01*
X409137Y334770D01*
X408472Y335637D01*
X408110Y335914D01*
X408348Y336614D01*
X427165D01*
X429134Y334646D01*
Y314386D01*
X420654D01*
Y302937D01*
X429134D01*
Y289370D01*
X432071D01*
Y277559D01*
X430118D01*
Y254125D01*
X423198D01*
Y245875D01*
X430118D01*
Y231299D01*
X423299D01*
Y236221D01*
X423299Y236221D01*
X423144Y237001D01*
X422702Y237662D01*
X419362Y241002D01*
Y245875D01*
X421448D01*
Y254125D01*
X413198D01*
Y245875D01*
X415284D01*
Y240158D01*
X415439Y239377D01*
X415881Y238716D01*
X419221Y235376D01*
Y231299D01*
X412596D01*
X397199Y246696D01*
Y248725D01*
X397309Y248836D01*
Y255101D01*
X397199Y255212D01*
Y263778D01*
X397082Y264364D01*
X396941Y264575D01*
X396978Y264763D01*
X396804Y265641D01*
X396306Y266385D01*
X395562Y266883D01*
X394684Y267057D01*
X393962Y266914D01*
X393262Y267297D01*
Y269052D01*
X400688Y276478D01*
X401019Y276974D01*
X401136Y277559D01*
Y277843D01*
X401229Y277905D01*
X401726Y278650D01*
X401900Y279528D01*
X401726Y280405D01*
X401229Y281150D01*
X400484Y281647D01*
X399606Y281822D01*
X398728Y281647D01*
X398009Y281166D01*
X397860Y281195D01*
X397309Y281399D01*
Y284662D01*
X391471D01*
Y276756D01*
X395726D01*
X395994Y276109D01*
X390651Y270766D01*
X390319Y270270D01*
X390203Y269685D01*
Y260542D01*
X390110Y260480D01*
X389613Y259736D01*
X389525Y259297D01*
X388766Y259066D01*
X380018Y267814D01*
X379870Y267913D01*
X379575Y268354D01*
X379093Y268677D01*
X379240Y269420D01*
X379815Y269534D01*
X380559Y270031D01*
X381056Y270776D01*
X381231Y271654D01*
X381056Y272531D01*
X380559Y273276D01*
X379815Y273773D01*
X378937Y273948D01*
X378059Y273773D01*
X377315Y273276D01*
X377253Y273183D01*
X371763D01*
X371701Y273276D01*
X370957Y273773D01*
X370079Y273948D01*
X369201Y273773D01*
X368457Y273276D01*
X367959Y272531D01*
X367785Y271654D01*
X367959Y270776D01*
X368457Y270031D01*
X369201Y269534D01*
X370079Y269359D01*
X370957Y269534D01*
X371701Y270031D01*
X371763Y270124D01*
X377253D01*
X377315Y270031D01*
X377797Y269709D01*
X377649Y268966D01*
X377075Y268852D01*
X376331Y268354D01*
X375638D01*
X374894Y268852D01*
X374016Y269026D01*
X373138Y268852D01*
X372394Y268354D01*
X371896Y267610D01*
X371722Y266732D01*
X371896Y265854D01*
X372394Y265110D01*
X373138Y264613D01*
X374016Y264438D01*
X374125Y264460D01*
X379205Y259380D01*
X378786Y258752D01*
X378699Y258313D01*
X377939Y258082D01*
X364240Y271781D01*
X364585Y272426D01*
X365158Y272312D01*
X366035Y272487D01*
X366780Y272984D01*
X367277Y273728D01*
X367452Y274606D01*
X367430Y274716D01*
X368601Y275887D01*
X368933Y276383D01*
X369007Y276756D01*
X369160D01*
Y284662D01*
X360762D01*
Y276756D01*
X363110D01*
X363204Y276640D01*
X363420Y276056D01*
X363038Y275484D01*
X362863Y274606D01*
X362977Y274034D01*
X362332Y273689D01*
X351923Y284098D01*
Y290929D01*
X352969D01*
Y295291D01*
X347819D01*
Y290929D01*
X348864D01*
Y284533D01*
X348218Y284265D01*
X345969Y286514D01*
X345472Y286846D01*
X344887Y286963D01*
X334295D01*
X332238Y289019D01*
Y307661D01*
X333283D01*
Y312024D01*
X328134D01*
Y307661D01*
X329179D01*
Y288386D01*
X329296Y287801D01*
X329627Y287304D01*
X332580Y284352D01*
X333076Y284020D01*
X333661Y283904D01*
X344253D01*
X359300Y268857D01*
X358955Y268212D01*
X358705Y268262D01*
X354046D01*
X353984Y268354D01*
X353240Y268852D01*
X352362Y269026D01*
X351484Y268852D01*
X350740Y268354D01*
X350243Y267610D01*
X350068Y266732D01*
X350243Y265854D01*
X350740Y265110D01*
X351448Y264637D01*
X351484Y264369D01*
Y264174D01*
X351448Y263906D01*
X350740Y263433D01*
X350678Y263340D01*
X340267D01*
X340205Y263433D01*
X339461Y263931D01*
X338583Y264105D01*
X337705Y263931D01*
X337502Y263795D01*
X336802Y264169D01*
Y266094D01*
X328552D01*
Y257844D01*
X336802D01*
Y259453D01*
X337502Y259827D01*
X337705Y259692D01*
X338583Y259517D01*
X339461Y259692D01*
X340205Y260189D01*
X340267Y260282D01*
X350678D01*
X350740Y260189D01*
X351484Y259692D01*
X352362Y259517D01*
X353240Y259692D01*
X353984Y260189D01*
X354482Y260933D01*
X354656Y261811D01*
X354482Y262689D01*
X353984Y263433D01*
X353276Y263906D01*
X353240Y264174D01*
Y264369D01*
X353276Y264637D01*
X353984Y265110D01*
X354046Y265203D01*
X358072D01*
X362339Y260936D01*
X362317Y260827D01*
X362492Y259949D01*
X362989Y259205D01*
X363431Y258909D01*
Y255921D01*
X360762D01*
Y248016D01*
X365990D01*
Y247638D01*
X366107Y247053D01*
X366438Y246556D01*
X368013Y244982D01*
X368509Y244650D01*
X369094Y244534D01*
X370363D01*
X370425Y244441D01*
X371169Y243944D01*
X372047Y243769D01*
X372925Y243944D01*
X373669Y244441D01*
X374167Y245185D01*
X374341Y246063D01*
X374167Y246941D01*
X373916Y247316D01*
X374290Y248016D01*
X379396D01*
Y255335D01*
X379975Y255719D01*
X380096Y255741D01*
X380906Y255580D01*
X381234Y255310D01*
Y248016D01*
X385611D01*
X385901Y247316D01*
X384745Y246160D01*
X384414Y245664D01*
X384297Y245079D01*
Y240764D01*
X380496D01*
Y238171D01*
X379834Y237509D01*
X379724Y237530D01*
X378846Y237356D01*
X378102Y236858D01*
X377605Y236114D01*
X377430Y235236D01*
X377605Y234358D01*
X378102Y233614D01*
X378846Y233117D01*
X379724Y232942D01*
X380602Y233117D01*
X381347Y233614D01*
X381844Y234358D01*
X382018Y235236D01*
X382595Y235614D01*
X384428D01*
X384745Y235139D01*
X387938Y231946D01*
X387671Y231299D01*
X383858D01*
Y227362D01*
X372047D01*
Y231299D01*
X368655D01*
Y236505D01*
X368748Y236567D01*
X369245Y237311D01*
X369420Y238189D01*
X369245Y239067D01*
X368748Y239811D01*
X368004Y240308D01*
X367126Y240483D01*
X366248Y240308D01*
X365504Y239811D01*
X365209Y239370D01*
X365060Y239270D01*
X364361Y239484D01*
Y242314D01*
X356111D01*
Y234064D01*
X364361D01*
Y236894D01*
X365057Y237107D01*
X365061Y237107D01*
X365308Y236860D01*
X365504Y236567D01*
X365597Y236505D01*
Y231299D01*
X348392D01*
X348125Y231946D01*
X350243Y234064D01*
X354361D01*
Y242314D01*
X346111D01*
Y234258D01*
X343152Y231299D01*
X325787D01*
Y277559D01*
X323835D01*
Y289370D01*
X325787D01*
Y336614D01*
X372047D01*
Y337583D01*
X377346D01*
Y326953D01*
D02*
G37*
%LPC*%
G36*
X376836Y284662D02*
X370998D01*
Y276756D01*
X376836D01*
Y284662D01*
D02*
G37*
G36*
X336802Y256094D02*
X328552D01*
Y247844D01*
X336802D01*
Y256094D01*
D02*
G37*
G36*
X416162Y278378D02*
X410662D01*
Y273278D01*
X412134D01*
Y266354D01*
X411992D01*
Y264482D01*
X406038Y258528D01*
X405596Y257867D01*
X405441Y257087D01*
Y254125D01*
X403198D01*
Y245875D01*
X411448D01*
Y254125D01*
X409519D01*
Y256242D01*
X414482Y261205D01*
X416354D01*
Y266354D01*
X416213D01*
Y275066D01*
X416213Y275066D01*
X416162Y275321D01*
Y278378D01*
D02*
G37*
G36*
X363205Y329346D02*
X358842D01*
Y328301D01*
X357480D01*
X356895Y328185D01*
X356399Y327853D01*
X352910Y324364D01*
X341251D01*
X341189Y324457D01*
X340445Y324954D01*
X339567Y325129D01*
X338689Y324954D01*
X337945Y324457D01*
X337448Y323713D01*
X337273Y322835D01*
X337448Y321957D01*
X337945Y321213D01*
X338689Y320715D01*
X339567Y320541D01*
X339771Y320581D01*
X340266Y320086D01*
X340226Y319882D01*
X340396Y319023D01*
X340400Y319003D01*
X340014Y318323D01*
X337976D01*
Y317671D01*
X333283D01*
Y318323D01*
X328134D01*
Y313961D01*
X333283D01*
Y314612D01*
X337976D01*
Y313961D01*
X343126D01*
Y316554D01*
X343601Y317029D01*
X343933Y317525D01*
X344049Y318110D01*
Y318198D01*
X344142Y318260D01*
X344639Y319004D01*
X344814Y319882D01*
X344670Y320605D01*
X345053Y321305D01*
X352910D01*
X357661Y316554D01*
Y313961D01*
X362811D01*
Y318323D01*
X360218D01*
X355706Y322835D01*
X358114Y325242D01*
X358842D01*
Y324197D01*
X363205D01*
Y329346D01*
D02*
G37*
G36*
X369504D02*
X365142D01*
Y324197D01*
X365284D01*
Y318898D01*
X365439Y318117D01*
X365881Y317456D01*
X366801Y316535D01*
X363716Y313450D01*
X363274Y312788D01*
X363118Y312008D01*
Y303994D01*
X360715Y301590D01*
X357662D01*
Y297228D01*
X359534D01*
X364191Y292571D01*
X364219Y292429D01*
X364717Y291685D01*
X365461Y291188D01*
X365602Y291160D01*
X366272Y290490D01*
X366668Y289897D01*
X367330Y289455D01*
X368110Y289299D01*
X372034D01*
X372154Y289219D01*
X373031Y289044D01*
X373909Y289219D01*
X374160Y289386D01*
X374790Y288965D01*
X374674Y288386D01*
X374849Y287508D01*
X375346Y286764D01*
X376091Y286266D01*
X376969Y286092D01*
X377078Y286114D01*
X378675Y284516D01*
Y276756D01*
X387073D01*
Y284662D01*
X384403D01*
Y291339D01*
X384287Y291924D01*
X384146Y292134D01*
X384184Y292323D01*
X384009Y293201D01*
X383512Y293945D01*
X382768Y294442D01*
X381890Y294617D01*
X381012Y294442D01*
X380268Y293945D01*
X379770Y293201D01*
X379596Y292323D01*
X379770Y291445D01*
X380268Y290701D01*
X381012Y290203D01*
X381345Y290137D01*
Y287087D01*
X380698Y286819D01*
X379241Y288276D01*
X379263Y288386D01*
X379088Y289264D01*
X378591Y290008D01*
X377846Y290505D01*
X376969Y290680D01*
X376091Y290505D01*
X375840Y290338D01*
X375210Y290759D01*
X375326Y291339D01*
X375151Y292216D01*
X374654Y292961D01*
X373909Y293458D01*
X373031Y293633D01*
X372154Y293458D01*
X372034Y293378D01*
X369152D01*
X368486Y294043D01*
X368458Y294185D01*
X367961Y294929D01*
X367217Y295427D01*
X367075Y295455D01*
X363711Y298819D01*
X366599Y301708D01*
X366599Y301708D01*
X366864Y302104D01*
X367041Y302369D01*
X367197Y303150D01*
Y305470D01*
X367897Y305539D01*
X367959Y305224D01*
X368457Y304480D01*
X369201Y303983D01*
X370079Y303808D01*
X370957Y303983D01*
X371701Y304480D01*
X372198Y305224D01*
X372373Y306102D01*
X372198Y306980D01*
X371701Y307724D01*
X370957Y308222D01*
X370079Y308396D01*
X369201Y308222D01*
X368457Y307724D01*
X367959Y306980D01*
X367897Y306665D01*
X367197Y306734D01*
Y311163D01*
X369994Y313961D01*
X372654D01*
Y318323D01*
X370781D01*
X369362Y319742D01*
Y324197D01*
X369504D01*
Y325242D01*
X372332D01*
X372394Y325149D01*
X373138Y324652D01*
X374016Y324478D01*
X374894Y324652D01*
X375638Y325149D01*
X376135Y325894D01*
X376310Y326772D01*
X376135Y327650D01*
X375638Y328394D01*
X374894Y328891D01*
X374016Y329066D01*
X373138Y328891D01*
X372394Y328394D01*
X372332Y328301D01*
X369504D01*
Y329346D01*
D02*
G37*
G36*
X343126Y301591D02*
X337977D01*
Y297228D01*
X343126D01*
Y297414D01*
X343826Y297627D01*
X343850Y297590D01*
X344594Y297093D01*
X345472Y296919D01*
X346350Y297093D01*
X347094Y297590D01*
X347119Y297627D01*
X347819Y297415D01*
Y297228D01*
X352969D01*
Y301591D01*
X347819D01*
Y300939D01*
X346939D01*
X346350Y301332D01*
X345472Y301507D01*
X344594Y301332D01*
X344006Y300939D01*
X343126D01*
Y301591D01*
D02*
G37*
G36*
X405512Y319550D02*
X404324Y319393D01*
X403217Y318935D01*
X402267Y318206D01*
X401537Y317255D01*
X401079Y316148D01*
X400922Y314961D01*
X401079Y313773D01*
X401537Y312666D01*
X402267Y311716D01*
X403217Y310986D01*
X404324Y310528D01*
X405512Y310371D01*
X406700Y310528D01*
X407806Y310986D01*
X408757Y311716D01*
X409486Y312666D01*
X409945Y313773D01*
X410101Y314961D01*
X409945Y316148D01*
X409486Y317255D01*
X408757Y318206D01*
X407806Y318935D01*
X406700Y319393D01*
X405512Y319550D01*
D02*
G37*
%LPD*%
D15*
X350394Y299410D02*
D03*
Y293110D02*
D03*
X330709Y316142D02*
D03*
Y309842D02*
D03*
X340551Y299410D02*
D03*
Y293110D02*
D03*
Y316142D02*
D03*
Y309842D02*
D03*
X360236Y299410D02*
D03*
Y293110D02*
D03*
X370079Y316142D02*
D03*
Y309842D02*
D03*
X360236Y316142D02*
D03*
Y309842D02*
D03*
D16*
X413386Y220472D02*
Y228346D01*
X395669Y246063D02*
X413386Y228346D01*
X395669Y246063D02*
Y251969D01*
X395669Y251969D01*
X389764Y232283D02*
X401575D01*
X405512Y228346D01*
Y220472D02*
Y228346D01*
X340551Y316142D02*
X340551Y316142D01*
X330709Y316142D02*
X340551D01*
X342520Y318110D02*
Y319882D01*
X340551Y316142D02*
X342520Y318110D01*
X340551Y322835D02*
X353543D01*
X360236Y316142D01*
X340551Y299410D02*
X340551Y299410D01*
X350394D01*
X330709Y309842D02*
X330709Y309842D01*
Y288386D02*
Y309842D01*
X360236Y309842D02*
X360236Y309843D01*
X357480Y326772D02*
X361024D01*
X353543Y322835D02*
X357480Y326772D01*
X367323Y326772D02*
X374016D01*
X381890Y292323D02*
X382874Y291339D01*
Y280709D02*
Y291339D01*
X380315Y280709D02*
Y285039D01*
X376969Y288386D02*
X380315Y285039D01*
X377756Y251969D02*
Y256102D01*
X374016Y266732D02*
X381890Y258858D01*
X399606Y277559D02*
Y279528D01*
X350394Y283465D02*
Y293110D01*
X330709Y288386D02*
X333661Y285433D01*
X344887D01*
X375197Y251969D02*
Y255123D01*
X352362Y266732D02*
X358705D01*
X364611Y260827D01*
X364961Y260477D01*
Y251969D02*
Y260477D01*
X344887Y285433D02*
X375197Y255123D01*
X350394Y283465D02*
X377756Y256102D01*
X365158Y274606D02*
X367520Y276969D01*
Y280709D01*
X385827Y236221D02*
X389764Y232283D01*
X385827Y236221D02*
Y245079D01*
X387992Y247244D01*
Y251969D01*
X390551Y243898D02*
Y251969D01*
X389764Y243110D02*
X390551Y243898D01*
X370079Y271654D02*
X378937D01*
X389862Y237106D02*
Y238287D01*
X393110Y241535D01*
Y251969D01*
X377953Y266732D02*
X378937D01*
X391732Y269685D02*
X399606Y277559D01*
X378937Y266732D02*
X387992Y257677D01*
Y251969D02*
Y257677D01*
X391732Y258858D02*
Y269685D01*
X395669Y253937D02*
Y263778D01*
X394684Y264763D02*
X395669Y263778D01*
X342520Y228504D02*
X352205Y238189D01*
X342520Y220472D02*
Y228504D01*
X379724Y235236D02*
X382677Y238189D01*
X366142Y220472D02*
X367126Y221457D01*
Y237205D01*
X366142Y238189D02*
X367126Y237205D01*
X367520Y247638D02*
Y251969D01*
Y247638D02*
X369094Y246063D01*
X372047D01*
X338583Y261811D02*
X352362D01*
D17*
X421260Y220472D02*
Y236221D01*
X417323Y240158D02*
X421260Y236221D01*
X417323Y240158D02*
Y250000D01*
X417323Y250000D01*
X407323D02*
X407480Y250157D01*
Y257087D01*
X414173Y263780D01*
Y275066D01*
X413412Y275828D02*
X414173Y275066D01*
X383858Y308661D02*
Y332677D01*
X367323Y318898D02*
Y326772D01*
Y318898D02*
X370079Y316142D01*
X369291D02*
X370079D01*
X365158Y312008D02*
X369291Y316142D01*
X365158Y303150D02*
Y312008D01*
X361417Y299410D02*
X365158Y303150D01*
X360236Y299410D02*
X361417D01*
X368110Y291339D02*
X368307D01*
X373031D01*
X360236Y299410D02*
X366339Y293307D01*
X368307Y291339D01*
X405512Y279528D02*
Y287008D01*
X383858Y308661D02*
X405512Y287008D01*
X374705Y299508D02*
X383858Y308661D01*
D18*
X407323Y250000D02*
D03*
X417323D02*
D03*
X427323D02*
D03*
X350236Y238189D02*
D03*
X360236D02*
D03*
D19*
X440945Y283465D02*
D03*
X314961D02*
D03*
D20*
X377953Y346457D02*
D03*
Y220472D02*
D03*
D21*
X421260D02*
D03*
X334646D02*
D03*
D22*
X342520Y222441D02*
D03*
X350394D02*
D03*
X358268D02*
D03*
X366142D02*
D03*
X389764D02*
D03*
X397638D02*
D03*
X405512D02*
D03*
X413386D02*
D03*
D23*
X332677Y241968D02*
D03*
Y251969D02*
D03*
Y261968D02*
D03*
D24*
X374016Y326772D02*
D03*
X342520Y319882D02*
D03*
X339567Y322835D02*
D03*
X345472Y299213D02*
D03*
X351378Y319882D02*
D03*
X381890Y292323D02*
D03*
X375000Y299213D02*
D03*
X376969Y288386D02*
D03*
X374016Y266732D02*
D03*
X380906Y257874D02*
D03*
X399606Y279528D02*
D03*
X417323Y292323D02*
D03*
X405512Y292323D02*
D03*
X352362Y256890D02*
D03*
Y266732D02*
D03*
X364611Y260827D02*
D03*
X373031Y291339D02*
D03*
X366339Y293307D02*
D03*
X365158Y274606D02*
D03*
X389764Y286614D02*
D03*
Y243110D02*
D03*
X370079Y271654D02*
D03*
X378937D02*
D03*
X377953Y266732D02*
D03*
X391732Y258858D02*
D03*
X394684Y264763D02*
D03*
X400591Y269685D02*
D03*
X370079Y306102D02*
D03*
X379724Y235236D02*
D03*
X372047Y246063D02*
D03*
X352362Y261811D02*
D03*
X338583D02*
D03*
X367126Y238189D02*
D03*
D25*
X383858Y332677D02*
D03*
X427165D02*
D03*
Y308661D02*
D03*
X383858D02*
D03*
D26*
X413412Y283228D02*
D03*
Y275828D02*
D03*
X405512Y279528D02*
D03*
D27*
X395669Y251969D02*
D03*
D28*
X393110D02*
D03*
X390551D02*
D03*
X387992D02*
D03*
X385433D02*
D03*
X382874D02*
D03*
X380315D02*
D03*
X377756D02*
D03*
X375197D02*
D03*
X372638D02*
D03*
X370079D02*
D03*
X367520D02*
D03*
X364961D02*
D03*
X362402D02*
D03*
X395669Y280709D02*
D03*
X393110D02*
D03*
X390551D02*
D03*
X387992D02*
D03*
X385433D02*
D03*
X382874D02*
D03*
X380315D02*
D03*
X377756D02*
D03*
X375197D02*
D03*
X372638D02*
D03*
X370079D02*
D03*
X367520D02*
D03*
X364961D02*
D03*
X362402D02*
D03*
D29*
X361024Y326772D02*
D03*
X367323D02*
D03*
X420472Y263779D02*
D03*
X414173D02*
D03*
X388976Y238189D02*
D03*
X382677D02*
D03*
M02*
