M48
;Layer_Color=9474304
;FILE_FORMAT=2:4
INCH,LZ
;TYPE=PLATED
T1F00S00C0.0150
T2F00S00C0.0315
T3F00S00C0.0886
;TYPE=NON_PLATED
T4F00S00C0.0394
T5F00S00C0.0630
T6F00S00C0.0710
T7F00S00C0.0886
%
T01
X033858Y026181
X035236
Y025689
Y026673
X036461Y026083
X036516Y027461
X037008Y027165
X037402Y026673
X037795
X037894Y027165
X038091Y025787
X039173Y025886
X039468Y026476
X040059Y026969
X039961Y027953
X038976Y028661
X038189Y029232
X037697Y028839
X037303Y029134
X036634Y029331
X0375Y029921
X037008Y03061
X034547Y029921
X040551Y029232
X041732Y029232
X038976Y024311
X037972Y023524
X036713Y023819
X037205Y024606
X037402Y032677
X035138Y031988
X034252
X033957Y032283
T02
X033465Y022047
X034252
X035039
X035827
X036614
X038976
X039764
X040551
X041339
X042126
T03
X031496Y028346
X037795Y022047
X044094Y028346
X037795Y034646
T04
X033268Y024197
Y025197
Y026197
X035024Y023819
X036024
X040732Y025
X041732
X042732
T05
X040551Y033268
T06
X040551Y031496
T07
X031506Y022047
X044094
Y034646
X031496
M30
