%FSLAX25Y25*%
%MOIN*%
G70*
G01*
G75*
G04 Layer_Color=128*
%ADD10R,0.04500X0.04500*%
%ADD11R,0.01969X0.08858*%
%ADD12R,0.07874X0.09843*%
G04:AMPARAMS|DCode=13|XSize=31.5mil|YSize=11.81mil|CornerRadius=0mil|HoleSize=0mil|Usage=FLASHONLY|Rotation=180.000|XOffset=0mil|YOffset=0mil|HoleType=Round|Shape=Octagon|*
%AMOCTAGOND13*
4,1,8,-0.01575,0.00295,-0.01575,-0.00295,-0.01280,-0.00591,0.01280,-0.00591,0.01575,-0.00295,0.01575,0.00295,0.01280,0.00591,-0.01280,0.00591,-0.01575,0.00295,0.0*
%
%ADD13OCTAGOND13*%

%ADD14R,0.03150X0.01181*%
%ADD15R,0.03150X0.02362*%
%ADD16C,0.01000*%
%ADD17C,0.02000*%
%ADD18R,0.06250X0.06250*%
%ADD19R,0.15748X0.11811*%
%ADD20R,0.11811X0.15748*%
%ADD21R,0.03937X0.15748*%
%ADD22R,0.03937X0.11811*%
%ADD23R,0.06250X0.06250*%
%ADD24C,0.02500*%
%ADD25R,0.11024X0.09449*%
%ADD26R,0.03500X0.03100*%
G04:AMPARAMS|DCode=27|XSize=59.06mil|YSize=12.8mil|CornerRadius=0mil|HoleSize=0mil|Usage=FLASHONLY|Rotation=90.000|XOffset=0mil|YOffset=0mil|HoleType=Round|Shape=Octagon|*
%AMOCTAGOND27*
4,1,8,0.00320,0.02953,-0.00320,0.02953,-0.00640,0.02633,-0.00640,-0.02633,-0.00320,-0.02953,0.00320,-0.02953,0.00640,-0.02633,0.00640,0.02633,0.00320,0.02953,0.0*
%
%ADD27OCTAGOND27*%

%ADD28R,0.01280X0.05906*%
%ADD29R,0.02362X0.03150*%
%ADD30C,0.00600*%
%ADD31C,0.00750*%
%ADD32R,0.15748X1.25984*%
%ADD33R,1.41732X0.15748*%
%ADD34R,0.15748X1.25984*%
%ADD35R,1.10236X0.15748*%
%ADD36R,0.05300X0.05300*%
%ADD37R,0.02769X0.09658*%
%ADD38R,0.08674X0.10642*%
G04:AMPARAMS|DCode=39|XSize=39.5mil|YSize=19.81mil|CornerRadius=0mil|HoleSize=0mil|Usage=FLASHONLY|Rotation=180.000|XOffset=0mil|YOffset=0mil|HoleType=Round|Shape=Octagon|*
%AMOCTAGOND39*
4,1,8,-0.01975,0.00495,-0.01975,-0.00495,-0.01480,-0.00991,0.01480,-0.00991,0.01975,-0.00495,0.01975,0.00495,0.01480,0.00991,-0.01480,0.00991,-0.01975,0.00495,0.0*
%
%ADD39OCTAGOND39*%

%ADD40R,0.03950X0.01981*%
%ADD41R,0.03950X0.03162*%
%ADD42R,0.07050X0.07050*%
%ADD43R,0.00800X0.00800*%
%ADD44R,0.16548X0.12611*%
%ADD45R,0.12611X0.16548*%
%ADD46R,0.04737X0.16548*%
%ADD47R,0.04737X0.12611*%
%ADD48R,0.07050X0.07050*%
%ADD49C,0.03300*%
%ADD50R,1.25984X0.15748*%
%ADD51R,0.15748X1.10236*%
%ADD52R,0.11824X0.10249*%
%ADD53R,0.04300X0.03900*%
G04:AMPARAMS|DCode=54|XSize=67.06mil|YSize=20.8mil|CornerRadius=0mil|HoleSize=0mil|Usage=FLASHONLY|Rotation=90.000|XOffset=0mil|YOffset=0mil|HoleType=Round|Shape=Octagon|*
%AMOCTAGOND54*
4,1,8,0.00520,0.03353,-0.00520,0.03353,-0.01040,0.02833,-0.01040,-0.02833,-0.00520,-0.03353,0.00520,-0.03353,0.01040,-0.02833,0.01040,0.02833,0.00520,0.03353,0.0*
%
%ADD54OCTAGOND54*%

%ADD55R,0.02080X0.06706*%
%ADD56R,0.03162X0.03950*%
D15*
X350394Y299410D02*
D03*
Y293110D02*
D03*
X330709Y316142D02*
D03*
Y309842D02*
D03*
X340551Y299410D02*
D03*
Y293110D02*
D03*
Y316142D02*
D03*
Y309842D02*
D03*
X360236Y299410D02*
D03*
Y293110D02*
D03*
X370079Y316142D02*
D03*
Y309842D02*
D03*
X360236Y316142D02*
D03*
Y309842D02*
D03*
D25*
X383858Y332677D02*
D03*
X427165D02*
D03*
Y308661D02*
D03*
X383858D02*
D03*
D26*
X413412Y283228D02*
D03*
Y275828D02*
D03*
X405512Y279528D02*
D03*
D27*
X395669Y251969D02*
D03*
D28*
X393110D02*
D03*
X390551D02*
D03*
X387992D02*
D03*
X385433D02*
D03*
X382874D02*
D03*
X380315D02*
D03*
X377756D02*
D03*
X375197D02*
D03*
X372638D02*
D03*
X370079D02*
D03*
X367520D02*
D03*
X364961D02*
D03*
X362402D02*
D03*
X395669Y280709D02*
D03*
X393110D02*
D03*
X390551D02*
D03*
X387992D02*
D03*
X385433D02*
D03*
X382874D02*
D03*
X380315D02*
D03*
X377756D02*
D03*
X375197D02*
D03*
X372638D02*
D03*
X370079D02*
D03*
X367520D02*
D03*
X364961D02*
D03*
X362402D02*
D03*
D29*
X361024Y326772D02*
D03*
X367323D02*
D03*
X420472Y263779D02*
D03*
X414173D02*
D03*
X388976Y238189D02*
D03*
X382677D02*
D03*
M02*
