%FSLAX25Y25*%
%MOIN*%
G70*
G01*
G75*
G04 Layer_Physical_Order=2*
G04 Layer_Color=16711680*
%ADD10C,0.01000*%
%ADD11C,0.07087*%
%ADD12R,0.07087X0.07087*%
%ADD13R,0.14000X0.06800*%
%ADD14O,0.14000X0.06800*%
D10*
X369300Y209500D02*
X398500D01*
X345900Y186100D02*
X369300Y209500D01*
X345900Y156100D02*
Y186100D01*
Y156100D02*
X351000Y151000D01*
X481500Y236500D02*
X487000Y231000D01*
X474700Y236500D02*
X481500D01*
X467700Y229500D02*
X474700Y236500D01*
X458500Y229500D02*
X467700D01*
X433500Y289500D02*
X458500D01*
X428500Y284500D02*
X433500Y289500D01*
X389300Y284500D02*
X428500D01*
X360500Y255700D02*
X389300Y284500D01*
X360500Y243500D02*
Y255700D01*
X458500Y189500D02*
X466000D01*
X467500Y188000D01*
Y170500D02*
Y188000D01*
Y170500D02*
X487000Y151000D01*
X365400Y228400D02*
X370500Y233500D01*
X355400Y228400D02*
X365400D01*
X355400D02*
Y260200D01*
X389700Y294500D01*
X465100D01*
X467600Y292000D01*
Y281000D02*
Y292000D01*
X466100Y279500D02*
X467600Y281000D01*
X458500Y279500D02*
X466100D01*
X458500Y219500D02*
X469000D01*
X497000Y191500D01*
X458500Y209500D02*
X469000D01*
X487000Y191500D01*
X433500Y269500D02*
X458500D01*
X428500Y264500D02*
X433500Y269500D01*
X392000Y264500D02*
X428500D01*
X387800Y260300D02*
X392000Y264500D01*
X387800Y240800D02*
Y260300D01*
X380500Y233500D02*
X387800Y240800D01*
X451400Y179500D02*
X458500D01*
X431400Y159500D02*
X451400Y179500D01*
X398500Y159500D02*
X431400D01*
X379500D02*
X398500D01*
X371000Y151000D02*
X379500Y159500D01*
X458500Y259500D02*
X485500D01*
X497000Y271000D01*
X458500Y239500D02*
X488500D01*
X497000Y231000D01*
X495900Y180400D02*
X507000Y191500D01*
X472000Y180400D02*
X495900D01*
X469500Y182900D02*
X472000Y180400D01*
X469500Y182900D02*
Y192000D01*
X467000Y194500D02*
X469500Y192000D01*
X443500Y194500D02*
X467000D01*
X428500Y179500D02*
X443500Y194500D01*
X398500Y179500D02*
X428500D01*
X388000D02*
X398500D01*
X374500Y166000D02*
X388000Y179500D01*
X366000Y166000D02*
X374500D01*
X351000Y181000D02*
X366000Y166000D01*
X342000Y138500D02*
Y299500D01*
X517000D01*
Y138500D02*
Y299500D01*
X342000Y138500D02*
X517000D01*
D11*
X380500Y243500D02*
D03*
Y233500D02*
D03*
X370500Y243500D02*
D03*
Y233500D02*
D03*
X360500Y243500D02*
D03*
X497000Y151000D02*
D03*
X487000D02*
D03*
X477000D02*
D03*
X497000Y191500D02*
D03*
X487000D02*
D03*
X477000D02*
D03*
X497000Y231000D02*
D03*
X487000D02*
D03*
X477000D02*
D03*
X497000Y271000D02*
D03*
X487000D02*
D03*
X477000D02*
D03*
X371000Y151000D02*
D03*
X361000D02*
D03*
X351000D02*
D03*
X381000Y181000D02*
D03*
X371000D02*
D03*
X361000D02*
D03*
D12*
X360500Y233500D02*
D03*
X507000Y151000D02*
D03*
Y191500D02*
D03*
Y231000D02*
D03*
Y271000D02*
D03*
X381000Y151000D02*
D03*
X351000Y181000D02*
D03*
D13*
X398500Y289500D02*
D03*
D14*
Y279500D02*
D03*
Y269500D02*
D03*
Y259500D02*
D03*
Y249500D02*
D03*
Y239500D02*
D03*
Y229500D02*
D03*
Y219500D02*
D03*
Y209500D02*
D03*
Y199500D02*
D03*
Y189500D02*
D03*
Y179500D02*
D03*
Y169500D02*
D03*
Y159500D02*
D03*
Y149500D02*
D03*
X458500Y289500D02*
D03*
Y279500D02*
D03*
Y269500D02*
D03*
Y259500D02*
D03*
Y249500D02*
D03*
Y239500D02*
D03*
Y229500D02*
D03*
Y219500D02*
D03*
Y209500D02*
D03*
Y199500D02*
D03*
Y189500D02*
D03*
Y179500D02*
D03*
Y169500D02*
D03*
Y159500D02*
D03*
Y149500D02*
D03*
M02*
