M48
;Layer_Color=9474304
;FILE_FORMAT=2:5
INCH,LZ
;TYPE=PLATED
T1F00S00C0.03937
%
T01
X0351Y0151
X0361
X0371
X0381
X03985Y01495
X04585
X0477Y0151
X0487
X0497
X0507
Y01915
X0497
X0487
X0477
Y0231
X0487
X0497
X0507
Y0271
X0497
X0487
X0477
X04585Y02695
Y02795
Y02895
Y02595
Y02495
Y02395
Y02295
Y02195
Y02095
Y01995
Y01895
Y01795
Y01695
Y01595
X03985
Y01695
Y01795
Y01895
Y01995
Y02095
Y02195
Y02295
Y02395
Y02495
Y02595
Y02695
Y02795
Y02895
X03805Y02435
Y02335
X03705
Y02435
X03605
Y02335
X0361Y0181
X0371
X0381
X0351
M30
