%FSTAX23Y23*%
%MOIN*%
%SFA1B1*%

%IPPOS*%
%ADD11C,0.005000*%
%LNdrivecontroller-1*%
%LPD*%
G54D11*
X03863Y001D02*
D01*
X03862Y00104*
X03862Y00108*
X03861Y00113*
X0386Y00117*
X03859Y00121*
X03857Y00125*
X03855Y00129*
X03853Y00133*
X0385Y00137*
X03848Y0014*
X03845Y00143*
X03842Y00146*
X03838Y00149*
X03835Y00152*
X03831Y00154*
X03827Y00156*
X03823Y00158*
X03819Y00159*
X03815Y00161*
X0381Y00162*
X03806Y00162*
X03802Y00162*
X03797*
X03793Y00162*
X03789Y00162*
X03784Y00161*
X0378Y00159*
X03776Y00158*
X03772Y00156*
X03768Y00154*
X03764Y00152*
X03761Y00149*
X03757Y00146*
X03754Y00143*
X03751Y0014*
X03749Y00137*
X03746Y00133*
X03744Y00129*
X03742Y00125*
X0374Y00121*
X03739Y00117*
X03738Y00113*
X03737Y00108*
X03737Y00104*
X03737Y001*
X03737Y00095*
X03737Y00091*
X03738Y00086*
X03739Y00082*
X0374Y00078*
X03742Y00074*
X03744Y0007*
X03746Y00066*
X03749Y00062*
X03751Y00059*
X03754Y00056*
X03757Y00053*
X03761Y0005*
X03764Y00047*
X03768Y00045*
X03772Y00043*
X03776Y00041*
X0378Y0004*
X03784Y00038*
X03789Y00037*
X03793Y00037*
X03797Y00037*
X03802*
X03806Y00037*
X0381Y00037*
X03815Y00038*
X03819Y0004*
X03823Y00041*
X03827Y00043*
X03831Y00045*
X03835Y00047*
X03838Y0005*
X03842Y00053*
X03845Y00056*
X03848Y00059*
X0385Y00062*
X03853Y00066*
X03855Y0007*
X03857Y00074*
X03859Y00078*
X0386Y00082*
X03861Y00086*
X03862Y00091*
X03862Y00095*
X03863Y001*
X03613Y02D02*
D01*
X03612Y02004*
X03612Y02008*
X03611Y02013*
X0361Y02017*
X03609Y02021*
X03607Y02025*
X03605Y02029*
X03603Y02033*
X036Y02037*
X03598Y0204*
X03595Y02043*
X03592Y02046*
X03588Y02049*
X03585Y02052*
X03581Y02054*
X03577Y02056*
X03573Y02058*
X03569Y02059*
X03565Y02061*
X0356Y02062*
X03556Y02062*
X03552Y02062*
X03547*
X03543Y02062*
X03539Y02062*
X03534Y02061*
X0353Y02059*
X03526Y02058*
X03522Y02056*
X03518Y02054*
X03514Y02052*
X03511Y02049*
X03507Y02046*
X03504Y02043*
X03501Y0204*
X03499Y02037*
X03496Y02033*
X03494Y02029*
X03492Y02025*
X0349Y02021*
X03489Y02017*
X03488Y02013*
X03487Y02008*
X03487Y02004*
X03487Y02*
X03487Y01995*
X03487Y01991*
X03488Y01986*
X03489Y01982*
X0349Y01978*
X03492Y01974*
X03494Y0197*
X03496Y01966*
X03499Y01962*
X03501Y01959*
X03504Y01956*
X03507Y01953*
X03511Y0195*
X03514Y01947*
X03518Y01945*
X03522Y01943*
X03526Y01941*
X0353Y0194*
X03534Y01938*
X03539Y01937*
X03543Y01937*
X03547Y01937*
X03552*
X03556Y01937*
X0356Y01937*
X03565Y01938*
X03569Y0194*
X03573Y01941*
X03577Y01943*
X03581Y01945*
X03585Y01947*
X03588Y0195*
X03592Y01953*
X03595Y01956*
X03598Y01959*
X036Y01962*
X03603Y01966*
X03605Y0197*
X03607Y01974*
X03609Y01978*
X0361Y01982*
X03611Y01986*
X03612Y01991*
X03612Y01995*
X03613Y02*
X02663Y014D02*
D01*
X02662Y01404*
X02662Y01408*
X02661Y01413*
X0266Y01417*
X02659Y01421*
X02657Y01425*
X02655Y01429*
X02653Y01433*
X0265Y01437*
X02648Y0144*
X02645Y01443*
X02642Y01446*
X02638Y01449*
X02635Y01452*
X02631Y01454*
X02627Y01456*
X02623Y01458*
X02619Y01459*
X02615Y01461*
X0261Y01462*
X02606Y01462*
X02602Y01462*
X02597*
X02593Y01462*
X02589Y01462*
X02584Y01461*
X0258Y01459*
X02576Y01458*
X02572Y01456*
X02568Y01454*
X02564Y01452*
X02561Y01449*
X02557Y01446*
X02554Y01443*
X02551Y0144*
X02549Y01437*
X02546Y01433*
X02544Y01429*
X02542Y01425*
X0254Y01421*
X02539Y01417*
X02538Y01413*
X02537Y01408*
X02537Y01404*
X02537Y014*
X02537Y01395*
X02537Y01391*
X02538Y01386*
X02539Y01382*
X0254Y01378*
X02542Y01374*
X02544Y0137*
X02546Y01366*
X02549Y01362*
X02551Y01359*
X02554Y01356*
X02557Y01353*
X02561Y0135*
X02564Y01347*
X02568Y01345*
X02572Y01343*
X02576Y01341*
X0258Y0134*
X02584Y01338*
X02589Y01337*
X02593Y01337*
X02597Y01337*
X02602*
X02606Y01337*
X0261Y01337*
X02615Y01338*
X02619Y0134*
X02623Y01341*
X02627Y01343*
X02631Y01345*
X02635Y01347*
X02638Y0135*
X02642Y01353*
X02645Y01356*
X02648Y01359*
X0265Y01362*
X02653Y01366*
X02655Y0137*
X02657Y01374*
X02659Y01378*
X0266Y01382*
X02661Y01386*
X02662Y01391*
X02662Y01395*
X02663Y014*
X00613Y001D02*
D01*
X00612Y00104*
X00612Y00108*
X00611Y00113*
X0061Y00117*
X00609Y00121*
X00607Y00125*
X00605Y00129*
X00603Y00133*
X006Y00137*
X00598Y0014*
X00595Y00143*
X00592Y00146*
X00588Y00149*
X00585Y00152*
X00581Y00154*
X00577Y00156*
X00573Y00158*
X00569Y00159*
X00565Y00161*
X0056Y00162*
X00556Y00162*
X00552Y00162*
X00547*
X00543Y00162*
X00539Y00162*
X00534Y00161*
X0053Y00159*
X00526Y00158*
X00522Y00156*
X00518Y00154*
X00514Y00152*
X00511Y00149*
X00507Y00146*
X00504Y00143*
X00501Y0014*
X00499Y00137*
X00496Y00133*
X00494Y00129*
X00492Y00125*
X0049Y00121*
X00489Y00117*
X00488Y00113*
X00487Y00108*
X00487Y00104*
X00487Y001*
X00487Y00095*
X00487Y00091*
X00488Y00086*
X00489Y00082*
X0049Y00078*
X00492Y00074*
X00494Y0007*
X00496Y00066*
X00499Y00062*
X00501Y00059*
X00504Y00056*
X00507Y00053*
X00511Y0005*
X00514Y00047*
X00518Y00045*
X00522Y00043*
X00526Y00041*
X0053Y0004*
X00534Y00038*
X00539Y00037*
X00543Y00037*
X00547Y00037*
X00552*
X00556Y00037*
X0056Y00037*
X00565Y00038*
X00569Y0004*
X00573Y00041*
X00577Y00043*
X00581Y00045*
X00585Y00047*
X00588Y0005*
X00592Y00053*
X00595Y00056*
X00598Y00059*
X006Y00062*
X00603Y00066*
X00605Y0007*
X00607Y00074*
X00609Y00078*
X0061Y00082*
X00611Y00086*
X00612Y00091*
X00612Y00095*
X00613Y001*
X02663Y003D02*
D01*
X02662Y00304*
X02662Y00308*
X02661Y00313*
X0266Y00317*
X02659Y00321*
X02657Y00325*
X02655Y00329*
X02653Y00333*
X0265Y00337*
X02648Y0034*
X02645Y00343*
X02642Y00346*
X02638Y00349*
X02635Y00352*
X02631Y00354*
X02627Y00356*
X02623Y00358*
X02619Y00359*
X02615Y00361*
X0261Y00362*
X02606Y00362*
X02602Y00362*
X02597*
X02593Y00362*
X02589Y00362*
X02584Y00361*
X0258Y00359*
X02576Y00358*
X02572Y00356*
X02568Y00354*
X02564Y00352*
X02561Y00349*
X02557Y00346*
X02554Y00343*
X02551Y0034*
X02549Y00337*
X02546Y00333*
X02544Y00329*
X02542Y00325*
X0254Y00321*
X02539Y00317*
X02538Y00313*
X02537Y00308*
X02537Y00304*
X02537Y003*
X02537Y00295*
X02537Y00291*
X02538Y00286*
X02539Y00282*
X0254Y00278*
X02542Y00274*
X02544Y0027*
X02546Y00266*
X02549Y00262*
X02551Y00259*
X02554Y00256*
X02557Y00253*
X02561Y0025*
X02564Y00247*
X02568Y00245*
X02572Y00243*
X02576Y00241*
X0258Y0024*
X02584Y00238*
X02589Y00237*
X02593Y00237*
X02597Y00237*
X02602*
X02606Y00237*
X0261Y00237*
X02615Y00238*
X02619Y0024*
X02623Y00241*
X02627Y00243*
X02631Y00245*
X02635Y00247*
X02638Y0025*
X02642Y00253*
X02645Y00256*
X02648Y00259*
X0265Y00262*
X02653Y00266*
X02655Y0027*
X02657Y00274*
X02659Y00278*
X0266Y00282*
X02661Y00286*
X02662Y00291*
X02662Y00295*
X02663Y003*
X00663Y02D02*
D01*
X00662Y02004*
X00662Y02008*
X00661Y02013*
X0066Y02017*
X00659Y02021*
X00657Y02025*
X00655Y02029*
X00653Y02033*
X0065Y02037*
X00648Y0204*
X00645Y02043*
X00642Y02046*
X00638Y02049*
X00635Y02052*
X00631Y02054*
X00627Y02056*
X00623Y02058*
X00619Y02059*
X00615Y02061*
X0061Y02062*
X00606Y02062*
X00602Y02062*
X00597*
X00593Y02062*
X00589Y02062*
X00584Y02061*
X0058Y02059*
X00576Y02058*
X00572Y02056*
X00568Y02054*
X00564Y02052*
X00561Y02049*
X00557Y02046*
X00554Y02043*
X00551Y0204*
X00549Y02037*
X00546Y02033*
X00544Y02029*
X00542Y02025*
X0054Y02021*
X00539Y02017*
X00538Y02013*
X00537Y02008*
X00537Y02004*
X00537Y02*
X00537Y01995*
X00537Y01991*
X00538Y01986*
X00539Y01982*
X0054Y01978*
X00542Y01974*
X00544Y0197*
X00546Y01966*
X00549Y01962*
X00551Y01959*
X00554Y01956*
X00557Y01953*
X00561Y0195*
X00564Y01947*
X00568Y01945*
X00572Y01943*
X00576Y01941*
X0058Y0194*
X00584Y01938*
X00589Y01937*
X00593Y01937*
X00597Y01937*
X00602*
X00606Y01937*
X0061Y01937*
X00615Y01938*
X00619Y0194*
X00623Y01941*
X00627Y01943*
X00631Y01945*
X00635Y01947*
X00638Y0195*
X00642Y01953*
X00645Y01956*
X00648Y01959*
X0065Y01962*
X00653Y01966*
X00655Y0197*
X00657Y01974*
X00659Y01978*
X0066Y01982*
X00661Y01986*
X00662Y01991*
X00662Y01995*
X00663Y02*
X0Y0D02*
Y021D01*
X038*
X0Y0D02*
X039D01*
X038Y021D02*
X039Y02D01*
Y016D02*
Y02D01*
Y016D02*
X04Y015D01*
Y0015D02*
Y015D01*
X039Y0005D02*
X04Y0015D01*
X039Y0D02*
Y0005D01*
X01907Y0165D02*
X01943D01*
X01925Y01632D02*
Y01668D01*
X02007Y0165D02*
X02043D01*
X02025Y01632D02*
Y01668D01*
X02107Y0165D02*
X02143D01*
X02125Y01632D02*
Y01668D01*
X02207Y0165D02*
X02243D01*
X02225Y01632D02*
Y01668D01*
X02307Y0165D02*
X02343D01*
X02325Y01632D02*
Y01668D01*
X02407Y0165D02*
X02443D01*
X02425Y01632D02*
Y01668D01*
X02507Y0165D02*
X02543D01*
X02525Y01632D02*
Y01668D01*
X02607Y0165D02*
X02643D01*
X02625Y01632D02*
Y01668D01*
X0333Y0125D02*
X0337D01*
X0335Y0123D02*
Y0127D01*
X0333Y0115D02*
X0337D01*
X0335Y0113D02*
Y0117D01*
X0333Y0105D02*
X0337D01*
X0335Y0103D02*
Y0107D01*
X0333Y0095D02*
X0337D01*
X0335Y0093D02*
Y0097D01*
X0333Y0065D02*
X0337D01*
X0335Y0063D02*
Y0067D01*
X0333Y0055D02*
X0337D01*
X0335Y0053D02*
Y0057D01*
X0333Y0045D02*
X0337D01*
X0335Y0043D02*
Y0047D01*
X0333Y0035D02*
X0337D01*
X0335Y0033D02*
Y0037D01*
X02938Y00575D02*
X02962D01*
X0295Y00563D02*
Y00587D01*
X02938Y00673D02*
X02962D01*
X0295Y00662D02*
Y00685D01*
X02938Y00772D02*
X02962D01*
X0295Y0076D02*
Y00784D01*
X02938Y0087D02*
X02962D01*
X0295Y00858D02*
Y00882D01*
X02938Y00969D02*
X02962D01*
X0295Y00957D02*
Y00981D01*
X02938Y01067D02*
X02962D01*
X0295Y01055D02*
Y01079D01*
X02938Y01166D02*
X02962D01*
X0295Y01154D02*
Y01177D01*
X02938Y01264D02*
X02962D01*
X0295Y01252D02*
Y01276D01*
X02348Y00575D02*
X02371D01*
X02359Y00563D02*
Y00587D01*
X02348Y00673D02*
X02371D01*
X02359Y00662D02*
Y00685D01*
X02348Y00772D02*
X02371D01*
X02359Y0076D02*
Y00784D01*
X02348Y0087D02*
X02371D01*
X02359Y00858D02*
Y00882D01*
X02348Y00969D02*
X02371D01*
X02359Y00957D02*
Y00981D01*
X02348Y01067D02*
X02371D01*
X02359Y01055D02*
Y01079D01*
X02348Y01166D02*
X02371D01*
X02359Y01154D02*
Y01177D01*
X02348Y01264D02*
X02371D01*
X02359Y01252D02*
Y01276D01*
X03785Y0195D02*
X03815D01*
X038Y01935D02*
Y01965D01*
X03685Y0195D02*
X03715D01*
X037Y01935D02*
Y01965D01*
X03785Y0185D02*
X03815D01*
X038Y01835D02*
Y01865D01*
X03685Y0185D02*
X03715D01*
X037Y01835D02*
Y01865D01*
X03785Y0175D02*
X03815D01*
X038Y01735D02*
Y01765D01*
X03685Y0175D02*
X03715D01*
X037Y01735D02*
Y01765D01*
X03785Y0165D02*
X03815D01*
X038Y01635D02*
Y01665D01*
X03685Y0165D02*
X03715D01*
X037Y01635D02*
Y01665D01*
X03785Y0155D02*
X03815D01*
X038Y01535D02*
Y01565D01*
X03685Y0155D02*
X03715D01*
X037Y01535D02*
Y01565D01*
X03785Y0145D02*
X03815D01*
X038Y01435D02*
Y01465D01*
X03685Y0145D02*
X03715D01*
X037Y01435D02*
Y01465D01*
X03785Y0135D02*
X03815D01*
X038Y01335D02*
Y01365D01*
X03685Y0135D02*
X03715D01*
X037Y01335D02*
Y01365D01*
X03785Y0125D02*
X03815D01*
X038Y01235D02*
Y01265D01*
X03685Y0125D02*
X03715D01*
X037Y01235D02*
Y01265D01*
X03785Y0115D02*
X03815D01*
X038Y01135D02*
Y01165D01*
X03685Y0115D02*
X03715D01*
X037Y01135D02*
Y01165D01*
X03685Y0105D02*
X03715D01*
X037Y01035D02*
Y01065D01*
X03785Y0105D02*
X03815D01*
X038Y01035D02*
Y01065D01*
X03785Y0095D02*
X03815D01*
X038Y00935D02*
Y00965D01*
X03685Y0095D02*
X03715D01*
X037Y00935D02*
Y00965D01*
X03785Y0085D02*
X03815D01*
X038Y00835D02*
Y00865D01*
X03685Y0085D02*
X03715D01*
X037Y00835D02*
Y00865D01*
X03785Y0075D02*
X03815D01*
X038Y00735D02*
Y00765D01*
X03685Y0075D02*
X03715D01*
X037Y00735D02*
Y00765D01*
X03785Y0065D02*
X03815D01*
X038Y00635D02*
Y00665D01*
X03685Y0065D02*
X03715D01*
X037Y00635D02*
Y00665D01*
X03785Y0055D02*
X03815D01*
X038Y00535D02*
Y00565D01*
X03685Y0055D02*
X03715D01*
X037Y00535D02*
Y00565D01*
X03785Y0045D02*
X03815D01*
X038Y00435D02*
Y00465D01*
X03685Y0045D02*
X03715D01*
X037Y00435D02*
Y00465D01*
X03785Y0035D02*
X03815D01*
X038Y00335D02*
Y00365D01*
X03685Y0035D02*
X03715D01*
X037Y00335D02*
Y00365D01*
X03785Y0025D02*
X03815D01*
X038Y00235D02*
Y00265D01*
X03685Y0025D02*
X03715D01*
X037Y00235D02*
Y00265D01*
X00566Y00835D02*
X00614D01*
X0059Y00811D02*
Y00859D01*
X00326Y00835D02*
X00374D01*
X0035Y00811D02*
Y00859D01*
X00446Y0065D02*
X00494D01*
X0047Y00626D02*
Y00674D01*
X0048Y01525D02*
X0052D01*
X005Y01505D02*
Y01545D01*
X0048Y01125D02*
X0052D01*
X005Y01105D02*
Y01145D01*
X0023Y01375D02*
X0027D01*
X0025Y01355D02*
Y01395D01*
X0023Y01265D02*
X0027D01*
X0025Y01245D02*
Y01285D01*
X02285Y02D02*
X02315D01*
X023Y01985D02*
Y02015D01*
X02385Y02D02*
X02415D01*
X024Y01985D02*
Y02015D01*
X01785Y02D02*
X01815D01*
X018Y01985D02*
Y02015D01*
X01885Y02D02*
X01915D01*
X019Y01985D02*
Y02015D01*
X01985Y02D02*
X02015D01*
X02Y01985D02*
Y02015D01*
X02085Y02D02*
X02115D01*
X021Y01985D02*
Y02015D01*
X02185Y02D02*
X02215D01*
X022Y01985D02*
Y02015D01*
X02485Y02D02*
X02515D01*
X025Y01985D02*
Y02015D01*
X01425Y02D02*
X01455D01*
X0144Y01985D02*
Y02015D01*
X01525Y02D02*
X01555D01*
X0154Y01985D02*
Y02015D01*
X00925Y02D02*
X00955D01*
X0094Y01985D02*
Y02015D01*
X01025Y02D02*
X01055D01*
X0104Y01985D02*
Y02015D01*
X01125Y02D02*
X01155D01*
X0114Y01985D02*
Y02015D01*
X01225Y02D02*
X01255D01*
X0124Y01985D02*
Y02015D01*
X01325Y02D02*
X01355D01*
X0134Y01985D02*
Y02015D01*
X01625Y02D02*
X01655D01*
X0164Y01985D02*
Y02015D01*
X01785Y001D02*
X01815D01*
X018Y00085D02*
Y00115D01*
X01685Y001D02*
X01715D01*
X017Y00085D02*
Y00115D01*
X01585Y001D02*
X01615D01*
X016Y00085D02*
Y00115D01*
X01485Y001D02*
X01515D01*
X015Y00085D02*
Y00115D01*
X01385Y001D02*
X01415D01*
X014Y00085D02*
Y00115D01*
X01285Y001D02*
X01315D01*
X013Y00085D02*
Y00115D01*
X03185Y02D02*
X03215D01*
X032Y01985D02*
Y02015D01*
X03285Y02D02*
X03315D01*
X033Y01985D02*
Y02015D01*
X02685Y02D02*
X02715D01*
X027Y01985D02*
Y02015D01*
X02785Y02D02*
X02815D01*
X028Y01985D02*
Y02015D01*
X02885Y02D02*
X02915D01*
X029Y01985D02*
Y02015D01*
X02985Y02D02*
X03015D01*
X03Y01985D02*
Y02015D01*
X03085Y02D02*
X03115D01*
X031Y01985D02*
Y02015D01*
X03385Y02D02*
X03415D01*
X034Y01985D02*
Y02015D01*
X02185Y001D02*
X02215D01*
X022Y00085D02*
Y00115D01*
X02085Y001D02*
X02115D01*
X021Y00085D02*
Y00115D01*
X02685Y001D02*
X02715D01*
X027Y00085D02*
Y00115D01*
X02585Y001D02*
X02615D01*
X026Y00085D02*
Y00115D01*
X02485Y001D02*
X02515D01*
X025Y00085D02*
Y00115D01*
X02385Y001D02*
X02415D01*
X024Y00085D02*
Y00115D01*
X02285Y001D02*
X02315D01*
X023Y00085D02*
Y00115D01*
X01985Y001D02*
X02015D01*
X02Y00085D02*
Y00115D01*
X03085Y001D02*
X03115D01*
X031Y00085D02*
Y00115D01*
X02985Y001D02*
X03015D01*
X03Y00085D02*
Y00115D01*
X03585Y001D02*
X03615D01*
X036Y00085D02*
Y00115D01*
X03485Y001D02*
X03515D01*
X035Y00085D02*
Y00115D01*
X03385Y001D02*
X03415D01*
X034Y00085D02*
Y00115D01*
X03285Y001D02*
X03315D01*
X033Y00085D02*
Y00115D01*
X03185Y001D02*
X03215D01*
X032Y00085D02*
Y00115D01*
X02885Y001D02*
X02915D01*
X029Y00085D02*
Y00115D01*
X0118Y0115D02*
X0122D01*
X012Y0113D02*
Y0117D01*
X0108Y0115D02*
X0112D01*
X011Y0113D02*
Y0117D01*
X0098Y0115D02*
X0102D01*
X01Y0113D02*
Y0117D01*
X0088Y0115D02*
X0092D01*
X009Y0113D02*
Y0117D01*
X00155Y00375D02*
X00195D01*
X00175Y00355D02*
Y00395D01*
X00255Y00375D02*
X00295D01*
X00275Y00355D02*
Y00395D01*
X00355Y00375D02*
X00395D01*
X00375Y00355D02*
Y00395D01*
X00455Y00375D02*
X00495D01*
X00475Y00355D02*
Y00395D01*
X00555Y00375D02*
X00595D01*
X00575Y00355D02*
Y00395D01*
X00732Y0165D02*
X00768D01*
X0075Y01632D02*
Y01668D01*
X00832Y0165D02*
X00868D01*
X0085Y01632D02*
Y01668D01*
X00932Y0165D02*
X00968D01*
X0095Y01632D02*
Y01668D01*
X01032Y0165D02*
X01068D01*
X0105Y01632D02*
Y01668D01*
X01132Y0165D02*
X01168D01*
X0115Y01632D02*
Y01668D01*
X01232Y0165D02*
X01268D01*
X0125Y01632D02*
Y01668D01*
X01332Y0165D02*
X01368D01*
X0135Y01632D02*
Y01668D01*
X01432Y0165D02*
X01468D01*
X0145Y01632D02*
Y01668D01*
X0118Y006D02*
X0122D01*
X012Y0058D02*
Y0062D01*
X0108Y006D02*
X0112D01*
X011Y0058D02*
Y0062D01*
X0098Y006D02*
X0102D01*
X01Y0058D02*
Y0062D01*
X0088Y006D02*
X0092D01*
X009Y0058D02*
Y0062D01*
X0178Y006D02*
X0182D01*
X018Y0058D02*
Y0062D01*
X0168Y006D02*
X0172D01*
X017Y0058D02*
Y0062D01*
X0158Y006D02*
X0162D01*
X016Y0058D02*
Y0062D01*
X0148Y006D02*
X0152D01*
X015Y0058D02*
Y0062D01*
X03487Y02D02*
X03613D01*
X0355Y01937D02*
Y02063D01*
X03737Y001D02*
X03863D01*
X038Y00037D02*
Y00163D01*
X02537Y003D02*
X02663D01*
X026Y00237D02*
Y00363D01*
X02537Y014D02*
X02663D01*
X026Y01337D02*
Y01463D01*
X00487Y001D02*
X00613D01*
X0055Y00037D02*
Y00163D01*
X00537Y02D02*
X00663D01*
X006Y01937D02*
Y02063D01*
X0148Y0115D02*
X0152D01*
X015Y0113D02*
Y0117D01*
X0158Y0115D02*
X0162D01*
X016Y0113D02*
Y0117D01*
X0168Y0115D02*
X0172D01*
X017Y0113D02*
Y0117D01*
X0178Y0115D02*
X0182D01*
X018Y0113D02*
Y0117D01*
X02055Y00436D02*
X02095D01*
X02075Y00416D02*
Y00455D01*
X02055Y00514D02*
X02095D01*
X02075Y00495D02*
Y00534D01*
X03063Y00927D02*
X03091D01*
X03077Y00913D02*
Y00941D01*
X00688Y02041D02*
X00716D01*
X00702Y02027D02*
Y02055D01*
X031Y01887D02*
X03128D01*
X03114Y01873D02*
Y01901D01*
X03291Y01498D02*
X03319D01*
X03305Y01484D02*
Y01512D01*
X03571Y0185D02*
X03599D01*
X03585Y01836D02*
Y01864D01*
X03269Y01883D02*
X03297D01*
X03283Y01869D02*
Y01897D01*
X00915Y01585D02*
X00943D01*
X00929Y01571D02*
Y01599D01*
M02*