%FSTAX23Y23*%
%MOIN*%
%SFA1B1*%

%IPPOS*%
%ADD11C,0.005000*%
%ADD29C,0.008000*%
%ADD30C,0.010000*%
%ADD31C,0.006000*%
%LNdrivecontroller-1*%
%LPD*%
G54D11*
X013Y00175D02*
X01286Y00189D01*
X01293Y00196*
X01298*
X01302Y00191*
Y00187*
X01295Y0018*
X013Y00184D02*
X01309D01*
Y00213D02*
X013Y00203D01*
X01314Y00189*
X01324Y00199*
X01307Y00196D02*
X01312Y00201D01*
X01326Y00224D02*
X01321D01*
X01316Y0022*
Y00215*
X01319Y00213*
X01324*
X01328Y00217*
X01333*
X01335Y00215*
Y0021*
X01331Y00206*
X01326*
X01338Y00241D02*
X01328Y00232D01*
X01342Y00217*
X01352Y00227*
X01335Y00224D02*
X0134Y00229D01*
X01342Y00246D02*
X01352Y00255D01*
X01347Y0025*
X01361Y00236*
X01388Y00187D02*
Y00191D01*
X01393Y00196*
X01398*
X014Y00194*
Y00189*
X01398Y00187*
X014Y00189*
X01405*
X01407Y00187*
Y00182*
X01402Y00177*
X01398*
X01405Y00199D02*
X01419Y00194D01*
X01414Y00208*
X01416Y00215D02*
Y0022D01*
X01421Y00224*
X01426*
X01428Y00222*
Y00217*
X01426Y00215*
X01428Y00217*
X01433*
X01435Y00215*
Y0021*
X01431Y00206*
X01426*
X01495Y00199D02*
X01486Y00189D01*
X01493Y00182*
X01495Y00189*
X01498Y00191*
X01502*
X01507Y00187*
Y00182*
X01502Y00177*
X01498*
X01505Y00199D02*
X01519Y00194D01*
X01514Y00208*
X01598Y00196D02*
X01593D01*
X01588Y00191*
Y00187*
X01598Y00177*
X01602*
X01607Y00182*
Y00187*
X01602Y00191*
X01598Y00187*
X01614Y00189D02*
X016Y00203D01*
X01624Y00199*
X01609Y00213*
X01614Y00217D02*
X01628Y00203D01*
X01635Y0021*
Y00215*
X01626Y00224*
X01621*
X01614Y00217*
X01698Y00196D02*
X01693D01*
X01688Y00191*
Y00187*
X01698Y00177*
X01702*
X01707Y00182*
Y00187*
X01702Y00191*
X01698Y00187*
X01714Y00189D02*
X017Y00203D01*
X01724Y00199*
X01709Y00213*
X01714Y00217D02*
X01728Y00203D01*
X01735Y0021*
Y00215*
X01726Y00224*
X01721*
X01714Y00217*
X01786Y00189D02*
X01795Y0018D01*
X01805*
Y00189*
X01795Y00199*
X01814Y00189D02*
X01819Y00194D01*
X01816Y00191*
X01807Y00201*
X01805Y00199*
X01826Y00201D02*
X01816Y0021D01*
X01824Y00217*
X01828*
X01835Y0021*
X02Y00175D02*
X01991Y00184D01*
Y00194*
X02*
X02009Y00184*
X02002Y00191*
X01993Y00182*
X02Y00203D02*
X02014Y00189D01*
X02021Y00196*
Y00201*
X02012Y0021*
X02007*
X02Y00203*
X02016Y00215D02*
Y0022D01*
X02021Y00224*
X02026*
X02035Y00215*
Y0021*
X02031Y00206*
X02026*
X02016Y00215*
X021Y00175D02*
X02091Y00184D01*
Y00194*
X021*
X02109Y00184*
X02102Y00191*
X02093Y00182*
X021Y00203D02*
X02114Y00189D01*
X02121Y00196*
Y00201*
X02112Y0021*
X02107*
X021Y00203*
X02128D02*
X02133Y00208D01*
X02131Y00206*
X02116Y0022*
Y00215*
X022Y00175D02*
X02191Y00184D01*
Y00194*
X022*
X02209Y00184*
X02202Y00191*
X02193Y00182*
X022Y00203D02*
X02214Y00189D01*
X02221Y00196*
Y00201*
X02212Y0021*
X02207*
X022Y00203*
X02238Y00213D02*
X02228Y00203D01*
Y00222*
X02226Y00224*
X02221*
X02216Y0022*
Y00215*
X023Y00175D02*
X02291Y00184D01*
Y00194*
X023*
X02309Y00184*
X02302Y00191*
X02293Y00182*
X023Y00203D02*
X02314Y00189D01*
X02321Y00196*
Y00201*
X02312Y0021*
X02307*
X023Y00203*
X02316Y00215D02*
Y0022D01*
X02321Y00224*
X02326*
X02328Y00222*
Y00217*
X02326Y00215*
X02328Y00217*
X02333*
X02335Y00215*
Y0021*
X02331Y00206*
X02326*
X024Y00175D02*
X02391Y00184D01*
Y00194*
X024*
X02409Y00184*
X02402Y00191*
X02393Y00182*
X024Y00203D02*
X02414Y00189D01*
X02421Y00196*
Y00201*
X02412Y0021*
X02407*
X024Y00203*
X02435Y0021D02*
X02421Y00224D01*
Y0021*
X02431Y0022*
X025Y00175D02*
X02491Y00184D01*
Y00194*
X025*
X02509Y00184*
X02502Y00191*
X02493Y00182*
X025Y00203D02*
X02514Y00189D01*
X02521Y00196*
Y00201*
X02512Y0021*
X02507*
X025Y00203*
X02524Y00227D02*
X02514Y00217D01*
X02521Y0021*
X02524Y00217*
X02526Y0022*
X02531*
X02535Y00215*
Y0021*
X02531Y00206*
X02526*
X026Y00175D02*
X02591Y00184D01*
Y00194*
X026*
X02609Y00184*
X02602Y00191*
X02593Y00182*
X026Y00203D02*
X02614Y00189D01*
X02621Y00196*
Y00201*
X02612Y0021*
X02607*
X026Y00203*
X02624Y00227D02*
X02621Y0022D01*
Y0021*
X02626Y00206*
X02631*
X02635Y0021*
Y00215*
X02633Y00217*
X02628*
X02621Y0021*
X027Y00175D02*
X02691Y00184D01*
Y00194*
X027*
X02709Y00184*
X02702Y00191*
X02693Y00182*
X027Y00203D02*
X02714Y00189D01*
X02721Y00196*
Y00201*
X02712Y0021*
X02707*
X027Y00203*
X02714Y00217D02*
X02724Y00227D01*
X02726Y00224*
Y00206*
X02728Y00203*
X029Y00175D02*
X02891Y00184D01*
Y00194*
X029*
X02909Y00184*
X02902Y00191*
X02893Y00182*
X029Y00203D02*
X02914Y00189D01*
X02921Y00196*
Y00201*
X02912Y0021*
X02907*
X029Y00203*
X02916Y00215D02*
Y0022D01*
X02921Y00224*
X02926*
X02928Y00222*
Y00217*
X02933*
X02935Y00215*
Y0021*
X02931Y00206*
X02926*
X02924Y00208*
Y00213*
X02919*
X02916Y00215*
X02924Y00213D02*
X02928Y00217D01*
X03Y00175D02*
X02991Y00184D01*
Y00194*
X03*
X03009Y00184*
X03002Y00191*
X02993Y00182*
X03Y00203D02*
X03014Y00189D01*
X03021Y00196*
Y00201*
X03012Y0021*
X03007*
X03Y00203*
X03026Y00206D02*
X03031D01*
X03035Y0021*
Y00215*
X03026Y00224*
X03021*
X03016Y0022*
Y00215*
X03019Y00213*
X03024*
X03031Y0022*
X031Y00175D02*
X03091Y00184D01*
Y00194*
X031*
X03109Y00184*
X03102Y00191*
X03093Y00182*
X031Y00203D02*
X03114Y00189D01*
X03121Y00196*
Y00201*
X03112Y0021*
X03107*
X031Y00203*
X03128D02*
X03133Y00208D01*
X03131Y00206*
X03116Y0022*
Y00215*
X03128Y00227D02*
Y00232D01*
X03133Y00236*
X03138*
X03147Y00227*
Y00222*
X03142Y00217*
X03138*
X03128Y00227*
X032Y00175D02*
X03191Y00184D01*
Y00194*
X032*
X03209Y00184*
X03202Y00191*
X03193Y00182*
X032Y00203D02*
X03214Y00189D01*
X03221Y00196*
Y00201*
X03212Y0021*
X03207*
X032Y00203*
X03228D02*
X03233Y00208D01*
X03231Y00206*
X03216Y0022*
Y00215*
X0324D02*
X03245Y0022D01*
X03242Y00217*
X03228Y00232*
Y00227*
X033Y00175D02*
X03291Y00184D01*
Y00194*
X033*
X03309Y00184*
X03302Y00191*
X03293Y00182*
X033Y00203D02*
X03314Y00189D01*
X03321Y00196*
Y00201*
X03312Y0021*
X03307*
X033Y00203*
X03328D02*
X03333Y00208D01*
X03331Y00206*
X03316Y0022*
Y00215*
X03349Y00224D02*
X0334Y00215D01*
Y00234*
X03338Y00236*
X03333*
X03328Y00232*
Y00227*
X034Y00175D02*
X03391Y00184D01*
Y00194*
X034*
X03409Y00184*
X03402Y00191*
X03393Y00182*
X034Y00203D02*
X03414Y00189D01*
X03421Y00196*
Y00201*
X03412Y0021*
X03407*
X034Y00203*
X03428D02*
X03433Y00208D01*
X03431Y00206*
X03416Y0022*
Y00215*
X03428Y00227D02*
Y00232D01*
X03433Y00236*
X03438*
X0344Y00234*
Y00229*
X03438Y00227*
X0344Y00229*
X03445*
X03447Y00227*
Y00222*
X03442Y00217*
X03438*
X035Y00175D02*
X03491Y00184D01*
Y00194*
X035*
X03509Y00184*
X03502Y00191*
X03493Y00182*
X035Y00203D02*
X03514Y00189D01*
X03521Y00196*
Y00201*
X03512Y0021*
X03507*
X035Y00203*
X03528D02*
X03533Y00208D01*
X03531Y00206*
X03516Y0022*
Y00215*
X03547Y00222D02*
X03533Y00236D01*
Y00222*
X03542Y00232*
X036Y00175D02*
X03591Y00184D01*
Y00194*
X036*
X03609Y00184*
X03602Y00191*
X03593Y00182*
X036Y00203D02*
X03614Y00189D01*
X03621Y00196*
Y00201*
X03612Y0021*
X03607*
X036Y00203*
X03628D02*
X03633Y00208D01*
X03631Y00206*
X03616Y0022*
Y00215*
X03635Y00239D02*
X03626Y00229D01*
X03633Y00222*
X03635Y00229*
X03638Y00232*
X03642*
X03647Y00227*
Y00222*
X03642Y00217*
X03638*
X025Y01925D02*
X02514Y01911D01*
X02507Y01904*
X02502*
X02498Y01909*
Y01913*
X02505Y0192*
X025Y01916D02*
X02491D01*
X025Y01897D02*
X02476Y01901D01*
X02491Y01887D02*
X02486Y01911D01*
X02484Y01885D02*
Y0188D01*
X02479Y01876*
X02474*
X02465Y01885*
Y0189*
X02469Y01894*
X02474*
X02484Y01885*
X03402Y01904D02*
X03407D01*
X03412Y01909*
Y01913*
X03409Y01916*
X03405*
X034Y01911*
X03395*
X03393Y01913*
Y01918*
X03398Y01923*
X03402*
X03388Y0189D02*
X03393D01*
X03398Y01894*
Y01899*
X03388Y01909*
X03384*
X03379Y01904*
Y01899*
X03386Y01883D02*
X03372Y01897D01*
X03362Y01887*
X03599Y02005D02*
X03589Y02014D01*
X03582Y02007*
X03589Y02005*
X03591Y02002*
Y01998*
X03587Y01993*
X03582*
X03577Y01998*
Y02002*
X03603Y02D02*
X03594Y01991D01*
Y01981*
X03603*
X03613Y01991*
X03584Y01891D02*
X03575Y019D01*
X03594*
X03596Y01902*
Y01907*
X03591Y01912*
X03587*
X03599Y01876D02*
X03589Y01886D01*
X03608*
X0361Y01888*
Y01893*
X03606Y01898*
X03601*
X03584Y01791D02*
X03575Y018D01*
X03594*
X03596Y01802*
Y01807*
X03591Y01812*
X03587*
X03596Y01779D02*
X0361Y01793D01*
X03596*
X03606Y01784*
X03584Y01691D02*
X03575Y017D01*
X03594*
X03596Y01702*
Y01707*
X03591Y01712*
X03587*
X03613Y01691D02*
X03606Y01693D01*
X03596*
X03591Y01688*
Y01684*
X03596Y01679*
X03601*
X03603Y01681*
Y01686*
X03596Y01693*
X03584Y01591D02*
X03575Y016D01*
X03594*
X03596Y01602*
Y01607*
X03591Y01612*
X03587*
X03601Y01598D02*
X03606D01*
X0361Y01593*
Y01588*
X03608Y01586*
X03603*
Y01581*
X03601Y01579*
X03596*
X03591Y01584*
Y01588*
X03594Y01591*
X03599*
Y01595*
X03601Y01598*
X03599Y01591D02*
X03603Y01586D01*
X03587Y01512D02*
X03591D01*
X03596Y01507*
Y01502*
X03594Y015*
X03589*
X03587Y01502*
X03589Y015*
Y01495*
X03587Y01493*
X03582*
X03577Y01498*
Y01502*
X03601Y01498D02*
X03606D01*
X0361Y01493*
Y01488*
X03601Y01479*
X03596*
X03591Y01484*
Y01488*
X03601Y01498*
X03587Y01412D02*
X03591D01*
X03596Y01407*
Y01402*
X03594Y014*
X03589*
X03587Y01402*
X03589Y014*
Y01395*
X03587Y01393*
X03582*
X03577Y01398*
Y01402*
X03599Y01376D02*
X03589Y01386D01*
X03608*
X0361Y01388*
Y01393*
X03606Y01398*
X03601*
X03587Y01312D02*
X03591D01*
X03596Y01307*
Y01302*
X03594Y013*
X03589*
X03587Y01302*
X03589Y013*
Y01295*
X03587Y01293*
X03582*
X03577Y01298*
Y01302*
X03596Y01279D02*
X0361Y01293D01*
X03596*
X03606Y01284*
X03587Y01212D02*
X03591D01*
X03596Y01207*
Y01202*
X03594Y012*
X03589*
X03587Y01202*
X03589Y012*
Y01195*
X03587Y01193*
X03582*
X03577Y01198*
Y01202*
X03613Y01191D02*
X03606Y01193D01*
X03596*
X03591Y01188*
Y01184*
X03596Y01179*
X03601*
X03603Y01181*
Y01186*
X03596Y01193*
X03587Y01112D02*
X03591D01*
X03596Y01107*
Y01102*
X03594Y011*
X03589*
X03587Y01102*
X03589Y011*
Y01095*
X03587Y01093*
X03582*
X03577Y01098*
Y01102*
X03601Y01098D02*
X03606D01*
X0361Y01093*
Y01088*
X03608Y01086*
X03603*
Y01081*
X03601Y01079*
X03596*
X03591Y01084*
Y01088*
X03594Y01091*
X03599*
Y01095*
X03601Y01098*
X03599Y01091D02*
X03603Y01086D01*
X03582Y00993D02*
X03596Y01007D01*
X03582*
X03591Y00998*
X03601D02*
X03606D01*
X0361Y00993*
Y00988*
X03601Y00979*
X03596*
X03591Y00984*
Y00988*
X03601Y00998*
X03582Y00893D02*
X03596Y00907D01*
X03582*
X03591Y00898*
X03599Y00876D02*
X03589Y00886D01*
X03608*
X0361Y00888*
Y00893*
X03606Y00898*
X03601*
X03582Y00793D02*
X03596Y00807D01*
X03582*
X03591Y00798*
X03596Y00779D02*
X0361Y00793D01*
X03596*
X03606Y00784*
X03582Y00693D02*
X03596Y00707D01*
X03582*
X03591Y00698*
X03613Y00691D02*
X03606Y00693D01*
X03596*
X03591Y00688*
Y00684*
X03596Y00679*
X03601*
X03603Y00681*
Y00686*
X03596Y00693*
X03582Y00593D02*
X03596Y00607D01*
X03582*
X03591Y00598*
X03601D02*
X03606D01*
X0361Y00593*
Y00588*
X03608Y00586*
X03603*
Y00581*
X03601Y00579*
X03596*
X03591Y00584*
Y00588*
X03594Y00591*
X03599*
Y00595*
X03601Y00598*
X03599Y00591D02*
X03603Y00586D01*
X03599Y00405D02*
X03589Y00414D01*
X03582Y00407*
X03589Y00405*
X03591Y00402*
Y00398*
X03587Y00393*
X03582*
X03577Y00398*
Y00402*
X03599Y00376D02*
X03589Y00386D01*
X03608*
X0361Y00388*
Y00393*
X03606Y00398*
X03601*
X03596Y00302D02*
Y00307D01*
X03591Y00312*
X03587*
X03577Y00302*
Y00298*
X03582Y00293*
X03587*
X03591Y00298*
X03587Y00302*
X03589Y00286D02*
X03603Y003D01*
X03599Y00276*
X03613Y00291*
X03617Y00286D02*
X03603Y00272D01*
X0361Y00265*
X03615*
X03624Y00274*
Y00279*
X03617Y00286*
X03599Y00505D02*
X03589Y00514D01*
X03582Y00507*
X03589Y00505*
X03591Y00502*
Y00498*
X03587Y00493*
X03582*
X03577Y00498*
Y00502*
X03601Y00498D02*
X03606D01*
X0361Y00493*
Y00488*
X03601Y00479*
X03596*
X03591Y00484*
Y00488*
X03601Y00498*
X0387Y01999D02*
X03861Y01989D01*
X03868Y01982*
X0387Y01989*
X03873Y01991*
X03877*
X03882Y01987*
Y01982*
X03877Y01977*
X03873*
X03875Y02003D02*
X03884Y01994D01*
X03894*
Y02003*
X03884Y02013*
Y01884D02*
X03875Y01875D01*
Y01894*
X03873Y01896*
X03868*
X03863Y01891*
Y01887*
X03877Y01901D02*
Y01906D01*
X03882Y0191*
X03887*
X03889Y01908*
Y01903*
X03887Y01901*
X03889Y01903*
X03894*
X03896Y01901*
Y01896*
X03891Y01891*
X03887*
X03884Y01784D02*
X03875Y01775D01*
Y01794*
X03873Y01796*
X03868*
X03863Y01791*
Y01787*
X03884Y01813D02*
X03875Y01803D01*
X03882Y01796*
X03884Y01803*
X03887Y01806*
X03891*
X03896Y01801*
Y01796*
X03891Y01791*
X03887*
X03884Y01684D02*
X03875Y01675D01*
Y01694*
X03873Y01696*
X03868*
X03863Y01691*
Y01687*
X03875Y01703D02*
X03884Y01713D01*
X03887Y0171*
Y01691*
X03889Y01689*
X03884Y01584D02*
X03875Y01575D01*
Y01594*
X03873Y01596*
X03868*
X03863Y01591*
Y01587*
X03887Y01591D02*
X03891D01*
X03896Y01596*
Y01601*
X03887Y0161*
X03882*
X03877Y01606*
Y01601*
X0388Y01599*
X03884*
X03891Y01606*
X03863Y01487D02*
Y01491D01*
X03868Y01496*
X03873*
X03875Y01494*
Y01489*
X03873Y01487*
X03875Y01489*
X0388*
X03882Y01487*
Y01482*
X03877Y01477*
X03873*
X03889Y01489D02*
X03894Y01494D01*
X03891Y01491*
X03877Y01506*
Y01501*
X03863Y01387D02*
Y01391D01*
X03868Y01396*
X03873*
X03875Y01394*
Y01389*
X03873Y01387*
X03875Y01389*
X0388*
X03882Y01387*
Y01382*
X03877Y01377*
X03873*
X03877Y01401D02*
Y01406D01*
X03882Y0141*
X03887*
X03889Y01408*
Y01403*
X03887Y01401*
X03889Y01403*
X03894*
X03896Y01401*
Y01396*
X03891Y01391*
X03887*
X03863Y01287D02*
Y01291D01*
X03868Y01296*
X03873*
X03875Y01294*
Y01289*
X03873Y01287*
X03875Y01289*
X0388*
X03882Y01287*
Y01282*
X03877Y01277*
X03873*
X03884Y01313D02*
X03875Y01303D01*
X03882Y01296*
X03884Y01303*
X03887Y01306*
X03891*
X03896Y01301*
Y01296*
X03891Y01291*
X03887*
X03863Y01187D02*
Y01191D01*
X03868Y01196*
X03873*
X03875Y01194*
Y01189*
X03873Y01187*
X03875Y01189*
X0388*
X03882Y01187*
Y01182*
X03877Y01177*
X03873*
X03875Y01203D02*
X03884Y01213D01*
X03887Y0121*
Y01191*
X03889Y01189*
X03863Y01087D02*
Y01091D01*
X03868Y01096*
X03873*
X03875Y01094*
Y01089*
X03873Y01087*
X03875Y01089*
X0388*
X03882Y01087*
Y01082*
X03877Y01077*
X03873*
X03887Y01091D02*
X03891D01*
X03896Y01096*
Y01101*
X03887Y0111*
X03882*
X03877Y01106*
Y01101*
X0388Y01099*
X03884*
X03891Y01106*
X03882Y00982D02*
X03868Y00996D01*
Y00982*
X03877Y00991*
X03889Y00989D02*
X03894Y00994D01*
X03891Y00991*
X03877Y01006*
Y01001*
X03882Y00882D02*
X03868Y00896D01*
Y00882*
X03877Y00891*
Y00901D02*
Y00906D01*
X03882Y0091*
X03887*
X03889Y00908*
Y00903*
X03887Y00901*
X03889Y00903*
X03894*
X03896Y00901*
Y00896*
X03891Y00891*
X03887*
X03882Y00782D02*
X03868Y00796D01*
Y00782*
X03877Y00791*
X03884Y00813D02*
X03875Y00803D01*
X03882Y00796*
X03884Y00803*
X03887Y00806*
X03891*
X03896Y00801*
Y00796*
X03891Y00791*
X03887*
X03882Y00682D02*
X03868Y00696D01*
Y00682*
X03877Y00691*
X03875Y00703D02*
X03884Y00713D01*
X03887Y0071*
Y00691*
X03889Y00689*
X03882Y00582D02*
X03868Y00596D01*
Y00582*
X03877Y00591*
X03887D02*
X03891D01*
X03896Y00596*
Y00601*
X03887Y0061*
X03882*
X03877Y00606*
Y00601*
X0388Y00599*
X03884*
X03891Y00606*
X0387Y00499D02*
X03861Y00489D01*
X03868Y00482*
X0387Y00489*
X03873Y00491*
X03877*
X03882Y00487*
Y00482*
X03877Y00477*
X03873*
X03889Y00489D02*
X03894Y00494D01*
X03891Y00491*
X03877Y00506*
Y00501*
X0387Y00399D02*
X03861Y00389D01*
X03868Y00382*
X0387Y00389*
X03873Y00391*
X03877*
X03882Y00387*
Y00382*
X03877Y00377*
X03873*
X03877Y00401D02*
Y00406D01*
X03882Y0041*
X03887*
X03889Y00408*
Y00403*
X03887Y00401*
X03889Y00403*
X03894*
X03896Y00401*
Y00396*
X03891Y00391*
X03887*
X03873Y00296D02*
X03868D01*
X03863Y00291*
Y00287*
X03873Y00277*
X03877*
X03882Y00282*
Y00287*
X03877Y00291*
X03873Y00287*
X03889Y00289D02*
X03875Y00303D01*
X03899Y00299*
X03884Y00313*
X03889Y00317D02*
X03903Y00303D01*
X0391Y0031*
Y00315*
X03901Y00324*
X03896*
X03889Y00317*
X03302Y01904D02*
X03307D01*
X03312Y01909*
Y01913*
X03309Y01916*
X03305*
X033Y01911*
X03295*
X03293Y01913*
Y01918*
X03298Y01923*
X03302*
X033Y01897D02*
X03286Y01911D01*
X03279Y01904*
Y01899*
X03288Y0189*
X03293*
X033Y01897*
X03272D02*
X03281Y01887D01*
Y01878*
X03272*
X03262Y01887*
X03269Y0188*
X03279Y0189*
X032Y01925D02*
X03214Y01911D01*
X03207Y01904*
X03202*
X03198Y01909*
Y01913*
X03205Y0192*
X032Y01916D02*
X03191D01*
X032Y01897D02*
X03176Y01901D01*
X03191Y01887D02*
X03186Y01911D01*
X03172Y01897D02*
X03167Y01892D01*
X03169Y01894*
X03184Y0188*
Y01885*
X03114Y01911D02*
X03105Y01901D01*
X03109Y01906*
X03095Y0192*
X031Y01897D02*
X03076Y01901D01*
X03091Y01887D02*
X03086Y01911D01*
X03072Y01897D02*
X03067Y01892D01*
X03069Y01894*
X03084Y0188*
Y01885*
X03Y01925D02*
X03014Y01911D01*
X03007Y01904*
X03002*
X02998Y01909*
Y01913*
X03005Y0192*
X03Y01916D02*
X02991D01*
X03Y01897D02*
X02976Y01901D01*
X02991Y01887D02*
X02986Y01911D01*
X02962Y01887D02*
X02972Y01897D01*
Y01878*
X02974Y01876*
X02979*
X02984Y0188*
Y01885*
X02914Y01911D02*
X02905Y01901D01*
X02909Y01906*
X02895Y0192*
X029Y01897D02*
X02876Y01901D01*
X02891Y01887D02*
X02886Y01911D01*
X02862Y01887D02*
X02872Y01897D01*
Y01878*
X02874Y01876*
X02879*
X02884Y0188*
Y01885*
X028Y01925D02*
X02814Y01911D01*
X02807Y01904*
X02802*
X02798Y01909*
Y01913*
X02805Y0192*
X028Y01916D02*
X02791D01*
X028Y01897D02*
X02776Y01901D01*
X02791Y01887D02*
X02786Y01911D01*
X02784Y01885D02*
Y0188D01*
X02779Y01876*
X02774*
X02772Y01878*
Y01883*
X02774Y01885*
X02772Y01883*
X02767*
X02765Y01885*
Y0189*
X02769Y01894*
X02774*
X02714Y01911D02*
X02705Y01901D01*
X02709Y01906*
X02695Y0192*
X027Y01897D02*
X02676Y01901D01*
X02691Y01887D02*
X02686Y01911D01*
X02684Y01885D02*
Y0188D01*
X02679Y01876*
X02674*
X02672Y01878*
Y01883*
X02674Y01885*
X02672Y01883*
X02667*
X02665Y01885*
Y0189*
X02669Y01894*
X02674*
X02414Y01911D02*
X02405Y01901D01*
X02409Y01906*
X02395Y0192*
X024Y01897D02*
X02376Y01901D01*
X02391Y01887D02*
X02386Y01911D01*
X02384Y01885D02*
Y0188D01*
X02379Y01876*
X02374*
X02365Y01885*
Y0189*
X02369Y01894*
X02374*
X02384Y01885*
X023Y01925D02*
X02314Y01911D01*
X02307Y01904*
X02302*
X02298Y01909*
Y01913*
X02305Y0192*
X023Y01897D02*
X02286Y01911D01*
Y01901*
X02276*
X02291Y01887*
X02272Y01897D02*
X02286Y01883D01*
X02276*
Y01873*
X02262Y01887*
X02248Y01873D02*
X02258Y01883D01*
Y01864*
X0226Y01861*
X02265*
X02269Y01866*
Y01871*
X022Y01918D02*
X02214Y01904D01*
X02207Y01897*
X02202*
X02198Y01901*
Y01906*
X02205Y01913*
X022Y0189D02*
X02186Y01904D01*
Y01894*
X02176*
X02191Y0188*
X02172Y0189D02*
X02186Y01876D01*
X02176*
Y01866*
X02162Y0188*
X02169Y01864D02*
Y01859D01*
X02165Y01854*
X0216*
X02158Y01857*
Y01861*
X0216Y01864*
X02158Y01861*
X02153*
X02151Y01864*
Y01868*
X02155Y01873*
X0216*
X021Y01918D02*
X02114Y01904D01*
X02107Y01897*
X02102*
X02098Y01901*
Y01906*
X02105Y01913*
X021Y0189D02*
X02086Y01904D01*
Y01894*
X02076*
X02091Y0188*
X02072Y0189D02*
X02086Y01876D01*
X02076*
Y01866*
X02062Y0188*
X02051Y01868D02*
X02065Y01854D01*
Y01868*
X02055Y01859*
X02Y01918D02*
X02014Y01904D01*
X02007Y01897*
X02002*
X01998Y01901*
Y01906*
X02005Y01913*
X02Y0189D02*
X01986Y01904D01*
Y01894*
X01976*
X01991Y0188*
X01972Y0189D02*
X01986Y01876D01*
X01976*
Y01866*
X01962Y0188*
Y01852D02*
X01972Y01861D01*
X01965Y01868*
X01962Y01861*
X0196Y01859*
X01955*
X01951Y01864*
Y01868*
X01955Y01873*
X0196*
X019Y01918D02*
X01914Y01904D01*
X01907Y01897*
X01902*
X01898Y01901*
Y01906*
X01905Y01913*
X019Y0189D02*
X01886Y01904D01*
Y01894*
X01876*
X01891Y0188*
X01872Y0189D02*
X01886Y01876D01*
X01876*
Y01866*
X01862Y0188*
Y01852D02*
X01865Y01859D01*
Y01868*
X0186Y01873*
X01855*
X01851Y01868*
Y01864*
X01853Y01861*
X01858*
X01865Y01868*
X018Y01918D02*
X01814Y01904D01*
X01807Y01897*
X01802*
X01798Y01901*
Y01906*
X01805Y01913*
X018Y0189D02*
X01786Y01904D01*
Y01894*
X01776*
X01791Y0188*
X01772Y0189D02*
X01786Y01876D01*
X01776*
Y01866*
X01762Y0188*
X01772Y01861D02*
X01762Y01852D01*
X0176Y01854*
Y01873*
X01758Y01876*
X0164Y0192D02*
X01654Y01906D01*
X01647Y01899*
X01642*
X01638Y01904*
Y01908*
X01645Y01915*
X0164Y01892D02*
X01626Y01906D01*
Y01896*
X01616*
X01631Y01882*
X01612Y01892D02*
X01626Y01878D01*
X01616*
Y01868*
X01602Y01882*
X01609Y01866D02*
Y01861D01*
X01605Y01856*
X016*
X01598Y01859*
Y01863*
X01593*
X01591Y01866*
Y01871*
X01595Y01875*
X016*
X01602Y01873*
Y01868*
X01607*
X01609Y01866*
X01602Y01868D02*
X01598Y01863D01*
X0154Y0192D02*
X01554Y01906D01*
X01547Y01899*
X01542*
X01538Y01904*
Y01908*
X01545Y01915*
X0154Y01892D02*
X01526Y01906D01*
Y01896*
X01516*
X01531Y01882*
X01512Y01892D02*
X01526Y01878D01*
X01516*
Y01868*
X01502Y01882*
X015Y01875D02*
X01495D01*
X01491Y01871*
Y01866*
X015Y01856*
X01505*
X01509Y01861*
Y01866*
X01507Y01868*
X01502*
X01495Y01861*
X0144Y0192D02*
X01454Y01906D01*
X01447Y01899*
X01442*
X01438Y01904*
Y01908*
X01445Y01915*
X0144Y01892D02*
X01426Y01906D01*
Y01896*
X01416*
X01431Y01882*
X01412Y01892D02*
X01426Y01878D01*
X01416*
Y01868*
X01402Y01882*
X01398Y01878D02*
X01393Y01873D01*
X01395Y01875*
X01409Y01861*
Y01866*
X01398Y01854D02*
Y01849D01*
X01393Y01845*
X01388*
X01379Y01854*
Y01859*
X01383Y01863*
X01388*
X01398Y01854*
X0134Y0192D02*
X01354Y01906D01*
X01347Y01899*
X01342*
X01338Y01904*
Y01908*
X01345Y01915*
X0134Y01892D02*
X01326Y01906D01*
Y01896*
X01316*
X01331Y01882*
X01312Y01892D02*
X01326Y01878D01*
X01316*
Y01868*
X01302Y01882*
X01298Y01878D02*
X01293Y01873D01*
X01295Y01875*
X01309Y01861*
Y01866*
X01286D02*
X01281Y01861D01*
X01283Y01863*
X01298Y01849*
Y01854*
X0124Y0192D02*
X01254Y01906D01*
X01247Y01899*
X01242*
X01238Y01904*
Y01908*
X01245Y01915*
X0124Y01892D02*
X01226Y01906D01*
Y01896*
X01216*
X01231Y01882*
X01212Y01892D02*
X01226Y01878D01*
X01216*
Y01868*
X01202Y01882*
X01198Y01878D02*
X01193Y01873D01*
X01195Y01875*
X01209Y01861*
Y01866*
X01176Y01856D02*
X01186Y01866D01*
Y01847*
X01188Y01845*
X01193*
X01198Y01849*
Y01854*
X0114Y0192D02*
X01154Y01906D01*
X01147Y01899*
X01142*
X01138Y01904*
Y01908*
X01145Y01915*
X0114Y01892D02*
X01126Y01906D01*
Y01896*
X01116*
X01131Y01882*
X01112Y01892D02*
X01126Y01878D01*
X01116*
Y01868*
X01102Y01882*
X01098Y01878D02*
X01093Y01873D01*
X01095Y01875*
X01109Y01861*
Y01866*
X01098Y01854D02*
Y01849D01*
X01093Y01845*
X01088*
X01086Y01847*
Y01852*
X01088Y01854*
X01086Y01852*
X01081*
X01079Y01854*
Y01859*
X01083Y01863*
X01088*
X01042Y01899D02*
X01047D01*
X01052Y01904*
Y01908*
X01042Y01918*
X01038*
X01033Y01913*
Y01908*
X01038Y01904*
X01042Y01908*
X01026Y01906D02*
X0104Y01892D01*
X01016Y01896*
X01031Y01882*
X01026Y01878D02*
X01012Y01892D01*
X01005Y01885*
Y0188*
X01014Y01871*
X01019*
X01026Y01878*
X0094Y0192D02*
X00949Y01911D01*
Y01901*
X0094*
X00931Y01911*
X00938Y01904*
X00947Y01913*
X00926Y01906D02*
X0094Y01892D01*
X00933Y01885*
X00928*
X00924Y01889*
Y01894*
X00931Y01901*
X00926Y01896D02*
X00916D01*
Y01868D02*
X00926Y01878D01*
X00912Y01892*
X00902Y01882*
X00919Y01885D02*
X00914Y0188D01*
X00902Y01854D02*
X00912Y01863D01*
X00905Y01871*
X009Y01866*
X00905Y01871*
X00898Y01878*
X03863Y001D02*
D01*
X03862Y00104*
X03862Y00108*
X03861Y00113*
X0386Y00117*
X03859Y00121*
X03857Y00125*
X03855Y00129*
X03853Y00133*
X0385Y00137*
X03848Y0014*
X03845Y00143*
X03842Y00146*
X03838Y00149*
X03835Y00152*
X03831Y00154*
X03827Y00156*
X03823Y00158*
X03819Y00159*
X03815Y00161*
X0381Y00162*
X03806Y00162*
X03802Y00162*
X03797*
X03793Y00162*
X03789Y00162*
X03784Y00161*
X0378Y00159*
X03776Y00158*
X03772Y00156*
X03768Y00154*
X03764Y00152*
X03761Y00149*
X03757Y00146*
X03754Y00143*
X03751Y0014*
X03749Y00137*
X03746Y00133*
X03744Y00129*
X03742Y00125*
X0374Y00121*
X03739Y00117*
X03738Y00113*
X03737Y00108*
X03737Y00104*
X03737Y001*
X03737Y00095*
X03737Y00091*
X03738Y00086*
X03739Y00082*
X0374Y00078*
X03742Y00074*
X03744Y0007*
X03746Y00066*
X03749Y00062*
X03751Y00059*
X03754Y00056*
X03757Y00053*
X03761Y0005*
X03764Y00047*
X03768Y00045*
X03772Y00043*
X03776Y00041*
X0378Y0004*
X03784Y00038*
X03789Y00037*
X03793Y00037*
X03797Y00037*
X03802*
X03806Y00037*
X0381Y00037*
X03815Y00038*
X03819Y0004*
X03823Y00041*
X03827Y00043*
X03831Y00045*
X03835Y00047*
X03838Y0005*
X03842Y00053*
X03845Y00056*
X03848Y00059*
X0385Y00062*
X03853Y00066*
X03855Y0007*
X03857Y00074*
X03859Y00078*
X0386Y00082*
X03861Y00086*
X03862Y00091*
X03862Y00095*
X03863Y001*
X03613Y02D02*
D01*
X03612Y02004*
X03612Y02008*
X03611Y02013*
X0361Y02017*
X03609Y02021*
X03607Y02025*
X03605Y02029*
X03603Y02033*
X036Y02037*
X03598Y0204*
X03595Y02043*
X03592Y02046*
X03588Y02049*
X03585Y02052*
X03581Y02054*
X03577Y02056*
X03573Y02058*
X03569Y02059*
X03565Y02061*
X0356Y02062*
X03556Y02062*
X03552Y02062*
X03547*
X03543Y02062*
X03539Y02062*
X03534Y02061*
X0353Y02059*
X03526Y02058*
X03522Y02056*
X03518Y02054*
X03514Y02052*
X03511Y02049*
X03507Y02046*
X03504Y02043*
X03501Y0204*
X03499Y02037*
X03496Y02033*
X03494Y02029*
X03492Y02025*
X0349Y02021*
X03489Y02017*
X03488Y02013*
X03487Y02008*
X03487Y02004*
X03487Y02*
X03487Y01995*
X03487Y01991*
X03488Y01986*
X03489Y01982*
X0349Y01978*
X03492Y01974*
X03494Y0197*
X03496Y01966*
X03499Y01962*
X03501Y01959*
X03504Y01956*
X03507Y01953*
X03511Y0195*
X03514Y01947*
X03518Y01945*
X03522Y01943*
X03526Y01941*
X0353Y0194*
X03534Y01938*
X03539Y01937*
X03543Y01937*
X03547Y01937*
X03552*
X03556Y01937*
X0356Y01937*
X03565Y01938*
X03569Y0194*
X03573Y01941*
X03577Y01943*
X03581Y01945*
X03585Y01947*
X03588Y0195*
X03592Y01953*
X03595Y01956*
X03598Y01959*
X036Y01962*
X03603Y01966*
X03605Y0197*
X03607Y01974*
X03609Y01978*
X0361Y01982*
X03611Y01986*
X03612Y01991*
X03612Y01995*
X03613Y02*
X02663Y014D02*
D01*
X02662Y01404*
X02662Y01408*
X02661Y01413*
X0266Y01417*
X02659Y01421*
X02657Y01425*
X02655Y01429*
X02653Y01433*
X0265Y01437*
X02648Y0144*
X02645Y01443*
X02642Y01446*
X02638Y01449*
X02635Y01452*
X02631Y01454*
X02627Y01456*
X02623Y01458*
X02619Y01459*
X02615Y01461*
X0261Y01462*
X02606Y01462*
X02602Y01462*
X02597*
X02593Y01462*
X02589Y01462*
X02584Y01461*
X0258Y01459*
X02576Y01458*
X02572Y01456*
X02568Y01454*
X02564Y01452*
X02561Y01449*
X02557Y01446*
X02554Y01443*
X02551Y0144*
X02549Y01437*
X02546Y01433*
X02544Y01429*
X02542Y01425*
X0254Y01421*
X02539Y01417*
X02538Y01413*
X02537Y01408*
X02537Y01404*
X02537Y014*
X02537Y01395*
X02537Y01391*
X02538Y01386*
X02539Y01382*
X0254Y01378*
X02542Y01374*
X02544Y0137*
X02546Y01366*
X02549Y01362*
X02551Y01359*
X02554Y01356*
X02557Y01353*
X02561Y0135*
X02564Y01347*
X02568Y01345*
X02572Y01343*
X02576Y01341*
X0258Y0134*
X02584Y01338*
X02589Y01337*
X02593Y01337*
X02597Y01337*
X02602*
X02606Y01337*
X0261Y01337*
X02615Y01338*
X02619Y0134*
X02623Y01341*
X02627Y01343*
X02631Y01345*
X02635Y01347*
X02638Y0135*
X02642Y01353*
X02645Y01356*
X02648Y01359*
X0265Y01362*
X02653Y01366*
X02655Y0137*
X02657Y01374*
X02659Y01378*
X0266Y01382*
X02661Y01386*
X02662Y01391*
X02662Y01395*
X02663Y014*
X00613Y001D02*
D01*
X00612Y00104*
X00612Y00108*
X00611Y00113*
X0061Y00117*
X00609Y00121*
X00607Y00125*
X00605Y00129*
X00603Y00133*
X006Y00137*
X00598Y0014*
X00595Y00143*
X00592Y00146*
X00588Y00149*
X00585Y00152*
X00581Y00154*
X00577Y00156*
X00573Y00158*
X00569Y00159*
X00565Y00161*
X0056Y00162*
X00556Y00162*
X00552Y00162*
X00547*
X00543Y00162*
X00539Y00162*
X00534Y00161*
X0053Y00159*
X00526Y00158*
X00522Y00156*
X00518Y00154*
X00514Y00152*
X00511Y00149*
X00507Y00146*
X00504Y00143*
X00501Y0014*
X00499Y00137*
X00496Y00133*
X00494Y00129*
X00492Y00125*
X0049Y00121*
X00489Y00117*
X00488Y00113*
X00487Y00108*
X00487Y00104*
X00487Y001*
X00487Y00095*
X00487Y00091*
X00488Y00086*
X00489Y00082*
X0049Y00078*
X00492Y00074*
X00494Y0007*
X00496Y00066*
X00499Y00062*
X00501Y00059*
X00504Y00056*
X00507Y00053*
X00511Y0005*
X00514Y00047*
X00518Y00045*
X00522Y00043*
X00526Y00041*
X0053Y0004*
X00534Y00038*
X00539Y00037*
X00543Y00037*
X00547Y00037*
X00552*
X00556Y00037*
X0056Y00037*
X00565Y00038*
X00569Y0004*
X00573Y00041*
X00577Y00043*
X00581Y00045*
X00585Y00047*
X00588Y0005*
X00592Y00053*
X00595Y00056*
X00598Y00059*
X006Y00062*
X00603Y00066*
X00605Y0007*
X00607Y00074*
X00609Y00078*
X0061Y00082*
X00611Y00086*
X00612Y00091*
X00612Y00095*
X00613Y001*
X02663Y003D02*
D01*
X02662Y00304*
X02662Y00308*
X02661Y00313*
X0266Y00317*
X02659Y00321*
X02657Y00325*
X02655Y00329*
X02653Y00333*
X0265Y00337*
X02648Y0034*
X02645Y00343*
X02642Y00346*
X02638Y00349*
X02635Y00352*
X02631Y00354*
X02627Y00356*
X02623Y00358*
X02619Y00359*
X02615Y00361*
X0261Y00362*
X02606Y00362*
X02602Y00362*
X02597*
X02593Y00362*
X02589Y00362*
X02584Y00361*
X0258Y00359*
X02576Y00358*
X02572Y00356*
X02568Y00354*
X02564Y00352*
X02561Y00349*
X02557Y00346*
X02554Y00343*
X02551Y0034*
X02549Y00337*
X02546Y00333*
X02544Y00329*
X02542Y00325*
X0254Y00321*
X02539Y00317*
X02538Y00313*
X02537Y00308*
X02537Y00304*
X02537Y003*
X02537Y00295*
X02537Y00291*
X02538Y00286*
X02539Y00282*
X0254Y00278*
X02542Y00274*
X02544Y0027*
X02546Y00266*
X02549Y00262*
X02551Y00259*
X02554Y00256*
X02557Y00253*
X02561Y0025*
X02564Y00247*
X02568Y00245*
X02572Y00243*
X02576Y00241*
X0258Y0024*
X02584Y00238*
X02589Y00237*
X02593Y00237*
X02597Y00237*
X02602*
X02606Y00237*
X0261Y00237*
X02615Y00238*
X02619Y0024*
X02623Y00241*
X02627Y00243*
X02631Y00245*
X02635Y00247*
X02638Y0025*
X02642Y00253*
X02645Y00256*
X02648Y00259*
X0265Y00262*
X02653Y00266*
X02655Y0027*
X02657Y00274*
X02659Y00278*
X0266Y00282*
X02661Y00286*
X02662Y00291*
X02662Y00295*
X02663Y003*
X00663Y02D02*
D01*
X00662Y02004*
X00662Y02008*
X00661Y02013*
X0066Y02017*
X00659Y02021*
X00657Y02025*
X00655Y02029*
X00653Y02033*
X0065Y02037*
X00648Y0204*
X00645Y02043*
X00642Y02046*
X00638Y02049*
X00635Y02052*
X00631Y02054*
X00627Y02056*
X00623Y02058*
X00619Y02059*
X00615Y02061*
X0061Y02062*
X00606Y02062*
X00602Y02062*
X00597*
X00593Y02062*
X00589Y02062*
X00584Y02061*
X0058Y02059*
X00576Y02058*
X00572Y02056*
X00568Y02054*
X00564Y02052*
X00561Y02049*
X00557Y02046*
X00554Y02043*
X00551Y0204*
X00549Y02037*
X00546Y02033*
X00544Y02029*
X00542Y02025*
X0054Y02021*
X00539Y02017*
X00538Y02013*
X00537Y02008*
X00537Y02004*
X00537Y02*
X00537Y01995*
X00537Y01991*
X00538Y01986*
X00539Y01982*
X0054Y01978*
X00542Y01974*
X00544Y0197*
X00546Y01966*
X00549Y01962*
X00551Y01959*
X00554Y01956*
X00557Y01953*
X00561Y0195*
X00564Y01947*
X00568Y01945*
X00572Y01943*
X00576Y01941*
X0058Y0194*
X00584Y01938*
X00589Y01937*
X00593Y01937*
X00597Y01937*
X00602*
X00606Y01937*
X0061Y01937*
X00615Y01938*
X00619Y0194*
X00623Y01941*
X00627Y01943*
X00631Y01945*
X00635Y01947*
X00638Y0195*
X00642Y01953*
X00645Y01956*
X00648Y01959*
X0065Y01962*
X00653Y01966*
X00655Y0197*
X00657Y01974*
X00659Y01978*
X0066Y01982*
X00661Y01986*
X00662Y01991*
X00662Y01995*
X00663Y02*
X0Y0D02*
Y021D01*
X038*
X0Y0D02*
X039D01*
X038Y021D02*
X039Y02D01*
Y016D02*
Y02D01*
Y016D02*
X04Y015D01*
Y0015D02*
Y015D01*
X039Y0005D02*
X04Y0015D01*
X039Y0D02*
Y0005D01*
G54D29*
X02679Y00526D02*
D01*
X02678Y00527*
X02678Y00529*
X02678Y00531*
X02678Y00532*
X02677Y00534*
X02676Y00536*
X02676Y00537*
X02675Y00539*
X02674Y0054*
X02673Y00542*
X02671Y00543*
X0267Y00544*
X02669Y00545*
X02667Y00546*
X02666Y00547*
X02664Y00548*
X02663Y00549*
X02661Y00549*
X0266Y0055*
X02658Y0055*
X02656Y0055*
X02654Y0055*
X02653*
X02651Y0055*
X02649Y0055*
X02647Y0055*
X02646Y00549*
X02644Y00549*
X02643Y00548*
X02641Y00547*
X0264Y00546*
X02638Y00545*
X02637Y00544*
X02636Y00543*
X02634Y00542*
X02633Y0054*
X02632Y00539*
X02631Y00537*
X02631Y00536*
X0263Y00534*
X02629Y00532*
X02629Y00531*
X02629Y00529*
X02629Y00527*
X0263Y00526*
X02173Y00475D02*
D01*
X02172Y00481*
X02172Y00488*
X0217Y00495*
X02169Y00502*
X02167Y00508*
X02164Y00514*
X02161Y00521*
X02158Y00526*
X02154Y00532*
X0215Y00537*
X02145Y00543*
X0214Y00547*
X02135Y00552*
X02129Y00556*
X02124Y00559*
X02117Y00563*
X02111Y00565*
X02105Y00568*
X02098Y0057*
X02092Y00571*
X02085Y00572*
X02078Y00572*
X02071*
X02064Y00572*
X02057Y00571*
X02051Y0057*
X02044Y00568*
X02038Y00565*
X02032Y00563*
X02026Y00559*
X0202Y00556*
X02014Y00552*
X02009Y00547*
X02004Y00543*
X01999Y00537*
X01995Y00532*
X01991Y00526*
X01988Y00521*
X01985Y00514*
X01982Y00508*
X0198Y00502*
X01979Y00495*
X01977Y00488*
X01977Y00481*
X01977Y00475*
X01977Y00468*
X01977Y00461*
X01979Y00454*
X0198Y00447*
X01982Y00441*
X01985Y00435*
X01988Y00428*
X01991Y00423*
X01995Y00417*
X01999Y00412*
X02004Y00406*
X02009Y00402*
X02014Y00397*
X0202Y00393*
X02026Y0039*
X02032Y00386*
X02038Y00384*
X02044Y00381*
X02051Y00379*
X02057Y00378*
X02064Y00377*
X02071Y00377*
X02078*
X02085Y00377*
X02092Y00378*
X02098Y00379*
X02105Y00381*
X02111Y00384*
X02117Y00386*
X02124Y0039*
X02129Y00393*
X02135Y00397*
X0214Y00402*
X02145Y00406*
X0215Y00412*
X02154Y00417*
X02158Y00423*
X02161Y00428*
X02164Y00435*
X02167Y00441*
X02169Y00447*
X0217Y00454*
X02172Y00461*
X02172Y00468*
X02173Y00475*
X01875Y016D02*
X02675D01*
Y017*
X01875D02*
X02675D01*
X01875Y016D02*
Y017D01*
X033Y009D02*
X034D01*
X033D02*
Y013D01*
X034Y009D02*
Y013D01*
X033D02*
X034D01*
X033Y003D02*
X034D01*
X033D02*
Y007D01*
X034Y003D02*
Y007D01*
X033D02*
X034D01*
X02679Y00526D02*
X02868D01*
X02442D02*
X0263D01*
X02442D02*
Y01313D01*
X02868*
Y00526D02*
Y01313D01*
X0005Y01002D02*
X00615D01*
X0005Y00648D02*
Y01002D01*
X00615Y00648D02*
Y00738D01*
X0053Y00648D02*
X00615D01*
X0005D02*
X00405D01*
X00615Y00905D02*
Y01002D01*
X0046Y01445D02*
X0054D01*
Y01205D02*
Y01445D01*
X0046Y01205D02*
X0054D01*
X0046D02*
Y01445D01*
X005D02*
Y01485D01*
Y01165D02*
Y01205D01*
X0085Y011D02*
Y012D01*
X0125*
X0085Y011D02*
X0125D01*
Y012*
X00625Y00325D02*
Y00425D01*
X00125Y00325D02*
Y00425D01*
X00625*
X00125Y00325D02*
X00625D01*
X007Y016D02*
X015D01*
Y017*
X007D02*
X015D01*
X007Y016D02*
Y017D01*
X0085Y0055D02*
Y0065D01*
X0125*
X0085Y0055D02*
X0125D01*
Y0065*
X0145Y0055D02*
Y0065D01*
X0185*
X0145Y0055D02*
X0185D01*
Y0065*
Y011D02*
Y012D01*
X0145Y011D02*
X0185D01*
X0145Y012D02*
X0185D01*
X0145Y011D02*
Y012D01*
G54D30*
X00367Y0132D02*
D01*
X00366Y01328*
X00365Y01336*
X00364Y01344*
X00362Y01352*
X00359Y0136*
X00356Y01367*
X00353Y01374*
X00349Y01382*
X00344Y01388*
X00339Y01395*
X00334Y01401*
X00328Y01406*
X00322Y01412*
X00315Y01416*
X00308Y01421*
X00301Y01425*
X00293Y01428*
X00286Y01431*
X00278Y01433*
X0027Y01435*
X00262Y01436*
X00254Y01436*
X00245*
X00237Y01436*
X00229Y01435*
X00221Y01433*
X00213Y01431*
X00206Y01428*
X00198Y01425*
X00191Y01421*
X00184Y01416*
X00177Y01412*
X00171Y01406*
X00165Y01401*
X0016Y01395*
X00155Y01388*
X0015Y01382*
X00146Y01374*
X00143Y01367*
X0014Y0136*
X00137Y01352*
X00135Y01344*
X00134Y01336*
X00133Y01328*
X00133Y0132*
X00133Y01311*
X00134Y01303*
X00135Y01295*
X00137Y01287*
X0014Y01279*
X00143Y01272*
X00146Y01265*
X0015Y01257*
X00155Y01251*
X0016Y01244*
X00165Y01238*
X00171Y01233*
X00177Y01227*
X00184Y01223*
X00191Y01218*
X00198Y01214*
X00206Y01211*
X00213Y01208*
X00221Y01206*
X00229Y01204*
X00237Y01203*
X00245Y01203*
X00254*
X00262Y01203*
X0027Y01204*
X00278Y01206*
X00286Y01208*
X00293Y01211*
X00301Y01214*
X00308Y01218*
X00315Y01223*
X00322Y01227*
X00328Y01233*
X00334Y01238*
X00339Y01244*
X00344Y01251*
X00349Y01257*
X00353Y01265*
X00356Y01272*
X00359Y01279*
X00362Y01287*
X00364Y01295*
X00365Y01303*
X00366Y01311*
X00367Y0132*
X0365Y002D02*
X0385D01*
X0365D02*
Y02D01*
X0375Y019D02*
X0385D01*
X0375D02*
Y02D01*
X0365D02*
X03825D01*
X0385Y01975*
Y002D02*
Y01975D01*
X0245Y0195D02*
Y0205D01*
X0175D02*
X0255D01*
X0175Y0195D02*
Y0205D01*
Y0195D02*
X0255D01*
Y0205*
X0159Y0195D02*
Y0205D01*
X0089D02*
X0169D01*
X0089Y0195D02*
Y0205D01*
Y0195D02*
X0169D01*
Y0205*
X0185Y0005D02*
Y001D01*
X0175Y0005D02*
X0185D01*
X0125Y0015D02*
X0175D01*
X0125Y0005D02*
Y0015D01*
Y0005D02*
X0175D01*
Y0015*
X0185*
Y001D02*
Y0015D01*
X0335Y0195D02*
Y0205D01*
X0265D02*
X0345D01*
X0265Y0195D02*
Y0205D01*
Y0195D02*
X0345D01*
Y0205*
X0205Y0005D02*
Y0015D01*
X0195Y0005D02*
X0275D01*
Y0015*
X0195D02*
X0275D01*
X0195Y0005D02*
Y0015D01*
X0295Y0005D02*
Y0015D01*
X0285Y0005D02*
X0365D01*
Y0015*
X0285D02*
X0365D01*
X0285Y0005D02*
Y0015D01*
X03593Y00275D02*
X03613Y00255D01*
X0285Y00275D02*
X03593D01*
X02825Y003D02*
X0285Y00275D01*
X028D02*
X02825Y003D01*
X02025Y00275D02*
X028D01*
X02Y0025D02*
X02025Y00275D01*
X01825D02*
X0185Y0025D01*
X0165Y00275D02*
X01825D01*
X01625Y003D02*
X0165Y00275D01*
X016D02*
X01625Y003D01*
X01425Y00275D02*
X016D01*
X014Y0025D02*
X01425Y00275D01*
X01075Y01775D02*
X011Y0175D01*
X01725*
X0175Y01725*
X01775Y0175*
X02475*
X025Y01775*
X0235Y0185D02*
X02375Y01825D01*
X02875*
X029Y018*
X02925Y01825*
X034*
X03425Y0185*
X019Y015D02*
Y0156D01*
X0193*
X0194Y0155*
Y0153*
X0193Y0152*
X019*
X0192D02*
X0194Y015D01*
X0196D02*
Y0156D01*
X0198Y0154*
X02Y0156*
Y015*
X0202Y0156D02*
Y015D01*
X0205*
X0206Y0151*
Y0155*
X0205Y0156*
X0202*
X0208Y015D02*
Y0156D01*
X0211*
X0212Y0155*
Y0153*
X0211Y0152*
X0208*
X021D02*
X0212Y015D01*
X0319Y01D02*
X0325D01*
Y0104*
Y0106D02*
X0319D01*
Y0109*
X032Y011*
X0322*
X0323Y0109*
Y0106*
Y0108D02*
X0325Y011D01*
X032Y0116D02*
X0319Y0115D01*
Y0113*
X032Y0112*
X0321*
X0322Y0113*
Y0115*
X0323Y0116*
X0324*
X0325Y0115*
Y0113*
X0324Y0112*
X0319Y0118D02*
X0325D01*
X0323Y012*
X0325Y0122*
X0319*
X0325Y004D02*
X0319D01*
Y0043*
X032Y0044*
X0322*
X0323Y0043*
Y004*
Y0042D02*
X0325Y0044D01*
Y0046D02*
X0319D01*
Y0049*
X032Y005*
X0322*
X0323Y0049*
Y0046*
Y0048D02*
X0325Y005D01*
X032Y0056D02*
X0319Y0055D01*
Y0053*
X032Y0052*
X0321*
X0322Y0053*
Y0055*
X0323Y0056*
X0324*
X0325Y0055*
Y0053*
X0324Y0052*
X0319Y0058D02*
X0325D01*
X0323Y006*
X0325Y0062*
X0319*
X02315Y00475D02*
X02305Y00485D01*
X02285*
X02275Y00475*
Y00465*
X02285Y00455*
X02305*
X02315Y00445*
Y00435*
X02305Y00425*
X02285*
X02275Y00435*
X02335Y00485D02*
X02375D01*
X02355*
Y00425*
X02435Y00485D02*
X02395D01*
Y00425*
X02435*
X02395Y00455D02*
X02415D01*
X02455Y00425D02*
Y00485D01*
X02485*
X02495Y00475*
Y00455*
X02485Y00445*
X02455*
X02515Y00425D02*
Y00485D01*
X02545*
X02555Y00475*
Y00455*
X02545Y00445*
X02515*
X02615Y00485D02*
X02575D01*
Y00425*
X02615*
X02575Y00455D02*
X02595D01*
X02635Y00425D02*
Y00485D01*
X02665*
X02675Y00475*
Y00455*
X02665Y00445*
X02635*
X02655D02*
X02675Y00425D01*
X02755Y00485D02*
Y00425D01*
X02785*
X02795Y00435*
Y00475*
X02785Y00485*
X02755*
X02815Y00425D02*
Y00485D01*
X02845*
X02855Y00475*
Y00455*
X02845Y00445*
X02815*
X02835D02*
X02855Y00425D01*
X02875Y00485D02*
X02895D01*
X02885*
Y00425*
X02875*
X02895*
X02925Y00485D02*
Y00445D01*
X02945Y00425*
X02965Y00445*
Y00485*
X03025D02*
X02985D01*
Y00425*
X03025*
X02985Y00455D02*
X03005D01*
X03045Y00425D02*
Y00485D01*
X03075*
X03085Y00475*
Y00455*
X03075Y00445*
X03045*
X03065D02*
X03085Y00425D01*
X0349Y00325D02*
X0355D01*
Y00355*
X0354Y00365*
X035*
X0349Y00355*
Y00325*
Y00385D02*
Y00405D01*
Y00395*
X0355*
Y00385*
Y00405*
X035Y00475D02*
X0349Y00465D01*
Y00445*
X035Y00435*
X0354*
X0355Y00445*
Y00465*
X0354Y00475*
X0352*
Y00455*
X0349Y00495D02*
Y00515D01*
Y00505*
X0355*
Y00495*
Y00515*
X0349Y00545D02*
Y00585D01*
Y00565*
X0355*
Y00605D02*
X0351D01*
X0349Y00625*
X0351Y00645*
X0355*
X0352*
Y00605*
X0349Y00665D02*
X0355D01*
Y00705*
X00056Y01036D02*
Y01096D01*
X00086*
X00096Y01086*
Y01066*
X00086Y01056*
X00056*
X00116Y01046D02*
X00126Y01036D01*
X00146*
X00156Y01046*
Y01086*
X00146Y01096*
X00126*
X00116Y01086*
Y01076*
X00126Y01066*
X00156*
X00176Y01096D02*
Y01056D01*
X00196Y01036*
X00216Y01056*
Y01096*
X00466Y01608D02*
Y01668D01*
X00496*
X00506Y01658*
Y01638*
X00496Y01628*
X00466*
X00486D02*
X00506Y01608D01*
X00526D02*
X00546D01*
X00536*
Y01668*
X00526Y01658*
X00138Y01532D02*
Y01472D01*
X00178*
X00238Y01532D02*
X00198D01*
Y01472*
X00238*
X00198Y01502D02*
X00218D01*
X00258Y01532D02*
Y01472D01*
X00288*
X00298Y01482*
Y01522*
X00288Y01532*
X00258*
X00318Y01472D02*
X00338D01*
X00328*
Y01532*
X00318Y01522*
X01825Y017D02*
Y0164D01*
X01795*
X01785Y0165*
Y0167*
X01795Y0168*
X01825*
X01765Y0164D02*
Y017D01*
X01745Y0168*
X01725Y017*
Y0164*
X01705Y017D02*
Y0164D01*
X01685Y0166*
X01665Y0164*
Y017*
X01645Y0171D02*
X01605D01*
X01585Y0164D02*
Y017D01*
X01545*
X01525Y00325D02*
Y00385D01*
X01555*
X01565Y00375*
Y00355*
X01555Y00345*
X01525*
X01615Y00385D02*
X01595D01*
X01585Y00375*
Y00335*
X01595Y00325*
X01615*
X01625Y00335*
Y00375*
X01615Y00385*
X01645D02*
Y00325D01*
X01665Y00345*
X01685Y00325*
Y00385*
X01745D02*
X01705D01*
Y00325*
X01745*
X01705Y00355D02*
X01725D01*
X01765Y00325D02*
Y00385D01*
X01795*
X01805Y00375*
Y00355*
X01795Y00345*
X01765*
X01785D02*
X01805Y00325D01*
X02985Y01725D02*
X02995Y01715D01*
X03015*
X03025Y01725*
Y01765*
X03015Y01775*
X02995*
X02985Y01765*
X02935Y01715D02*
X02955D01*
X02965Y01725*
Y01765*
X02955Y01775*
X02935*
X02925Y01765*
Y01725*
X02935Y01715*
X02905Y01775D02*
Y01715D01*
X02885Y01735*
X02865Y01715*
Y01775*
X02845D02*
Y01715D01*
X02825Y01735*
X02805Y01715*
Y01775*
X02745Y01725D02*
X02755Y01715D01*
X02775*
X02785Y01725*
Y01735*
X02775Y01745*
X02755*
X02745Y01755*
Y01765*
X02755Y01775*
X02775*
X02785Y01765*
X027Y00325D02*
Y00365D01*
X0272Y00385*
X0274Y00365*
Y00325*
Y00355*
X027*
X0276Y00385D02*
Y00325D01*
X0279*
X028Y00335*
Y00375*
X0279Y00385*
X0276*
X0282Y00315D02*
X0286D01*
X0288Y00385D02*
Y00325D01*
X0292*
X00856Y01294D02*
Y01234D01*
Y01264*
X00896*
Y01294*
Y01234*
X00956Y01294D02*
X00916D01*
Y01234*
X00956*
X00916Y01264D02*
X00936D01*
X01016Y01284D02*
X01006Y01294D01*
X00986*
X00976Y01284*
Y01274*
X00986Y01264*
X01006*
X01016Y01254*
Y01244*
X01006Y01234*
X00986*
X00976Y01244*
X00171Y00519D02*
X00151D01*
X00161*
Y00469*
X00151Y00459*
X00141*
X00131Y00469*
X00231Y00509D02*
X00221Y00519D01*
X00201*
X00191Y00509*
Y00499*
X00201Y00489*
X00221*
X00231Y00479*
Y00469*
X00221Y00459*
X00201*
X00191Y00469*
X00251Y00519D02*
X00291D01*
X00271*
Y00459*
X00311Y00519D02*
Y00459D01*
Y00479*
X00351Y00519*
X00321Y00489*
X00351Y00459*
X00706Y01794D02*
Y01734D01*
X00746*
X00766D02*
Y01794D01*
X00786Y01774*
X00806Y01794*
Y01734*
X00826Y01794D02*
Y01734D01*
X00856*
X00866Y01744*
Y01784*
X00856Y01794*
X00826*
X00886Y01734D02*
Y01794D01*
X00916*
X00926Y01784*
Y01764*
X00916Y01754*
X00886*
X00906D02*
X00926Y01734D01*
X00856Y00754D02*
Y00694D01*
X00896*
X00916Y00684D02*
X00956D01*
X01016Y00754D02*
X00976D01*
Y00694*
X01016*
X00976Y00724D02*
X00996D01*
X01036Y00694D02*
Y00754D01*
X01076Y00694*
Y00754*
X01136Y00744D02*
X01126Y00754D01*
X01106*
X01096Y00744*
Y00704*
X01106Y00694*
X01126*
X01136Y00704*
X01456Y00694D02*
Y00754D01*
X01486*
X01496Y00744*
Y00724*
X01486Y00714*
X01456*
X01476D02*
X01496Y00694D01*
X01516Y00684D02*
X01556D01*
X01616Y00754D02*
X01576D01*
Y00694*
X01616*
X01576Y00724D02*
X01596D01*
X01636Y00694D02*
Y00754D01*
X01676Y00694*
Y00754*
X01736Y00744D02*
X01726Y00754D01*
X01706*
X01696Y00744*
Y00704*
X01706Y00694*
X01726*
X01736Y00704*
X02023Y00657D02*
X02013Y00667D01*
X01993*
X01983Y00657*
Y00617*
X01993Y00607*
X02013*
X02023Y00617*
X02043Y00607D02*
X02063D01*
X02053*
Y00667*
X02043Y00657*
X01496Y01284D02*
X01486Y01294D01*
X01466*
X01456Y01284*
Y01274*
X01466Y01264*
X01486*
X01496Y01254*
Y01244*
X01486Y01234*
X01466*
X01456Y01244*
X01516Y01294D02*
X01556D01*
X01536*
Y01234*
X01616Y01294D02*
X01576D01*
Y01234*
X01616*
X01576Y01264D02*
X01596D01*
X01636Y01234D02*
Y01294D01*
X01666*
X01676Y01284*
Y01264*
X01666Y01254*
X01636*
X01696Y01234D02*
Y01294D01*
X01726*
X01736Y01284*
Y01264*
X01726Y01254*
X01696*
X01796Y01294D02*
X01756D01*
Y01234*
X01796*
X01756Y01264D02*
X01776D01*
X01816Y01234D02*
Y01294D01*
X01846*
X01856Y01284*
Y01264*
X01846Y01254*
X01816*
X01836D02*
X01856Y01234D01*
G54D31*
X02075Y00319D02*
Y00358D01*
X02055Y00338D02*
X02095D01*
M02*