%FSTAX23Y23*%
%MOIN*%
%SFA1B1*%

%IPPOS*%
%ADD10C,0.015000*%
%ADD11C,0.005000*%
%ADD12C,0.059000*%
%ADD13R,0.059000X0.059000*%
%ADD14C,0.071000*%
%ADD15R,0.071000X0.071000*%
%ADD16R,0.098000X0.047000*%
%ADD17O,0.098000X0.047000*%
%ADD18C,0.060000*%
%ADD19R,0.079000X0.079000*%
%ADD20C,0.079000*%
%ADD21O,0.071000X0.098000*%
%ADD22O,0.098000X0.071000*%
%ADD23R,0.060000X0.060000*%
%ADD24R,0.071000X0.071000*%
%ADD25C,0.063000*%
%ADD26R,0.098000X0.059000*%
%ADD27O,0.098000X0.059000*%
%ADD28C,0.050000*%
%LNdrivecontroller-1*%
%LPD*%
G54D10*
X021Y00514D02*
Y00623D01*
X018Y0115D02*
X01883Y01067D01*
X02359*
X017Y006D02*
X01753Y00547D01*
X01961*
X02144Y0073*
X02516*
X02713Y00927*
X03077*
X02127Y02073D02*
X022Y02D01*
X00734Y02073D02*
X02127D01*
X00702Y02041D02*
X00734Y02073D01*
X037Y0105D02*
X03748Y01002D01*
Y0082D02*
Y01002D01*
X03728Y008D02*
X03748Y0082D01*
X036Y008D02*
X03728D01*
X0335Y0055D02*
X036Y008D01*
X0375Y013D02*
X038Y0125D01*
X03588Y013D02*
X0375D01*
X03347Y01541D02*
X03588Y013D01*
X00909Y01541D02*
X03347D01*
X0085Y016D02*
X00909Y01541D01*
X0085Y016D02*
Y0165D01*
X03557Y0125D02*
X037D01*
X03468Y01339D02*
X03557Y0125D01*
X03281Y01339D02*
X03468D01*
X03157Y01215D02*
X03281Y01339D01*
X02252Y01215D02*
X03157D01*
X02179Y01288D02*
X02252Y01215D01*
X01112Y01288D02*
X02179D01*
X0075Y0165D02*
X01112Y01288D01*
X0375Y014D02*
X038Y0135D01*
X03584Y014D02*
X0375D01*
X03245Y01738D02*
X03584Y014D01*
X02435Y01738D02*
X03245D01*
X02358Y01662D02*
X02435Y01738D01*
X02325Y0165D02*
X02358Y01662D01*
X03579Y0135D02*
X037D01*
X03219Y0171D02*
X03579Y0135D01*
X02485Y0171D02*
X03219D01*
X02425Y0165D02*
X02485Y0171D01*
X0375Y015D02*
X038Y0145D01*
X0365Y015D02*
X0375D01*
X03362Y01788D02*
X0365Y015D01*
X02164Y01788D02*
X03362D01*
X02025Y0165D02*
X02164Y01788D01*
X01925Y0165D02*
X01972Y01603D01*
X0225*
X02275Y01628*
Y01672*
X023Y01697*
X02352*
X02418Y01763*
X03263*
X03577Y0145*
X037*
Y0175D02*
Y01786D01*
X03713Y01798*
X03827*
X03873Y01752*
Y01145D02*
Y01752D01*
X0383Y01102D02*
X03873Y01145D01*
X03781Y01102D02*
X0383D01*
X03753Y0113D02*
X03781Y01102D01*
X03753Y0113D02*
Y01173D01*
X03725Y012D02*
X03753Y01173D01*
X03567Y012D02*
X03725D01*
X03464Y01303D02*
X03567Y012D01*
X03325Y01303D02*
X03464D01*
X03209Y01187D02*
X03325Y01303D01*
X03096Y01187D02*
X03209D01*
X02976Y01067D02*
X03096Y01187D01*
X0295Y01067D02*
X02976D01*
X03114Y01887D02*
X0316Y01933D01*
X03476*
X03507Y01902*
X03748*
X038Y0185*
X0295Y01264D02*
X03071D01*
X03305Y01498*
X03585Y0185D02*
X037D01*
X0345Y0025D02*
X037D01*
X0335Y0035D02*
X0345Y0025D01*
X01516Y00184D02*
X016Y001D01*
X00366Y00184D02*
X01516D01*
X00175Y00375D02*
X00366Y00184D01*
X01747Y00653D02*
X018Y006D01*
X01253Y00653D02*
X01747D01*
X012Y006D02*
X01253Y00653D01*
X00855Y00436D02*
X02075D01*
X00456Y00835D02*
X00855Y00436D01*
X0035Y00835D02*
X00456D01*
X0085Y00514D02*
X02075D01*
X00798Y00566D02*
X0085Y00514D01*
X00798Y00566D02*
Y00627D01*
X0059Y00835D02*
X00798Y00627D01*
X02188Y01166D02*
X02359D01*
X02136Y01218D02*
X02188Y01166D01*
X0141Y01218D02*
X02136D01*
X01286Y01094D02*
X0141Y01218D01*
X01056Y01094D02*
X01286D01*
X01Y0115D02*
X01056Y01094D01*
X03283Y01883D02*
X03467D01*
X037Y0165*
Y00102D02*
Y0025D01*
X0365Y00052D02*
X037Y00102D01*
X01748Y00052D02*
X0365D01*
X017Y001D02*
X01748Y00052D01*
X0378Y0107D02*
X038Y0105D01*
X03772Y0107D02*
X0378D01*
X03742Y011D02*
X03772Y0107D01*
X034Y011D02*
X03742D01*
X0335Y0115D02*
X034Y011D01*
X0115Y0165D02*
X01197Y01697D01*
X01822*
X01965Y0184*
X03435*
X03675Y016*
X03818*
X03848Y0157*
Y01198D02*
Y0157D01*
X038Y0115D02*
X03848Y01198D01*
X0095Y0165D02*
X01047Y01747D01*
X01547*
X018Y02*
X00929Y01585D02*
X01075D01*
X011Y0161*
Y01672*
X0115Y01722*
X01687*
X01875Y0191*
X0221*
X023Y02*
X02052Y02048D02*
X021Y02D01*
X00794Y02048D02*
X02052D01*
X00702Y01956D02*
X00794Y02048D01*
X00702Y01548D02*
Y01956D01*
Y01548D02*
X011Y0115D01*
X00575Y00375D02*
X02276D01*
X02724Y00823*
X03573*
X037Y0095*
X005Y01425D02*
Y01525D01*
X0045Y01375D02*
X005Y01425D01*
X0025Y01375D02*
X0045D01*
X02075Y00514D02*
X021D01*
Y00623D02*
X0215Y00673D01*
X02359*
X02334Y00575D02*
X02359D01*
X02195Y00436D02*
X02334Y00575D01*
X02075Y00436D02*
X02195D01*
X01878Y00772D02*
X02359D01*
X015Y0115D02*
X01878Y00772D01*
X0188Y0087D02*
X02359D01*
X016Y0115D02*
X0188Y0087D01*
X01881Y00969D02*
X02359D01*
X017Y0115D02*
X01881Y00969D01*
X00275Y00375D02*
Y00867D01*
X003Y00892*
X00908*
X012Y006*
X0145Y0165D02*
X01522Y01578D01*
X02553*
X02625Y0165*
X02359Y01166D02*
X02515D01*
X02655Y01026*
X02993*
X03017Y0105*
X0335*
X00375Y00375D02*
X00537Y00213D01*
X02987*
X031Y001*
X00475Y00375D02*
X00579Y00271D01*
X02388*
X02498Y00381*
X02919*
X032Y001*
X01547Y00547D02*
X016Y006D01*
X01053Y00547D02*
X01547D01*
X01Y006D02*
X01053Y00547D01*
X037Y0025D02*
X038D01*
X016Y001D02*
X017D01*
X037Y0195D02*
X038D01*
G54D11*
X03863Y001D02*
D01*
X03862Y00104*
X03862Y00108*
X03861Y00113*
X0386Y00117*
X03859Y00121*
X03857Y00125*
X03855Y00129*
X03853Y00133*
X0385Y00137*
X03848Y0014*
X03845Y00143*
X03842Y00146*
X03838Y00149*
X03835Y00152*
X03831Y00154*
X03827Y00156*
X03823Y00158*
X03819Y00159*
X03815Y00161*
X0381Y00162*
X03806Y00162*
X03802Y00162*
X03797*
X03793Y00162*
X03789Y00162*
X03784Y00161*
X0378Y00159*
X03776Y00158*
X03772Y00156*
X03768Y00154*
X03764Y00152*
X03761Y00149*
X03757Y00146*
X03754Y00143*
X03751Y0014*
X03749Y00137*
X03746Y00133*
X03744Y00129*
X03742Y00125*
X0374Y00121*
X03739Y00117*
X03738Y00113*
X03737Y00108*
X03737Y00104*
X03737Y001*
X03737Y00095*
X03737Y00091*
X03738Y00086*
X03739Y00082*
X0374Y00078*
X03742Y00074*
X03744Y0007*
X03746Y00066*
X03749Y00062*
X03751Y00059*
X03754Y00056*
X03757Y00053*
X03761Y0005*
X03764Y00047*
X03768Y00045*
X03772Y00043*
X03776Y00041*
X0378Y0004*
X03784Y00038*
X03789Y00037*
X03793Y00037*
X03797Y00037*
X03802*
X03806Y00037*
X0381Y00037*
X03815Y00038*
X03819Y0004*
X03823Y00041*
X03827Y00043*
X03831Y00045*
X03835Y00047*
X03838Y0005*
X03842Y00053*
X03845Y00056*
X03848Y00059*
X0385Y00062*
X03853Y00066*
X03855Y0007*
X03857Y00074*
X03859Y00078*
X0386Y00082*
X03861Y00086*
X03862Y00091*
X03862Y00095*
X03863Y001*
X03613Y02D02*
D01*
X03612Y02004*
X03612Y02008*
X03611Y02013*
X0361Y02017*
X03609Y02021*
X03607Y02025*
X03605Y02029*
X03603Y02033*
X036Y02037*
X03598Y0204*
X03595Y02043*
X03592Y02046*
X03588Y02049*
X03585Y02052*
X03581Y02054*
X03577Y02056*
X03573Y02058*
X03569Y02059*
X03565Y02061*
X0356Y02062*
X03556Y02062*
X03552Y02062*
X03547*
X03543Y02062*
X03539Y02062*
X03534Y02061*
X0353Y02059*
X03526Y02058*
X03522Y02056*
X03518Y02054*
X03514Y02052*
X03511Y02049*
X03507Y02046*
X03504Y02043*
X03501Y0204*
X03499Y02037*
X03496Y02033*
X03494Y02029*
X03492Y02025*
X0349Y02021*
X03489Y02017*
X03488Y02013*
X03487Y02008*
X03487Y02004*
X03487Y02*
X03487Y01995*
X03487Y01991*
X03488Y01986*
X03489Y01982*
X0349Y01978*
X03492Y01974*
X03494Y0197*
X03496Y01966*
X03499Y01962*
X03501Y01959*
X03504Y01956*
X03507Y01953*
X03511Y0195*
X03514Y01947*
X03518Y01945*
X03522Y01943*
X03526Y01941*
X0353Y0194*
X03534Y01938*
X03539Y01937*
X03543Y01937*
X03547Y01937*
X03552*
X03556Y01937*
X0356Y01937*
X03565Y01938*
X03569Y0194*
X03573Y01941*
X03577Y01943*
X03581Y01945*
X03585Y01947*
X03588Y0195*
X03592Y01953*
X03595Y01956*
X03598Y01959*
X036Y01962*
X03603Y01966*
X03605Y0197*
X03607Y01974*
X03609Y01978*
X0361Y01982*
X03611Y01986*
X03612Y01991*
X03612Y01995*
X03613Y02*
X02663Y014D02*
D01*
X02662Y01404*
X02662Y01408*
X02661Y01413*
X0266Y01417*
X02659Y01421*
X02657Y01425*
X02655Y01429*
X02653Y01433*
X0265Y01437*
X02648Y0144*
X02645Y01443*
X02642Y01446*
X02638Y01449*
X02635Y01452*
X02631Y01454*
X02627Y01456*
X02623Y01458*
X02619Y01459*
X02615Y01461*
X0261Y01462*
X02606Y01462*
X02602Y01462*
X02597*
X02593Y01462*
X02589Y01462*
X02584Y01461*
X0258Y01459*
X02576Y01458*
X02572Y01456*
X02568Y01454*
X02564Y01452*
X02561Y01449*
X02557Y01446*
X02554Y01443*
X02551Y0144*
X02549Y01437*
X02546Y01433*
X02544Y01429*
X02542Y01425*
X0254Y01421*
X02539Y01417*
X02538Y01413*
X02537Y01408*
X02537Y01404*
X02537Y014*
X02537Y01395*
X02537Y01391*
X02538Y01386*
X02539Y01382*
X0254Y01378*
X02542Y01374*
X02544Y0137*
X02546Y01366*
X02549Y01362*
X02551Y01359*
X02554Y01356*
X02557Y01353*
X02561Y0135*
X02564Y01347*
X02568Y01345*
X02572Y01343*
X02576Y01341*
X0258Y0134*
X02584Y01338*
X02589Y01337*
X02593Y01337*
X02597Y01337*
X02602*
X02606Y01337*
X0261Y01337*
X02615Y01338*
X02619Y0134*
X02623Y01341*
X02627Y01343*
X02631Y01345*
X02635Y01347*
X02638Y0135*
X02642Y01353*
X02645Y01356*
X02648Y01359*
X0265Y01362*
X02653Y01366*
X02655Y0137*
X02657Y01374*
X02659Y01378*
X0266Y01382*
X02661Y01386*
X02662Y01391*
X02662Y01395*
X02663Y014*
X00613Y001D02*
D01*
X00612Y00104*
X00612Y00108*
X00611Y00113*
X0061Y00117*
X00609Y00121*
X00607Y00125*
X00605Y00129*
X00603Y00133*
X006Y00137*
X00598Y0014*
X00595Y00143*
X00592Y00146*
X00588Y00149*
X00585Y00152*
X00581Y00154*
X00577Y00156*
X00573Y00158*
X00569Y00159*
X00565Y00161*
X0056Y00162*
X00556Y00162*
X00552Y00162*
X00547*
X00543Y00162*
X00539Y00162*
X00534Y00161*
X0053Y00159*
X00526Y00158*
X00522Y00156*
X00518Y00154*
X00514Y00152*
X00511Y00149*
X00507Y00146*
X00504Y00143*
X00501Y0014*
X00499Y00137*
X00496Y00133*
X00494Y00129*
X00492Y00125*
X0049Y00121*
X00489Y00117*
X00488Y00113*
X00487Y00108*
X00487Y00104*
X00487Y001*
X00487Y00095*
X00487Y00091*
X00488Y00086*
X00489Y00082*
X0049Y00078*
X00492Y00074*
X00494Y0007*
X00496Y00066*
X00499Y00062*
X00501Y00059*
X00504Y00056*
X00507Y00053*
X00511Y0005*
X00514Y00047*
X00518Y00045*
X00522Y00043*
X00526Y00041*
X0053Y0004*
X00534Y00038*
X00539Y00037*
X00543Y00037*
X00547Y00037*
X00552*
X00556Y00037*
X0056Y00037*
X00565Y00038*
X00569Y0004*
X00573Y00041*
X00577Y00043*
X00581Y00045*
X00585Y00047*
X00588Y0005*
X00592Y00053*
X00595Y00056*
X00598Y00059*
X006Y00062*
X00603Y00066*
X00605Y0007*
X00607Y00074*
X00609Y00078*
X0061Y00082*
X00611Y00086*
X00612Y00091*
X00612Y00095*
X00613Y001*
X02663Y003D02*
D01*
X02662Y00304*
X02662Y00308*
X02661Y00313*
X0266Y00317*
X02659Y00321*
X02657Y00325*
X02655Y00329*
X02653Y00333*
X0265Y00337*
X02648Y0034*
X02645Y00343*
X02642Y00346*
X02638Y00349*
X02635Y00352*
X02631Y00354*
X02627Y00356*
X02623Y00358*
X02619Y00359*
X02615Y00361*
X0261Y00362*
X02606Y00362*
X02602Y00362*
X02597*
X02593Y00362*
X02589Y00362*
X02584Y00361*
X0258Y00359*
X02576Y00358*
X02572Y00356*
X02568Y00354*
X02564Y00352*
X02561Y00349*
X02557Y00346*
X02554Y00343*
X02551Y0034*
X02549Y00337*
X02546Y00333*
X02544Y00329*
X02542Y00325*
X0254Y00321*
X02539Y00317*
X02538Y00313*
X02537Y00308*
X02537Y00304*
X02537Y003*
X02537Y00295*
X02537Y00291*
X02538Y00286*
X02539Y00282*
X0254Y00278*
X02542Y00274*
X02544Y0027*
X02546Y00266*
X02549Y00262*
X02551Y00259*
X02554Y00256*
X02557Y00253*
X02561Y0025*
X02564Y00247*
X02568Y00245*
X02572Y00243*
X02576Y00241*
X0258Y0024*
X02584Y00238*
X02589Y00237*
X02593Y00237*
X02597Y00237*
X02602*
X02606Y00237*
X0261Y00237*
X02615Y00238*
X02619Y0024*
X02623Y00241*
X02627Y00243*
X02631Y00245*
X02635Y00247*
X02638Y0025*
X02642Y00253*
X02645Y00256*
X02648Y00259*
X0265Y00262*
X02653Y00266*
X02655Y0027*
X02657Y00274*
X02659Y00278*
X0266Y00282*
X02661Y00286*
X02662Y00291*
X02662Y00295*
X02663Y003*
X00663Y02D02*
D01*
X00662Y02004*
X00662Y02008*
X00661Y02013*
X0066Y02017*
X00659Y02021*
X00657Y02025*
X00655Y02029*
X00653Y02033*
X0065Y02037*
X00648Y0204*
X00645Y02043*
X00642Y02046*
X00638Y02049*
X00635Y02052*
X00631Y02054*
X00627Y02056*
X00623Y02058*
X00619Y02059*
X00615Y02061*
X0061Y02062*
X00606Y02062*
X00602Y02062*
X00597*
X00593Y02062*
X00589Y02062*
X00584Y02061*
X0058Y02059*
X00576Y02058*
X00572Y02056*
X00568Y02054*
X00564Y02052*
X00561Y02049*
X00557Y02046*
X00554Y02043*
X00551Y0204*
X00549Y02037*
X00546Y02033*
X00544Y02029*
X00542Y02025*
X0054Y02021*
X00539Y02017*
X00538Y02013*
X00537Y02008*
X00537Y02004*
X00537Y02*
X00537Y01995*
X00537Y01991*
X00538Y01986*
X00539Y01982*
X0054Y01978*
X00542Y01974*
X00544Y0197*
X00546Y01966*
X00549Y01962*
X00551Y01959*
X00554Y01956*
X00557Y01953*
X00561Y0195*
X00564Y01947*
X00568Y01945*
X00572Y01943*
X00576Y01941*
X0058Y0194*
X00584Y01938*
X00589Y01937*
X00593Y01937*
X00597Y01937*
X00602*
X00606Y01937*
X0061Y01937*
X00615Y01938*
X00619Y0194*
X00623Y01941*
X00627Y01943*
X00631Y01945*
X00635Y01947*
X00638Y0195*
X00642Y01953*
X00645Y01956*
X00648Y01959*
X0065Y01962*
X00653Y01966*
X00655Y0197*
X00657Y01974*
X00659Y01978*
X0066Y01982*
X00661Y01986*
X00662Y01991*
X00662Y01995*
X00663Y02*
X0Y0D02*
Y021D01*
X038*
X0Y0D02*
X039D01*
X038Y021D02*
X039Y02D01*
Y016D02*
Y02D01*
Y016D02*
X04Y015D01*
Y0015D02*
Y015D01*
X039Y0005D02*
X04Y0015D01*
X039Y0D02*
Y0005D01*
G54D12*
X01925Y0165D03*
X02025D03*
X02125D03*
X02225D03*
X02325D03*
X02425D03*
X02525D03*
X0075D03*
X0085D03*
X0095D03*
X0105D03*
X0115D03*
X0125D03*
X0135D03*
G54D13*
X02625Y0165D03*
X0145D03*
G54D14*
X0335Y0125D03*
Y0115D03*
Y0105D03*
Y0065D03*
Y0055D03*
Y0045D03*
X012Y0115D03*
X011D03*
X01D03*
X00275Y00375D03*
X00375D03*
X00475D03*
X00575D03*
X012Y006D03*
X011D03*
X01D03*
X018D03*
X017D03*
X016D03*
X015Y0115D03*
X016D03*
X017D03*
G54D15*
X0335Y0095D03*
Y0035D03*
G54D16*
X0295Y00575D03*
G54D17*
X0295Y00673D03*
Y00772D03*
Y0087D03*
Y00969D03*
Y01067D03*
Y01166D03*
Y01264D03*
X02359Y00575D03*
Y00673D03*
Y00772D03*
Y0087D03*
Y00969D03*
Y01067D03*
Y01166D03*
Y01264D03*
G54D18*
X038Y0195D03*
X037D03*
X038Y0185D03*
X037D03*
X038Y0175D03*
X037D03*
X038Y0165D03*
X037D03*
X038Y0155D03*
X037D03*
X038Y0145D03*
X037D03*
X038Y0135D03*
X037D03*
X038Y0125D03*
X037D03*
X038Y0115D03*
X037D03*
Y0105D03*
X038D03*
Y0095D03*
X037D03*
X038Y0085D03*
X037D03*
X038Y0075D03*
X037D03*
X038Y0065D03*
X037D03*
X038Y0055D03*
X037D03*
X038Y0045D03*
X037D03*
X038Y0035D03*
X037D03*
X038Y0025D03*
X037D03*
X023Y02D03*
X024D03*
X018D03*
X019D03*
X02D03*
X021D03*
X022D03*
X0144D03*
X0154D03*
X0094D03*
X0104D03*
X0114D03*
X0124D03*
X0134D03*
X017Y001D03*
X016D03*
X015D03*
X014D03*
X013D03*
X032Y02D03*
X033D03*
X027D03*
X028D03*
X029D03*
X03D03*
X031D03*
X022Y001D03*
X021D03*
X027D03*
X026D03*
X025D03*
X024D03*
X023D03*
X031D03*
X03D03*
X036D03*
X035D03*
X034D03*
X033D03*
X032D03*
G54D19*
X0059Y00835D03*
G54D20*
X0035Y00835D03*
X0047Y0065D03*
G54D21*
X005Y01525D03*
Y01125D03*
G54D22*
X0025Y01375D03*
Y01265D03*
G54D23*
X025Y02D03*
X0164D03*
X018Y001D03*
X034Y02D03*
X02Y001D03*
X029D03*
G54D24*
X009Y0115D03*
X00175Y00375D03*
X009Y006D03*
X015D03*
X018Y0115D03*
G54D25*
X0355Y02D03*
X038Y001D03*
X026Y003D03*
Y014D03*
X0055Y001D03*
X006Y02D03*
G54D26*
X02075Y00436D03*
G54D27*
X02075Y00514D03*
G54D28*
X03077Y00927D03*
X00702Y02041D03*
X03114Y01887D03*
X03305Y01498D03*
X03585Y0185D03*
X03283Y01883D03*
X00929Y01585D03*
M02*