%FSTAX23Y23*%
%MOIN*%
%SFA1B1*%

%IPPOS*%
%ADD11C,0.005000*%
%ADD49C,0.007000*%
%LNdrivecontroller-1*%
%LPD*%
G54D11*
X03863Y001D02*
D01*
X03862Y00104*
X03862Y00108*
X03861Y00113*
X0386Y00117*
X03859Y00121*
X03857Y00125*
X03855Y00129*
X03853Y00133*
X0385Y00137*
X03848Y0014*
X03845Y00143*
X03842Y00146*
X03838Y00149*
X03835Y00152*
X03831Y00154*
X03827Y00156*
X03823Y00158*
X03819Y00159*
X03815Y00161*
X0381Y00162*
X03806Y00162*
X03802Y00162*
X03797*
X03793Y00162*
X03789Y00162*
X03784Y00161*
X0378Y00159*
X03776Y00158*
X03772Y00156*
X03768Y00154*
X03764Y00152*
X03761Y00149*
X03757Y00146*
X03754Y00143*
X03751Y0014*
X03749Y00137*
X03746Y00133*
X03744Y00129*
X03742Y00125*
X0374Y00121*
X03739Y00117*
X03738Y00113*
X03737Y00108*
X03737Y00104*
X03737Y001*
X03737Y00095*
X03737Y00091*
X03738Y00086*
X03739Y00082*
X0374Y00078*
X03742Y00074*
X03744Y0007*
X03746Y00066*
X03749Y00062*
X03751Y00059*
X03754Y00056*
X03757Y00053*
X03761Y0005*
X03764Y00047*
X03768Y00045*
X03772Y00043*
X03776Y00041*
X0378Y0004*
X03784Y00038*
X03789Y00037*
X03793Y00037*
X03797Y00037*
X03802*
X03806Y00037*
X0381Y00037*
X03815Y00038*
X03819Y0004*
X03823Y00041*
X03827Y00043*
X03831Y00045*
X03835Y00047*
X03838Y0005*
X03842Y00053*
X03845Y00056*
X03848Y00059*
X0385Y00062*
X03853Y00066*
X03855Y0007*
X03857Y00074*
X03859Y00078*
X0386Y00082*
X03861Y00086*
X03862Y00091*
X03862Y00095*
X03863Y001*
X03613Y02D02*
D01*
X03612Y02004*
X03612Y02008*
X03611Y02013*
X0361Y02017*
X03609Y02021*
X03607Y02025*
X03605Y02029*
X03603Y02033*
X036Y02037*
X03598Y0204*
X03595Y02043*
X03592Y02046*
X03588Y02049*
X03585Y02052*
X03581Y02054*
X03577Y02056*
X03573Y02058*
X03569Y02059*
X03565Y02061*
X0356Y02062*
X03556Y02062*
X03552Y02062*
X03547*
X03543Y02062*
X03539Y02062*
X03534Y02061*
X0353Y02059*
X03526Y02058*
X03522Y02056*
X03518Y02054*
X03514Y02052*
X03511Y02049*
X03507Y02046*
X03504Y02043*
X03501Y0204*
X03499Y02037*
X03496Y02033*
X03494Y02029*
X03492Y02025*
X0349Y02021*
X03489Y02017*
X03488Y02013*
X03487Y02008*
X03487Y02004*
X03487Y02*
X03487Y01995*
X03487Y01991*
X03488Y01986*
X03489Y01982*
X0349Y01978*
X03492Y01974*
X03494Y0197*
X03496Y01966*
X03499Y01962*
X03501Y01959*
X03504Y01956*
X03507Y01953*
X03511Y0195*
X03514Y01947*
X03518Y01945*
X03522Y01943*
X03526Y01941*
X0353Y0194*
X03534Y01938*
X03539Y01937*
X03543Y01937*
X03547Y01937*
X03552*
X03556Y01937*
X0356Y01937*
X03565Y01938*
X03569Y0194*
X03573Y01941*
X03577Y01943*
X03581Y01945*
X03585Y01947*
X03588Y0195*
X03592Y01953*
X03595Y01956*
X03598Y01959*
X036Y01962*
X03603Y01966*
X03605Y0197*
X03607Y01974*
X03609Y01978*
X0361Y01982*
X03611Y01986*
X03612Y01991*
X03612Y01995*
X03613Y02*
X02663Y014D02*
D01*
X02662Y01404*
X02662Y01408*
X02661Y01413*
X0266Y01417*
X02659Y01421*
X02657Y01425*
X02655Y01429*
X02653Y01433*
X0265Y01437*
X02648Y0144*
X02645Y01443*
X02642Y01446*
X02638Y01449*
X02635Y01452*
X02631Y01454*
X02627Y01456*
X02623Y01458*
X02619Y01459*
X02615Y01461*
X0261Y01462*
X02606Y01462*
X02602Y01462*
X02597*
X02593Y01462*
X02589Y01462*
X02584Y01461*
X0258Y01459*
X02576Y01458*
X02572Y01456*
X02568Y01454*
X02564Y01452*
X02561Y01449*
X02557Y01446*
X02554Y01443*
X02551Y0144*
X02549Y01437*
X02546Y01433*
X02544Y01429*
X02542Y01425*
X0254Y01421*
X02539Y01417*
X02538Y01413*
X02537Y01408*
X02537Y01404*
X02537Y014*
X02537Y01395*
X02537Y01391*
X02538Y01386*
X02539Y01382*
X0254Y01378*
X02542Y01374*
X02544Y0137*
X02546Y01366*
X02549Y01362*
X02551Y01359*
X02554Y01356*
X02557Y01353*
X02561Y0135*
X02564Y01347*
X02568Y01345*
X02572Y01343*
X02576Y01341*
X0258Y0134*
X02584Y01338*
X02589Y01337*
X02593Y01337*
X02597Y01337*
X02602*
X02606Y01337*
X0261Y01337*
X02615Y01338*
X02619Y0134*
X02623Y01341*
X02627Y01343*
X02631Y01345*
X02635Y01347*
X02638Y0135*
X02642Y01353*
X02645Y01356*
X02648Y01359*
X0265Y01362*
X02653Y01366*
X02655Y0137*
X02657Y01374*
X02659Y01378*
X0266Y01382*
X02661Y01386*
X02662Y01391*
X02662Y01395*
X02663Y014*
X00613Y001D02*
D01*
X00612Y00104*
X00612Y00108*
X00611Y00113*
X0061Y00117*
X00609Y00121*
X00607Y00125*
X00605Y00129*
X00603Y00133*
X006Y00137*
X00598Y0014*
X00595Y00143*
X00592Y00146*
X00588Y00149*
X00585Y00152*
X00581Y00154*
X00577Y00156*
X00573Y00158*
X00569Y00159*
X00565Y00161*
X0056Y00162*
X00556Y00162*
X00552Y00162*
X00547*
X00543Y00162*
X00539Y00162*
X00534Y00161*
X0053Y00159*
X00526Y00158*
X00522Y00156*
X00518Y00154*
X00514Y00152*
X00511Y00149*
X00507Y00146*
X00504Y00143*
X00501Y0014*
X00499Y00137*
X00496Y00133*
X00494Y00129*
X00492Y00125*
X0049Y00121*
X00489Y00117*
X00488Y00113*
X00487Y00108*
X00487Y00104*
X00487Y001*
X00487Y00095*
X00487Y00091*
X00488Y00086*
X00489Y00082*
X0049Y00078*
X00492Y00074*
X00494Y0007*
X00496Y00066*
X00499Y00062*
X00501Y00059*
X00504Y00056*
X00507Y00053*
X00511Y0005*
X00514Y00047*
X00518Y00045*
X00522Y00043*
X00526Y00041*
X0053Y0004*
X00534Y00038*
X00539Y00037*
X00543Y00037*
X00547Y00037*
X00552*
X00556Y00037*
X0056Y00037*
X00565Y00038*
X00569Y0004*
X00573Y00041*
X00577Y00043*
X00581Y00045*
X00585Y00047*
X00588Y0005*
X00592Y00053*
X00595Y00056*
X00598Y00059*
X006Y00062*
X00603Y00066*
X00605Y0007*
X00607Y00074*
X00609Y00078*
X0061Y00082*
X00611Y00086*
X00612Y00091*
X00612Y00095*
X00613Y001*
X02663Y003D02*
D01*
X02662Y00304*
X02662Y00308*
X02661Y00313*
X0266Y00317*
X02659Y00321*
X02657Y00325*
X02655Y00329*
X02653Y00333*
X0265Y00337*
X02648Y0034*
X02645Y00343*
X02642Y00346*
X02638Y00349*
X02635Y00352*
X02631Y00354*
X02627Y00356*
X02623Y00358*
X02619Y00359*
X02615Y00361*
X0261Y00362*
X02606Y00362*
X02602Y00362*
X02597*
X02593Y00362*
X02589Y00362*
X02584Y00361*
X0258Y00359*
X02576Y00358*
X02572Y00356*
X02568Y00354*
X02564Y00352*
X02561Y00349*
X02557Y00346*
X02554Y00343*
X02551Y0034*
X02549Y00337*
X02546Y00333*
X02544Y00329*
X02542Y00325*
X0254Y00321*
X02539Y00317*
X02538Y00313*
X02537Y00308*
X02537Y00304*
X02537Y003*
X02537Y00295*
X02537Y00291*
X02538Y00286*
X02539Y00282*
X0254Y00278*
X02542Y00274*
X02544Y0027*
X02546Y00266*
X02549Y00262*
X02551Y00259*
X02554Y00256*
X02557Y00253*
X02561Y0025*
X02564Y00247*
X02568Y00245*
X02572Y00243*
X02576Y00241*
X0258Y0024*
X02584Y00238*
X02589Y00237*
X02593Y00237*
X02597Y00237*
X02602*
X02606Y00237*
X0261Y00237*
X02615Y00238*
X02619Y0024*
X02623Y00241*
X02627Y00243*
X02631Y00245*
X02635Y00247*
X02638Y0025*
X02642Y00253*
X02645Y00256*
X02648Y00259*
X0265Y00262*
X02653Y00266*
X02655Y0027*
X02657Y00274*
X02659Y00278*
X0266Y00282*
X02661Y00286*
X02662Y00291*
X02662Y00295*
X02663Y003*
X00663Y02D02*
D01*
X00662Y02004*
X00662Y02008*
X00661Y02013*
X0066Y02017*
X00659Y02021*
X00657Y02025*
X00655Y02029*
X00653Y02033*
X0065Y02037*
X00648Y0204*
X00645Y02043*
X00642Y02046*
X00638Y02049*
X00635Y02052*
X00631Y02054*
X00627Y02056*
X00623Y02058*
X00619Y02059*
X00615Y02061*
X0061Y02062*
X00606Y02062*
X00602Y02062*
X00597*
X00593Y02062*
X00589Y02062*
X00584Y02061*
X0058Y02059*
X00576Y02058*
X00572Y02056*
X00568Y02054*
X00564Y02052*
X00561Y02049*
X00557Y02046*
X00554Y02043*
X00551Y0204*
X00549Y02037*
X00546Y02033*
X00544Y02029*
X00542Y02025*
X0054Y02021*
X00539Y02017*
X00538Y02013*
X00537Y02008*
X00537Y02004*
X00537Y02*
X00537Y01995*
X00537Y01991*
X00538Y01986*
X00539Y01982*
X0054Y01978*
X00542Y01974*
X00544Y0197*
X00546Y01966*
X00549Y01962*
X00551Y01959*
X00554Y01956*
X00557Y01953*
X00561Y0195*
X00564Y01947*
X00568Y01945*
X00572Y01943*
X00576Y01941*
X0058Y0194*
X00584Y01938*
X00589Y01937*
X00593Y01937*
X00597Y01937*
X00602*
X00606Y01937*
X0061Y01937*
X00615Y01938*
X00619Y0194*
X00623Y01941*
X00627Y01943*
X00631Y01945*
X00635Y01947*
X00638Y0195*
X00642Y01953*
X00645Y01956*
X00648Y01959*
X0065Y01962*
X00653Y01966*
X00655Y0197*
X00657Y01974*
X00659Y01978*
X0066Y01982*
X00661Y01986*
X00662Y01991*
X00662Y01995*
X00663Y02*
X0Y0D02*
Y021D01*
X038*
X0Y0D02*
X039D01*
X038Y021D02*
X039Y02D01*
Y016D02*
Y02D01*
Y016D02*
X04Y015D01*
Y0015D02*
Y015D01*
X039Y0005D02*
X04Y0015D01*
X039Y0D02*
Y0005D01*
X01905Y0163D02*
Y0167D01*
X01945*
Y0163*
X01905*
X02005D02*
Y0167D01*
X02045*
Y0163*
X02005*
X02105D02*
Y0167D01*
X02145*
Y0163*
X02105*
X02205D02*
Y0167D01*
X02245*
Y0163*
X02205*
X02305D02*
Y0167D01*
X02345*
Y0163*
X02305*
X02405D02*
Y0167D01*
X02445*
Y0163*
X02405*
X02505D02*
Y0167D01*
X02545*
Y0163*
X02505*
X02605D02*
Y0167D01*
X02645*
Y0163*
X02605*
X0295Y00555D02*
X0293Y00595D01*
X0297*
X0295Y00555*
Y00653D02*
X0293Y00693D01*
X0297*
X0295Y00653*
Y00752D02*
X0293Y00792D01*
X0297*
X0295Y00752*
Y0085D02*
X0293Y0089D01*
X0297*
X0295Y0085*
Y00949D02*
X0293Y00989D01*
X0297*
X0295Y00949*
Y01047D02*
X0293Y01087D01*
X0297*
X0295Y01047*
Y01146D02*
X0293Y01186D01*
X0297*
X0295Y01146*
Y01244D02*
X0293Y01284D01*
X0297*
X0295Y01244*
X02359Y00555D02*
X02339Y00595D01*
X02379*
X02359Y00555*
Y00653D02*
X02339Y00693D01*
X02379*
X02359Y00653*
Y00752D02*
X02339Y00792D01*
X02379*
X02359Y00752*
Y0085D02*
X02339Y0089D01*
X02379*
X02359Y0085*
Y00949D02*
X02339Y00989D01*
X02379*
X02359Y00949*
Y01047D02*
X02339Y01087D01*
X02379*
X02359Y01047*
Y01146D02*
X02339Y01186D01*
X02379*
X02359Y01146*
Y01244D02*
X02339Y01284D01*
X02379*
X02359Y01244*
X038Y0193D02*
X0381Y0194D01*
X0382*
X0381Y0195*
X0382Y0196*
X0381*
X038Y0197*
X0379Y0196*
X0378*
X0379Y0195*
X0378Y0194*
X0379*
X038Y0193*
X037D02*
X0371Y0194D01*
X0372*
X0371Y0195*
X0372Y0196*
X0371*
X037Y0197*
X0369Y0196*
X0368*
X0369Y0195*
X0368Y0194*
X0369*
X037Y0193*
X038Y0183D02*
X0381Y0184D01*
X0382*
X0381Y0185*
X0382Y0186*
X0381*
X038Y0187*
X0379Y0186*
X0378*
X0379Y0185*
X0378Y0184*
X0379*
X038Y0183*
X037D02*
X0371Y0184D01*
X0372*
X0371Y0185*
X0372Y0186*
X0371*
X037Y0187*
X0369Y0186*
X0368*
X0369Y0185*
X0368Y0184*
X0369*
X037Y0183*
X038Y0173D02*
X0381Y0174D01*
X0382*
X0381Y0175*
X0382Y0176*
X0381*
X038Y0177*
X0379Y0176*
X0378*
X0379Y0175*
X0378Y0174*
X0379*
X038Y0173*
X037D02*
X0371Y0174D01*
X0372*
X0371Y0175*
X0372Y0176*
X0371*
X037Y0177*
X0369Y0176*
X0368*
X0369Y0175*
X0368Y0174*
X0369*
X037Y0173*
X038Y0163D02*
X0381Y0164D01*
X0382*
X0381Y0165*
X0382Y0166*
X0381*
X038Y0167*
X0379Y0166*
X0378*
X0379Y0165*
X0378Y0164*
X0379*
X038Y0163*
X037D02*
X0371Y0164D01*
X0372*
X0371Y0165*
X0372Y0166*
X0371*
X037Y0167*
X0369Y0166*
X0368*
X0369Y0165*
X0368Y0164*
X0369*
X037Y0163*
X038Y0153D02*
X0381Y0154D01*
X0382*
X0381Y0155*
X0382Y0156*
X0381*
X038Y0157*
X0379Y0156*
X0378*
X0379Y0155*
X0378Y0154*
X0379*
X038Y0153*
X037D02*
X0371Y0154D01*
X0372*
X0371Y0155*
X0372Y0156*
X0371*
X037Y0157*
X0369Y0156*
X0368*
X0369Y0155*
X0368Y0154*
X0369*
X037Y0153*
X038Y0143D02*
X0381Y0144D01*
X0382*
X0381Y0145*
X0382Y0146*
X0381*
X038Y0147*
X0379Y0146*
X0378*
X0379Y0145*
X0378Y0144*
X0379*
X038Y0143*
X037D02*
X0371Y0144D01*
X0372*
X0371Y0145*
X0372Y0146*
X0371*
X037Y0147*
X0369Y0146*
X0368*
X0369Y0145*
X0368Y0144*
X0369*
X037Y0143*
X038Y0133D02*
X0381Y0134D01*
X0382*
X0381Y0135*
X0382Y0136*
X0381*
X038Y0137*
X0379Y0136*
X0378*
X0379Y0135*
X0378Y0134*
X0379*
X038Y0133*
X037D02*
X0371Y0134D01*
X0372*
X0371Y0135*
X0372Y0136*
X0371*
X037Y0137*
X0369Y0136*
X0368*
X0369Y0135*
X0368Y0134*
X0369*
X037Y0133*
X038Y0123D02*
X0381Y0124D01*
X0382*
X0381Y0125*
X0382Y0126*
X0381*
X038Y0127*
X0379Y0126*
X0378*
X0379Y0125*
X0378Y0124*
X0379*
X038Y0123*
X037D02*
X0371Y0124D01*
X0372*
X0371Y0125*
X0372Y0126*
X0371*
X037Y0127*
X0369Y0126*
X0368*
X0369Y0125*
X0368Y0124*
X0369*
X037Y0123*
X038Y0113D02*
X0381Y0114D01*
X0382*
X0381Y0115*
X0382Y0116*
X0381*
X038Y0117*
X0379Y0116*
X0378*
X0379Y0115*
X0378Y0114*
X0379*
X038Y0113*
X037D02*
X0371Y0114D01*
X0372*
X0371Y0115*
X0372Y0116*
X0371*
X037Y0117*
X0369Y0116*
X0368*
X0369Y0115*
X0368Y0114*
X0369*
X037Y0113*
Y0103D02*
X0371Y0104D01*
X0372*
X0371Y0105*
X0372Y0106*
X0371*
X037Y0107*
X0369Y0106*
X0368*
X0369Y0105*
X0368Y0104*
X0369*
X037Y0103*
X038D02*
X0381Y0104D01*
X0382*
X0381Y0105*
X0382Y0106*
X0381*
X038Y0107*
X0379Y0106*
X0378*
X0379Y0105*
X0378Y0104*
X0379*
X038Y0103*
Y0093D02*
X0381Y0094D01*
X0382*
X0381Y0095*
X0382Y0096*
X0381*
X038Y0097*
X0379Y0096*
X0378*
X0379Y0095*
X0378Y0094*
X0379*
X038Y0093*
X037D02*
X0371Y0094D01*
X0372*
X0371Y0095*
X0372Y0096*
X0371*
X037Y0097*
X0369Y0096*
X0368*
X0369Y0095*
X0368Y0094*
X0369*
X037Y0093*
X038Y0083D02*
X0381Y0084D01*
X0382*
X0381Y0085*
X0382Y0086*
X0381*
X038Y0087*
X0379Y0086*
X0378*
X0379Y0085*
X0378Y0084*
X0379*
X038Y0083*
X037D02*
X0371Y0084D01*
X0372*
X0371Y0085*
X0372Y0086*
X0371*
X037Y0087*
X0369Y0086*
X0368*
X0369Y0085*
X0368Y0084*
X0369*
X037Y0083*
X038Y0073D02*
X0381Y0074D01*
X0382*
X0381Y0075*
X0382Y0076*
X0381*
X038Y0077*
X0379Y0076*
X0378*
X0379Y0075*
X0378Y0074*
X0379*
X038Y0073*
X037D02*
X0371Y0074D01*
X0372*
X0371Y0075*
X0372Y0076*
X0371*
X037Y0077*
X0369Y0076*
X0368*
X0369Y0075*
X0368Y0074*
X0369*
X037Y0073*
X038Y0063D02*
X0381Y0064D01*
X0382*
X0381Y0065*
X0382Y0066*
X0381*
X038Y0067*
X0379Y0066*
X0378*
X0379Y0065*
X0378Y0064*
X0379*
X038Y0063*
X037D02*
X0371Y0064D01*
X0372*
X0371Y0065*
X0372Y0066*
X0371*
X037Y0067*
X0369Y0066*
X0368*
X0369Y0065*
X0368Y0064*
X0369*
X037Y0063*
X038Y0053D02*
X0381Y0054D01*
X0382*
X0381Y0055*
X0382Y0056*
X0381*
X038Y0057*
X0379Y0056*
X0378*
X0379Y0055*
X0378Y0054*
X0379*
X038Y0053*
X037D02*
X0371Y0054D01*
X0372*
X0371Y0055*
X0372Y0056*
X0371*
X037Y0057*
X0369Y0056*
X0368*
X0369Y0055*
X0368Y0054*
X0369*
X037Y0053*
X038Y0043D02*
X0381Y0044D01*
X0382*
X0381Y0045*
X0382Y0046*
X0381*
X038Y0047*
X0379Y0046*
X0378*
X0379Y0045*
X0378Y0044*
X0379*
X038Y0043*
X037D02*
X0371Y0044D01*
X0372*
X0371Y0045*
X0372Y0046*
X0371*
X037Y0047*
X0369Y0046*
X0368*
X0369Y0045*
X0368Y0044*
X0369*
X037Y0043*
X038Y0033D02*
X0381Y0034D01*
X0382*
X0381Y0035*
X0382Y0036*
X0381*
X038Y0037*
X0379Y0036*
X0378*
X0379Y0035*
X0378Y0034*
X0379*
X038Y0033*
X037D02*
X0371Y0034D01*
X0372*
X0371Y0035*
X0372Y0036*
X0371*
X037Y0037*
X0369Y0036*
X0368*
X0369Y0035*
X0368Y0034*
X0369*
X037Y0033*
X038Y0023D02*
X0381Y0024D01*
X0382*
X0381Y0025*
X0382Y0026*
X0381*
X038Y0027*
X0379Y0026*
X0378*
X0379Y0025*
X0378Y0024*
X0379*
X038Y0023*
X037D02*
X0371Y0024D01*
X0372*
X0371Y0025*
X0372Y0026*
X0371*
X037Y0027*
X0369Y0026*
X0368*
X0369Y0025*
X0368Y0024*
X0369*
X037Y0023*
X0057Y00815D02*
X0058Y00835D01*
X0057Y00855*
X0059Y00845*
X0061Y00855*
X006Y00835*
X0061Y00815*
X0059Y00825*
X0057Y00815*
X0033D02*
X0034Y00835D01*
X0033Y00855*
X0035Y00845*
X0037Y00855*
X0036Y00835*
X0037Y00815*
X0035Y00825*
X0033Y00815*
X0045Y0063D02*
X0046Y0065D01*
X0045Y0067*
X0047Y0066*
X0049Y0067*
X0048Y0065*
X0049Y0063*
X0047Y0064*
X0045Y0063*
X023Y0198D02*
X0231Y0199D01*
X0232*
X0231Y02*
X0232Y0201*
X0231*
X023Y0202*
X0229Y0201*
X0228*
X0229Y02*
X0228Y0199*
X0229*
X023Y0198*
X024D02*
X0241Y0199D01*
X0242*
X0241Y02*
X0242Y0201*
X0241*
X024Y0202*
X0239Y0201*
X0238*
X0239Y02*
X0238Y0199*
X0239*
X024Y0198*
X018D02*
X0181Y0199D01*
X0182*
X0181Y02*
X0182Y0201*
X0181*
X018Y0202*
X0179Y0201*
X0178*
X0179Y02*
X0178Y0199*
X0179*
X018Y0198*
X019D02*
X0191Y0199D01*
X0192*
X0191Y02*
X0192Y0201*
X0191*
X019Y0202*
X0189Y0201*
X0188*
X0189Y02*
X0188Y0199*
X0189*
X019Y0198*
X02D02*
X0201Y0199D01*
X0202*
X0201Y02*
X0202Y0201*
X0201*
X02Y0202*
X0199Y0201*
X0198*
X0199Y02*
X0198Y0199*
X0199*
X02Y0198*
X021D02*
X0211Y0199D01*
X0212*
X0211Y02*
X0212Y0201*
X0211*
X021Y0202*
X0209Y0201*
X0208*
X0209Y02*
X0208Y0199*
X0209*
X021Y0198*
X022D02*
X0221Y0199D01*
X0222*
X0221Y02*
X0222Y0201*
X0221*
X022Y0202*
X0219Y0201*
X0218*
X0219Y02*
X0218Y0199*
X0219*
X022Y0198*
X025D02*
X0251Y0199D01*
X0252*
X0251Y02*
X0252Y0201*
X0251*
X025Y0202*
X0249Y0201*
X0248*
X0249Y02*
X0248Y0199*
X0249*
X025Y0198*
X0144D02*
X0145Y0199D01*
X0146*
X0145Y02*
X0146Y0201*
X0145*
X0144Y0202*
X0143Y0201*
X0142*
X0143Y02*
X0142Y0199*
X0143*
X0144Y0198*
X0154D02*
X0155Y0199D01*
X0156*
X0155Y02*
X0156Y0201*
X0155*
X0154Y0202*
X0153Y0201*
X0152*
X0153Y02*
X0152Y0199*
X0153*
X0154Y0198*
X0094D02*
X0095Y0199D01*
X0096*
X0095Y02*
X0096Y0201*
X0095*
X0094Y0202*
X0093Y0201*
X0092*
X0093Y02*
X0092Y0199*
X0093*
X0094Y0198*
X0104D02*
X0105Y0199D01*
X0106*
X0105Y02*
X0106Y0201*
X0105*
X0104Y0202*
X0103Y0201*
X0102*
X0103Y02*
X0102Y0199*
X0103*
X0104Y0198*
X0114D02*
X0115Y0199D01*
X0116*
X0115Y02*
X0116Y0201*
X0115*
X0114Y0202*
X0113Y0201*
X0112*
X0113Y02*
X0112Y0199*
X0113*
X0114Y0198*
X0124D02*
X0125Y0199D01*
X0126*
X0125Y02*
X0126Y0201*
X0125*
X0124Y0202*
X0123Y0201*
X0122*
X0123Y02*
X0122Y0199*
X0123*
X0124Y0198*
X0134D02*
X0135Y0199D01*
X0136*
X0135Y02*
X0136Y0201*
X0135*
X0134Y0202*
X0133Y0201*
X0132*
X0133Y02*
X0132Y0199*
X0133*
X0134Y0198*
X0164D02*
X0165Y0199D01*
X0166*
X0165Y02*
X0166Y0201*
X0165*
X0164Y0202*
X0163Y0201*
X0162*
X0163Y02*
X0162Y0199*
X0163*
X0164Y0198*
X018Y0008D02*
X0181Y0009D01*
X0182*
X0181Y001*
X0182Y0011*
X0181*
X018Y0012*
X0179Y0011*
X0178*
X0179Y001*
X0178Y0009*
X0179*
X018Y0008*
X017D02*
X0171Y0009D01*
X0172*
X0171Y001*
X0172Y0011*
X0171*
X017Y0012*
X0169Y0011*
X0168*
X0169Y001*
X0168Y0009*
X0169*
X017Y0008*
X016D02*
X0161Y0009D01*
X0162*
X0161Y001*
X0162Y0011*
X0161*
X016Y0012*
X0159Y0011*
X0158*
X0159Y001*
X0158Y0009*
X0159*
X016Y0008*
X015D02*
X0151Y0009D01*
X0152*
X0151Y001*
X0152Y0011*
X0151*
X015Y0012*
X0149Y0011*
X0148*
X0149Y001*
X0148Y0009*
X0149*
X015Y0008*
X014D02*
X0141Y0009D01*
X0142*
X0141Y001*
X0142Y0011*
X0141*
X014Y0012*
X0139Y0011*
X0138*
X0139Y001*
X0138Y0009*
X0139*
X014Y0008*
X013D02*
X0131Y0009D01*
X0132*
X0131Y001*
X0132Y0011*
X0131*
X013Y0012*
X0129Y0011*
X0128*
X0129Y001*
X0128Y0009*
X0129*
X013Y0008*
X032Y0198D02*
X0321Y0199D01*
X0322*
X0321Y02*
X0322Y0201*
X0321*
X032Y0202*
X0319Y0201*
X0318*
X0319Y02*
X0318Y0199*
X0319*
X032Y0198*
X033D02*
X0331Y0199D01*
X0332*
X0331Y02*
X0332Y0201*
X0331*
X033Y0202*
X0329Y0201*
X0328*
X0329Y02*
X0328Y0199*
X0329*
X033Y0198*
X027D02*
X0271Y0199D01*
X0272*
X0271Y02*
X0272Y0201*
X0271*
X027Y0202*
X0269Y0201*
X0268*
X0269Y02*
X0268Y0199*
X0269*
X027Y0198*
X028D02*
X0281Y0199D01*
X0282*
X0281Y02*
X0282Y0201*
X0281*
X028Y0202*
X0279Y0201*
X0278*
X0279Y02*
X0278Y0199*
X0279*
X028Y0198*
X029D02*
X0291Y0199D01*
X0292*
X0291Y02*
X0292Y0201*
X0291*
X029Y0202*
X0289Y0201*
X0288*
X0289Y02*
X0288Y0199*
X0289*
X029Y0198*
X03D02*
X0301Y0199D01*
X0302*
X0301Y02*
X0302Y0201*
X0301*
X03Y0202*
X0299Y0201*
X0298*
X0299Y02*
X0298Y0199*
X0299*
X03Y0198*
X031D02*
X0311Y0199D01*
X0312*
X0311Y02*
X0312Y0201*
X0311*
X031Y0202*
X0309Y0201*
X0308*
X0309Y02*
X0308Y0199*
X0309*
X031Y0198*
X034D02*
X0341Y0199D01*
X0342*
X0341Y02*
X0342Y0201*
X0341*
X034Y0202*
X0339Y0201*
X0338*
X0339Y02*
X0338Y0199*
X0339*
X034Y0198*
X022Y0008D02*
X0221Y0009D01*
X0222*
X0221Y001*
X0222Y0011*
X0221*
X022Y0012*
X0219Y0011*
X0218*
X0219Y001*
X0218Y0009*
X0219*
X022Y0008*
X021D02*
X0211Y0009D01*
X0212*
X0211Y001*
X0212Y0011*
X0211*
X021Y0012*
X0209Y0011*
X0208*
X0209Y001*
X0208Y0009*
X0209*
X021Y0008*
X027D02*
X0271Y0009D01*
X0272*
X0271Y001*
X0272Y0011*
X0271*
X027Y0012*
X0269Y0011*
X0268*
X0269Y001*
X0268Y0009*
X0269*
X027Y0008*
X026D02*
X0261Y0009D01*
X0262*
X0261Y001*
X0262Y0011*
X0261*
X026Y0012*
X0259Y0011*
X0258*
X0259Y001*
X0258Y0009*
X0259*
X026Y0008*
X025D02*
X0251Y0009D01*
X0252*
X0251Y001*
X0252Y0011*
X0251*
X025Y0012*
X0249Y0011*
X0248*
X0249Y001*
X0248Y0009*
X0249*
X025Y0008*
X024D02*
X0241Y0009D01*
X0242*
X0241Y001*
X0242Y0011*
X0241*
X024Y0012*
X0239Y0011*
X0238*
X0239Y001*
X0238Y0009*
X0239*
X024Y0008*
X023D02*
X0231Y0009D01*
X0232*
X0231Y001*
X0232Y0011*
X0231*
X023Y0012*
X0229Y0011*
X0228*
X0229Y001*
X0228Y0009*
X0229*
X023Y0008*
X02D02*
X0201Y0009D01*
X0202*
X0201Y001*
X0202Y0011*
X0201*
X02Y0012*
X0199Y0011*
X0198*
X0199Y001*
X0198Y0009*
X0199*
X02Y0008*
X031D02*
X0311Y0009D01*
X0312*
X0311Y001*
X0312Y0011*
X0311*
X031Y0012*
X0309Y0011*
X0308*
X0309Y001*
X0308Y0009*
X0309*
X031Y0008*
X03D02*
X0301Y0009D01*
X0302*
X0301Y001*
X0302Y0011*
X0301*
X03Y0012*
X0299Y0011*
X0298*
X0299Y001*
X0298Y0009*
X0299*
X03Y0008*
X036D02*
X0361Y0009D01*
X0362*
X0361Y001*
X0362Y0011*
X0361*
X036Y0012*
X0359Y0011*
X0358*
X0359Y001*
X0358Y0009*
X0359*
X036Y0008*
X035D02*
X0351Y0009D01*
X0352*
X0351Y001*
X0352Y0011*
X0351*
X035Y0012*
X0349Y0011*
X0348*
X0349Y001*
X0348Y0009*
X0349*
X035Y0008*
X034D02*
X0341Y0009D01*
X0342*
X0341Y001*
X0342Y0011*
X0341*
X034Y0012*
X0339Y0011*
X0338*
X0339Y001*
X0338Y0009*
X0339*
X034Y0008*
X033D02*
X0331Y0009D01*
X0332*
X0331Y001*
X0332Y0011*
X0331*
X033Y0012*
X0329Y0011*
X0328*
X0329Y001*
X0328Y0009*
X0329*
X033Y0008*
X032D02*
X0321Y0009D01*
X0322*
X0321Y001*
X0322Y0011*
X0321*
X032Y0012*
X0319Y0011*
X0318*
X0319Y001*
X0318Y0009*
X0319*
X032Y0008*
X029D02*
X0291Y0009D01*
X0292*
X0291Y001*
X0292Y0011*
X0291*
X029Y0012*
X0289Y0011*
X0288*
X0289Y001*
X0288Y0009*
X0289*
X029Y0008*
X0073Y0163D02*
Y0167D01*
X0077*
Y0163*
X0073*
X0083D02*
Y0167D01*
X0087*
Y0163*
X0083*
X0093D02*
Y0167D01*
X0097*
Y0163*
X0093*
X0103D02*
Y0167D01*
X0107*
Y0163*
X0103*
X0113D02*
Y0167D01*
X0117*
Y0163*
X0113*
X0123D02*
Y0167D01*
X0127*
Y0163*
X0123*
X0133D02*
Y0167D01*
X0137*
Y0163*
X0133*
X0143D02*
Y0167D01*
X0147*
Y0163*
X0143*
X0354Y0199D02*
Y0198D01*
X0356*
Y0199*
X0357*
Y0201*
X0356*
Y0202*
X0354*
Y0201*
X0353*
Y0199*
X0354*
X0379Y0009D02*
Y0008D01*
X0381*
Y0009*
X0382*
Y0011*
X0381*
Y0012*
X0379*
Y0011*
X0378*
Y0009*
X0379*
X0259Y0029D02*
Y0028D01*
X0261*
Y0029*
X0262*
Y0031*
X0261*
Y0032*
X0259*
Y0031*
X0258*
Y0029*
X0259*
Y0139D02*
Y0138D01*
X0261*
Y0139*
X0262*
Y0141*
X0261*
Y0142*
X0259*
Y0141*
X0258*
Y0139*
X0259*
X0054Y0009D02*
Y0008D01*
X0056*
Y0009*
X0057*
Y0011*
X0056*
Y0012*
X0054*
Y0011*
X0053*
Y0009*
X0054*
X0059Y0199D02*
Y0198D01*
X0061*
Y0199*
X0062*
Y0201*
X0061*
Y0202*
X0059*
Y0201*
X0058*
Y0199*
X0059*
X03057Y00907D02*
X03067D01*
X03077Y00917*
X03087Y00907*
X03097*
Y00917*
X03087Y00927*
X03097Y00937*
Y00947*
X03087*
X03077Y00937*
X03067Y00947*
X03057*
Y00937*
X03067Y00927*
X03057Y00917*
Y00907*
X00682Y02021D02*
X00692D01*
X00702Y02031*
X00712Y02021*
X00722*
Y02031*
X00712Y02041*
X00722Y02051*
Y02061*
X00712*
X00702Y02051*
X00692Y02061*
X00682*
Y02051*
X00692Y02041*
X00682Y02031*
Y02021*
X03094Y01867D02*
X03104D01*
X03114Y01877*
X03124Y01867*
X03134*
Y01877*
X03124Y01887*
X03134Y01897*
Y01907*
X03124*
X03114Y01897*
X03104Y01907*
X03094*
Y01897*
X03104Y01887*
X03094Y01877*
Y01867*
X03285Y01478D02*
X03295D01*
X03305Y01488*
X03315Y01478*
X03325*
Y01488*
X03315Y01498*
X03325Y01508*
Y01518*
X03315*
X03305Y01508*
X03295Y01518*
X03285*
Y01508*
X03295Y01498*
X03285Y01488*
Y01478*
X03565Y0183D02*
X03575D01*
X03585Y0184*
X03595Y0183*
X03605*
Y0184*
X03595Y0185*
X03605Y0186*
Y0187*
X03595*
X03585Y0186*
X03575Y0187*
X03565*
Y0186*
X03575Y0185*
X03565Y0184*
Y0183*
X03263Y01863D02*
X03273D01*
X03283Y01873*
X03293Y01863*
X03303*
Y01873*
X03293Y01883*
X03303Y01893*
Y01903*
X03293*
X03283Y01893*
X03273Y01903*
X03263*
Y01893*
X03273Y01883*
X03263Y01873*
Y01863*
X00909Y01565D02*
X00919D01*
X00929Y01575*
X00939Y01565*
X00949*
Y01575*
X00939Y01585*
X00949Y01595*
Y01605*
X00939*
X00929Y01595*
X00919Y01605*
X00909*
Y01595*
X00919Y01585*
X00909Y01575*
Y01565*
G54D49*
X0337Y0125D02*
D01*
X03369Y01251*
X03369Y01252*
X03369Y01254*
X03369Y01255*
X03368Y01256*
X03368Y01258*
X03367Y01259*
X03366Y0126*
X03366Y01261*
X03365Y01262*
X03364Y01263*
X03363Y01264*
X03362Y01265*
X03361Y01266*
X0336Y01267*
X03358Y01267*
X03357Y01268*
X03356Y01269*
X03354Y01269*
X03353Y01269*
X03352Y01269*
X0335Y01269*
X03349*
X03347Y01269*
X03346Y01269*
X03345Y01269*
X03343Y01269*
X03342Y01268*
X03341Y01267*
X0334Y01267*
X03338Y01266*
X03337Y01265*
X03336Y01264*
X03335Y01263*
X03334Y01262*
X03333Y01261*
X03333Y0126*
X03332Y01259*
X03331Y01258*
X03331Y01256*
X0333Y01255*
X0333Y01254*
X0333Y01252*
X0333Y01251*
X0333Y0125*
X0333Y01248*
X0333Y01247*
X0333Y01245*
X0333Y01244*
X03331Y01243*
X03331Y01241*
X03332Y0124*
X03333Y01239*
X03333Y01238*
X03334Y01237*
X03335Y01236*
X03336Y01235*
X03337Y01234*
X03338Y01233*
X0334Y01232*
X03341Y01232*
X03342Y01231*
X03343Y0123*
X03345Y0123*
X03346Y0123*
X03347Y0123*
X03349Y0123*
X0335*
X03352Y0123*
X03353Y0123*
X03354Y0123*
X03356Y0123*
X03357Y01231*
X03358Y01232*
X0336Y01232*
X03361Y01233*
X03362Y01234*
X03363Y01235*
X03364Y01236*
X03365Y01237*
X03366Y01238*
X03366Y01239*
X03367Y0124*
X03368Y01241*
X03368Y01243*
X03369Y01244*
X03369Y01245*
X03369Y01247*
X03369Y01248*
X0337Y0125*
Y0115D02*
D01*
X03369Y01151*
X03369Y01152*
X03369Y01154*
X03369Y01155*
X03368Y01156*
X03368Y01158*
X03367Y01159*
X03366Y0116*
X03366Y01161*
X03365Y01162*
X03364Y01163*
X03363Y01164*
X03362Y01165*
X03361Y01166*
X0336Y01167*
X03358Y01167*
X03357Y01168*
X03356Y01169*
X03354Y01169*
X03353Y01169*
X03352Y01169*
X0335Y01169*
X03349*
X03347Y01169*
X03346Y01169*
X03345Y01169*
X03343Y01169*
X03342Y01168*
X03341Y01167*
X0334Y01167*
X03338Y01166*
X03337Y01165*
X03336Y01164*
X03335Y01163*
X03334Y01162*
X03333Y01161*
X03333Y0116*
X03332Y01159*
X03331Y01158*
X03331Y01156*
X0333Y01155*
X0333Y01154*
X0333Y01152*
X0333Y01151*
X0333Y0115*
X0333Y01148*
X0333Y01147*
X0333Y01145*
X0333Y01144*
X03331Y01143*
X03331Y01141*
X03332Y0114*
X03333Y01139*
X03333Y01138*
X03334Y01137*
X03335Y01136*
X03336Y01135*
X03337Y01134*
X03338Y01133*
X0334Y01132*
X03341Y01132*
X03342Y01131*
X03343Y0113*
X03345Y0113*
X03346Y0113*
X03347Y0113*
X03349Y0113*
X0335*
X03352Y0113*
X03353Y0113*
X03354Y0113*
X03356Y0113*
X03357Y01131*
X03358Y01132*
X0336Y01132*
X03361Y01133*
X03362Y01134*
X03363Y01135*
X03364Y01136*
X03365Y01137*
X03366Y01138*
X03366Y01139*
X03367Y0114*
X03368Y01141*
X03368Y01143*
X03369Y01144*
X03369Y01145*
X03369Y01147*
X03369Y01148*
X0337Y0115*
Y0105D02*
D01*
X03369Y01051*
X03369Y01052*
X03369Y01054*
X03369Y01055*
X03368Y01056*
X03368Y01058*
X03367Y01059*
X03366Y0106*
X03366Y01061*
X03365Y01062*
X03364Y01063*
X03363Y01064*
X03362Y01065*
X03361Y01066*
X0336Y01067*
X03358Y01067*
X03357Y01068*
X03356Y01069*
X03354Y01069*
X03353Y01069*
X03352Y01069*
X0335Y01069*
X03349*
X03347Y01069*
X03346Y01069*
X03345Y01069*
X03343Y01069*
X03342Y01068*
X03341Y01067*
X0334Y01067*
X03338Y01066*
X03337Y01065*
X03336Y01064*
X03335Y01063*
X03334Y01062*
X03333Y01061*
X03333Y0106*
X03332Y01059*
X03331Y01058*
X03331Y01056*
X0333Y01055*
X0333Y01054*
X0333Y01052*
X0333Y01051*
X0333Y0105*
X0333Y01048*
X0333Y01047*
X0333Y01045*
X0333Y01044*
X03331Y01043*
X03331Y01041*
X03332Y0104*
X03333Y01039*
X03333Y01038*
X03334Y01037*
X03335Y01036*
X03336Y01035*
X03337Y01034*
X03338Y01033*
X0334Y01032*
X03341Y01032*
X03342Y01031*
X03343Y0103*
X03345Y0103*
X03346Y0103*
X03347Y0103*
X03349Y0103*
X0335*
X03352Y0103*
X03353Y0103*
X03354Y0103*
X03356Y0103*
X03357Y01031*
X03358Y01032*
X0336Y01032*
X03361Y01033*
X03362Y01034*
X03363Y01035*
X03364Y01036*
X03365Y01037*
X03366Y01038*
X03366Y01039*
X03367Y0104*
X03368Y01041*
X03368Y01043*
X03369Y01044*
X03369Y01045*
X03369Y01047*
X03369Y01048*
X0337Y0105*
Y0095D02*
D01*
X03369Y00951*
X03369Y00952*
X03369Y00954*
X03369Y00955*
X03368Y00956*
X03368Y00958*
X03367Y00959*
X03366Y0096*
X03366Y00961*
X03365Y00962*
X03364Y00963*
X03363Y00964*
X03362Y00965*
X03361Y00966*
X0336Y00967*
X03358Y00967*
X03357Y00968*
X03356Y00969*
X03354Y00969*
X03353Y00969*
X03352Y00969*
X0335Y00969*
X03349*
X03347Y00969*
X03346Y00969*
X03345Y00969*
X03343Y00969*
X03342Y00968*
X03341Y00967*
X0334Y00967*
X03338Y00966*
X03337Y00965*
X03336Y00964*
X03335Y00963*
X03334Y00962*
X03333Y00961*
X03333Y0096*
X03332Y00959*
X03331Y00958*
X03331Y00956*
X0333Y00955*
X0333Y00954*
X0333Y00952*
X0333Y00951*
X0333Y0095*
X0333Y00948*
X0333Y00947*
X0333Y00945*
X0333Y00944*
X03331Y00943*
X03331Y00941*
X03332Y0094*
X03333Y00939*
X03333Y00938*
X03334Y00937*
X03335Y00936*
X03336Y00935*
X03337Y00934*
X03338Y00933*
X0334Y00932*
X03341Y00932*
X03342Y00931*
X03343Y0093*
X03345Y0093*
X03346Y0093*
X03347Y0093*
X03349Y0093*
X0335*
X03352Y0093*
X03353Y0093*
X03354Y0093*
X03356Y0093*
X03357Y00931*
X03358Y00932*
X0336Y00932*
X03361Y00933*
X03362Y00934*
X03363Y00935*
X03364Y00936*
X03365Y00937*
X03366Y00938*
X03366Y00939*
X03367Y0094*
X03368Y00941*
X03368Y00943*
X03369Y00944*
X03369Y00945*
X03369Y00947*
X03369Y00948*
X0337Y0095*
Y0065D02*
D01*
X03369Y00651*
X03369Y00652*
X03369Y00654*
X03369Y00655*
X03368Y00656*
X03368Y00658*
X03367Y00659*
X03366Y0066*
X03366Y00661*
X03365Y00662*
X03364Y00663*
X03363Y00664*
X03362Y00665*
X03361Y00666*
X0336Y00667*
X03358Y00667*
X03357Y00668*
X03356Y00669*
X03354Y00669*
X03353Y00669*
X03352Y00669*
X0335Y00669*
X03349*
X03347Y00669*
X03346Y00669*
X03345Y00669*
X03343Y00669*
X03342Y00668*
X03341Y00667*
X0334Y00667*
X03338Y00666*
X03337Y00665*
X03336Y00664*
X03335Y00663*
X03334Y00662*
X03333Y00661*
X03333Y0066*
X03332Y00659*
X03331Y00658*
X03331Y00656*
X0333Y00655*
X0333Y00654*
X0333Y00652*
X0333Y00651*
X0333Y0065*
X0333Y00648*
X0333Y00647*
X0333Y00645*
X0333Y00644*
X03331Y00643*
X03331Y00641*
X03332Y0064*
X03333Y00639*
X03333Y00638*
X03334Y00637*
X03335Y00636*
X03336Y00635*
X03337Y00634*
X03338Y00633*
X0334Y00632*
X03341Y00632*
X03342Y00631*
X03343Y0063*
X03345Y0063*
X03346Y0063*
X03347Y0063*
X03349Y0063*
X0335*
X03352Y0063*
X03353Y0063*
X03354Y0063*
X03356Y0063*
X03357Y00631*
X03358Y00632*
X0336Y00632*
X03361Y00633*
X03362Y00634*
X03363Y00635*
X03364Y00636*
X03365Y00637*
X03366Y00638*
X03366Y00639*
X03367Y0064*
X03368Y00641*
X03368Y00643*
X03369Y00644*
X03369Y00645*
X03369Y00647*
X03369Y00648*
X0337Y0065*
Y0055D02*
D01*
X03369Y00551*
X03369Y00552*
X03369Y00554*
X03369Y00555*
X03368Y00556*
X03368Y00558*
X03367Y00559*
X03366Y0056*
X03366Y00561*
X03365Y00562*
X03364Y00563*
X03363Y00564*
X03362Y00565*
X03361Y00566*
X0336Y00567*
X03358Y00567*
X03357Y00568*
X03356Y00569*
X03354Y00569*
X03353Y00569*
X03352Y00569*
X0335Y00569*
X03349*
X03347Y00569*
X03346Y00569*
X03345Y00569*
X03343Y00569*
X03342Y00568*
X03341Y00567*
X0334Y00567*
X03338Y00566*
X03337Y00565*
X03336Y00564*
X03335Y00563*
X03334Y00562*
X03333Y00561*
X03333Y0056*
X03332Y00559*
X03331Y00558*
X03331Y00556*
X0333Y00555*
X0333Y00554*
X0333Y00552*
X0333Y00551*
X0333Y0055*
X0333Y00548*
X0333Y00547*
X0333Y00545*
X0333Y00544*
X03331Y00543*
X03331Y00541*
X03332Y0054*
X03333Y00539*
X03333Y00538*
X03334Y00537*
X03335Y00536*
X03336Y00535*
X03337Y00534*
X03338Y00533*
X0334Y00532*
X03341Y00532*
X03342Y00531*
X03343Y0053*
X03345Y0053*
X03346Y0053*
X03347Y0053*
X03349Y0053*
X0335*
X03352Y0053*
X03353Y0053*
X03354Y0053*
X03356Y0053*
X03357Y00531*
X03358Y00532*
X0336Y00532*
X03361Y00533*
X03362Y00534*
X03363Y00535*
X03364Y00536*
X03365Y00537*
X03366Y00538*
X03366Y00539*
X03367Y0054*
X03368Y00541*
X03368Y00543*
X03369Y00544*
X03369Y00545*
X03369Y00547*
X03369Y00548*
X0337Y0055*
Y0045D02*
D01*
X03369Y00451*
X03369Y00452*
X03369Y00454*
X03369Y00455*
X03368Y00456*
X03368Y00458*
X03367Y00459*
X03366Y0046*
X03366Y00461*
X03365Y00462*
X03364Y00463*
X03363Y00464*
X03362Y00465*
X03361Y00466*
X0336Y00467*
X03358Y00467*
X03357Y00468*
X03356Y00469*
X03354Y00469*
X03353Y00469*
X03352Y00469*
X0335Y00469*
X03349*
X03347Y00469*
X03346Y00469*
X03345Y00469*
X03343Y00469*
X03342Y00468*
X03341Y00467*
X0334Y00467*
X03338Y00466*
X03337Y00465*
X03336Y00464*
X03335Y00463*
X03334Y00462*
X03333Y00461*
X03333Y0046*
X03332Y00459*
X03331Y00458*
X03331Y00456*
X0333Y00455*
X0333Y00454*
X0333Y00452*
X0333Y00451*
X0333Y0045*
X0333Y00448*
X0333Y00447*
X0333Y00445*
X0333Y00444*
X03331Y00443*
X03331Y00441*
X03332Y0044*
X03333Y00439*
X03333Y00438*
X03334Y00437*
X03335Y00436*
X03336Y00435*
X03337Y00434*
X03338Y00433*
X0334Y00432*
X03341Y00432*
X03342Y00431*
X03343Y0043*
X03345Y0043*
X03346Y0043*
X03347Y0043*
X03349Y0043*
X0335*
X03352Y0043*
X03353Y0043*
X03354Y0043*
X03356Y0043*
X03357Y00431*
X03358Y00432*
X0336Y00432*
X03361Y00433*
X03362Y00434*
X03363Y00435*
X03364Y00436*
X03365Y00437*
X03366Y00438*
X03366Y00439*
X03367Y0044*
X03368Y00441*
X03368Y00443*
X03369Y00444*
X03369Y00445*
X03369Y00447*
X03369Y00448*
X0337Y0045*
Y0035D02*
D01*
X03369Y00351*
X03369Y00352*
X03369Y00354*
X03369Y00355*
X03368Y00356*
X03368Y00358*
X03367Y00359*
X03366Y0036*
X03366Y00361*
X03365Y00362*
X03364Y00363*
X03363Y00364*
X03362Y00365*
X03361Y00366*
X0336Y00367*
X03358Y00367*
X03357Y00368*
X03356Y00369*
X03354Y00369*
X03353Y00369*
X03352Y00369*
X0335Y00369*
X03349*
X03347Y00369*
X03346Y00369*
X03345Y00369*
X03343Y00369*
X03342Y00368*
X03341Y00367*
X0334Y00367*
X03338Y00366*
X03337Y00365*
X03336Y00364*
X03335Y00363*
X03334Y00362*
X03333Y00361*
X03333Y0036*
X03332Y00359*
X03331Y00358*
X03331Y00356*
X0333Y00355*
X0333Y00354*
X0333Y00352*
X0333Y00351*
X0333Y0035*
X0333Y00348*
X0333Y00347*
X0333Y00345*
X0333Y00344*
X03331Y00343*
X03331Y00341*
X03332Y0034*
X03333Y00339*
X03333Y00338*
X03334Y00337*
X03335Y00336*
X03336Y00335*
X03337Y00334*
X03338Y00333*
X0334Y00332*
X03341Y00332*
X03342Y00331*
X03343Y0033*
X03345Y0033*
X03346Y0033*
X03347Y0033*
X03349Y0033*
X0335*
X03352Y0033*
X03353Y0033*
X03354Y0033*
X03356Y0033*
X03357Y00331*
X03358Y00332*
X0336Y00332*
X03361Y00333*
X03362Y00334*
X03363Y00335*
X03364Y00336*
X03365Y00337*
X03366Y00338*
X03366Y00339*
X03367Y0034*
X03368Y00341*
X03368Y00343*
X03369Y00344*
X03369Y00345*
X03369Y00347*
X03369Y00348*
X0337Y0035*
X0052Y01525D02*
D01*
X00519Y01526*
X00519Y01527*
X00519Y01529*
X00519Y0153*
X00518Y01531*
X00518Y01533*
X00517Y01534*
X00516Y01535*
X00516Y01536*
X00515Y01537*
X00514Y01538*
X00513Y01539*
X00512Y0154*
X00511Y01541*
X0051Y01542*
X00508Y01542*
X00507Y01543*
X00506Y01544*
X00504Y01544*
X00503Y01544*
X00502Y01544*
X005Y01544*
X00499*
X00497Y01544*
X00496Y01544*
X00495Y01544*
X00493Y01544*
X00492Y01543*
X00491Y01542*
X0049Y01542*
X00488Y01541*
X00487Y0154*
X00486Y01539*
X00485Y01538*
X00484Y01537*
X00483Y01536*
X00483Y01535*
X00482Y01534*
X00481Y01533*
X00481Y01531*
X0048Y0153*
X0048Y01529*
X0048Y01527*
X0048Y01526*
X0048Y01525*
X0048Y01523*
X0048Y01522*
X0048Y0152*
X0048Y01519*
X00481Y01518*
X00481Y01516*
X00482Y01515*
X00483Y01514*
X00483Y01513*
X00484Y01512*
X00485Y01511*
X00486Y0151*
X00487Y01509*
X00488Y01508*
X0049Y01507*
X00491Y01507*
X00492Y01506*
X00493Y01505*
X00495Y01505*
X00496Y01505*
X00497Y01505*
X00499Y01505*
X005*
X00502Y01505*
X00503Y01505*
X00504Y01505*
X00506Y01505*
X00507Y01506*
X00508Y01507*
X0051Y01507*
X00511Y01508*
X00512Y01509*
X00513Y0151*
X00514Y01511*
X00515Y01512*
X00516Y01513*
X00516Y01514*
X00517Y01515*
X00518Y01516*
X00518Y01518*
X00519Y01519*
X00519Y0152*
X00519Y01522*
X00519Y01523*
X0052Y01525*
Y01125D02*
D01*
X00519Y01126*
X00519Y01127*
X00519Y01129*
X00519Y0113*
X00518Y01131*
X00518Y01133*
X00517Y01134*
X00516Y01135*
X00516Y01136*
X00515Y01137*
X00514Y01138*
X00513Y01139*
X00512Y0114*
X00511Y01141*
X0051Y01142*
X00508Y01142*
X00507Y01143*
X00506Y01144*
X00504Y01144*
X00503Y01144*
X00502Y01144*
X005Y01144*
X00499*
X00497Y01144*
X00496Y01144*
X00495Y01144*
X00493Y01144*
X00492Y01143*
X00491Y01142*
X0049Y01142*
X00488Y01141*
X00487Y0114*
X00486Y01139*
X00485Y01138*
X00484Y01137*
X00483Y01136*
X00483Y01135*
X00482Y01134*
X00481Y01133*
X00481Y01131*
X0048Y0113*
X0048Y01129*
X0048Y01127*
X0048Y01126*
X0048Y01125*
X0048Y01123*
X0048Y01122*
X0048Y0112*
X0048Y01119*
X00481Y01118*
X00481Y01116*
X00482Y01115*
X00483Y01114*
X00483Y01113*
X00484Y01112*
X00485Y01111*
X00486Y0111*
X00487Y01109*
X00488Y01108*
X0049Y01107*
X00491Y01107*
X00492Y01106*
X00493Y01105*
X00495Y01105*
X00496Y01105*
X00497Y01105*
X00499Y01105*
X005*
X00502Y01105*
X00503Y01105*
X00504Y01105*
X00506Y01105*
X00507Y01106*
X00508Y01107*
X0051Y01107*
X00511Y01108*
X00512Y01109*
X00513Y0111*
X00514Y01111*
X00515Y01112*
X00516Y01113*
X00516Y01114*
X00517Y01115*
X00518Y01116*
X00518Y01118*
X00519Y01119*
X00519Y0112*
X00519Y01122*
X00519Y01123*
X0052Y01125*
X0027Y01375D02*
D01*
X00269Y01376*
X00269Y01377*
X00269Y01379*
X00269Y0138*
X00268Y01381*
X00268Y01383*
X00267Y01384*
X00266Y01385*
X00266Y01386*
X00265Y01387*
X00264Y01388*
X00263Y01389*
X00262Y0139*
X00261Y01391*
X0026Y01392*
X00258Y01392*
X00257Y01393*
X00256Y01394*
X00254Y01394*
X00253Y01394*
X00252Y01394*
X0025Y01394*
X00249*
X00247Y01394*
X00246Y01394*
X00245Y01394*
X00243Y01394*
X00242Y01393*
X00241Y01392*
X00239Y01392*
X00238Y01391*
X00237Y0139*
X00236Y01389*
X00235Y01388*
X00234Y01387*
X00233Y01386*
X00233Y01385*
X00232Y01384*
X00231Y01383*
X00231Y01381*
X0023Y0138*
X0023Y01379*
X0023Y01377*
X0023Y01376*
X0023Y01375*
X0023Y01373*
X0023Y01372*
X0023Y0137*
X0023Y01369*
X00231Y01368*
X00231Y01366*
X00232Y01365*
X00233Y01364*
X00233Y01363*
X00234Y01362*
X00235Y01361*
X00236Y0136*
X00237Y01359*
X00238Y01358*
X0024Y01357*
X00241Y01357*
X00242Y01356*
X00243Y01355*
X00245Y01355*
X00246Y01355*
X00247Y01355*
X00249Y01355*
X0025*
X00252Y01355*
X00253Y01355*
X00254Y01355*
X00256Y01355*
X00257Y01356*
X00258Y01357*
X0026Y01357*
X00261Y01358*
X00262Y01359*
X00263Y0136*
X00264Y01361*
X00265Y01362*
X00266Y01363*
X00266Y01364*
X00267Y01365*
X00268Y01366*
X00268Y01368*
X00269Y01369*
X00269Y0137*
X00269Y01372*
X00269Y01373*
X0027Y01375*
Y01265D02*
D01*
X00269Y01266*
X00269Y01267*
X00269Y01269*
X00269Y0127*
X00268Y01271*
X00268Y01273*
X00267Y01274*
X00266Y01275*
X00266Y01276*
X00265Y01277*
X00264Y01278*
X00263Y01279*
X00262Y0128*
X00261Y01281*
X0026Y01282*
X00258Y01282*
X00257Y01283*
X00256Y01284*
X00254Y01284*
X00253Y01284*
X00252Y01284*
X0025Y01284*
X00249*
X00247Y01284*
X00246Y01284*
X00245Y01284*
X00243Y01284*
X00242Y01283*
X00241Y01282*
X00239Y01282*
X00238Y01281*
X00237Y0128*
X00236Y01279*
X00235Y01278*
X00234Y01277*
X00233Y01276*
X00233Y01275*
X00232Y01274*
X00231Y01273*
X00231Y01271*
X0023Y0127*
X0023Y01269*
X0023Y01267*
X0023Y01266*
X0023Y01265*
X0023Y01263*
X0023Y01262*
X0023Y0126*
X0023Y01259*
X00231Y01258*
X00231Y01256*
X00232Y01255*
X00233Y01254*
X00233Y01253*
X00234Y01252*
X00235Y01251*
X00236Y0125*
X00237Y01249*
X00238Y01248*
X0024Y01247*
X00241Y01247*
X00242Y01246*
X00243Y01245*
X00245Y01245*
X00246Y01245*
X00247Y01245*
X00249Y01245*
X0025*
X00252Y01245*
X00253Y01245*
X00254Y01245*
X00256Y01245*
X00257Y01246*
X00258Y01247*
X0026Y01247*
X00261Y01248*
X00262Y01249*
X00263Y0125*
X00264Y01251*
X00265Y01252*
X00266Y01253*
X00266Y01254*
X00267Y01255*
X00268Y01256*
X00268Y01258*
X00269Y01259*
X00269Y0126*
X00269Y01262*
X00269Y01263*
X0027Y01265*
X0122Y0115D02*
D01*
X01219Y01151*
X01219Y01152*
X01219Y01154*
X01219Y01155*
X01218Y01156*
X01218Y01158*
X01217Y01159*
X01216Y0116*
X01216Y01161*
X01215Y01162*
X01214Y01163*
X01213Y01164*
X01212Y01165*
X01211Y01166*
X0121Y01167*
X01208Y01167*
X01207Y01168*
X01206Y01169*
X01204Y01169*
X01203Y01169*
X01202Y01169*
X012Y01169*
X01199*
X01197Y01169*
X01196Y01169*
X01195Y01169*
X01193Y01169*
X01192Y01168*
X01191Y01167*
X0119Y01167*
X01188Y01166*
X01187Y01165*
X01186Y01164*
X01185Y01163*
X01184Y01162*
X01183Y01161*
X01183Y0116*
X01182Y01159*
X01181Y01158*
X01181Y01156*
X0118Y01155*
X0118Y01154*
X0118Y01152*
X0118Y01151*
X0118Y0115*
X0118Y01148*
X0118Y01147*
X0118Y01145*
X0118Y01144*
X01181Y01143*
X01181Y01141*
X01182Y0114*
X01183Y01139*
X01183Y01138*
X01184Y01137*
X01185Y01136*
X01186Y01135*
X01187Y01134*
X01188Y01133*
X0119Y01132*
X01191Y01132*
X01192Y01131*
X01193Y0113*
X01195Y0113*
X01196Y0113*
X01197Y0113*
X01199Y0113*
X012*
X01202Y0113*
X01203Y0113*
X01204Y0113*
X01206Y0113*
X01207Y01131*
X01208Y01132*
X0121Y01132*
X01211Y01133*
X01212Y01134*
X01213Y01135*
X01214Y01136*
X01215Y01137*
X01216Y01138*
X01216Y01139*
X01217Y0114*
X01218Y01141*
X01218Y01143*
X01219Y01144*
X01219Y01145*
X01219Y01147*
X01219Y01148*
X0122Y0115*
X0112D02*
D01*
X01119Y01151*
X01119Y01152*
X01119Y01154*
X01119Y01155*
X01118Y01156*
X01118Y01158*
X01117Y01159*
X01116Y0116*
X01116Y01161*
X01115Y01162*
X01114Y01163*
X01113Y01164*
X01112Y01165*
X01111Y01166*
X0111Y01167*
X01108Y01167*
X01107Y01168*
X01106Y01169*
X01104Y01169*
X01103Y01169*
X01102Y01169*
X011Y01169*
X01099*
X01097Y01169*
X01096Y01169*
X01095Y01169*
X01093Y01169*
X01092Y01168*
X01091Y01167*
X0109Y01167*
X01088Y01166*
X01087Y01165*
X01086Y01164*
X01085Y01163*
X01084Y01162*
X01083Y01161*
X01083Y0116*
X01082Y01159*
X01081Y01158*
X01081Y01156*
X0108Y01155*
X0108Y01154*
X0108Y01152*
X0108Y01151*
X0108Y0115*
X0108Y01148*
X0108Y01147*
X0108Y01145*
X0108Y01144*
X01081Y01143*
X01081Y01141*
X01082Y0114*
X01083Y01139*
X01083Y01138*
X01084Y01137*
X01085Y01136*
X01086Y01135*
X01087Y01134*
X01088Y01133*
X0109Y01132*
X01091Y01132*
X01092Y01131*
X01093Y0113*
X01095Y0113*
X01096Y0113*
X01097Y0113*
X01099Y0113*
X011*
X01102Y0113*
X01103Y0113*
X01104Y0113*
X01106Y0113*
X01107Y01131*
X01108Y01132*
X0111Y01132*
X01111Y01133*
X01112Y01134*
X01113Y01135*
X01114Y01136*
X01115Y01137*
X01116Y01138*
X01116Y01139*
X01117Y0114*
X01118Y01141*
X01118Y01143*
X01119Y01144*
X01119Y01145*
X01119Y01147*
X01119Y01148*
X0112Y0115*
X0102D02*
D01*
X01019Y01151*
X01019Y01152*
X01019Y01154*
X01019Y01155*
X01018Y01156*
X01018Y01158*
X01017Y01159*
X01016Y0116*
X01016Y01161*
X01015Y01162*
X01014Y01163*
X01013Y01164*
X01012Y01165*
X01011Y01166*
X0101Y01167*
X01008Y01167*
X01007Y01168*
X01006Y01169*
X01004Y01169*
X01003Y01169*
X01002Y01169*
X01Y01169*
X00999*
X00997Y01169*
X00996Y01169*
X00995Y01169*
X00993Y01169*
X00992Y01168*
X00991Y01167*
X0099Y01167*
X00988Y01166*
X00987Y01165*
X00986Y01164*
X00985Y01163*
X00984Y01162*
X00983Y01161*
X00983Y0116*
X00982Y01159*
X00981Y01158*
X00981Y01156*
X0098Y01155*
X0098Y01154*
X0098Y01152*
X0098Y01151*
X0098Y0115*
X0098Y01148*
X0098Y01147*
X0098Y01145*
X0098Y01144*
X00981Y01143*
X00981Y01141*
X00982Y0114*
X00983Y01139*
X00983Y01138*
X00984Y01137*
X00985Y01136*
X00986Y01135*
X00987Y01134*
X00988Y01133*
X0099Y01132*
X00991Y01132*
X00992Y01131*
X00993Y0113*
X00995Y0113*
X00996Y0113*
X00997Y0113*
X00999Y0113*
X01*
X01002Y0113*
X01003Y0113*
X01004Y0113*
X01006Y0113*
X01007Y01131*
X01008Y01132*
X0101Y01132*
X01011Y01133*
X01012Y01134*
X01013Y01135*
X01014Y01136*
X01015Y01137*
X01016Y01138*
X01016Y01139*
X01017Y0114*
X01018Y01141*
X01018Y01143*
X01019Y01144*
X01019Y01145*
X01019Y01147*
X01019Y01148*
X0102Y0115*
X0092D02*
D01*
X00919Y01151*
X00919Y01152*
X00919Y01154*
X00919Y01155*
X00918Y01156*
X00918Y01158*
X00917Y01159*
X00916Y0116*
X00916Y01161*
X00915Y01162*
X00914Y01163*
X00913Y01164*
X00912Y01165*
X00911Y01166*
X0091Y01167*
X00908Y01167*
X00907Y01168*
X00906Y01169*
X00904Y01169*
X00903Y01169*
X00902Y01169*
X009Y01169*
X00899*
X00897Y01169*
X00896Y01169*
X00895Y01169*
X00893Y01169*
X00892Y01168*
X00891Y01167*
X0089Y01167*
X00888Y01166*
X00887Y01165*
X00886Y01164*
X00885Y01163*
X00884Y01162*
X00883Y01161*
X00883Y0116*
X00882Y01159*
X00881Y01158*
X00881Y01156*
X0088Y01155*
X0088Y01154*
X0088Y01152*
X0088Y01151*
X0088Y0115*
X0088Y01148*
X0088Y01147*
X0088Y01145*
X0088Y01144*
X00881Y01143*
X00881Y01141*
X00882Y0114*
X00883Y01139*
X00883Y01138*
X00884Y01137*
X00885Y01136*
X00886Y01135*
X00887Y01134*
X00888Y01133*
X0089Y01132*
X00891Y01132*
X00892Y01131*
X00893Y0113*
X00895Y0113*
X00896Y0113*
X00897Y0113*
X00899Y0113*
X009*
X00902Y0113*
X00903Y0113*
X00904Y0113*
X00906Y0113*
X00907Y01131*
X00908Y01132*
X0091Y01132*
X00911Y01133*
X00912Y01134*
X00913Y01135*
X00914Y01136*
X00915Y01137*
X00916Y01138*
X00916Y01139*
X00917Y0114*
X00918Y01141*
X00918Y01143*
X00919Y01144*
X00919Y01145*
X00919Y01147*
X00919Y01148*
X0092Y0115*
X00195Y00375D02*
D01*
X00194Y00376*
X00194Y00377*
X00194Y00379*
X00194Y0038*
X00193Y00381*
X00193Y00383*
X00192Y00384*
X00191Y00385*
X00191Y00386*
X0019Y00387*
X00189Y00388*
X00188Y00389*
X00187Y0039*
X00186Y00391*
X00185Y00392*
X00183Y00392*
X00182Y00393*
X00181Y00394*
X00179Y00394*
X00178Y00394*
X00177Y00394*
X00175Y00394*
X00174*
X00172Y00394*
X00171Y00394*
X0017Y00394*
X00168Y00394*
X00167Y00393*
X00166Y00392*
X00164Y00392*
X00163Y00391*
X00162Y0039*
X00161Y00389*
X0016Y00388*
X00159Y00387*
X00158Y00386*
X00158Y00385*
X00157Y00384*
X00156Y00383*
X00156Y00381*
X00155Y0038*
X00155Y00379*
X00155Y00377*
X00155Y00376*
X00155Y00375*
X00155Y00373*
X00155Y00372*
X00155Y0037*
X00155Y00369*
X00156Y00368*
X00156Y00366*
X00157Y00365*
X00158Y00364*
X00158Y00363*
X00159Y00362*
X0016Y00361*
X00161Y0036*
X00162Y00359*
X00163Y00358*
X00165Y00357*
X00166Y00357*
X00167Y00356*
X00168Y00355*
X0017Y00355*
X00171Y00355*
X00172Y00355*
X00174Y00355*
X00175*
X00177Y00355*
X00178Y00355*
X00179Y00355*
X00181Y00355*
X00182Y00356*
X00183Y00357*
X00185Y00357*
X00186Y00358*
X00187Y00359*
X00188Y0036*
X00189Y00361*
X0019Y00362*
X00191Y00363*
X00191Y00364*
X00192Y00365*
X00193Y00366*
X00193Y00368*
X00194Y00369*
X00194Y0037*
X00194Y00372*
X00194Y00373*
X00195Y00375*
X00295D02*
D01*
X00294Y00376*
X00294Y00377*
X00294Y00379*
X00294Y0038*
X00293Y00381*
X00293Y00383*
X00292Y00384*
X00291Y00385*
X00291Y00386*
X0029Y00387*
X00289Y00388*
X00288Y00389*
X00287Y0039*
X00286Y00391*
X00285Y00392*
X00283Y00392*
X00282Y00393*
X00281Y00394*
X00279Y00394*
X00278Y00394*
X00277Y00394*
X00275Y00394*
X00274*
X00272Y00394*
X00271Y00394*
X0027Y00394*
X00268Y00394*
X00267Y00393*
X00266Y00392*
X00265Y00392*
X00263Y00391*
X00262Y0039*
X00261Y00389*
X0026Y00388*
X00259Y00387*
X00258Y00386*
X00258Y00385*
X00257Y00384*
X00256Y00383*
X00256Y00381*
X00255Y0038*
X00255Y00379*
X00255Y00377*
X00255Y00376*
X00255Y00375*
X00255Y00373*
X00255Y00372*
X00255Y0037*
X00255Y00369*
X00256Y00368*
X00256Y00366*
X00257Y00365*
X00258Y00364*
X00258Y00363*
X00259Y00362*
X0026Y00361*
X00261Y0036*
X00262Y00359*
X00263Y00358*
X00265Y00357*
X00266Y00357*
X00267Y00356*
X00268Y00355*
X0027Y00355*
X00271Y00355*
X00272Y00355*
X00274Y00355*
X00275*
X00277Y00355*
X00278Y00355*
X00279Y00355*
X00281Y00355*
X00282Y00356*
X00283Y00357*
X00285Y00357*
X00286Y00358*
X00287Y00359*
X00288Y0036*
X00289Y00361*
X0029Y00362*
X00291Y00363*
X00291Y00364*
X00292Y00365*
X00293Y00366*
X00293Y00368*
X00294Y00369*
X00294Y0037*
X00294Y00372*
X00294Y00373*
X00295Y00375*
X00395D02*
D01*
X00394Y00376*
X00394Y00377*
X00394Y00379*
X00394Y0038*
X00393Y00381*
X00393Y00383*
X00392Y00384*
X00391Y00385*
X00391Y00386*
X0039Y00387*
X00389Y00388*
X00388Y00389*
X00387Y0039*
X00386Y00391*
X00385Y00392*
X00383Y00392*
X00382Y00393*
X00381Y00394*
X00379Y00394*
X00378Y00394*
X00377Y00394*
X00375Y00394*
X00374*
X00372Y00394*
X00371Y00394*
X0037Y00394*
X00368Y00394*
X00367Y00393*
X00366Y00392*
X00365Y00392*
X00363Y00391*
X00362Y0039*
X00361Y00389*
X0036Y00388*
X00359Y00387*
X00358Y00386*
X00358Y00385*
X00357Y00384*
X00356Y00383*
X00356Y00381*
X00355Y0038*
X00355Y00379*
X00355Y00377*
X00355Y00376*
X00355Y00375*
X00355Y00373*
X00355Y00372*
X00355Y0037*
X00355Y00369*
X00356Y00368*
X00356Y00366*
X00357Y00365*
X00358Y00364*
X00358Y00363*
X00359Y00362*
X0036Y00361*
X00361Y0036*
X00362Y00359*
X00363Y00358*
X00365Y00357*
X00366Y00357*
X00367Y00356*
X00368Y00355*
X0037Y00355*
X00371Y00355*
X00372Y00355*
X00374Y00355*
X00375*
X00377Y00355*
X00378Y00355*
X00379Y00355*
X00381Y00355*
X00382Y00356*
X00383Y00357*
X00385Y00357*
X00386Y00358*
X00387Y00359*
X00388Y0036*
X00389Y00361*
X0039Y00362*
X00391Y00363*
X00391Y00364*
X00392Y00365*
X00393Y00366*
X00393Y00368*
X00394Y00369*
X00394Y0037*
X00394Y00372*
X00394Y00373*
X00395Y00375*
X00495D02*
D01*
X00494Y00376*
X00494Y00377*
X00494Y00379*
X00494Y0038*
X00493Y00381*
X00493Y00383*
X00492Y00384*
X00491Y00385*
X00491Y00386*
X0049Y00387*
X00489Y00388*
X00488Y00389*
X00487Y0039*
X00486Y00391*
X00485Y00392*
X00483Y00392*
X00482Y00393*
X00481Y00394*
X00479Y00394*
X00478Y00394*
X00477Y00394*
X00475Y00394*
X00474*
X00472Y00394*
X00471Y00394*
X0047Y00394*
X00468Y00394*
X00467Y00393*
X00466Y00392*
X00465Y00392*
X00463Y00391*
X00462Y0039*
X00461Y00389*
X0046Y00388*
X00459Y00387*
X00458Y00386*
X00458Y00385*
X00457Y00384*
X00456Y00383*
X00456Y00381*
X00455Y0038*
X00455Y00379*
X00455Y00377*
X00455Y00376*
X00455Y00375*
X00455Y00373*
X00455Y00372*
X00455Y0037*
X00455Y00369*
X00456Y00368*
X00456Y00366*
X00457Y00365*
X00458Y00364*
X00458Y00363*
X00459Y00362*
X0046Y00361*
X00461Y0036*
X00462Y00359*
X00463Y00358*
X00465Y00357*
X00466Y00357*
X00467Y00356*
X00468Y00355*
X0047Y00355*
X00471Y00355*
X00472Y00355*
X00474Y00355*
X00475*
X00477Y00355*
X00478Y00355*
X00479Y00355*
X00481Y00355*
X00482Y00356*
X00483Y00357*
X00485Y00357*
X00486Y00358*
X00487Y00359*
X00488Y0036*
X00489Y00361*
X0049Y00362*
X00491Y00363*
X00491Y00364*
X00492Y00365*
X00493Y00366*
X00493Y00368*
X00494Y00369*
X00494Y0037*
X00494Y00372*
X00494Y00373*
X00495Y00375*
X00595D02*
D01*
X00594Y00376*
X00594Y00377*
X00594Y00379*
X00594Y0038*
X00593Y00381*
X00593Y00383*
X00592Y00384*
X00591Y00385*
X00591Y00386*
X0059Y00387*
X00589Y00388*
X00588Y00389*
X00587Y0039*
X00586Y00391*
X00585Y00392*
X00583Y00392*
X00582Y00393*
X00581Y00394*
X00579Y00394*
X00578Y00394*
X00577Y00394*
X00575Y00394*
X00574*
X00572Y00394*
X00571Y00394*
X0057Y00394*
X00568Y00394*
X00567Y00393*
X00566Y00392*
X00565Y00392*
X00563Y00391*
X00562Y0039*
X00561Y00389*
X0056Y00388*
X00559Y00387*
X00558Y00386*
X00558Y00385*
X00557Y00384*
X00556Y00383*
X00556Y00381*
X00555Y0038*
X00555Y00379*
X00555Y00377*
X00555Y00376*
X00555Y00375*
X00555Y00373*
X00555Y00372*
X00555Y0037*
X00555Y00369*
X00556Y00368*
X00556Y00366*
X00557Y00365*
X00558Y00364*
X00558Y00363*
X00559Y00362*
X0056Y00361*
X00561Y0036*
X00562Y00359*
X00563Y00358*
X00565Y00357*
X00566Y00357*
X00567Y00356*
X00568Y00355*
X0057Y00355*
X00571Y00355*
X00572Y00355*
X00574Y00355*
X00575*
X00577Y00355*
X00578Y00355*
X00579Y00355*
X00581Y00355*
X00582Y00356*
X00583Y00357*
X00585Y00357*
X00586Y00358*
X00587Y00359*
X00588Y0036*
X00589Y00361*
X0059Y00362*
X00591Y00363*
X00591Y00364*
X00592Y00365*
X00593Y00366*
X00593Y00368*
X00594Y00369*
X00594Y0037*
X00594Y00372*
X00594Y00373*
X00595Y00375*
X0122Y006D02*
D01*
X01219Y00601*
X01219Y00602*
X01219Y00604*
X01219Y00605*
X01218Y00606*
X01218Y00608*
X01217Y00609*
X01216Y0061*
X01216Y00611*
X01215Y00612*
X01214Y00613*
X01213Y00614*
X01212Y00615*
X01211Y00616*
X0121Y00617*
X01208Y00617*
X01207Y00618*
X01206Y00619*
X01204Y00619*
X01203Y00619*
X01202Y00619*
X012Y00619*
X01199*
X01197Y00619*
X01196Y00619*
X01195Y00619*
X01193Y00619*
X01192Y00618*
X01191Y00617*
X0119Y00617*
X01188Y00616*
X01187Y00615*
X01186Y00614*
X01185Y00613*
X01184Y00612*
X01183Y00611*
X01183Y0061*
X01182Y00609*
X01181Y00608*
X01181Y00606*
X0118Y00605*
X0118Y00604*
X0118Y00602*
X0118Y00601*
X0118Y006*
X0118Y00598*
X0118Y00597*
X0118Y00595*
X0118Y00594*
X01181Y00593*
X01181Y00591*
X01182Y0059*
X01183Y00589*
X01183Y00588*
X01184Y00587*
X01185Y00586*
X01186Y00585*
X01187Y00584*
X01188Y00583*
X0119Y00582*
X01191Y00582*
X01192Y00581*
X01193Y0058*
X01195Y0058*
X01196Y0058*
X01197Y0058*
X01199Y0058*
X012*
X01202Y0058*
X01203Y0058*
X01204Y0058*
X01206Y0058*
X01207Y00581*
X01208Y00582*
X0121Y00582*
X01211Y00583*
X01212Y00584*
X01213Y00585*
X01214Y00586*
X01215Y00587*
X01216Y00588*
X01216Y00589*
X01217Y0059*
X01218Y00591*
X01218Y00593*
X01219Y00594*
X01219Y00595*
X01219Y00597*
X01219Y00598*
X0122Y006*
X0112D02*
D01*
X01119Y00601*
X01119Y00602*
X01119Y00604*
X01119Y00605*
X01118Y00606*
X01118Y00608*
X01117Y00609*
X01116Y0061*
X01116Y00611*
X01115Y00612*
X01114Y00613*
X01113Y00614*
X01112Y00615*
X01111Y00616*
X0111Y00617*
X01108Y00617*
X01107Y00618*
X01106Y00619*
X01104Y00619*
X01103Y00619*
X01102Y00619*
X011Y00619*
X01099*
X01097Y00619*
X01096Y00619*
X01095Y00619*
X01093Y00619*
X01092Y00618*
X01091Y00617*
X0109Y00617*
X01088Y00616*
X01087Y00615*
X01086Y00614*
X01085Y00613*
X01084Y00612*
X01083Y00611*
X01083Y0061*
X01082Y00609*
X01081Y00608*
X01081Y00606*
X0108Y00605*
X0108Y00604*
X0108Y00602*
X0108Y00601*
X0108Y006*
X0108Y00598*
X0108Y00597*
X0108Y00595*
X0108Y00594*
X01081Y00593*
X01081Y00591*
X01082Y0059*
X01083Y00589*
X01083Y00588*
X01084Y00587*
X01085Y00586*
X01086Y00585*
X01087Y00584*
X01088Y00583*
X0109Y00582*
X01091Y00582*
X01092Y00581*
X01093Y0058*
X01095Y0058*
X01096Y0058*
X01097Y0058*
X01099Y0058*
X011*
X01102Y0058*
X01103Y0058*
X01104Y0058*
X01106Y0058*
X01107Y00581*
X01108Y00582*
X0111Y00582*
X01111Y00583*
X01112Y00584*
X01113Y00585*
X01114Y00586*
X01115Y00587*
X01116Y00588*
X01116Y00589*
X01117Y0059*
X01118Y00591*
X01118Y00593*
X01119Y00594*
X01119Y00595*
X01119Y00597*
X01119Y00598*
X0112Y006*
X0102D02*
D01*
X01019Y00601*
X01019Y00602*
X01019Y00604*
X01019Y00605*
X01018Y00606*
X01018Y00608*
X01017Y00609*
X01016Y0061*
X01016Y00611*
X01015Y00612*
X01014Y00613*
X01013Y00614*
X01012Y00615*
X01011Y00616*
X0101Y00617*
X01008Y00617*
X01007Y00618*
X01006Y00619*
X01004Y00619*
X01003Y00619*
X01002Y00619*
X01Y00619*
X00999*
X00997Y00619*
X00996Y00619*
X00995Y00619*
X00993Y00619*
X00992Y00618*
X00991Y00617*
X0099Y00617*
X00988Y00616*
X00987Y00615*
X00986Y00614*
X00985Y00613*
X00984Y00612*
X00983Y00611*
X00983Y0061*
X00982Y00609*
X00981Y00608*
X00981Y00606*
X0098Y00605*
X0098Y00604*
X0098Y00602*
X0098Y00601*
X0098Y006*
X0098Y00598*
X0098Y00597*
X0098Y00595*
X0098Y00594*
X00981Y00593*
X00981Y00591*
X00982Y0059*
X00983Y00589*
X00983Y00588*
X00984Y00587*
X00985Y00586*
X00986Y00585*
X00987Y00584*
X00988Y00583*
X0099Y00582*
X00991Y00582*
X00992Y00581*
X00993Y0058*
X00995Y0058*
X00996Y0058*
X00997Y0058*
X00999Y0058*
X01*
X01002Y0058*
X01003Y0058*
X01004Y0058*
X01006Y0058*
X01007Y00581*
X01008Y00582*
X0101Y00582*
X01011Y00583*
X01012Y00584*
X01013Y00585*
X01014Y00586*
X01015Y00587*
X01016Y00588*
X01016Y00589*
X01017Y0059*
X01018Y00591*
X01018Y00593*
X01019Y00594*
X01019Y00595*
X01019Y00597*
X01019Y00598*
X0102Y006*
X0092D02*
D01*
X00919Y00601*
X00919Y00602*
X00919Y00604*
X00919Y00605*
X00918Y00606*
X00918Y00608*
X00917Y00609*
X00916Y0061*
X00916Y00611*
X00915Y00612*
X00914Y00613*
X00913Y00614*
X00912Y00615*
X00911Y00616*
X0091Y00617*
X00908Y00617*
X00907Y00618*
X00906Y00619*
X00904Y00619*
X00903Y00619*
X00902Y00619*
X009Y00619*
X00899*
X00897Y00619*
X00896Y00619*
X00895Y00619*
X00893Y00619*
X00892Y00618*
X00891Y00617*
X0089Y00617*
X00888Y00616*
X00887Y00615*
X00886Y00614*
X00885Y00613*
X00884Y00612*
X00883Y00611*
X00883Y0061*
X00882Y00609*
X00881Y00608*
X00881Y00606*
X0088Y00605*
X0088Y00604*
X0088Y00602*
X0088Y00601*
X0088Y006*
X0088Y00598*
X0088Y00597*
X0088Y00595*
X0088Y00594*
X00881Y00593*
X00881Y00591*
X00882Y0059*
X00883Y00589*
X00883Y00588*
X00884Y00587*
X00885Y00586*
X00886Y00585*
X00887Y00584*
X00888Y00583*
X0089Y00582*
X00891Y00582*
X00892Y00581*
X00893Y0058*
X00895Y0058*
X00896Y0058*
X00897Y0058*
X00899Y0058*
X009*
X00902Y0058*
X00903Y0058*
X00904Y0058*
X00906Y0058*
X00907Y00581*
X00908Y00582*
X0091Y00582*
X00911Y00583*
X00912Y00584*
X00913Y00585*
X00914Y00586*
X00915Y00587*
X00916Y00588*
X00916Y00589*
X00917Y0059*
X00918Y00591*
X00918Y00593*
X00919Y00594*
X00919Y00595*
X00919Y00597*
X00919Y00598*
X0092Y006*
X0182D02*
D01*
X01819Y00601*
X01819Y00602*
X01819Y00604*
X01819Y00605*
X01818Y00606*
X01818Y00608*
X01817Y00609*
X01816Y0061*
X01816Y00611*
X01815Y00612*
X01814Y00613*
X01813Y00614*
X01812Y00615*
X01811Y00616*
X0181Y00617*
X01808Y00617*
X01807Y00618*
X01806Y00619*
X01804Y00619*
X01803Y00619*
X01802Y00619*
X018Y00619*
X01799*
X01797Y00619*
X01796Y00619*
X01795Y00619*
X01793Y00619*
X01792Y00618*
X01791Y00617*
X0179Y00617*
X01788Y00616*
X01787Y00615*
X01786Y00614*
X01785Y00613*
X01784Y00612*
X01783Y00611*
X01783Y0061*
X01782Y00609*
X01781Y00608*
X01781Y00606*
X0178Y00605*
X0178Y00604*
X0178Y00602*
X0178Y00601*
X0178Y006*
X0178Y00598*
X0178Y00597*
X0178Y00595*
X0178Y00594*
X01781Y00593*
X01781Y00591*
X01782Y0059*
X01783Y00589*
X01783Y00588*
X01784Y00587*
X01785Y00586*
X01786Y00585*
X01787Y00584*
X01788Y00583*
X0179Y00582*
X01791Y00582*
X01792Y00581*
X01793Y0058*
X01795Y0058*
X01796Y0058*
X01797Y0058*
X01799Y0058*
X018*
X01802Y0058*
X01803Y0058*
X01804Y0058*
X01806Y0058*
X01807Y00581*
X01808Y00582*
X0181Y00582*
X01811Y00583*
X01812Y00584*
X01813Y00585*
X01814Y00586*
X01815Y00587*
X01816Y00588*
X01816Y00589*
X01817Y0059*
X01818Y00591*
X01818Y00593*
X01819Y00594*
X01819Y00595*
X01819Y00597*
X01819Y00598*
X0182Y006*
X0172D02*
D01*
X01719Y00601*
X01719Y00602*
X01719Y00604*
X01719Y00605*
X01718Y00606*
X01718Y00608*
X01717Y00609*
X01716Y0061*
X01716Y00611*
X01715Y00612*
X01714Y00613*
X01713Y00614*
X01712Y00615*
X01711Y00616*
X0171Y00617*
X01708Y00617*
X01707Y00618*
X01706Y00619*
X01704Y00619*
X01703Y00619*
X01702Y00619*
X017Y00619*
X01699*
X01697Y00619*
X01696Y00619*
X01695Y00619*
X01693Y00619*
X01692Y00618*
X01691Y00617*
X0169Y00617*
X01688Y00616*
X01687Y00615*
X01686Y00614*
X01685Y00613*
X01684Y00612*
X01683Y00611*
X01683Y0061*
X01682Y00609*
X01681Y00608*
X01681Y00606*
X0168Y00605*
X0168Y00604*
X0168Y00602*
X0168Y00601*
X0168Y006*
X0168Y00598*
X0168Y00597*
X0168Y00595*
X0168Y00594*
X01681Y00593*
X01681Y00591*
X01682Y0059*
X01683Y00589*
X01683Y00588*
X01684Y00587*
X01685Y00586*
X01686Y00585*
X01687Y00584*
X01688Y00583*
X0169Y00582*
X01691Y00582*
X01692Y00581*
X01693Y0058*
X01695Y0058*
X01696Y0058*
X01697Y0058*
X01699Y0058*
X017*
X01702Y0058*
X01703Y0058*
X01704Y0058*
X01706Y0058*
X01707Y00581*
X01708Y00582*
X0171Y00582*
X01711Y00583*
X01712Y00584*
X01713Y00585*
X01714Y00586*
X01715Y00587*
X01716Y00588*
X01716Y00589*
X01717Y0059*
X01718Y00591*
X01718Y00593*
X01719Y00594*
X01719Y00595*
X01719Y00597*
X01719Y00598*
X0172Y006*
X0162D02*
D01*
X01619Y00601*
X01619Y00602*
X01619Y00604*
X01619Y00605*
X01618Y00606*
X01618Y00608*
X01617Y00609*
X01616Y0061*
X01616Y00611*
X01615Y00612*
X01614Y00613*
X01613Y00614*
X01612Y00615*
X01611Y00616*
X0161Y00617*
X01608Y00617*
X01607Y00618*
X01606Y00619*
X01604Y00619*
X01603Y00619*
X01602Y00619*
X016Y00619*
X01599*
X01597Y00619*
X01596Y00619*
X01595Y00619*
X01593Y00619*
X01592Y00618*
X01591Y00617*
X0159Y00617*
X01588Y00616*
X01587Y00615*
X01586Y00614*
X01585Y00613*
X01584Y00612*
X01583Y00611*
X01583Y0061*
X01582Y00609*
X01581Y00608*
X01581Y00606*
X0158Y00605*
X0158Y00604*
X0158Y00602*
X0158Y00601*
X0158Y006*
X0158Y00598*
X0158Y00597*
X0158Y00595*
X0158Y00594*
X01581Y00593*
X01581Y00591*
X01582Y0059*
X01583Y00589*
X01583Y00588*
X01584Y00587*
X01585Y00586*
X01586Y00585*
X01587Y00584*
X01588Y00583*
X0159Y00582*
X01591Y00582*
X01592Y00581*
X01593Y0058*
X01595Y0058*
X01596Y0058*
X01597Y0058*
X01599Y0058*
X016*
X01602Y0058*
X01603Y0058*
X01604Y0058*
X01606Y0058*
X01607Y00581*
X01608Y00582*
X0161Y00582*
X01611Y00583*
X01612Y00584*
X01613Y00585*
X01614Y00586*
X01615Y00587*
X01616Y00588*
X01616Y00589*
X01617Y0059*
X01618Y00591*
X01618Y00593*
X01619Y00594*
X01619Y00595*
X01619Y00597*
X01619Y00598*
X0162Y006*
X0152D02*
D01*
X01519Y00601*
X01519Y00602*
X01519Y00604*
X01519Y00605*
X01518Y00606*
X01518Y00608*
X01517Y00609*
X01516Y0061*
X01516Y00611*
X01515Y00612*
X01514Y00613*
X01513Y00614*
X01512Y00615*
X01511Y00616*
X0151Y00617*
X01508Y00617*
X01507Y00618*
X01506Y00619*
X01504Y00619*
X01503Y00619*
X01502Y00619*
X015Y00619*
X01499*
X01497Y00619*
X01496Y00619*
X01495Y00619*
X01493Y00619*
X01492Y00618*
X01491Y00617*
X0149Y00617*
X01488Y00616*
X01487Y00615*
X01486Y00614*
X01485Y00613*
X01484Y00612*
X01483Y00611*
X01483Y0061*
X01482Y00609*
X01481Y00608*
X01481Y00606*
X0148Y00605*
X0148Y00604*
X0148Y00602*
X0148Y00601*
X0148Y006*
X0148Y00598*
X0148Y00597*
X0148Y00595*
X0148Y00594*
X01481Y00593*
X01481Y00591*
X01482Y0059*
X01483Y00589*
X01483Y00588*
X01484Y00587*
X01485Y00586*
X01486Y00585*
X01487Y00584*
X01488Y00583*
X0149Y00582*
X01491Y00582*
X01492Y00581*
X01493Y0058*
X01495Y0058*
X01496Y0058*
X01497Y0058*
X01499Y0058*
X015*
X01502Y0058*
X01503Y0058*
X01504Y0058*
X01506Y0058*
X01507Y00581*
X01508Y00582*
X0151Y00582*
X01511Y00583*
X01512Y00584*
X01513Y00585*
X01514Y00586*
X01515Y00587*
X01516Y00588*
X01516Y00589*
X01517Y0059*
X01518Y00591*
X01518Y00593*
X01519Y00594*
X01519Y00595*
X01519Y00597*
X01519Y00598*
X0152Y006*
Y0115D02*
D01*
X01519Y01151*
X01519Y01152*
X01519Y01154*
X01519Y01155*
X01518Y01156*
X01518Y01158*
X01517Y01159*
X01516Y0116*
X01516Y01161*
X01515Y01162*
X01514Y01163*
X01513Y01164*
X01512Y01165*
X01511Y01166*
X0151Y01167*
X01508Y01167*
X01507Y01168*
X01506Y01169*
X01504Y01169*
X01503Y01169*
X01502Y01169*
X015Y01169*
X01499*
X01497Y01169*
X01496Y01169*
X01495Y01169*
X01493Y01169*
X01492Y01168*
X01491Y01167*
X0149Y01167*
X01488Y01166*
X01487Y01165*
X01486Y01164*
X01485Y01163*
X01484Y01162*
X01483Y01161*
X01483Y0116*
X01482Y01159*
X01481Y01158*
X01481Y01156*
X0148Y01155*
X0148Y01154*
X0148Y01152*
X0148Y01151*
X0148Y0115*
X0148Y01148*
X0148Y01147*
X0148Y01145*
X0148Y01144*
X01481Y01143*
X01481Y01141*
X01482Y0114*
X01483Y01139*
X01483Y01138*
X01484Y01137*
X01485Y01136*
X01486Y01135*
X01487Y01134*
X01488Y01133*
X0149Y01132*
X01491Y01132*
X01492Y01131*
X01493Y0113*
X01495Y0113*
X01496Y0113*
X01497Y0113*
X01499Y0113*
X015*
X01502Y0113*
X01503Y0113*
X01504Y0113*
X01506Y0113*
X01507Y01131*
X01508Y01132*
X0151Y01132*
X01511Y01133*
X01512Y01134*
X01513Y01135*
X01514Y01136*
X01515Y01137*
X01516Y01138*
X01516Y01139*
X01517Y0114*
X01518Y01141*
X01518Y01143*
X01519Y01144*
X01519Y01145*
X01519Y01147*
X01519Y01148*
X0152Y0115*
X0162D02*
D01*
X01619Y01151*
X01619Y01152*
X01619Y01154*
X01619Y01155*
X01618Y01156*
X01618Y01158*
X01617Y01159*
X01616Y0116*
X01616Y01161*
X01615Y01162*
X01614Y01163*
X01613Y01164*
X01612Y01165*
X01611Y01166*
X0161Y01167*
X01608Y01167*
X01607Y01168*
X01606Y01169*
X01604Y01169*
X01603Y01169*
X01602Y01169*
X016Y01169*
X01599*
X01597Y01169*
X01596Y01169*
X01595Y01169*
X01593Y01169*
X01592Y01168*
X01591Y01167*
X0159Y01167*
X01588Y01166*
X01587Y01165*
X01586Y01164*
X01585Y01163*
X01584Y01162*
X01583Y01161*
X01583Y0116*
X01582Y01159*
X01581Y01158*
X01581Y01156*
X0158Y01155*
X0158Y01154*
X0158Y01152*
X0158Y01151*
X0158Y0115*
X0158Y01148*
X0158Y01147*
X0158Y01145*
X0158Y01144*
X01581Y01143*
X01581Y01141*
X01582Y0114*
X01583Y01139*
X01583Y01138*
X01584Y01137*
X01585Y01136*
X01586Y01135*
X01587Y01134*
X01588Y01133*
X0159Y01132*
X01591Y01132*
X01592Y01131*
X01593Y0113*
X01595Y0113*
X01596Y0113*
X01597Y0113*
X01599Y0113*
X016*
X01602Y0113*
X01603Y0113*
X01604Y0113*
X01606Y0113*
X01607Y01131*
X01608Y01132*
X0161Y01132*
X01611Y01133*
X01612Y01134*
X01613Y01135*
X01614Y01136*
X01615Y01137*
X01616Y01138*
X01616Y01139*
X01617Y0114*
X01618Y01141*
X01618Y01143*
X01619Y01144*
X01619Y01145*
X01619Y01147*
X01619Y01148*
X0162Y0115*
X0172D02*
D01*
X01719Y01151*
X01719Y01152*
X01719Y01154*
X01719Y01155*
X01718Y01156*
X01718Y01158*
X01717Y01159*
X01716Y0116*
X01716Y01161*
X01715Y01162*
X01714Y01163*
X01713Y01164*
X01712Y01165*
X01711Y01166*
X0171Y01167*
X01708Y01167*
X01707Y01168*
X01706Y01169*
X01704Y01169*
X01703Y01169*
X01702Y01169*
X017Y01169*
X01699*
X01697Y01169*
X01696Y01169*
X01695Y01169*
X01693Y01169*
X01692Y01168*
X01691Y01167*
X0169Y01167*
X01688Y01166*
X01687Y01165*
X01686Y01164*
X01685Y01163*
X01684Y01162*
X01683Y01161*
X01683Y0116*
X01682Y01159*
X01681Y01158*
X01681Y01156*
X0168Y01155*
X0168Y01154*
X0168Y01152*
X0168Y01151*
X0168Y0115*
X0168Y01148*
X0168Y01147*
X0168Y01145*
X0168Y01144*
X01681Y01143*
X01681Y01141*
X01682Y0114*
X01683Y01139*
X01683Y01138*
X01684Y01137*
X01685Y01136*
X01686Y01135*
X01687Y01134*
X01688Y01133*
X0169Y01132*
X01691Y01132*
X01692Y01131*
X01693Y0113*
X01695Y0113*
X01696Y0113*
X01697Y0113*
X01699Y0113*
X017*
X01702Y0113*
X01703Y0113*
X01704Y0113*
X01706Y0113*
X01707Y01131*
X01708Y01132*
X0171Y01132*
X01711Y01133*
X01712Y01134*
X01713Y01135*
X01714Y01136*
X01715Y01137*
X01716Y01138*
X01716Y01139*
X01717Y0114*
X01718Y01141*
X01718Y01143*
X01719Y01144*
X01719Y01145*
X01719Y01147*
X01719Y01148*
X0172Y0115*
X0182D02*
D01*
X01819Y01151*
X01819Y01152*
X01819Y01154*
X01819Y01155*
X01818Y01156*
X01818Y01158*
X01817Y01159*
X01816Y0116*
X01816Y01161*
X01815Y01162*
X01814Y01163*
X01813Y01164*
X01812Y01165*
X01811Y01166*
X0181Y01167*
X01808Y01167*
X01807Y01168*
X01806Y01169*
X01804Y01169*
X01803Y01169*
X01802Y01169*
X018Y01169*
X01799*
X01797Y01169*
X01796Y01169*
X01795Y01169*
X01793Y01169*
X01792Y01168*
X01791Y01167*
X0179Y01167*
X01788Y01166*
X01787Y01165*
X01786Y01164*
X01785Y01163*
X01784Y01162*
X01783Y01161*
X01783Y0116*
X01782Y01159*
X01781Y01158*
X01781Y01156*
X0178Y01155*
X0178Y01154*
X0178Y01152*
X0178Y01151*
X0178Y0115*
X0178Y01148*
X0178Y01147*
X0178Y01145*
X0178Y01144*
X01781Y01143*
X01781Y01141*
X01782Y0114*
X01783Y01139*
X01783Y01138*
X01784Y01137*
X01785Y01136*
X01786Y01135*
X01787Y01134*
X01788Y01133*
X0179Y01132*
X01791Y01132*
X01792Y01131*
X01793Y0113*
X01795Y0113*
X01796Y0113*
X01797Y0113*
X01799Y0113*
X018*
X01802Y0113*
X01803Y0113*
X01804Y0113*
X01806Y0113*
X01807Y01131*
X01808Y01132*
X0181Y01132*
X01811Y01133*
X01812Y01134*
X01813Y01135*
X01814Y01136*
X01815Y01137*
X01816Y01138*
X01816Y01139*
X01817Y0114*
X01818Y01141*
X01818Y01143*
X01819Y01144*
X01819Y01145*
X01819Y01147*
X01819Y01148*
X0182Y0115*
X02095Y00436D02*
D01*
X02094Y00437*
X02094Y00438*
X02094Y0044*
X02094Y00441*
X02093Y00442*
X02093Y00444*
X02092Y00445*
X02091Y00446*
X02091Y00447*
X0209Y00448*
X02089Y00449*
X02088Y0045*
X02087Y00451*
X02086Y00452*
X02085Y00453*
X02083Y00453*
X02082Y00454*
X02081Y00455*
X02079Y00455*
X02078Y00455*
X02077Y00455*
X02075Y00455*
X02074*
X02072Y00455*
X02071Y00455*
X0207Y00455*
X02068Y00455*
X02067Y00454*
X02066Y00453*
X02065Y00453*
X02063Y00452*
X02062Y00451*
X02061Y0045*
X0206Y00449*
X02059Y00448*
X02058Y00447*
X02058Y00446*
X02057Y00445*
X02056Y00444*
X02056Y00442*
X02055Y00441*
X02055Y0044*
X02055Y00438*
X02055Y00437*
X02055Y00436*
X02055Y00434*
X02055Y00433*
X02055Y00431*
X02055Y0043*
X02056Y00429*
X02056Y00427*
X02057Y00426*
X02058Y00425*
X02058Y00424*
X02059Y00423*
X0206Y00422*
X02061Y00421*
X02062Y0042*
X02063Y00419*
X02065Y00418*
X02066Y00418*
X02067Y00417*
X02068Y00416*
X0207Y00416*
X02071Y00416*
X02072Y00416*
X02074Y00416*
X02075*
X02077Y00416*
X02078Y00416*
X02079Y00416*
X02081Y00416*
X02082Y00417*
X02083Y00418*
X02085Y00418*
X02086Y00419*
X02087Y0042*
X02088Y00421*
X02089Y00422*
X0209Y00423*
X02091Y00424*
X02091Y00425*
X02092Y00426*
X02093Y00427*
X02093Y00429*
X02094Y0043*
X02094Y00431*
X02094Y00433*
X02094Y00434*
X02095Y00436*
Y00514D02*
D01*
X02094Y00515*
X02094Y00516*
X02094Y00518*
X02094Y00519*
X02093Y0052*
X02093Y00522*
X02092Y00523*
X02091Y00524*
X02091Y00525*
X0209Y00526*
X02089Y00527*
X02088Y00528*
X02087Y00529*
X02086Y0053*
X02085Y00531*
X02083Y00531*
X02082Y00532*
X02081Y00533*
X02079Y00533*
X02078Y00533*
X02077Y00533*
X02075Y00533*
X02074*
X02072Y00533*
X02071Y00533*
X0207Y00533*
X02068Y00533*
X02067Y00532*
X02066Y00531*
X02065Y00531*
X02063Y0053*
X02062Y00529*
X02061Y00528*
X0206Y00527*
X02059Y00526*
X02058Y00525*
X02058Y00524*
X02057Y00523*
X02056Y00522*
X02056Y0052*
X02055Y00519*
X02055Y00518*
X02055Y00516*
X02055Y00515*
X02055Y00514*
X02055Y00512*
X02055Y00511*
X02055Y00509*
X02055Y00508*
X02056Y00507*
X02056Y00505*
X02057Y00504*
X02058Y00503*
X02058Y00502*
X02059Y00501*
X0206Y005*
X02061Y00499*
X02062Y00498*
X02063Y00497*
X02065Y00496*
X02066Y00496*
X02067Y00495*
X02068Y00494*
X0207Y00494*
X02071Y00494*
X02072Y00494*
X02074Y00494*
X02075*
X02077Y00494*
X02078Y00494*
X02079Y00494*
X02081Y00494*
X02082Y00495*
X02083Y00496*
X02085Y00496*
X02086Y00497*
X02087Y00498*
X02088Y00499*
X02089Y005*
X0209Y00501*
X02091Y00502*
X02091Y00503*
X02092Y00504*
X02093Y00505*
X02093Y00507*
X02094Y00508*
X02094Y00509*
X02094Y00511*
X02094Y00512*
X02095Y00514*
M02*