M48
;Layer_Color=9474304
;FILE_FORMAT=2:5
INCH,LZ
;TYPE=PLATED
T1F00S00C0.01300
T2F00S00C0.02500
;TYPE=NON_PLATED
T3F00S00C0.02000
%
T01
X04065Y03275
X0404Y03305
X0413Y03245
X04165Y0322
X0419Y0338
X0411Y0341
X041Y0354
X0424Y0356
X0422Y0349
X04295Y0345
X04345Y0338
X04385Y034
X0443Y0343
X04425Y03525
X0442Y0359
X043Y03605
Y03725
X0424Y03705
X04375Y0372
X04415Y03765
X0443Y0329
X0447348Y0329152
X0447Y0333
X045025Y032675
X04395Y03265
X0434Y03255
X0396Y03975
T02
X03935Y03525
X0409848Y0373834
T03
X03825Y03075
X03925Y03025
X04025
X04125
X04225
X0435Y03075
X04575
X0465Y033
Y034
Y035
Y036
X04575Y04075
X0435
X04225Y04025
X04125
X04025
X03925
Y04125
X04025
X04125
X04225
X03825Y04075
X037Y0395
Y03725
X0375Y036
X0365
Y035
X0375
Y034
X0365
Y033
X0375
X037Y032
X03925Y03125
X04025
X04125
X04225
X047Y032
X0475Y033
Y034
Y035
Y036
X047Y03725
Y0395
M30
