M48
;Layer_Color=9474304
;FILE_FORMAT=2:5
INCH,LZ
;TYPE=PLATED
T1F00S00C0.01500
;TYPE=NON_PLATED
T2F00S00C0.01500
%
T01
X0389Y03265
X0392Y0333
X03955Y0332
Y0353
X041Y03535
X0410098Y0347402
X04115Y0341
X04215Y0338
X042Y03475
Y03535
X04265Y03525
X04295Y03505
X0433Y03555
X04375Y03525
X04395Y03575
X04435Y0351
X0443299Y0347701
X0443Y0344
X04535Y035
X04505Y03335
X0448Y0323
X0445Y0325
X0442Y03215
X0458Y03245
X0450801Y03845
X0448Y0387
X04315Y0385
X0425Y0387
X0422Y0385
X04225Y03775
X04135Y03815
X04075Y03835
X0407Y0371
X0398Y0373
X03895Y0381
X0422Y03595
T02
X03835Y03075
X03895
X03955
X04015
X04075
X04255
X04315
X04375
X04435
X04495
X04555
X04615
X03725Y03185
Y03245
Y03305
Y03365
Y03425
Y03485
Y03545
Y03725
Y03785
Y03845
Y03905
Y03965
X03835Y04075
X03895
X03955
X04015
X04075
X04255
X04315
X04375
X04435
X04495
X04555
X04615
X04725Y03965
Y03905
Y03845
Y03785
Y03725
Y03545
Y03485
Y03425
Y03365
Y03305
Y03245
Y03185
M30
