%FSLAX25Y25*%
%MOIN*%
G70*
G01*
G75*
G04 Layer_Physical_Order=1*
G04 Layer_Color=255*
%ADD10O,0.05906X0.01575*%
%ADD11R,0.05906X0.01575*%
%ADD12R,0.01575X0.05906*%
%ADD13R,0.03150X0.02362*%
G04:AMPARAMS|DCode=14|XSize=23.62mil|YSize=31.5mil|CornerRadius=0mil|HoleSize=0mil|Usage=FLASHONLY|Rotation=45.000|XOffset=0mil|YOffset=0mil|HoleType=Round|Shape=Rectangle|*
%AMROTATEDRECTD14*
4,1,4,0.00278,-0.01949,-0.01949,0.00278,-0.00278,0.01949,0.01949,-0.00278,0.00278,-0.01949,0.0*
%
%ADD14ROTATEDRECTD14*%

%ADD15R,0.02362X0.03150*%
G04:AMPARAMS|DCode=16|XSize=23.62mil|YSize=31.5mil|CornerRadius=0mil|HoleSize=0mil|Usage=FLASHONLY|Rotation=135.000|XOffset=0mil|YOffset=0mil|HoleType=Round|Shape=Rectangle|*
%AMROTATEDRECTD16*
4,1,4,0.01949,0.00278,-0.00278,-0.01949,-0.01949,-0.00278,0.00278,0.01949,0.01949,0.00278,0.0*
%
%ADD16ROTATEDRECTD16*%

%ADD17C,0.01000*%
%ADD18C,0.01500*%
%ADD19C,0.00500*%
%ADD20R,0.02500X0.15000*%
%ADD21R,0.02500X0.12500*%
%ADD22R,0.12500X0.02500*%
%ADD23R,0.15000X0.02500*%
%ADD24C,0.02500*%
G36*
X391923Y344274D02*
X391716Y343775D01*
X382500D01*
Y347225D01*
X388972D01*
X391923Y344274D01*
D02*
G37*
G36*
X423726Y388554D02*
X423558Y388442D01*
X423116Y387780D01*
X423022Y387307D01*
X422838Y386986D01*
X422479Y386944D01*
X422000Y387039D01*
X421803Y387000D01*
X411764Y397038D01*
X411956Y397500D01*
X423726D01*
Y388554D01*
D02*
G37*
G36*
X388226Y382554D02*
X388058Y382442D01*
X387616Y381780D01*
X387461Y381000D01*
X387573Y380437D01*
X387112Y380190D01*
X382500Y384802D01*
Y397500D01*
X388226D01*
Y382554D01*
D02*
G37*
G36*
X404599Y359099D02*
X405012Y358822D01*
X405500Y358726D01*
X410546D01*
X410886Y358225D01*
X410847Y358125D01*
X402677D01*
X382500Y378302D01*
Y380544D01*
X382962Y380736D01*
X404599Y359099D01*
D02*
G37*
G36*
X385725Y365972D02*
Y357500D01*
X385823Y357012D01*
X386099Y356599D01*
X386461Y356236D01*
X386270Y355774D01*
X382500D01*
Y368544D01*
X382962Y368736D01*
X385725Y365972D01*
D02*
G37*
G36*
X388655Y328471D02*
X388220Y328384D01*
X387558Y327942D01*
X387116Y327280D01*
X386961Y326500D01*
X387116Y325720D01*
X387558Y325058D01*
X387725Y324946D01*
Y321825D01*
X387419D01*
Y317500D01*
X382500D01*
Y328971D01*
X388606D01*
X388655Y328471D01*
D02*
G37*
G36*
X450250Y399000D02*
X450847D01*
X451038Y398538D01*
X447500Y395000D01*
X440787Y388287D01*
X440325Y388478D01*
Y391081D01*
X439275D01*
Y391675D01*
X440081D01*
Y396325D01*
X436219D01*
Y391675D01*
X436726D01*
Y391081D01*
X435675D01*
Y387218D01*
X439065D01*
X439257Y386757D01*
X437282Y384782D01*
X435675D01*
Y383175D01*
X431529Y379029D01*
X423811D01*
X423280Y379384D01*
X422500Y379539D01*
X421720Y379384D01*
X421058Y378942D01*
X420616Y378280D01*
X420461Y377500D01*
X420573Y376937D01*
X420112Y376690D01*
X418045Y378757D01*
X418737Y379449D01*
X415449Y382736D01*
X415449D01*
X415053Y382775D01*
X414942Y382942D01*
X414280Y383384D01*
X413500Y383539D01*
X412720Y383384D01*
X412058Y382942D01*
X411661Y382348D01*
X411138Y382165D01*
X409474Y383829D01*
X409384Y384280D01*
X408942Y384942D01*
X408280Y385384D01*
X407500Y385539D01*
X406720Y385384D01*
X406058Y384942D01*
X405616Y384280D01*
X405461Y383500D01*
X405616Y382720D01*
X406058Y382058D01*
X406720Y381616D01*
X407500Y381461D01*
X408114Y381583D01*
X410027Y379670D01*
X410099Y379563D01*
X410663Y378999D01*
X410966Y378667D01*
X410657Y378298D01*
X410657D01*
Y378298D01*
X409983Y377624D01*
X411803Y375803D01*
X411273Y375273D01*
X411803Y374743D01*
X410261Y373200D01*
X410725Y372736D01*
X410534Y372274D01*
X408554D01*
X408442Y372442D01*
X407780Y372884D01*
X407000Y373039D01*
X406220Y372884D01*
X405558Y372442D01*
X405116Y371780D01*
X404961Y371000D01*
X405116Y370220D01*
X405558Y369558D01*
X406220Y369116D01*
X407000Y368961D01*
X407780Y369116D01*
X408442Y369558D01*
X408554Y369725D01*
X414889D01*
X419171Y365444D01*
Y362006D01*
X421783D01*
X421833Y361506D01*
X421220Y361384D01*
X420558Y360942D01*
X420116Y360280D01*
X419961Y359500D01*
X420116Y358720D01*
X420558Y358058D01*
X421220Y357616D01*
X422000Y357461D01*
X422780Y357616D01*
X423442Y358058D01*
X423884Y358720D01*
X424039Y359500D01*
X424000Y359698D01*
X424759Y360457D01*
X425036Y360871D01*
X425133Y361358D01*
Y361646D01*
X425470Y362006D01*
X425896Y362006D01*
X428545D01*
Y362006D01*
X428620D01*
Y362006D01*
X430000D01*
X430000Y355000D01*
X430500D01*
X431726Y353774D01*
Y353465D01*
X431822Y352977D01*
X432099Y352563D01*
X438726Y345937D01*
Y343000D01*
X438823Y342512D01*
X439099Y342099D01*
X444146Y337052D01*
X444559Y336775D01*
X444762Y336735D01*
Y336415D01*
X447376D01*
X447563Y336134D01*
X448937Y334761D01*
X448616Y334280D01*
X448461Y333500D01*
X448616Y332720D01*
X449058Y332058D01*
X449720Y331616D01*
X450500Y331461D01*
X450925Y331545D01*
X451425Y331157D01*
Y331100D01*
X454000D01*
Y329600D01*
X451425D01*
Y328169D01*
X452500D01*
X452500Y317071D01*
X452090Y316321D01*
X451750Y316000D01*
Y316000D01*
X451750Y316000D01*
X450250D01*
Y307500D01*
X448750D01*
Y316000D01*
X447250D01*
Y315903D01*
X447151Y315862D01*
X446651Y316196D01*
Y316349D01*
X448901Y318599D01*
X449178Y319012D01*
X449274Y319500D01*
Y321446D01*
X449442Y321558D01*
X449884Y322220D01*
X450039Y323000D01*
X449884Y323780D01*
X449442Y324442D01*
X448780Y324884D01*
X448000Y325039D01*
X447521Y324944D01*
X447161Y324986D01*
X446978Y325307D01*
X446884Y325780D01*
X446442Y326442D01*
X445780Y326884D01*
X445000Y327039D01*
X444476Y326935D01*
X444182Y327147D01*
X444034Y327309D01*
X444030Y327317D01*
Y328541D01*
X444293D01*
Y335947D01*
X443356D01*
X430818Y348484D01*
X430850Y348997D01*
X430942Y349058D01*
X431384Y349720D01*
X431539Y350500D01*
X431384Y351280D01*
X430942Y351942D01*
X430280Y352384D01*
X429500Y352539D01*
X429021Y352444D01*
X428661Y352486D01*
X428478Y352807D01*
X428384Y353280D01*
X427942Y353942D01*
X427280Y354384D01*
X426500Y354539D01*
X425720Y354384D01*
X425058Y353942D01*
X424616Y353280D01*
X424461Y352500D01*
X424616Y351720D01*
X425058Y351058D01*
X425225Y350946D01*
Y348000D01*
X425322Y347512D01*
X425599Y347099D01*
X436289Y336409D01*
X436097Y335947D01*
X434919D01*
Y335947D01*
X434844D01*
Y335947D01*
X431770D01*
Y335947D01*
X431695D01*
Y335947D01*
X428620D01*
Y335947D01*
X428545D01*
Y335947D01*
X425470D01*
Y335947D01*
X425396D01*
Y335947D01*
X422927D01*
X422775Y336447D01*
X422942Y336558D01*
X423384Y337220D01*
X423539Y338000D01*
X423384Y338780D01*
X422942Y339442D01*
X422280Y339884D01*
X421500Y340039D01*
X420720Y339884D01*
X420118Y339482D01*
X419169D01*
X418703Y339565D01*
Y342465D01*
X418953D01*
Y343502D01*
X415000D01*
Y345002D01*
X418953D01*
Y345239D01*
X419453Y345570D01*
X420000Y345461D01*
X420780Y345616D01*
X421442Y346058D01*
X421884Y346720D01*
X422039Y347500D01*
X421884Y348280D01*
X421442Y348942D01*
X420780Y349384D01*
X420000Y349539D01*
X419453Y349430D01*
X418953Y349761D01*
Y349801D01*
X411047D01*
Y349728D01*
X410547Y349352D01*
X410098Y349441D01*
X409318Y349286D01*
X408787Y348931D01*
X404357D01*
X403551Y349736D01*
X400264Y346449D01*
X399790Y346513D01*
X395955Y350347D01*
X396101Y350825D01*
X396378Y350881D01*
X396669Y351075D01*
X397169Y350925D01*
Y350925D01*
X397169Y350925D01*
X398600D01*
Y353500D01*
Y356075D01*
X397169D01*
Y355192D01*
X396669Y354925D01*
X396378Y355119D01*
X396250Y355145D01*
Y353000D01*
X394750D01*
Y355145D01*
X394622Y355119D01*
X393878Y354622D01*
X393380Y353878D01*
X393325Y353601D01*
X392847Y353455D01*
X388275Y358028D01*
Y366500D01*
X388177Y366988D01*
X387901Y367401D01*
X382500Y372802D01*
Y374044D01*
X382962Y374236D01*
X400661Y356537D01*
X400469Y356075D01*
X400100D01*
Y354250D01*
X401532D01*
Y355205D01*
X402032Y355599D01*
X402150Y355576D01*
X403719D01*
Y351175D01*
X407581D01*
Y351971D01*
X408689D01*
X409220Y351616D01*
X410000Y351461D01*
X410547Y351570D01*
X410953Y351301D01*
X419047D01*
X419453Y351570D01*
X420000Y351461D01*
X420780Y351616D01*
X421442Y352058D01*
X421884Y352720D01*
X422039Y353500D01*
X421884Y354280D01*
X421442Y354942D01*
X420780Y355384D01*
X420000Y355539D01*
X419220Y355384D01*
X419203Y355373D01*
X418703Y355632D01*
Y358388D01*
X418420D01*
X418268Y358888D01*
X418274Y358892D01*
X418614Y359400D01*
X418733Y360000D01*
X418614Y360600D01*
X418274Y361108D01*
X417765Y361448D01*
X417165Y361567D01*
X412835D01*
X412235Y361448D01*
X411975Y361275D01*
X406028D01*
X388690Y378612D01*
X388937Y379073D01*
X389500Y378961D01*
X390280Y379116D01*
X390942Y379558D01*
X391384Y380220D01*
X391539Y381000D01*
X391384Y381780D01*
X390942Y382442D01*
X390774Y382554D01*
Y397500D01*
X407698D01*
X420000Y385197D01*
X419961Y385000D01*
X420116Y384220D01*
X420558Y383558D01*
X421220Y383116D01*
X422000Y382961D01*
X422780Y383116D01*
X423442Y383558D01*
X423884Y384220D01*
X423978Y384693D01*
X424161Y385014D01*
X424521Y385056D01*
X425000Y384961D01*
X425780Y385116D01*
X426442Y385558D01*
X426884Y386220D01*
X427039Y387000D01*
X426884Y387780D01*
X426442Y388442D01*
X426274Y388554D01*
Y397500D01*
X430226D01*
Y396325D01*
X429919D01*
Y391675D01*
X430226D01*
Y386554D01*
X430058Y386442D01*
X429616Y385780D01*
X429461Y385000D01*
X429616Y384220D01*
X430058Y383558D01*
X430720Y383116D01*
X431500Y382961D01*
X432280Y383116D01*
X432942Y383558D01*
X433384Y384220D01*
X433539Y385000D01*
X433384Y385780D01*
X432942Y386442D01*
X432774Y386554D01*
Y391675D01*
X433781D01*
Y396325D01*
X432774D01*
Y397500D01*
X445000D01*
X446788Y399288D01*
X447250Y399097D01*
Y399000D01*
X448750D01*
Y407500D01*
X450250D01*
Y399000D01*
D02*
G37*
G36*
X392750Y330855D02*
X392878Y330880D01*
X393474Y331279D01*
X393616Y331220D01*
X394058Y330558D01*
X394226Y330446D01*
Y321825D01*
X393719D01*
Y317500D01*
X391282D01*
Y321825D01*
X390275D01*
Y324946D01*
X390442Y325058D01*
X390884Y325720D01*
X391039Y326500D01*
X390884Y327280D01*
X390442Y327942D01*
X389780Y328384D01*
X389345Y328471D01*
X389394Y328971D01*
X389500D01*
X390085Y329087D01*
X390581Y329419D01*
X391250Y330087D01*
Y333000D01*
X392750D01*
Y330855D01*
D02*
G37*
G36*
X394461Y338236D02*
X394270Y337774D01*
X382500D01*
Y341226D01*
X391472D01*
X394461Y338236D01*
D02*
G37*
G36*
X407543Y322155D02*
X407393Y321598D01*
X407099Y321401D01*
X403198Y317500D01*
X397581D01*
Y321825D01*
X396775D01*
Y330446D01*
X396942Y330558D01*
X397384Y331220D01*
X397448Y331542D01*
X397991Y331707D01*
X407543Y322155D01*
D02*
G37*
%LPC*%
G36*
X401532Y352750D02*
X400100D01*
Y350925D01*
X401532D01*
Y352750D01*
D02*
G37*
G36*
X400575Y392400D02*
X398750D01*
Y390968D01*
X400575D01*
Y392400D01*
D02*
G37*
G36*
X397250Y395331D02*
X395425D01*
Y393900D01*
X397250D01*
Y395331D01*
D02*
G37*
G36*
X400575D02*
X398750D01*
Y393900D01*
X400575D01*
Y395331D01*
D02*
G37*
G36*
X397250Y392400D02*
X395425D01*
Y390968D01*
X397250D01*
Y392400D01*
D02*
G37*
G36*
X400325Y377782D02*
X395675D01*
Y373919D01*
X395675D01*
X396044Y373419D01*
X395961Y373000D01*
X396116Y372220D01*
X396558Y371558D01*
X397220Y371116D01*
X398000Y370961D01*
X398780Y371116D01*
X399442Y371558D01*
X399884Y372220D01*
X400039Y373000D01*
X399956Y373419D01*
X400325Y373919D01*
X400325D01*
Y377782D01*
D02*
G37*
G36*
X408922Y376563D02*
X407910Y375551D01*
X409200Y374261D01*
X410212Y375273D01*
X408922Y376563D01*
D02*
G37*
G36*
X400325Y388781D02*
X395675D01*
Y384919D01*
X396471D01*
Y384081D01*
X395675D01*
Y380219D01*
X400325D01*
Y384081D01*
X399529D01*
Y384919D01*
X400325D01*
Y388781D01*
D02*
G37*
%LPD*%
D10*
X415000Y360000D02*
D03*
D11*
Y356850D02*
D03*
Y353701D02*
D03*
Y350551D02*
D03*
Y347402D02*
D03*
Y344252D02*
D03*
Y341102D02*
D03*
Y337953D02*
D03*
X448465D02*
D03*
Y341102D02*
D03*
Y344252D02*
D03*
Y347402D02*
D03*
Y350551D02*
D03*
Y353701D02*
D03*
Y356850D02*
D03*
Y360000D02*
D03*
D12*
X420709Y332244D02*
D03*
X423858D02*
D03*
X427008D02*
D03*
X430158D02*
D03*
X433307D02*
D03*
X436457D02*
D03*
X439606D02*
D03*
X442756D02*
D03*
Y365709D02*
D03*
X439606D02*
D03*
X436457D02*
D03*
X433307D02*
D03*
X430158D02*
D03*
X427008D02*
D03*
X423858D02*
D03*
X420709D02*
D03*
D13*
X461500Y330650D02*
D03*
Y324350D02*
D03*
X454000Y336650D02*
D03*
Y330350D02*
D03*
Y347150D02*
D03*
Y340850D02*
D03*
X398000Y386850D02*
D03*
Y393150D02*
D03*
Y382150D02*
D03*
Y375850D02*
D03*
X438000Y389150D02*
D03*
Y382850D02*
D03*
D14*
X411273Y375273D02*
D03*
X415727Y379727D02*
D03*
D15*
X431850Y394000D02*
D03*
X438150D02*
D03*
X389350Y319500D02*
D03*
X395650D02*
D03*
X405650Y353500D02*
D03*
X399350D02*
D03*
D16*
X407727Y342273D02*
D03*
X403273Y346727D02*
D03*
D17*
X389000Y308000D02*
Y326500D01*
X425000Y406000D02*
X426000Y407000D01*
X431500Y385000D02*
Y403000D01*
X448000Y387500D02*
X448500D01*
X413500Y381500D02*
X420500Y374500D01*
X433307Y372307D02*
X437000Y376000D01*
X433000Y353465D02*
X440000Y346464D01*
Y343000D02*
Y346464D01*
Y343000D02*
X445047Y337953D01*
X436457Y360543D02*
X439250Y357750D01*
X436457Y360543D02*
Y365709D01*
X443000Y344000D02*
X445898Y341102D01*
X443299Y347701D02*
X443598Y347402D01*
X437500Y352500D02*
Y355000D01*
X433000Y353465D02*
Y355500D01*
X433307Y359193D02*
X437500Y355000D01*
X389000Y308000D02*
X389500Y307500D01*
X395500Y319650D02*
X395650Y319500D01*
X395500Y319650D02*
Y332000D01*
X422000Y359500D02*
X423858Y361358D01*
Y365709D01*
X389500Y381000D02*
Y407500D01*
X405500Y360000D02*
X415000D01*
X381000Y384500D02*
X405500Y360000D01*
X402150Y356850D02*
X415000D01*
X380500Y378500D02*
X402150Y356850D01*
X372500Y384500D02*
X381000D01*
X372500Y378500D02*
X380500D01*
X387000Y357500D02*
Y366500D01*
X381000Y372500D02*
X387000Y366500D01*
X372500Y372500D02*
X381000D01*
X387000Y357500D02*
X410500Y334000D01*
X409250Y322250D02*
X427750D01*
X395000Y336500D02*
X409250Y322250D01*
X372500Y336500D02*
X395000D01*
X372500Y354500D02*
X387000D01*
X372500Y348500D02*
X389500D01*
X410500Y324000D02*
X426500D01*
X392000Y342500D02*
X410500Y324000D01*
X372500Y342500D02*
X392000D01*
X407500Y313000D02*
X413250Y318750D01*
X401500Y314000D02*
X408000Y320500D01*
X412000Y326000D02*
X425500D01*
X389500Y348500D02*
X412000Y326000D01*
X413459Y328041D02*
X422746D01*
X387000Y354500D02*
X413459Y328041D01*
X418953Y334000D02*
X420709Y332244D01*
X410500Y334000D02*
X418953D01*
X426500Y348000D02*
Y352500D01*
Y348000D02*
X439606Y334894D01*
X429500Y348000D02*
Y350500D01*
Y348000D02*
X442756Y334744D01*
Y332244D02*
Y334744D01*
X445047Y337953D02*
X448465D01*
X445898Y341102D02*
X448465D01*
X439606Y332244D02*
Y334894D01*
X422746Y328041D02*
X423858Y329153D01*
Y332244D01*
X427008Y327508D02*
Y332244D01*
X425500Y326000D02*
X427008Y327508D01*
X408000Y320500D02*
X429500D01*
X413250Y318750D02*
X430750D01*
X439606Y327606D01*
X429500Y320500D02*
X436457Y327457D01*
X427750Y322250D02*
X433307Y327807D01*
X426500Y324000D02*
X430158Y327658D01*
X427500Y317000D02*
X432500D01*
X425500Y315000D02*
X427500Y317000D01*
X401500Y307500D02*
Y314000D01*
X407500Y307500D02*
Y313000D01*
X425500Y307500D02*
Y315000D01*
X430158Y327658D02*
Y332244D01*
X433307Y327807D02*
Y332244D01*
X395500Y307500D02*
X395650Y307650D01*
Y319500D01*
X407000Y371000D02*
X415417D01*
X420709Y365709D01*
X408500Y383000D02*
X411000Y380500D01*
Y380465D02*
Y380500D01*
Y380465D02*
X419464Y372000D01*
X425000D01*
X427008Y369992D01*
Y365709D02*
Y369992D01*
X448500Y387500D02*
X461500D01*
X448000Y387000D02*
X448500Y387500D01*
X438500Y377500D02*
X448000Y387000D01*
X438500Y377465D02*
Y377500D01*
X437036Y376000D02*
X438500Y377465D01*
X437000Y376000D02*
X437036D01*
X433307Y365709D02*
Y372307D01*
X438000Y393850D02*
X438150Y394000D01*
X438000Y389150D02*
Y393850D01*
X426000Y374500D02*
X430158Y370342D01*
X420500Y374500D02*
X426000D01*
X430158Y365709D02*
Y370342D01*
X461350Y324500D02*
X461500Y324350D01*
X458000Y324500D02*
X461350D01*
X425000Y387000D02*
Y406000D01*
X407500Y399500D02*
X422000Y385000D01*
X407500Y399500D02*
Y407500D01*
X433307Y359193D02*
Y365709D01*
X425500Y407500D02*
X426000Y407000D01*
X436457Y370156D02*
X450801Y384500D01*
X448465Y337035D02*
X450500Y335000D01*
Y333500D02*
Y335000D01*
X448465Y337035D02*
Y337953D01*
X448000Y319500D02*
Y323000D01*
X443500Y315000D02*
X448000Y319500D01*
X445000Y320000D02*
Y325000D01*
X436457Y327457D02*
Y332244D01*
X439606Y327606D02*
Y332244D01*
X433750Y315250D02*
X440000Y321500D01*
X432225Y315250D02*
X433750D01*
X431500Y314525D02*
X432225Y315250D01*
X442756Y327256D02*
Y332244D01*
X432500Y317000D02*
X442756Y327256D01*
X440000Y321500D02*
X442000D01*
X431500Y307500D02*
Y314525D01*
X440000Y318000D02*
X443000D01*
X437500Y315500D02*
X440000Y318000D01*
X437500Y307500D02*
Y315500D01*
X443500Y307500D02*
Y315000D01*
X443000Y318000D02*
X445000Y320000D01*
X436457Y365709D02*
Y370156D01*
X443598Y347402D02*
X448465D01*
X439606Y365709D02*
Y368067D01*
X464500Y390500D02*
X472500D01*
X461500Y387500D02*
X464500Y390500D01*
X450801Y384500D02*
X472500D01*
X442756Y365709D02*
X449547Y372500D01*
X472500D01*
X439606Y368067D02*
X450039Y378500D01*
X472500D01*
X448465Y360000D02*
X452000D01*
X457500Y354500D01*
X472500D01*
X452510Y357000D02*
X461010Y348500D01*
X448614Y357000D02*
X452510D01*
X453335Y353701D02*
X464536Y342500D01*
X448465Y353701D02*
X453335D01*
X448465Y356850D02*
X448614Y357000D01*
X461010Y348500D02*
X472500D01*
X464536Y342500D02*
X472500D01*
X448465Y341102D02*
X448716Y340850D01*
X454000D01*
X463228Y336500D02*
X472500D01*
X455476Y344252D02*
X463228Y336500D01*
X448465Y344252D02*
X455476D01*
D18*
X460150Y330500D02*
X472500D01*
X451949Y350551D02*
X454000Y348500D01*
X444000Y350500D02*
X444051Y350551D01*
X405650Y353500D02*
X410000D01*
X407727Y342273D02*
X409706Y344252D01*
X415000D01*
X421453Y337953D02*
X421500Y338000D01*
X415000Y337953D02*
X421453D01*
X434650Y377500D02*
X438000Y380850D01*
X422500Y377500D02*
X434650D01*
X403273Y346727D02*
X403947Y347402D01*
X410098D01*
X410000Y353500D02*
X410201Y353701D01*
X415000D01*
X419799D02*
X420000Y353500D01*
X415000Y353701D02*
X419799D01*
X419902Y347402D02*
X420000Y347500D01*
X415000Y347402D02*
X419902D01*
X410098D02*
X415000D01*
X398000Y382150D02*
Y386850D01*
Y373000D02*
Y375850D01*
X389500Y330500D02*
X392000Y333000D01*
X372500Y330500D02*
X389500D01*
X438000Y380850D02*
Y382850D01*
X448465Y350551D02*
X451949D01*
X444051D02*
X448465D01*
X454000Y336650D02*
Y340850D01*
Y336650D02*
X460150Y330500D01*
X454000Y347150D02*
Y348500D01*
D19*
X411800Y407500D02*
G03*
X421200Y407500I4700J0D01*
G01*
X375823Y304177D02*
G03*
X369177Y310823I-3323J3323D01*
G01*
Y404177D02*
G03*
X375823Y410823I3323J3323D01*
G01*
X469177D02*
G03*
X475823Y404177I3323J-3323D01*
G01*
X421200Y307500D02*
G03*
X411800Y307500I-4700J0D01*
G01*
X475823Y310823D02*
G03*
X469177Y304177I-3323J-3323D01*
G01*
X472500Y368200D02*
G03*
X472500Y358800I0J-4700D01*
G01*
X372500D02*
G03*
X372500Y368200I0J4700D01*
G01*
X421500Y415000D02*
X465000D01*
X380000D02*
X411500D01*
X421197Y407432D02*
X421500Y415000D01*
X411500D02*
X411800Y407500D01*
X365000Y315000D02*
X369177Y310823D01*
X375823Y304177D02*
X380000Y300000D01*
X365000Y400000D02*
X369177Y404177D01*
X375823Y410823D02*
X380000Y415000D01*
X475823Y404177D02*
X480000Y400000D01*
X465000Y415000D02*
X469177Y410823D01*
X475823Y310823D02*
X480000Y315000D01*
X411500Y300000D02*
X411800Y307500D01*
X421197Y307568D02*
X421500Y300000D01*
X380000D02*
X411500D01*
X421500D02*
X465000D01*
X469177Y304177D01*
X472500Y368200D02*
X480000Y368500D01*
X472432Y358803D02*
X480000Y358500D01*
Y368500D02*
Y400000D01*
Y315000D02*
Y358500D01*
X365000Y368500D02*
X372500Y368200D01*
X365000Y358500D02*
X372568Y358803D01*
X365000Y368500D02*
Y400000D01*
Y315000D02*
Y358500D01*
D20*
X383500Y407500D02*
D03*
X449500D02*
D03*
Y307500D02*
D03*
X383500D02*
D03*
D21*
X431500Y407500D02*
D03*
X461500D02*
D03*
X455500D02*
D03*
X443500D02*
D03*
X437500D02*
D03*
X407500D02*
D03*
X401500D02*
D03*
X395500D02*
D03*
X389500D02*
D03*
X425500D02*
D03*
Y307500D02*
D03*
X389500D02*
D03*
X395500D02*
D03*
X401500D02*
D03*
X407500D02*
D03*
X437500D02*
D03*
X443500D02*
D03*
X455500D02*
D03*
X461500D02*
D03*
X431500D02*
D03*
D22*
X472500Y354500D02*
D03*
Y390500D02*
D03*
Y384500D02*
D03*
Y378500D02*
D03*
Y372500D02*
D03*
Y342500D02*
D03*
Y336500D02*
D03*
Y324500D02*
D03*
Y318500D02*
D03*
Y348500D02*
D03*
X372500Y354500D02*
D03*
Y390500D02*
D03*
Y384500D02*
D03*
Y378500D02*
D03*
Y372500D02*
D03*
Y342500D02*
D03*
Y336500D02*
D03*
Y324500D02*
D03*
Y318500D02*
D03*
Y348500D02*
D03*
D23*
X472500Y330500D02*
D03*
Y396500D02*
D03*
X372500Y330500D02*
D03*
Y396500D02*
D03*
D24*
X421500Y338000D02*
D03*
X411500Y341000D02*
D03*
X398000Y373000D02*
D03*
X422500Y377500D02*
D03*
X439500Y357500D02*
D03*
X443000Y344000D02*
D03*
X443500Y351000D02*
D03*
X443299Y347701D02*
D03*
X437500Y352500D02*
D03*
X433000Y355500D02*
D03*
X410098Y347402D02*
D03*
X420000Y347500D02*
D03*
Y353500D02*
D03*
X410000D02*
D03*
X395500Y353000D02*
D03*
X392000Y333000D02*
D03*
X389000Y326500D02*
D03*
X395500Y332000D02*
D03*
X422000Y359500D02*
D03*
X389500Y381000D02*
D03*
X426500Y352500D02*
D03*
X429500Y350500D02*
D03*
X407000Y371000D02*
D03*
X407500Y383500D02*
D03*
X448000Y387000D02*
D03*
X413500Y381500D02*
D03*
X458000Y324500D02*
D03*
X425000Y387000D02*
D03*
X422000Y385000D02*
D03*
X450500Y333500D02*
D03*
X448000Y323000D02*
D03*
X445000Y325000D02*
D03*
X431500Y385000D02*
D03*
X442000Y321500D02*
D03*
X450801Y384500D02*
D03*
X453500Y350000D02*
D03*
M02*
