%FSLAX25Y25*%
%MOIN*%
G70*
G01*
G75*
G04 Layer_Physical_Order=2*
G04 Layer_Color=16711680*
%ADD10O,0.05906X0.01575*%
%ADD11R,0.05906X0.01575*%
%ADD12R,0.01575X0.05906*%
%ADD13R,0.03150X0.02362*%
G04:AMPARAMS|DCode=14|XSize=23.62mil|YSize=31.5mil|CornerRadius=0mil|HoleSize=0mil|Usage=FLASHONLY|Rotation=45.000|XOffset=0mil|YOffset=0mil|HoleType=Round|Shape=Rectangle|*
%AMROTATEDRECTD14*
4,1,4,0.00278,-0.01949,-0.01949,0.00278,-0.00278,0.01949,0.01949,-0.00278,0.00278,-0.01949,0.0*
%
%ADD14ROTATEDRECTD14*%

%ADD15R,0.02362X0.03150*%
G04:AMPARAMS|DCode=16|XSize=23.62mil|YSize=31.5mil|CornerRadius=0mil|HoleSize=0mil|Usage=FLASHONLY|Rotation=135.000|XOffset=0mil|YOffset=0mil|HoleType=Round|Shape=Rectangle|*
%AMROTATEDRECTD16*
4,1,4,0.01949,0.00278,-0.00278,-0.01949,-0.01949,-0.00278,0.00278,0.01949,0.01949,0.00278,0.0*
%
%ADD16ROTATEDRECTD16*%

%ADD17C,0.01000*%
%ADD18C,0.01500*%
%ADD19C,0.00500*%
%ADD20R,0.02500X0.15000*%
%ADD21R,0.02500X0.12500*%
%ADD22R,0.12500X0.02500*%
%ADD23R,0.15000X0.02500*%
%ADD24C,0.02500*%
%ADD25R,0.04803X0.01969*%
%ADD26R,0.09843X0.04724*%
G36*
X384250Y399000D02*
X385000D01*
Y397500D01*
X394226D01*
Y395500D01*
X394322Y395012D01*
X394599Y394599D01*
X405500Y383698D01*
X405461Y383500D01*
X405616Y382720D01*
X406058Y382058D01*
X406720Y381616D01*
X407500Y381461D01*
X408280Y381616D01*
X408942Y382058D01*
X409384Y382720D01*
X409448Y383042D01*
X409991Y383207D01*
X411500Y381698D01*
X411461Y381500D01*
X411616Y380720D01*
X412058Y380058D01*
X412720Y379616D01*
X413500Y379461D01*
X414280Y379616D01*
X414942Y380058D01*
X415384Y380720D01*
X415539Y381500D01*
X415384Y382280D01*
X414942Y382942D01*
X414280Y383384D01*
X413500Y383539D01*
X413303Y383500D01*
X402774Y394028D01*
Y397500D01*
X436226D01*
X436322Y397012D01*
X436599Y396599D01*
X444099Y389099D01*
X434736Y379736D01*
X434274Y379928D01*
Y383500D01*
X434177Y383988D01*
X433901Y384401D01*
X433500Y384803D01*
X433539Y385000D01*
X433384Y385780D01*
X432942Y386442D01*
X432280Y386884D01*
X431500Y387039D01*
X430720Y386884D01*
X430058Y386442D01*
X429616Y385780D01*
X429469Y385041D01*
X429315Y384943D01*
X428988Y384815D01*
X427000Y386803D01*
X427039Y387000D01*
X426884Y387780D01*
X426442Y388442D01*
X425780Y388884D01*
X425000Y389039D01*
X424220Y388884D01*
X423558Y388442D01*
X423116Y387780D01*
X423022Y387307D01*
X422838Y386986D01*
X422479Y386944D01*
X422000Y387039D01*
X421220Y386884D01*
X420558Y386442D01*
X420116Y385780D01*
X419961Y385000D01*
X420116Y384220D01*
X420558Y383558D01*
X421220Y383116D01*
X422000Y382961D01*
X422168Y382994D01*
X423563Y381599D01*
X423670Y381527D01*
X425726Y379472D01*
Y354385D01*
X425720Y354384D01*
X425058Y353942D01*
X424616Y353280D01*
X424461Y352500D01*
X424616Y351720D01*
X425058Y351058D01*
X425720Y350616D01*
X425927Y350575D01*
X425878Y350075D01*
X425669D01*
Y348250D01*
X427850D01*
Y347500D01*
X428600D01*
Y344925D01*
X430031D01*
X430031Y344925D01*
Y344925D01*
X430384Y344616D01*
X431926Y343074D01*
X431735Y342612D01*
X421656D01*
Y340167D01*
X421500Y340039D01*
X420720Y339884D01*
X420058Y339442D01*
X419616Y338780D01*
X419461Y338000D01*
X419616Y337220D01*
X420058Y336558D01*
X420720Y336116D01*
X421500Y335961D01*
X422280Y336116D01*
X422687Y336388D01*
X425971D01*
Y335081D01*
X425175D01*
Y331219D01*
X429825D01*
Y335081D01*
X429029D01*
Y336388D01*
X432998D01*
Y341349D01*
X433460Y341540D01*
X443725Y331275D01*
Y326554D01*
X443558Y326442D01*
X443116Y325780D01*
X442961Y325000D01*
X443116Y324220D01*
X443558Y323558D01*
X443606Y323526D01*
X443608Y323519D01*
X443488Y323003D01*
X443373Y322988D01*
X442780Y323384D01*
X442000Y323539D01*
X441220Y323384D01*
X440558Y322942D01*
X440116Y322280D01*
X439961Y321500D01*
X440116Y320720D01*
X440558Y320058D01*
X441220Y319616D01*
X442000Y319461D01*
X442780Y319616D01*
X443442Y320058D01*
X443554Y320226D01*
X445437D01*
X446063Y319599D01*
X446477Y319322D01*
X446965Y319226D01*
X449036D01*
X449523Y319322D01*
X449937Y319599D01*
X451401Y321063D01*
X451678Y321477D01*
X451775Y321965D01*
Y322572D01*
X452236Y322764D01*
X455000Y320000D01*
Y317500D01*
X387500D01*
X386184Y316184D01*
X385750Y316000D01*
Y316000D01*
X385750Y316000D01*
X384250D01*
Y307500D01*
X382750D01*
Y316000D01*
X382500D01*
Y389226D01*
X386972D01*
X405000Y371198D01*
X404961Y371000D01*
X405116Y370220D01*
X405558Y369558D01*
X406220Y369116D01*
X407000Y368961D01*
X407780Y369116D01*
X408442Y369558D01*
X408884Y370220D01*
X409039Y371000D01*
X408884Y371780D01*
X408442Y372442D01*
X407780Y372884D01*
X407000Y373039D01*
X406803Y373000D01*
X388401Y391401D01*
X387988Y391677D01*
X387500Y391775D01*
X382500D01*
Y392500D01*
X381184Y393816D01*
X381000Y394250D01*
X381000D01*
X381000Y394250D01*
Y395750D01*
X372500D01*
Y397250D01*
X381000D01*
Y398604D01*
X381153Y398847D01*
X381397Y399000D01*
X382750D01*
Y407500D01*
X384250D01*
Y399000D01*
D02*
G37*
G36*
X456000Y324697D02*
X455961Y324500D01*
X456116Y323720D01*
X456558Y323058D01*
X457220Y322616D01*
X458000Y322461D01*
X458780Y322616D01*
X459442Y323058D01*
X459554Y323225D01*
X462500D01*
Y320000D01*
X458500D01*
X451775Y326726D01*
Y328216D01*
X452275Y328423D01*
X456000Y324697D01*
D02*
G37*
G36*
X464000Y397250D02*
X472500D01*
Y395750D01*
X464000D01*
Y395000D01*
X462500D01*
Y325775D01*
X459554D01*
X459442Y325942D01*
X458780Y326384D01*
X458000Y326539D01*
X457802Y326500D01*
X454275Y330028D01*
Y342223D01*
X454756Y342268D01*
X455006Y341871D01*
Y341768D01*
Y338777D01*
X461309D01*
Y341768D01*
Y341871D01*
X461559Y342268D01*
Y342268D01*
Y342490D01*
X461559Y342642D01*
Y343502D01*
X458157D01*
Y345002D01*
X461559D01*
Y346008D01*
Y347242D01*
X458157D01*
Y347992D01*
X457408D01*
Y349976D01*
X455814D01*
X455794Y350000D01*
X455619Y350878D01*
X455122Y351622D01*
X454378Y352119D01*
X454250Y352145D01*
Y350000D01*
X452750D01*
Y352145D01*
X452622Y352119D01*
X451878Y351622D01*
X451381Y350878D01*
X451231Y350128D01*
X451128Y349953D01*
X450751Y349726D01*
X445911D01*
X445640Y350226D01*
X445645Y350250D01*
X443500D01*
Y351000D01*
X442750D01*
Y353145D01*
X442622Y353119D01*
X441878Y352622D01*
X441775Y352467D01*
X441274Y352619D01*
Y356556D01*
X441384Y356720D01*
X441539Y357500D01*
X441384Y358280D01*
X440942Y358942D01*
X440280Y359384D01*
X439500Y359539D01*
X438720Y359384D01*
X438058Y358942D01*
X437616Y358280D01*
X437461Y357500D01*
X437616Y356720D01*
X438058Y356058D01*
X438720Y355616D01*
X438726Y355615D01*
Y354617D01*
X438378Y354431D01*
X438226Y354395D01*
X437500Y354539D01*
X436720Y354384D01*
X436058Y353942D01*
X435616Y353280D01*
X435461Y352500D01*
X435616Y351720D01*
X436058Y351058D01*
X436226Y350946D01*
Y350075D01*
X434900D01*
Y347500D01*
X433400D01*
Y350075D01*
X431968D01*
X431968Y350075D01*
Y350075D01*
X431628Y350401D01*
X431539Y350500D01*
X431500Y350697D01*
Y353496D01*
X432000Y353763D01*
X432220Y353616D01*
X433000Y353461D01*
X433780Y353616D01*
X434442Y354058D01*
X434884Y354720D01*
X435039Y355500D01*
X434884Y356280D01*
X434442Y356942D01*
X434274Y357054D01*
Y374775D01*
X435967Y376467D01*
X436000Y376461D01*
X436780Y376616D01*
X437442Y377058D01*
X437884Y377720D01*
X438039Y378500D01*
X438033Y378533D01*
X445657Y386157D01*
X446241Y386033D01*
X446558Y385558D01*
X447220Y385116D01*
X448000Y384961D01*
X448358Y385032D01*
X448783Y384607D01*
X448762Y384500D01*
X448917Y383720D01*
X449359Y383058D01*
X450020Y382616D01*
X450801Y382461D01*
X451581Y382616D01*
X452243Y383058D01*
X452685Y383720D01*
X452840Y384500D01*
X452685Y385280D01*
X452243Y385942D01*
X452075Y386054D01*
Y391699D01*
X451978Y392187D01*
X451862Y392362D01*
X457500Y398000D01*
X464000D01*
Y397250D01*
D02*
G37*
%LPC*%
G36*
X412243Y346652D02*
X410848D01*
Y345257D01*
X410976Y345282D01*
X411721Y345779D01*
X412218Y346524D01*
X412243Y346652D01*
D02*
G37*
G36*
X409348D02*
X407954D01*
X407979Y346524D01*
X408476Y345779D01*
X409221Y345282D01*
X409348Y345257D01*
Y346652D01*
D02*
G37*
G36*
X427100Y346750D02*
X425669D01*
Y344925D01*
X427100D01*
Y346750D01*
D02*
G37*
G36*
X419250D02*
X417855D01*
X417881Y346622D01*
X418378Y345878D01*
X419122Y345380D01*
X419250Y345355D01*
Y346750D01*
D02*
G37*
G36*
X410848Y349547D02*
Y348152D01*
X412243D01*
X412218Y348280D01*
X411721Y349024D01*
X410976Y349521D01*
X410848Y349547D01*
D02*
G37*
G36*
X419250Y349645D02*
X419122Y349620D01*
X418378Y349122D01*
X417881Y348378D01*
X417855Y348250D01*
X419250D01*
Y349645D01*
D02*
G37*
G36*
X422145Y346750D02*
X420750D01*
Y345355D01*
X420878Y345380D01*
X421622Y345878D01*
X422119Y346622D01*
X422145Y346750D01*
D02*
G37*
G36*
X409348Y349547D02*
X409221Y349521D01*
X408476Y349024D01*
X407979Y348280D01*
X407954Y348152D01*
X409348D01*
Y349547D01*
D02*
G37*
G36*
X411500Y343039D02*
X410720Y342884D01*
X410313Y342612D01*
X400002D01*
Y336388D01*
X403725D01*
Y335081D01*
X402675D01*
Y331219D01*
X407325D01*
Y335081D01*
X406275D01*
Y336388D01*
X411344D01*
Y338833D01*
X411500Y338961D01*
X412280Y339116D01*
X412942Y339558D01*
X413384Y340220D01*
X413539Y341000D01*
X413384Y341780D01*
X412942Y342442D01*
X412280Y342884D01*
X411500Y343039D01*
D02*
G37*
G36*
X426750Y326100D02*
X424925D01*
Y324669D01*
X426750D01*
Y326100D01*
D02*
G37*
G36*
X430075D02*
X428250D01*
Y324669D01*
X430075D01*
Y326100D01*
D02*
G37*
G36*
X404250D02*
X402425D01*
Y324669D01*
X404250D01*
Y326100D01*
D02*
G37*
G36*
X407575D02*
X405750D01*
Y324669D01*
X407575D01*
Y326100D01*
D02*
G37*
G36*
X426750Y329031D02*
X424925D01*
Y327600D01*
X426750D01*
Y329031D01*
D02*
G37*
G36*
X430075D02*
X428250D01*
Y327600D01*
X430075D01*
Y329031D01*
D02*
G37*
G36*
X404250D02*
X402425D01*
Y327600D01*
X404250D01*
Y329031D01*
D02*
G37*
G36*
X407575D02*
X405750D01*
Y327600D01*
X407575D01*
Y329031D01*
D02*
G37*
G36*
X420750Y349645D02*
Y348250D01*
X422145D01*
X422119Y348378D01*
X421622Y349122D01*
X420878Y349620D01*
X420750Y349645D01*
D02*
G37*
G36*
X400145Y372250D02*
X398750D01*
Y370855D01*
X398878Y370881D01*
X399622Y371378D01*
X400119Y372122D01*
X400145Y372250D01*
D02*
G37*
G36*
X397250Y375145D02*
X397122Y375119D01*
X396378Y374622D01*
X395881Y373878D01*
X395855Y373750D01*
X397250D01*
Y375145D01*
D02*
G37*
G36*
X389500Y383039D02*
X388720Y382884D01*
X388058Y382442D01*
X387616Y381780D01*
X387461Y381000D01*
X387616Y380220D01*
X388058Y379558D01*
X388226Y379446D01*
Y369653D01*
X388099Y369526D01*
X387823Y369113D01*
X387725Y368625D01*
Y328054D01*
X387558Y327942D01*
X387116Y327280D01*
X386961Y326500D01*
X387116Y325720D01*
X387558Y325058D01*
X388220Y324616D01*
X389000Y324461D01*
X389780Y324616D01*
X390442Y325058D01*
X390884Y325720D01*
X391039Y326500D01*
X390884Y327280D01*
X390442Y327942D01*
X390275Y328054D01*
Y331151D01*
X390774Y331414D01*
X391220Y331116D01*
X392000Y330961D01*
X392780Y331116D01*
X393086Y331320D01*
X393616Y331220D01*
X394058Y330558D01*
X394720Y330116D01*
X395500Y329961D01*
X396280Y330116D01*
X396942Y330558D01*
X397384Y331220D01*
X397539Y332000D01*
X397384Y332780D01*
X396942Y333442D01*
X396775Y333554D01*
Y343972D01*
X407478Y354676D01*
X407880Y354378D01*
X407855Y354250D01*
X409250D01*
Y355645D01*
X409122Y355620D01*
X408824Y356022D01*
X411028Y358225D01*
X420446D01*
X420558Y358058D01*
X421220Y357616D01*
X422000Y357461D01*
X422780Y357616D01*
X423442Y358058D01*
X423884Y358720D01*
X424039Y359500D01*
X423884Y360280D01*
X423442Y360942D01*
X422780Y361384D01*
X422000Y361539D01*
X421220Y361384D01*
X420558Y360942D01*
X420446Y360774D01*
X410500D01*
X410012Y360678D01*
X409599Y360401D01*
X394599Y345401D01*
X394322Y344988D01*
X394226Y344500D01*
Y334492D01*
X393725Y334273D01*
X393529Y334454D01*
Y348867D01*
X395654Y350992D01*
X396280Y351116D01*
X396942Y351558D01*
X397384Y352220D01*
X397539Y353000D01*
X397384Y353780D01*
X396942Y354442D01*
X396280Y354884D01*
X395500Y355039D01*
X394720Y354884D01*
X394058Y354442D01*
X393616Y353780D01*
X393492Y353154D01*
X390919Y350581D01*
X390774Y350366D01*
X390275Y350518D01*
Y368097D01*
X390401Y368224D01*
X390677Y368637D01*
X390774Y369125D01*
Y379446D01*
X390942Y379558D01*
X391384Y380220D01*
X391539Y381000D01*
X391384Y381780D01*
X390942Y382442D01*
X390280Y382884D01*
X389500Y383039D01*
D02*
G37*
G36*
X397250Y372250D02*
X395855D01*
X395881Y372122D01*
X396378Y371378D01*
X397122Y370881D01*
X397250Y370855D01*
Y372250D01*
D02*
G37*
G36*
X398750Y375145D02*
Y373750D01*
X400145D01*
X400119Y373878D01*
X399622Y374622D01*
X398878Y375119D01*
X398750Y375145D01*
D02*
G37*
G36*
X421750Y379645D02*
X421622Y379620D01*
X420878Y379122D01*
X420381Y378378D01*
X420355Y378250D01*
X421750D01*
Y379645D01*
D02*
G37*
G36*
X423250D02*
Y378250D01*
X424645D01*
X424619Y378378D01*
X424122Y379122D01*
X423378Y379620D01*
X423250Y379645D01*
D02*
G37*
G36*
X421750Y376750D02*
X420355D01*
X420381Y376622D01*
X420878Y375878D01*
X421622Y375380D01*
X421750Y375355D01*
Y376750D01*
D02*
G37*
G36*
X424645D02*
X423250D01*
Y375355D01*
X423378Y375380D01*
X424122Y375878D01*
X424619Y376622D01*
X424645Y376750D01*
D02*
G37*
G36*
X412145Y352750D02*
X410750D01*
Y351355D01*
X410878Y351380D01*
X411622Y351878D01*
X412119Y352622D01*
X412145Y352750D01*
D02*
G37*
G36*
X419250D02*
X417855D01*
X417881Y352622D01*
X418378Y351878D01*
X419122Y351380D01*
X419250Y351355D01*
Y352750D01*
D02*
G37*
G36*
X461559Y349976D02*
X458908D01*
Y348742D01*
X461559D01*
Y349976D01*
D02*
G37*
G36*
X409250Y352750D02*
X407855D01*
X407880Y352622D01*
X408378Y351878D01*
X409122Y351380D01*
X409250Y351355D01*
Y352750D01*
D02*
G37*
G36*
X422145D02*
X420750D01*
Y351355D01*
X420878Y351380D01*
X421622Y351878D01*
X422119Y352622D01*
X422145Y352750D01*
D02*
G37*
G36*
X419250Y355645D02*
X419122Y355620D01*
X418378Y355122D01*
X417881Y354378D01*
X417855Y354250D01*
X419250D01*
Y355645D01*
D02*
G37*
G36*
X420750D02*
Y354250D01*
X422145D01*
X422119Y354378D01*
X421622Y355122D01*
X420878Y355620D01*
X420750Y355645D01*
D02*
G37*
G36*
X444250Y353145D02*
Y351750D01*
X445645D01*
X445619Y351878D01*
X445122Y352622D01*
X444378Y353119D01*
X444250Y353145D01*
D02*
G37*
G36*
X410750Y355645D02*
Y354250D01*
X412145D01*
X412119Y354378D01*
X411622Y355122D01*
X410878Y355620D01*
X410750Y355645D01*
D02*
G37*
%LPD*%
D13*
X427500Y326850D02*
D03*
Y333150D02*
D03*
X405000Y326850D02*
D03*
Y333150D02*
D03*
D15*
X434150Y347500D02*
D03*
X427850D02*
D03*
D17*
X443008Y347992D02*
X447843D01*
X442268Y343268D02*
X443000Y342535D01*
X445500Y340035D02*
Y340512D01*
X405000Y338827D02*
X405673Y339500D01*
X405000Y333150D02*
Y338827D01*
X424500Y382500D02*
X427000Y380000D01*
Y353000D02*
Y380000D01*
X426500Y352500D02*
X427000Y353000D01*
X424465Y382500D02*
X424500D01*
X429500Y350500D02*
Y382500D01*
X425000Y387000D02*
X429500Y382500D01*
X433000Y355500D02*
Y383500D01*
X431500Y385000D02*
X433000Y383500D01*
X440000Y342500D02*
Y357000D01*
X439500Y357500D02*
X440000Y357000D01*
X443000Y342535D02*
Y344000D01*
X440000Y342500D02*
X447500Y335000D01*
X437500Y342000D02*
X445000Y334500D01*
X443008Y347992D02*
X443299Y347701D01*
X437500Y342000D02*
Y352500D01*
X410500Y359500D02*
X422000D01*
X395500Y344500D02*
X410500Y359500D01*
X395500Y332000D02*
Y344500D01*
X389000Y368625D02*
X389500Y369125D01*
X389000Y326500D02*
Y368625D01*
X389500Y369125D02*
Y381000D01*
X429500Y350500D02*
X430000D01*
X372500Y390500D02*
X387500D01*
X407000Y371000D01*
X395500Y395500D02*
Y407500D01*
Y395500D02*
X407500Y383500D01*
X437500Y397500D02*
X448000Y387000D01*
X437500Y397500D02*
Y407500D01*
X443500Y399000D02*
Y407500D01*
Y399000D02*
X450801Y391699D01*
Y384500D02*
Y391699D01*
X401500Y393500D02*
Y407500D01*
Y393500D02*
X413500Y381500D01*
X458000Y324500D02*
X472500D01*
X453000Y329500D02*
X458000Y324500D01*
X453000Y329500D02*
Y345500D01*
X450508Y347992D02*
X453000Y345500D01*
X447843Y347992D02*
X450508D01*
X423000Y383964D02*
X424465Y382500D01*
X423000Y383964D02*
Y384000D01*
X422000Y385000D02*
X423000Y384000D01*
X450500Y321965D02*
Y333500D01*
X445000Y325000D02*
Y334500D01*
X447500Y323500D02*
Y335000D01*
Y323500D02*
X448000Y323000D01*
X449036Y320500D02*
X450500Y321965D01*
X446965Y320500D02*
X449036D01*
X445964Y321500D02*
X446965Y320500D01*
X442000Y321500D02*
X445964D01*
X443000Y342535D02*
X445500Y340035D01*
Y340512D02*
X447843D01*
D18*
X427327Y339500D02*
X427500Y339327D01*
Y333150D02*
Y339327D01*
X392000Y349500D02*
X395500Y353000D01*
X392000Y333000D02*
Y349500D01*
D19*
X411800Y407500D02*
G03*
X421200Y407500I4700J0D01*
G01*
X375823Y304177D02*
G03*
X369177Y310823I-3323J3323D01*
G01*
Y404177D02*
G03*
X375823Y410823I3323J3323D01*
G01*
X469177D02*
G03*
X475823Y404177I3323J-3323D01*
G01*
X421200Y307500D02*
G03*
X411800Y307500I-4700J0D01*
G01*
X475823Y310823D02*
G03*
X469177Y304177I-3323J-3323D01*
G01*
X472500Y368200D02*
G03*
X472500Y358800I0J-4700D01*
G01*
X372500D02*
G03*
X372500Y368200I0J4700D01*
G01*
X421500Y415000D02*
X465000D01*
X380000D02*
X411500D01*
X421197Y407432D02*
X421500Y415000D01*
X411500D02*
X411800Y407500D01*
X365000Y315000D02*
X369177Y310823D01*
X375823Y304177D02*
X380000Y300000D01*
X365000Y400000D02*
X369177Y404177D01*
X375823Y410823D02*
X380000Y415000D01*
X475823Y404177D02*
X480000Y400000D01*
X465000Y415000D02*
X469177Y410823D01*
X475823Y310823D02*
X480000Y315000D01*
X411500Y300000D02*
X411800Y307500D01*
X421197Y307568D02*
X421500Y300000D01*
X380000D02*
X411500D01*
X421500D02*
X465000D01*
X469177Y304177D01*
X472500Y368200D02*
X480000Y368500D01*
X472432Y358803D02*
X480000Y358500D01*
Y368500D02*
Y400000D01*
Y315000D02*
Y358500D01*
X365000Y368500D02*
X372500Y368200D01*
X365000Y358500D02*
X372568Y358803D01*
X365000Y368500D02*
Y400000D01*
Y315000D02*
Y358500D01*
D20*
X383500Y407500D02*
D03*
X449500D02*
D03*
Y307500D02*
D03*
X383500D02*
D03*
D21*
X431500Y407500D02*
D03*
X461500D02*
D03*
X455500D02*
D03*
X443500D02*
D03*
X437500D02*
D03*
X407500D02*
D03*
X401500D02*
D03*
X395500D02*
D03*
X389500D02*
D03*
X425500D02*
D03*
Y307500D02*
D03*
X389500D02*
D03*
X395500D02*
D03*
X401500D02*
D03*
X407500D02*
D03*
X437500D02*
D03*
X443500D02*
D03*
X455500D02*
D03*
X461500D02*
D03*
X431500D02*
D03*
D22*
X472500Y354500D02*
D03*
Y390500D02*
D03*
Y384500D02*
D03*
Y378500D02*
D03*
Y372500D02*
D03*
Y342500D02*
D03*
Y336500D02*
D03*
Y324500D02*
D03*
Y318500D02*
D03*
Y348500D02*
D03*
X372500Y354500D02*
D03*
Y390500D02*
D03*
Y384500D02*
D03*
Y378500D02*
D03*
Y372500D02*
D03*
Y342500D02*
D03*
Y336500D02*
D03*
Y324500D02*
D03*
Y318500D02*
D03*
Y348500D02*
D03*
D23*
X472500Y330500D02*
D03*
Y396500D02*
D03*
X372500Y330500D02*
D03*
Y396500D02*
D03*
D24*
X421500Y338000D02*
D03*
X411500Y341000D02*
D03*
X398000Y373000D02*
D03*
X422500Y377500D02*
D03*
X439500Y357500D02*
D03*
X443000Y344000D02*
D03*
X443500Y351000D02*
D03*
X443299Y347701D02*
D03*
X437500Y352500D02*
D03*
X433000Y355500D02*
D03*
X410098Y347402D02*
D03*
X420000Y347500D02*
D03*
Y353500D02*
D03*
X410000D02*
D03*
X395500Y353000D02*
D03*
X392000Y333000D02*
D03*
X389000Y326500D02*
D03*
X395500Y332000D02*
D03*
X422000Y359500D02*
D03*
X389500Y381000D02*
D03*
X426500Y352500D02*
D03*
X429500Y350500D02*
D03*
X407000Y371000D02*
D03*
X407500Y383500D02*
D03*
X448000Y387000D02*
D03*
X413500Y381500D02*
D03*
X458000Y324500D02*
D03*
X425000Y387000D02*
D03*
X422000Y385000D02*
D03*
X450500Y333500D02*
D03*
X448000Y323000D02*
D03*
X445000Y325000D02*
D03*
X431500Y385000D02*
D03*
X442000Y321500D02*
D03*
X450801Y384500D02*
D03*
X453500Y350000D02*
D03*
D25*
X447843Y344252D02*
D03*
Y347992D02*
D03*
Y340512D02*
D03*
X458157Y347992D02*
D03*
Y344252D02*
D03*
Y340512D02*
D03*
D26*
X405673Y339500D02*
D03*
X427327D02*
D03*
M02*
