%FSLAX25Y25*%
%MOIN*%
G70*
G01*
G75*
G04 Layer_Physical_Order=1*
G04 Layer_Color=255*
%ADD10O,0.05906X0.01575*%
%ADD11R,0.05906X0.01575*%
%ADD12R,0.01575X0.05906*%
%ADD13C,0.01000*%
%ADD14C,0.01500*%
%ADD15C,0.00500*%
%ADD16R,0.05000X0.05000*%
%ADD17R,0.10000X0.15000*%
%ADD18R,0.05000X0.15000*%
%ADD19R,0.15000X0.05000*%
%ADD20R,0.15000X0.10000*%
%ADD21R,0.05000X0.05000*%
%ADD22C,0.05000*%
%ADD23C,0.03000*%
G36*
X435500Y399000D02*
X441000D01*
X442500Y397500D01*
X457500D01*
X460000Y395000D01*
X460000Y367500D01*
X459302D01*
X449401Y377401D01*
X448988Y377677D01*
X448500Y377775D01*
X443355D01*
X443122Y378122D01*
X442378Y378620D01*
X441500Y378794D01*
X440622Y378620D01*
X439878Y378122D01*
X439645Y377775D01*
X435000D01*
X434512Y377677D01*
X434099Y377401D01*
X432406Y375708D01*
X432130Y375295D01*
X432033Y374807D01*
Y374339D01*
X431533Y374182D01*
X430878Y374620D01*
X430000Y374794D01*
X429451Y374685D01*
X429000Y374775D01*
X417500D01*
X417012Y374677D01*
X416599Y374401D01*
X411472Y369274D01*
X388000D01*
X387512Y369178D01*
X387099Y368901D01*
X382849Y364651D01*
X380000Y367500D01*
X378500D01*
Y372000D01*
X370000D01*
Y373000D01*
X378500D01*
Y377500D01*
X380000D01*
Y395000D01*
X382500Y397500D01*
X388698D01*
X389599Y396599D01*
X390012Y396322D01*
X390500Y396226D01*
X394145D01*
X394378Y395878D01*
X395122Y395380D01*
X396000Y395206D01*
X396878Y395380D01*
X397622Y395878D01*
X398119Y396622D01*
X398294Y397500D01*
X427500D01*
X429000Y399000D01*
X434500D01*
Y407500D01*
X435500D01*
Y399000D01*
D02*
G37*
%LPC*%
G36*
X413313Y373334D02*
X410348D01*
Y370369D01*
X410762Y370424D01*
X411614Y370776D01*
X412345Y371337D01*
X412906Y372069D01*
X413258Y372920D01*
X413313Y373334D01*
D02*
G37*
G36*
X409348D02*
X406384D01*
X406438Y372920D01*
X406791Y372069D01*
X407352Y371337D01*
X408083Y370776D01*
X408935Y370424D01*
X409348Y370369D01*
Y373334D01*
D02*
G37*
G36*
X410348Y377298D02*
Y374334D01*
X413313D01*
X413258Y374747D01*
X412906Y375599D01*
X412345Y376330D01*
X411614Y376891D01*
X410762Y377244D01*
X410348Y377298D01*
D02*
G37*
G36*
X409348D02*
X408935Y377244D01*
X408083Y376891D01*
X407352Y376330D01*
X406791Y375599D01*
X406438Y374747D01*
X406384Y374334D01*
X409348D01*
Y377298D01*
D02*
G37*
%LPD*%
D10*
X415000Y360000D02*
D03*
D11*
Y356850D02*
D03*
Y353701D02*
D03*
Y350551D02*
D03*
Y347402D02*
D03*
Y344252D02*
D03*
Y341102D02*
D03*
Y337953D02*
D03*
X448465D02*
D03*
Y341102D02*
D03*
Y344252D02*
D03*
Y347402D02*
D03*
Y350551D02*
D03*
Y353701D02*
D03*
Y356850D02*
D03*
Y360000D02*
D03*
D12*
X420709Y332244D02*
D03*
X423858D02*
D03*
X427008D02*
D03*
X430157D02*
D03*
X433307D02*
D03*
X436457D02*
D03*
X439606D02*
D03*
X442756D02*
D03*
Y365709D02*
D03*
X439606D02*
D03*
X436457D02*
D03*
X433307D02*
D03*
X430157D02*
D03*
X427008D02*
D03*
X423858D02*
D03*
X420709D02*
D03*
D13*
X439000Y355500D02*
X442500Y359000D01*
X435000Y376500D02*
X441500D01*
X433307Y374807D02*
X435000Y376500D01*
X448500D02*
X460000Y365000D01*
X441500Y376500D02*
X448500D01*
X438500Y373000D02*
X448500D01*
X387500Y400500D02*
X390500Y397500D01*
X396000D01*
X387500Y400500D02*
Y407500D01*
X448500Y373000D02*
X461500Y360000D01*
X465000D01*
X430000Y360500D02*
Y365551D01*
X427500Y354500D02*
Y357500D01*
X425500Y359500D02*
X427500Y357500D01*
X418500Y350500D02*
X424000Y356000D01*
X419000Y370500D02*
X424000D01*
X423858Y370358D02*
X424000Y370500D01*
X427008Y369508D02*
X430000Y372500D01*
X427008Y365709D02*
Y369508D01*
X429000Y373500D02*
X430000Y372500D01*
X417500Y373500D02*
X429000D01*
X412000Y368000D02*
X417500Y373500D01*
X433307Y365709D02*
Y374807D01*
X423858Y365709D02*
Y370358D01*
X414000Y365500D02*
X419000Y370500D01*
X422500Y312500D02*
Y314500D01*
X428000Y320000D01*
X438197D01*
X447348Y329152D01*
X422500Y302500D02*
X427500Y307500D01*
Y315000D01*
X430000Y317500D01*
X440000D01*
X449250Y326750D01*
X450250D01*
X402500Y302500D02*
X407500Y307500D01*
Y315000D01*
X414500Y322000D01*
X416500D01*
X434000Y325500D02*
X436457Y327957D01*
Y332244D01*
X420975Y320000D02*
X430157Y329183D01*
X419000Y320000D02*
X420975D01*
X412500Y313500D02*
X419000Y320000D01*
X412500Y312500D02*
Y313500D01*
X420000Y317500D02*
X422000D01*
X417500Y315000D02*
X420000Y317500D01*
X417500Y307500D02*
Y315000D01*
X412500Y302500D02*
X417500Y307500D01*
X422000Y317500D02*
X433307Y328807D01*
X402500Y312500D02*
Y314000D01*
X413000Y324500D01*
X397500Y319500D02*
X405250Y327250D01*
X397500Y307500D02*
Y319500D01*
X408500Y330000D02*
X413500D01*
X414500Y329000D01*
Y327500D02*
X417000Y325000D01*
X414500Y327500D02*
Y329000D01*
X392500Y318500D02*
X404000Y330000D01*
Y330500D01*
X403500Y335000D02*
X408500Y330000D01*
X410000Y332500D02*
X415000D01*
X406000Y336500D02*
X410000Y332500D01*
X415000D02*
X417500Y330000D01*
X392500Y312500D02*
Y318500D01*
X439500Y326500D02*
X439606Y326606D01*
X411500Y335000D02*
X417953D01*
X408000Y338500D02*
X411500Y335000D01*
X417953D02*
X420709Y332244D01*
X417500Y328500D02*
X419000Y327000D01*
X417500Y328500D02*
Y330000D01*
X421500Y327000D02*
X423858Y329358D01*
X419000Y327000D02*
X421500D01*
X417000Y325000D02*
X422500D01*
X439606Y326606D02*
Y332244D01*
X433307Y328807D02*
Y332244D01*
X447000Y333000D02*
Y336488D01*
X448465Y337953D01*
X455000Y329000D02*
X464000Y320000D01*
X455000Y329000D02*
Y339500D01*
X453398Y341102D02*
X455000Y339500D01*
X436457Y342043D02*
X438500Y340000D01*
X436457Y342043D02*
Y365709D01*
X403500Y335000D02*
Y340000D01*
X400500Y343000D02*
X403500Y340000D01*
X406000Y336500D02*
Y340500D01*
X408000Y338500D02*
Y342000D01*
X402000Y348000D02*
X408000Y342000D01*
X401000Y345500D02*
X406000Y340500D01*
X395500Y343000D02*
X400500D01*
X394000Y345500D02*
X401000D01*
X392500Y348000D02*
X402000D01*
X398000Y354500D02*
X406000D01*
X395500Y357000D02*
X398000Y354500D01*
X392500Y302500D02*
X397500Y307500D01*
X430157Y329183D02*
Y332244D01*
X422500Y325000D02*
X427008Y329508D01*
X423858Y329358D02*
Y332244D01*
X444000Y343000D02*
X445898Y341102D01*
X448465D01*
X443000Y343000D02*
X444000D01*
X442098Y347402D02*
X448465D01*
X444449Y350551D02*
X448465D01*
X442500Y352500D02*
X444449Y350551D01*
X456000Y348000D02*
Y351673D01*
X450823Y356850D02*
X456000Y351673D01*
X458000Y349500D02*
Y353000D01*
X453500Y357500D02*
X458000Y353000D01*
X455500Y358500D02*
X464000Y350000D01*
X457500Y359500D02*
X462000Y355000D01*
X457500Y359500D02*
Y361000D01*
X427008Y329508D02*
Y332244D01*
X388000Y368000D02*
X412000D01*
X380000Y360000D02*
X388000Y368000D01*
X375000Y360000D02*
X380000D01*
X389000Y365500D02*
X414000D01*
X378500Y355000D02*
X389000Y365500D01*
X370000Y355000D02*
X378500D01*
X390000Y363000D02*
X418000D01*
X384000Y357000D02*
X390000Y363000D01*
X384000Y351000D02*
Y357000D01*
X390500Y360000D02*
X396500D01*
X386500Y356000D02*
X390500Y360000D01*
X386500Y350000D02*
Y356000D01*
X391500Y357000D02*
X395500D01*
X389000Y354500D02*
X391500Y357000D01*
X389000Y348500D02*
Y354500D01*
X375000Y350000D02*
X383000D01*
X384000Y351000D01*
X418000Y363000D02*
X420709Y365709D01*
X377500Y325000D02*
X395500Y343000D01*
X378500Y330000D02*
X394000Y345500D01*
X379500Y335000D02*
X392500Y348000D01*
X407500Y360000D02*
X415000D01*
X405000Y357500D02*
X407500Y360000D01*
X399000Y357500D02*
X405000D01*
X396500Y360000D02*
X399000Y357500D01*
X406000Y354500D02*
X408500Y357000D01*
X414850D02*
X415000Y356850D01*
X408500Y357000D02*
X414850D01*
X381500Y345000D02*
X386500Y350000D01*
X370000Y345000D02*
X381500D01*
X380500Y340000D02*
X389000Y348500D01*
X375000Y340000D02*
X380500D01*
X365000Y360000D02*
X370000Y355000D01*
X365000Y350000D02*
X370000Y345000D01*
Y335000D02*
X379500D01*
X375000Y330000D02*
X378500D01*
X370000Y325000D02*
X377500D01*
X365000Y330000D02*
X370000Y325000D01*
X365000Y340000D02*
X370000Y335000D01*
X410000Y354000D02*
X410299Y353701D01*
X415000D01*
X420500Y347500D02*
X422000Y349000D01*
X427500Y354500D01*
X422500Y359500D02*
X425500D01*
X420000Y357000D02*
X422500Y359500D01*
X415000Y353701D02*
X418701D01*
X420000Y355000D01*
Y357000D01*
X428752Y344252D02*
X429500Y345000D01*
X415000Y344252D02*
X428752D01*
X430000Y365551D02*
X430157Y365709D01*
X387500Y407500D02*
X392500Y412500D01*
X415000Y347402D02*
X415098Y347500D01*
X420500D01*
X415000Y350551D02*
X415051Y350500D01*
X418500D01*
X437500Y372000D02*
X438500Y373000D01*
X436457Y370957D02*
X437500Y372000D01*
X433307Y340193D02*
X434000Y339500D01*
X433307Y340193D02*
Y365709D01*
X460000Y365000D02*
X470000D01*
X475000Y360000D01*
X436457Y365709D02*
Y370957D01*
X439606Y369106D02*
X441000Y370500D01*
X439606Y365709D02*
Y369106D01*
X441000Y370500D02*
X448000D01*
X457500Y361000D01*
X462000Y355000D02*
X470000D01*
X475000Y350000D01*
X464000D02*
X465000D01*
X455500Y358500D02*
Y359500D01*
X449291Y365709D02*
X455500Y359500D01*
X442756Y365709D02*
X449291D01*
X453500Y357500D02*
Y358500D01*
X452000Y360000D02*
X453500Y358500D01*
X448465Y360000D02*
X452000D01*
X448465Y356850D02*
X450823D01*
X458000Y349500D02*
X462500Y345000D01*
X470000D01*
X475000Y340000D01*
X464000D02*
X465000D01*
X456000Y348000D02*
X464000Y340000D01*
X459000Y338000D02*
Y342000D01*
X453500Y347500D02*
X459000Y342000D01*
X453500Y347500D02*
Y351000D01*
X452667Y351833D02*
X453500Y351000D01*
X457000Y337000D02*
Y340500D01*
X453248Y344252D02*
X457000Y340500D01*
X448465Y341102D02*
X453398D01*
X470000Y335000D02*
X475000Y330000D01*
X462000Y335000D02*
X470000D01*
X459000Y338000D02*
X462000Y335000D01*
X452667Y351833D02*
Y351856D01*
X450823Y353701D02*
X452667Y351856D01*
X448465Y353701D02*
X450823D01*
X464000Y330000D02*
X465000D01*
X457000Y337000D02*
X464000Y330000D01*
X448465Y344252D02*
X453248D01*
X464000Y320000D02*
X470000D01*
X442000Y347500D02*
X442098Y347402D01*
X439000Y350500D02*
X442000Y347500D01*
X439000Y350500D02*
Y352500D01*
Y355500D01*
D14*
X409000Y346000D02*
X410748Y344252D01*
X409000Y346000D02*
Y349000D01*
X395500Y350500D02*
X408500D01*
X409000Y349000D02*
X410000Y350000D01*
X408500Y350500D02*
X409000Y350000D01*
X393500Y352500D02*
X395500Y350500D01*
X410000Y350000D02*
X410551Y350551D01*
X409000Y350000D02*
X410000D01*
X410748Y344252D02*
X415000D01*
X410551Y350551D02*
X415000D01*
D15*
X370000Y380571D02*
G03*
X370000Y389429I0J4429D01*
G01*
X466868Y410632D02*
G03*
X473132Y404368I3132J-3132D01*
G01*
X443071Y407500D02*
G03*
X451929Y407500I4429J0D01*
G01*
X366868Y404368D02*
G03*
X373132Y410632I3132J3132D01*
G01*
X470000Y389429D02*
G03*
X470000Y380571I0J-4429D01*
G01*
X473132Y310632D02*
G03*
X466868Y304368I-3132J-3132D01*
G01*
X373132D02*
G03*
X366868Y310632I-3132J3132D01*
G01*
X451929Y307500D02*
G03*
X443071Y307500I-4429J0D01*
G01*
X362500Y389500D02*
Y400000D01*
Y389500D02*
X370000Y389429D01*
X362500Y380500D02*
X370000Y380571D01*
X362500Y315000D02*
Y380500D01*
X473132Y404368D02*
X477500Y400000D01*
X462500Y415000D02*
X466868Y410632D01*
X377500Y415000D02*
X443000D01*
X443071Y407500D01*
X451929D02*
X452000Y415000D01*
X462500D01*
X362500Y400000D02*
X366868Y404368D01*
X373132Y410632D02*
X377500Y415000D01*
X477500Y315000D02*
Y380500D01*
X470000Y380571D02*
X477500Y380500D01*
X470000Y389429D02*
X477500Y389500D01*
Y400000D01*
X462500Y300000D02*
X466868Y304368D01*
X473132Y310632D02*
X477500Y315000D01*
X373132Y304368D02*
X377500Y300000D01*
X362500Y315000D02*
X366868Y310632D01*
X452000Y300000D02*
X462500D01*
X451929Y307500D02*
X452000Y300000D01*
X443000D02*
X443071Y307500D01*
X377500Y300000D02*
X443000D01*
D16*
X392500Y402500D02*
D03*
Y412500D02*
D03*
X402500Y402500D02*
D03*
Y412500D02*
D03*
X412500Y402500D02*
D03*
Y412500D02*
D03*
X422500Y402500D02*
D03*
Y412500D02*
D03*
X392500Y312500D02*
D03*
Y302500D02*
D03*
X402500Y312500D02*
D03*
Y302500D02*
D03*
X412500Y312500D02*
D03*
Y302500D02*
D03*
X422500Y312500D02*
D03*
Y302500D02*
D03*
D17*
X435000Y407500D02*
D03*
Y307500D02*
D03*
D18*
X457500Y407500D02*
D03*
X382500Y307500D02*
D03*
X457500D02*
D03*
X382500Y407500D02*
D03*
D19*
X470000Y395000D02*
D03*
Y320000D02*
D03*
X370000Y395000D02*
D03*
Y320000D02*
D03*
D20*
X470000Y372500D02*
D03*
X370000D02*
D03*
D21*
X475000Y360000D02*
D03*
X465000D02*
D03*
X475000Y350000D02*
D03*
X465000D02*
D03*
X475000Y340000D02*
D03*
X465000D02*
D03*
Y330000D02*
D03*
X375000Y360000D02*
D03*
X365000D02*
D03*
X375000Y350000D02*
D03*
X365000D02*
D03*
X375000Y340000D02*
D03*
X365000D02*
D03*
X375000Y330000D02*
D03*
X365000D02*
D03*
X475000D02*
D03*
D22*
X409848Y373834D02*
D03*
X393500Y352500D02*
D03*
D23*
X441500Y376500D02*
D03*
X396000Y397500D02*
D03*
X430000Y360500D02*
D03*
X424000Y356000D02*
D03*
Y370500D02*
D03*
X430000Y372500D02*
D03*
X416500Y322000D02*
D03*
X434000Y325500D02*
D03*
X413000Y324500D02*
D03*
X406500Y327500D02*
D03*
X404000Y330500D02*
D03*
X439500Y326500D02*
D03*
X443000Y329000D02*
D03*
X447348Y329152D02*
D03*
X447000Y333000D02*
D03*
X450250Y326750D02*
D03*
X438500Y340000D02*
D03*
X443000Y343000D02*
D03*
X410000Y354000D02*
D03*
X429500Y345000D02*
D03*
X422000Y349000D02*
D03*
X437500Y372000D02*
D03*
X434500Y338000D02*
D03*
X442500Y352500D02*
D03*
X411000Y341000D02*
D03*
X419000Y338000D02*
D03*
X442000Y359000D02*
D03*
M02*
