%FSLAX25Y25*%
%MOIN*%
G70*
G01*
G75*
G04 Layer_Color=255*
%ADD10O,0.05906X0.01575*%
%ADD11R,0.05906X0.01575*%
%ADD12R,0.01575X0.05906*%
%ADD13C,0.01000*%
%ADD14C,0.01500*%
%ADD15C,0.00500*%
%ADD16R,0.05000X0.05000*%
%ADD17R,0.10000X0.15000*%
%ADD18R,0.05000X0.15000*%
%ADD19R,0.15000X0.05000*%
%ADD20R,0.15000X0.10000*%
%ADD21R,0.05000X0.05000*%
%ADD22C,0.05000*%
%ADD23C,0.03000*%
%ADD24R,0.02362X0.03150*%
%ADD25R,0.09843X0.04724*%
G04:AMPARAMS|DCode=26|XSize=23.62mil|YSize=31.5mil|CornerRadius=0mil|HoleSize=0mil|Usage=FLASHONLY|Rotation=45.000|XOffset=0mil|YOffset=0mil|HoleType=Round|Shape=Rectangle|*
%AMROTATEDRECTD26*
4,1,4,0.00278,-0.01949,-0.01949,0.00278,-0.00278,0.01949,0.01949,-0.00278,0.00278,-0.01949,0.0*
%
%ADD26ROTATEDRECTD26*%

%ADD27R,0.03150X0.02362*%
%ADD28C,0.00650*%
D15*
X370000Y380571D02*
G03*
X370000Y389429I0J4429D01*
G01*
X466868Y410632D02*
G03*
X473132Y404368I3132J-3132D01*
G01*
X443071Y407500D02*
G03*
X451929Y407500I4429J0D01*
G01*
X366868Y404368D02*
G03*
X373132Y410632I3132J3132D01*
G01*
X470000Y389429D02*
G03*
X470000Y380571I0J-4429D01*
G01*
X473132Y310632D02*
G03*
X466868Y304368I-3132J-3132D01*
G01*
X373132D02*
G03*
X366868Y310632I-3132J3132D01*
G01*
X451929Y307500D02*
G03*
X443071Y307500I-4429J0D01*
G01*
X362500Y389500D02*
Y400000D01*
Y389500D02*
X370000Y389429D01*
X362500Y380500D02*
X370000Y380571D01*
X362500Y315000D02*
Y380500D01*
X473132Y404368D02*
X477500Y400000D01*
X462500Y415000D02*
X466868Y410632D01*
X377500Y415000D02*
X443000D01*
X443071Y407500D01*
X451929D02*
X452000Y415000D01*
X462500D01*
X362500Y400000D02*
X366868Y404368D01*
X373132Y410632D02*
X377500Y415000D01*
X477500Y315000D02*
Y380500D01*
X470000Y380571D02*
X477500Y380500D01*
X470000Y389429D02*
X477500Y389500D01*
Y400000D01*
X462500Y300000D02*
X466868Y304368D01*
X473132Y310632D02*
X477500Y315000D01*
X373132Y304368D02*
X377500Y300000D01*
X362500Y315000D02*
X366868Y310632D01*
X452000Y300000D02*
X462500D01*
X451929Y307500D02*
X452000Y300000D01*
X443000D02*
X443071Y307500D01*
X377500Y300000D02*
X443000D01*
D16*
X392500Y402500D02*
D03*
Y412500D02*
D03*
X402500Y402500D02*
D03*
Y412500D02*
D03*
X412500Y402500D02*
D03*
Y412500D02*
D03*
X422500Y402500D02*
D03*
Y412500D02*
D03*
X392500Y312500D02*
D03*
Y302500D02*
D03*
X402500Y312500D02*
D03*
Y302500D02*
D03*
X412500Y312500D02*
D03*
Y302500D02*
D03*
X422500Y312500D02*
D03*
Y302500D02*
D03*
D17*
X435000Y407500D02*
D03*
Y307500D02*
D03*
D18*
X457500Y407500D02*
D03*
X382500Y307500D02*
D03*
X457500D02*
D03*
X382500Y407500D02*
D03*
D19*
X470000Y395000D02*
D03*
Y320000D02*
D03*
X370000Y395000D02*
D03*
Y320000D02*
D03*
D20*
X470000Y372500D02*
D03*
X370000D02*
D03*
D21*
X475000Y360000D02*
D03*
X465000D02*
D03*
X475000Y350000D02*
D03*
X465000D02*
D03*
X475000Y340000D02*
D03*
X465000D02*
D03*
Y330000D02*
D03*
X375000Y360000D02*
D03*
X365000D02*
D03*
X375000Y350000D02*
D03*
X365000D02*
D03*
X375000Y340000D02*
D03*
X365000D02*
D03*
X375000Y330000D02*
D03*
X365000D02*
D03*
X475000D02*
D03*
D24*
X452850Y319500D02*
D03*
X459150D02*
D03*
X423350Y358000D02*
D03*
X429650D02*
D03*
X441650Y343000D02*
D03*
X435350D02*
D03*
X423850Y350500D02*
D03*
X430150D02*
D03*
D25*
X425827Y339500D02*
D03*
X404173D02*
D03*
D26*
X436273Y349773D02*
D03*
X440727Y354227D02*
D03*
D27*
X408000Y353650D02*
D03*
Y347350D02*
D03*
M02*
