%FSLAX25Y25*%
%MOIN*%
G70*
G01*
G75*
G04 Layer_Physical_Order=4*
G04 Layer_Color=16711680*
%ADD10O,0.05906X0.01575*%
%ADD11R,0.05906X0.01575*%
%ADD12R,0.01575X0.05906*%
%ADD13C,0.01000*%
%ADD14C,0.01500*%
%ADD15C,0.00500*%
%ADD16R,0.05000X0.05000*%
%ADD17R,0.10000X0.15000*%
%ADD18R,0.05000X0.15000*%
%ADD19R,0.15000X0.05000*%
%ADD20R,0.15000X0.10000*%
%ADD21R,0.05000X0.05000*%
%ADD22C,0.05000*%
%ADD23C,0.03000*%
%ADD24R,0.02362X0.03150*%
%ADD25R,0.09843X0.04724*%
G04:AMPARAMS|DCode=26|XSize=23.62mil|YSize=31.5mil|CornerRadius=0mil|HoleSize=0mil|Usage=FLASHONLY|Rotation=45.000|XOffset=0mil|YOffset=0mil|HoleType=Round|Shape=Rectangle|*
%AMROTATEDRECTD26*
4,1,4,0.00278,-0.01949,-0.01949,0.00278,-0.00278,0.01949,0.01949,-0.00278,0.00278,-0.01949,0.0*
%
%ADD26ROTATEDRECTD26*%

%ADD27R,0.03150X0.02362*%
%ADD28C,0.00650*%
G36*
X383000Y399000D02*
X386000D01*
X397225Y387774D01*
Y353958D01*
X396726Y353859D01*
X396557Y354265D01*
X395996Y354996D01*
X395265Y355557D01*
X394414Y355910D01*
X394000Y355964D01*
Y352500D01*
Y349036D01*
X394055Y349043D01*
X394144Y348924D01*
X394264Y348566D01*
X388599Y342901D01*
X388322Y342488D01*
X388226Y342000D01*
Y318028D01*
X386599Y316401D01*
X386446Y316173D01*
X386000Y316000D01*
X386000D01*
X386000Y316000D01*
X386000Y316000D01*
X383000D01*
Y307500D01*
X382000D01*
Y316000D01*
X379000D01*
Y314153D01*
X378538Y313962D01*
X376462Y316038D01*
X376653Y316500D01*
X378500D01*
Y319500D01*
X370000D01*
Y320500D01*
X378500D01*
Y323500D01*
X380000Y325000D01*
Y387500D01*
X380000Y398500D01*
X380456Y399000D01*
X382000D01*
Y407500D01*
X383000D01*
Y399000D01*
D02*
G37*
G36*
X457500Y397500D02*
X460000Y395000D01*
Y392302D01*
X456599Y388901D01*
X456322Y388488D01*
X456225Y388000D01*
Y375028D01*
X442410Y361212D01*
X442000Y361294D01*
X441122Y361120D01*
X440378Y360622D01*
X439881Y359878D01*
X439706Y359000D01*
X439881Y358122D01*
X440321Y357463D01*
X439260Y356401D01*
X440727Y354934D01*
X441916Y356123D01*
X441768Y356271D01*
X441864Y356452D01*
X442033Y356713D01*
X442878Y356880D01*
X443622Y357378D01*
X444119Y358122D01*
X444294Y359000D01*
X444212Y359410D01*
X458401Y373599D01*
X458677Y374012D01*
X458775Y374500D01*
Y387472D01*
X459538Y388236D01*
X460000Y388044D01*
Y378500D01*
Y322075D01*
X459650D01*
Y319500D01*
X458650D01*
Y322075D01*
X456968D01*
Y321185D01*
X456507Y320993D01*
X452500Y325000D01*
Y326528D01*
X452544Y326750D01*
X452500Y326972D01*
Y327198D01*
X453401Y328099D01*
X453678Y328512D01*
X453774Y329000D01*
Y335500D01*
X453678Y335988D01*
X453401Y336401D01*
X448901Y340901D01*
X448488Y341178D01*
X448000Y341274D01*
X447470D01*
X447376Y341388D01*
X445197Y343489D01*
X445119Y343878D01*
X444622Y344622D01*
X443878Y345120D01*
X443581Y345179D01*
Y345325D01*
X443292D01*
X439285Y349188D01*
X439282Y349495D01*
Y349495D01*
X435994Y352782D01*
X435994D01*
X435513Y352825D01*
X433226Y355029D01*
X431581Y356615D01*
Y358850D01*
X431622Y358878D01*
X432119Y359622D01*
X432294Y360500D01*
X432119Y361378D01*
X431622Y362122D01*
X431500Y362204D01*
Y370796D01*
X431622Y370878D01*
X432119Y371622D01*
X432294Y372500D01*
X432119Y373378D01*
X431622Y374122D01*
X431500Y374204D01*
Y375490D01*
X432000Y375698D01*
X435288Y372410D01*
X435206Y372000D01*
X435381Y371122D01*
X435878Y370378D01*
X436622Y369881D01*
X437500Y369706D01*
X438378Y369881D01*
X439122Y370378D01*
X439619Y371122D01*
X439794Y372000D01*
X439619Y372878D01*
X439122Y373622D01*
X438378Y374119D01*
X437500Y374294D01*
X437090Y374213D01*
X433775Y377528D01*
Y381716D01*
X434274Y381923D01*
X439288Y376910D01*
X439206Y376500D01*
X439381Y375622D01*
X439878Y374878D01*
X440622Y374380D01*
X441500Y374206D01*
X442378Y374380D01*
X443122Y374878D01*
X443619Y375622D01*
X443794Y376500D01*
X443619Y377378D01*
X443122Y378122D01*
X442378Y378620D01*
X441500Y378794D01*
X441090Y378713D01*
X436274Y383528D01*
Y391000D01*
X436177Y391488D01*
X435901Y391901D01*
X432151Y395651D01*
X434000Y397500D01*
X457500Y397500D01*
D02*
G37*
G36*
X423726Y375775D02*
X423000D01*
X422512Y375677D01*
X422099Y375401D01*
X419599Y372901D01*
X419322Y372488D01*
X419226Y372000D01*
Y368500D01*
X419322Y368012D01*
X419599Y367599D01*
X427599Y359599D01*
X427718Y359519D01*
Y355675D01*
X431454D01*
X432695Y354479D01*
X432695Y354479D01*
X434879Y352374D01*
X434974Y351850D01*
X434945Y351742D01*
X434928Y351715D01*
X433263Y350051D01*
X435013Y348301D01*
X435095Y347889D01*
X435372Y347476D01*
X437022Y345825D01*
X436815Y345325D01*
X434828D01*
X434252Y345901D01*
X433838Y346178D01*
X433350Y346274D01*
X431355D01*
X431122Y346622D01*
X430378Y347119D01*
X429500Y347294D01*
X429442Y347283D01*
X429195Y347743D01*
X429627Y348175D01*
X432081D01*
Y352825D01*
X428219D01*
Y350371D01*
X426493Y348646D01*
X426031Y348838D01*
Y350000D01*
X423850D01*
Y350500D01*
X423350D01*
Y353075D01*
X421669D01*
Y351483D01*
X421025Y351355D01*
X420198Y350802D01*
X419645Y349975D01*
X419551Y349500D01*
X422000D01*
Y349000D01*
X422500D01*
Y346550D01*
X422975Y346645D01*
X423802Y347198D01*
X424289Y347925D01*
X425119D01*
X425311Y347463D01*
X424099Y346252D01*
X423822Y345838D01*
X423726Y345350D01*
Y342612D01*
X420155D01*
Y340706D01*
X420012Y340677D01*
X419599Y340401D01*
X419410Y340212D01*
X419000Y340294D01*
X418122Y340120D01*
X417378Y339622D01*
X416881Y338878D01*
X416706Y338000D01*
X416881Y337122D01*
X417378Y336378D01*
X418122Y335880D01*
X418747Y335756D01*
X418916Y335218D01*
X415472Y331774D01*
X405855D01*
X405622Y332122D01*
X404878Y332620D01*
X404000Y332794D01*
X403122Y332620D01*
X402378Y332122D01*
X401881Y331378D01*
X401706Y330500D01*
X401881Y329622D01*
X402378Y328878D01*
X403122Y328380D01*
X403843Y328237D01*
X404263Y327787D01*
X404206Y327500D01*
X404381Y326622D01*
X404878Y325878D01*
X405622Y325380D01*
X406500Y325206D01*
X407378Y325380D01*
X408122Y325878D01*
X408355Y326225D01*
X410846D01*
X411113Y325726D01*
X410881Y325378D01*
X410706Y324500D01*
X410881Y323622D01*
X411378Y322878D01*
X412122Y322380D01*
X413000Y322206D01*
X413767Y322359D01*
X414216Y322051D01*
X414206Y322000D01*
X414381Y321122D01*
X414878Y320378D01*
X415622Y319881D01*
X416500Y319706D01*
X417378Y319881D01*
X418122Y320378D01*
X418619Y321122D01*
X418640Y321226D01*
X419000D01*
X419488Y321322D01*
X419901Y321599D01*
X424528Y326225D01*
X431443D01*
X431776Y325851D01*
X431706Y325500D01*
X431881Y324622D01*
X432378Y323878D01*
X433122Y323380D01*
X434000Y323206D01*
X434878Y323380D01*
X435622Y323878D01*
X436119Y324622D01*
X436294Y325500D01*
X436119Y326378D01*
X435622Y327122D01*
X434878Y327620D01*
X434000Y327794D01*
X433590Y327712D01*
X433077Y328225D01*
X433284Y328726D01*
X435972D01*
X437370Y327327D01*
X437206Y326500D01*
X437381Y325622D01*
X437878Y324878D01*
X438622Y324380D01*
X439500Y324206D01*
X440378Y324380D01*
X441122Y324878D01*
X441619Y325622D01*
X441794Y326500D01*
X441916Y326642D01*
X442233Y326859D01*
X443000Y326706D01*
X443878Y326881D01*
X444622Y327378D01*
X444924Y327830D01*
X445526D01*
X445726Y327530D01*
X446470Y327032D01*
X447348Y326858D01*
X447513Y326890D01*
X448010Y326479D01*
X448131Y325872D01*
X448628Y325128D01*
X449372Y324630D01*
X450250Y324456D01*
X450495Y324505D01*
X452463Y322537D01*
X452272Y322075D01*
X450669D01*
Y320000D01*
X452850D01*
Y319000D01*
X450669D01*
Y317854D01*
X450316Y317500D01*
X442500Y317500D01*
X441375Y316269D01*
X441000Y316000D01*
Y316000D01*
X441000Y316000D01*
X435500D01*
Y307500D01*
X434500D01*
Y316000D01*
X429000D01*
X427500Y317500D01*
X399302D01*
X396775Y320028D01*
Y340972D01*
X398002Y342199D01*
X398502Y341992D01*
Y336388D01*
X409844D01*
Y338510D01*
X410345Y338836D01*
X411000Y338706D01*
X411878Y338880D01*
X412622Y339378D01*
X413119Y340122D01*
X413294Y341000D01*
X413119Y341878D01*
X412622Y342622D01*
X411878Y343120D01*
X411000Y343294D01*
X410122Y343120D01*
X409378Y342622D01*
X409371Y342612D01*
X408275D01*
Y345419D01*
X410325D01*
Y349282D01*
X405675D01*
Y345419D01*
X405725D01*
Y342612D01*
X402073D01*
X401917Y343055D01*
X401915Y343112D01*
X404401Y345599D01*
X404677Y346012D01*
X404775Y346500D01*
Y376711D01*
X405000Y377500D01*
X408247D01*
X408347Y377000D01*
X408083Y376891D01*
X407352Y376330D01*
X406791Y375599D01*
X406438Y374747D01*
X406384Y374334D01*
X413313D01*
X413258Y374747D01*
X412906Y375599D01*
X412345Y376330D01*
X411614Y376891D01*
X411350Y377000D01*
X411450Y377500D01*
X423726D01*
Y375775D01*
D02*
G37*
%LPC*%
G36*
X426031Y353075D02*
X424350D01*
Y351000D01*
X426031D01*
Y353075D01*
D02*
G37*
G36*
X409500Y356450D02*
X409024Y356355D01*
X408500Y356005D01*
Y353650D01*
Y351468D01*
X409500D01*
Y354000D01*
Y356450D01*
D02*
G37*
G36*
X407500Y353150D02*
X405425D01*
Y351468D01*
X407500D01*
Y353150D01*
D02*
G37*
G36*
X393000Y352000D02*
X390036D01*
X390090Y351586D01*
X390443Y350735D01*
X391004Y350004D01*
X391735Y349443D01*
X392586Y349090D01*
X393000Y349036D01*
Y352000D01*
D02*
G37*
G36*
X421500Y348500D02*
X419551D01*
X419645Y348025D01*
X420198Y347198D01*
X421025Y346645D01*
X421500Y346550D01*
Y348500D01*
D02*
G37*
G36*
X444949Y352000D02*
X443000D01*
Y350050D01*
X443475Y350145D01*
X444302Y350698D01*
X444855Y351524D01*
X444949Y352000D01*
D02*
G37*
G36*
X442623Y355416D02*
X441081Y353874D01*
X439538Y352331D01*
X440095Y351774D01*
X440145Y351524D01*
X440698Y350698D01*
X441525Y350145D01*
X442000Y350050D01*
Y352500D01*
X442500D01*
Y353000D01*
X444949D01*
X444855Y353475D01*
X444302Y354302D01*
X443475Y354855D01*
X443111Y354927D01*
X442623Y355416D01*
D02*
G37*
G36*
X412450Y353500D02*
X410500D01*
Y351468D01*
X410575D01*
Y351565D01*
X410976Y351645D01*
X411802Y352198D01*
X412355Y353025D01*
X412450Y353500D01*
D02*
G37*
G36*
X410500Y356450D02*
Y354500D01*
X412450D01*
X412355Y354976D01*
X411802Y355802D01*
X410976Y356355D01*
X410500Y356450D01*
D02*
G37*
G36*
X409348Y373334D02*
X406384D01*
X406438Y372920D01*
X406791Y372069D01*
X407352Y371337D01*
X408083Y370776D01*
X408935Y370424D01*
X409348Y370369D01*
Y373334D01*
D02*
G37*
G36*
X413313D02*
X410348D01*
Y370369D01*
X410762Y370424D01*
X411614Y370776D01*
X412345Y371337D01*
X412906Y372069D01*
X413258Y372920D01*
X413313Y373334D01*
D02*
G37*
G36*
X407500Y355831D02*
X405425D01*
Y354150D01*
X407500D01*
Y355831D01*
D02*
G37*
G36*
X393000Y355964D02*
X392586Y355910D01*
X391735Y355557D01*
X391004Y354996D01*
X390443Y354265D01*
X390090Y353414D01*
X390036Y353000D01*
X393000D01*
Y355964D01*
D02*
G37*
G36*
X438553Y355694D02*
X437364Y354505D01*
X438831Y353038D01*
X440020Y354227D01*
X438553Y355694D01*
D02*
G37*
G36*
X425281Y360325D02*
X421419D01*
Y355675D01*
X421770D01*
X421881Y355122D01*
X422378Y354378D01*
X423122Y353881D01*
X424000Y353706D01*
X424878Y353881D01*
X425622Y354378D01*
X426119Y355122D01*
X426294Y356000D01*
X426119Y356878D01*
X425622Y357622D01*
X425281Y357850D01*
Y360325D01*
D02*
G37*
%LPD*%
D13*
X407000Y341000D02*
Y347350D01*
X416000Y322500D02*
X419000D01*
X402000Y412000D02*
X402500D01*
X427000Y399000D02*
X435000Y391000D01*
Y383000D02*
Y391000D01*
Y383000D02*
X441500Y376500D01*
X422500Y399500D02*
X432500Y389500D01*
Y377000D02*
Y389500D01*
Y377000D02*
X437500Y372000D01*
X417500Y400000D02*
X430000Y387500D01*
Y372500D02*
Y387500D01*
X423000Y374500D02*
X424500D01*
X420500Y372000D02*
X423000Y374500D01*
X420500Y368500D02*
Y372000D01*
X425000Y375000D02*
Y383500D01*
X428500Y360500D02*
X430000D01*
X424500Y374500D02*
X425000Y375000D01*
X420500Y368500D02*
X428500Y360500D01*
X411000Y397500D02*
X425000Y383500D01*
X412500Y400500D02*
X427500Y385500D01*
Y374000D02*
Y385500D01*
X424000Y370500D02*
X427500Y374000D01*
X403500Y346500D02*
Y394000D01*
X397500Y400000D02*
X403500Y394000D01*
X401000Y347500D02*
Y392500D01*
X398500Y349000D02*
Y389500D01*
X392500Y395500D02*
X398500Y389500D01*
X392500Y395500D02*
Y402500D01*
X457500Y388000D02*
X464500Y395000D01*
X457500Y374500D02*
Y388000D01*
X442000Y359000D02*
X457500Y374500D01*
X396000Y397500D02*
X401000Y392500D01*
X407500Y397500D02*
X411000D01*
X402500Y402500D02*
X407500Y397500D01*
X397500Y407500D02*
X402000Y412000D01*
X397500Y400000D02*
Y407500D01*
X412500Y400500D02*
Y402500D01*
X422500Y399500D02*
Y402500D01*
X427000Y399000D02*
Y408000D01*
X417500Y400000D02*
Y407500D01*
X424000Y355500D02*
Y356000D01*
X419000Y322500D02*
X424000Y327500D01*
X431000D01*
X432000D01*
X434000Y325500D01*
X413500Y325000D02*
X418000D01*
X423000Y330000D01*
X436500D01*
X439500Y327000D01*
Y326500D02*
Y327000D01*
Y332500D02*
X443000Y329000D01*
X421500Y332500D02*
X439500D01*
X416500Y327500D02*
X421500Y332500D01*
X406500Y327500D02*
X416500D01*
X442250Y328250D02*
X443000Y329000D01*
X420500Y335000D02*
X445000D01*
X416000Y330500D02*
X420500Y335000D01*
X404000Y330500D02*
X416000D01*
X445000Y335000D02*
X447000Y333000D01*
X395500Y319500D02*
X402500Y312500D01*
X395500Y319500D02*
Y341500D01*
X447348Y329152D02*
X447848D01*
X448000Y329000D01*
X450000Y331000D01*
X450250Y326750D02*
X452500Y329000D01*
X447250Y337250D02*
X450000Y334500D01*
Y331000D02*
Y334500D01*
X435250Y337250D02*
X447250D01*
X423250Y313250D02*
X424500Y314500D01*
X434500Y338000D02*
X435250Y337250D01*
X452500Y329000D02*
Y335500D01*
X448000Y340000D02*
X452500Y335500D01*
X438500Y340000D02*
X448000D01*
X395500Y341500D02*
X398000Y344000D01*
X392500Y312500D02*
Y342000D01*
X396500Y346000D01*
X389500Y317500D02*
Y342000D01*
X395250Y347750D01*
X401000Y344000D02*
X403500Y346500D01*
X398000Y344000D02*
X401000D01*
X399500Y346000D02*
X401000Y347500D01*
X396500Y346000D02*
X399500D01*
X397250Y347750D02*
X398500Y349000D01*
X395250Y347750D02*
X397250D01*
X387500Y315500D02*
X389500Y317500D01*
X387500Y307500D02*
Y315500D01*
X370000Y320000D02*
X370500Y320500D01*
X433350Y345000D02*
X434675Y343675D01*
X429500Y345000D02*
X433350D01*
X425000Y340327D02*
X425827Y339500D01*
X425000Y340327D02*
Y345350D01*
X430150Y350500D01*
X464500Y395000D02*
X470000D01*
X387500Y307500D02*
X392500Y302500D01*
X436273Y348377D02*
X441650Y343000D01*
X436273Y348377D02*
Y349773D01*
X422500Y302500D02*
X423500D01*
X407000Y341000D02*
X411000D01*
X419000Y338000D02*
X420500Y339500D01*
X425827D01*
X422500Y412500D02*
X427000Y408000D01*
X412500Y412500D02*
X417500Y407500D01*
D15*
X370000Y380571D02*
G03*
X370000Y389429I0J4429D01*
G01*
X466868Y410632D02*
G03*
X473132Y404368I3132J-3132D01*
G01*
X443071Y407500D02*
G03*
X451929Y407500I4429J0D01*
G01*
X366868Y404368D02*
G03*
X373132Y410632I3132J3132D01*
G01*
X470000Y389429D02*
G03*
X470000Y380571I0J-4429D01*
G01*
X473132Y310632D02*
G03*
X466868Y304368I-3132J-3132D01*
G01*
X373132D02*
G03*
X366868Y310632I-3132J3132D01*
G01*
X451929Y307500D02*
G03*
X443071Y307500I-4429J0D01*
G01*
X362500Y389500D02*
Y400000D01*
Y389500D02*
X370000Y389429D01*
X362500Y380500D02*
X370000Y380571D01*
X362500Y315000D02*
Y380500D01*
X473132Y404368D02*
X477500Y400000D01*
X462500Y415000D02*
X466868Y410632D01*
X377500Y415000D02*
X443000D01*
X443071Y407500D01*
X451929D02*
X452000Y415000D01*
X462500D01*
X362500Y400000D02*
X366868Y404368D01*
X373132Y410632D02*
X377500Y415000D01*
X477500Y315000D02*
Y380500D01*
X470000Y380571D02*
X477500Y380500D01*
X470000Y389429D02*
X477500Y389500D01*
Y400000D01*
X462500Y300000D02*
X466868Y304368D01*
X473132Y310632D02*
X477500Y315000D01*
X373132Y304368D02*
X377500Y300000D01*
X362500Y315000D02*
X366868Y310632D01*
X452000Y300000D02*
X462500D01*
X451929Y307500D02*
X452000Y300000D01*
X443000D02*
X443071Y307500D01*
X377500Y300000D02*
X443000D01*
D16*
X392500Y402500D02*
D03*
Y412500D02*
D03*
X402500Y402500D02*
D03*
Y412500D02*
D03*
X412500Y402500D02*
D03*
Y412500D02*
D03*
X422500Y402500D02*
D03*
Y412500D02*
D03*
X392500Y312500D02*
D03*
Y302500D02*
D03*
X402500Y312500D02*
D03*
Y302500D02*
D03*
X412500Y312500D02*
D03*
Y302500D02*
D03*
X422500Y312500D02*
D03*
Y302500D02*
D03*
D17*
X435000Y407500D02*
D03*
Y307500D02*
D03*
D18*
X457500Y407500D02*
D03*
X382500Y307500D02*
D03*
X457500D02*
D03*
X382500Y407500D02*
D03*
D19*
X470000Y395000D02*
D03*
Y320000D02*
D03*
X370000Y395000D02*
D03*
Y320000D02*
D03*
D20*
X470000Y372500D02*
D03*
X370000D02*
D03*
D21*
X475000Y360000D02*
D03*
X465000D02*
D03*
X475000Y350000D02*
D03*
X465000D02*
D03*
X475000Y340000D02*
D03*
X465000D02*
D03*
Y330000D02*
D03*
X375000Y360000D02*
D03*
X365000D02*
D03*
X375000Y350000D02*
D03*
X365000D02*
D03*
X375000Y340000D02*
D03*
X365000D02*
D03*
X375000Y330000D02*
D03*
X365000D02*
D03*
X475000D02*
D03*
D22*
X409848Y373834D02*
D03*
X393500Y352500D02*
D03*
D23*
X441500Y376500D02*
D03*
X396000Y397500D02*
D03*
X430000Y360500D02*
D03*
X424000Y356000D02*
D03*
Y370500D02*
D03*
X430000Y372500D02*
D03*
X416500Y322000D02*
D03*
X434000Y325500D02*
D03*
X413000Y324500D02*
D03*
X406500Y327500D02*
D03*
X404000Y330500D02*
D03*
X439500Y326500D02*
D03*
X443000Y329000D02*
D03*
X447348Y329152D02*
D03*
X447000Y333000D02*
D03*
X450250Y326750D02*
D03*
X438500Y340000D02*
D03*
X443000Y343000D02*
D03*
X410000Y354000D02*
D03*
X429500Y345000D02*
D03*
X422000Y349000D02*
D03*
X437500Y372000D02*
D03*
X434500Y338000D02*
D03*
X442500Y352500D02*
D03*
X411000Y341000D02*
D03*
X419000Y338000D02*
D03*
X442000Y359000D02*
D03*
D24*
X452850Y319500D02*
D03*
X459150D02*
D03*
X423350Y358000D02*
D03*
X429650D02*
D03*
X441650Y343000D02*
D03*
X435350D02*
D03*
X423850Y350500D02*
D03*
X430150D02*
D03*
D25*
X425827Y339500D02*
D03*
X404173D02*
D03*
D26*
X436273Y349773D02*
D03*
X440727Y354227D02*
D03*
D27*
X408000Y353650D02*
D03*
Y347350D02*
D03*
D28*
X402500Y412000D02*
Y412500D01*
M02*
