%FSLAX25Y25*%
%MOIN*%
G70*
G01*
G75*
G04 Layer_Color=32896*
%ADD10O,0.05906X0.01575*%
%ADD11R,0.05906X0.01575*%
%ADD12R,0.01575X0.05906*%
%ADD13R,0.03150X0.02362*%
G04:AMPARAMS|DCode=14|XSize=23.62mil|YSize=31.5mil|CornerRadius=0mil|HoleSize=0mil|Usage=FLASHONLY|Rotation=45.000|XOffset=0mil|YOffset=0mil|HoleType=Round|Shape=Rectangle|*
%AMROTATEDRECTD14*
4,1,4,0.00278,-0.01949,-0.01949,0.00278,-0.00278,0.01949,0.01949,-0.00278,0.00278,-0.01949,0.0*
%
%ADD14ROTATEDRECTD14*%

%ADD15R,0.02362X0.03150*%
G04:AMPARAMS|DCode=16|XSize=23.62mil|YSize=31.5mil|CornerRadius=0mil|HoleSize=0mil|Usage=FLASHONLY|Rotation=135.000|XOffset=0mil|YOffset=0mil|HoleType=Round|Shape=Rectangle|*
%AMROTATEDRECTD16*
4,1,4,0.01949,0.00278,-0.00278,-0.01949,-0.01949,-0.00278,0.00278,0.01949,0.01949,0.00278,0.0*
%
%ADD16ROTATEDRECTD16*%

%ADD17C,0.01000*%
%ADD18C,0.01500*%
%ADD19C,0.00500*%
%ADD20R,0.02500X0.15000*%
%ADD21R,0.02500X0.12500*%
%ADD22R,0.12500X0.02500*%
%ADD23R,0.15000X0.02500*%
%ADD24C,0.02500*%
%ADD25R,0.04803X0.01969*%
%ADD26R,0.09843X0.04724*%
%ADD27C,0.00394*%
%ADD28C,0.00750*%
%ADD29C,0.00700*%
%ADD30R,0.15000X1.05000*%
%ADD31R,1.15000X0.15000*%
%ADD32R,0.15000X1.15000*%
%ADD33O,0.06706X0.02375*%
%ADD34R,0.06706X0.02375*%
%ADD35R,0.02375X0.06706*%
%ADD36R,0.03950X0.03162*%
G04:AMPARAMS|DCode=37|XSize=31.62mil|YSize=39.5mil|CornerRadius=0mil|HoleSize=0mil|Usage=FLASHONLY|Rotation=45.000|XOffset=0mil|YOffset=0mil|HoleType=Round|Shape=Rectangle|*
%AMROTATEDRECTD37*
4,1,4,0.00278,-0.02514,-0.02514,0.00278,-0.00278,0.02514,0.02514,-0.00278,0.00278,-0.02514,0.0*
%
%ADD37ROTATEDRECTD37*%

%ADD38R,0.03162X0.03950*%
G04:AMPARAMS|DCode=39|XSize=31.62mil|YSize=39.5mil|CornerRadius=0mil|HoleSize=0mil|Usage=FLASHONLY|Rotation=135.000|XOffset=0mil|YOffset=0mil|HoleType=Round|Shape=Rectangle|*
%AMROTATEDRECTD39*
4,1,4,0.02514,0.00278,-0.00278,-0.02514,-0.02514,-0.00278,0.00278,0.02514,0.02514,0.00278,0.0*
%
%ADD39ROTATEDRECTD39*%

%ADD40R,0.03300X0.15800*%
%ADD41R,0.03300X0.13300*%
%ADD42R,0.13300X0.03300*%
%ADD43R,0.15800X0.03300*%
%ADD44C,0.03300*%
%ADD45R,0.15000X1.00000*%
%ADD46R,1.00000X0.15000*%
%ADD47R,0.15000X0.85000*%
%ADD48R,0.05603X0.02769*%
%ADD49R,0.10642X0.05524*%
D19*
X411800Y407500D02*
G03*
X421200Y407500I4700J0D01*
G01*
X375823Y304177D02*
G03*
X369177Y310823I-3323J3323D01*
G01*
Y404177D02*
G03*
X375823Y410823I3323J3323D01*
G01*
X469177D02*
G03*
X475823Y404177I3323J-3323D01*
G01*
X421200Y307500D02*
G03*
X411800Y307500I-4700J0D01*
G01*
X475823Y310823D02*
G03*
X469177Y304177I-3323J-3323D01*
G01*
X472500Y368200D02*
G03*
X472500Y358800I0J-4700D01*
G01*
X372500D02*
G03*
X372500Y368200I0J4700D01*
G01*
X421500Y415000D02*
X465000D01*
X380000D02*
X411500D01*
X421197Y407432D02*
X421500Y415000D01*
X411500D02*
X411800Y407500D01*
X365000Y315000D02*
X369177Y310823D01*
X375823Y304177D02*
X380000Y300000D01*
X365000Y400000D02*
X369177Y404177D01*
X375823Y410823D02*
X380000Y415000D01*
X475823Y404177D02*
X480000Y400000D01*
X465000Y415000D02*
X469177Y410823D01*
X475823Y310823D02*
X480000Y315000D01*
X411500Y300000D02*
X411800Y307500D01*
X421197Y307568D02*
X421500Y300000D01*
X380000D02*
X411500D01*
X421500D02*
X465000D01*
X469177Y304177D01*
X472500Y368200D02*
X480000Y368500D01*
X472432Y358803D02*
X480000Y358500D01*
Y368500D02*
Y400000D01*
Y315000D02*
Y358500D01*
X365000Y368500D02*
X372500Y368200D01*
X365000Y358500D02*
X372568Y358803D01*
X365000Y368500D02*
Y400000D01*
Y315000D02*
Y358500D01*
D28*
X460200Y355151D02*
Y353152D01*
X459200Y352152D01*
X458201Y353152D01*
Y355151D01*
X457201Y352152D02*
Y355151D01*
X455701D01*
X455202Y354651D01*
Y353651D01*
X455701Y353152D01*
X457201D01*
X456201D02*
X455202Y352152D01*
X452203Y355151D02*
X454202D01*
Y352152D01*
X452203D01*
X454202Y353651D02*
X453202D01*
X449204Y355151D02*
X451203D01*
Y353651D01*
X450203D01*
X451203D01*
Y352152D01*
X448204D02*
X447204D01*
X447704D01*
Y355151D01*
X448204Y354651D01*
D29*
X422500Y335499D02*
X420501Y332500D01*
Y335499D02*
X422500Y332500D01*
X419501Y335499D02*
X417502D01*
X418501D01*
Y332500D01*
X416502D02*
Y334499D01*
X415502Y335499D01*
X414503Y334499D01*
Y332500D01*
Y333999D01*
X416502D01*
X413503Y335499D02*
Y332500D01*
X411504D01*
X410504D02*
X409504D01*
X410004D01*
Y335499D01*
X410504Y334999D01*
X433001Y329999D02*
X433500Y330499D01*
X434500D01*
X435000Y329999D01*
Y328000D01*
X434500Y327500D01*
X433500D01*
X433001Y328000D01*
X430002Y327500D02*
X432001D01*
X430002Y329499D01*
Y329999D01*
X430502Y330499D01*
X431501D01*
X432001Y329999D01*
X410501D02*
X411000Y330499D01*
X412000D01*
X412500Y329999D01*
Y328000D01*
X412000Y327500D01*
X411000D01*
X410501Y328000D01*
X409501Y327500D02*
X408501D01*
X409001D01*
Y330499D01*
X409501Y329999D01*
X437000Y341000D02*
Y343999D01*
X435500D01*
X435001Y343499D01*
Y342499D01*
X435500Y342000D01*
X437000D01*
X434001Y343999D02*
Y341000D01*
X432002D01*
X431002D02*
Y342999D01*
X430002Y343999D01*
X429003Y342999D01*
Y341000D01*
Y342499D01*
X431002D01*
X428003Y341000D02*
Y343999D01*
X426004Y341000D01*
Y343999D01*
X423004D02*
X425004D01*
Y341000D01*
X423004D01*
X425004Y342499D02*
X424004D01*
X420006Y343499D02*
X420505Y343999D01*
X421505D01*
X422005Y343499D01*
Y342999D01*
X421505Y342499D01*
X420505D01*
X420006Y342000D01*
Y341500D01*
X420505Y341000D01*
X421505D01*
X422005Y341500D01*
M02*
