%FSLAX25Y25*%
%MOIN*%
G70*
G01*
G75*
%ADD10O,0.05906X0.01575*%
%ADD11R,0.05906X0.01575*%
%ADD12R,0.01575X0.05906*%
%ADD13C,0.01000*%
%ADD14C,0.01500*%
%ADD15C,0.00500*%
%ADD16R,0.05000X0.05000*%
%ADD17R,0.10000X0.15000*%
%ADD18R,0.05000X0.15000*%
%ADD19R,0.15000X0.05000*%
%ADD20R,0.15000X0.10000*%
%ADD21R,0.05000X0.05000*%
%ADD22C,0.05000*%
%ADD23C,0.03000*%
%ADD24R,0.02362X0.03150*%
%ADD25R,0.09843X0.04724*%
G04:AMPARAMS|DCode=26|XSize=23.62mil|YSize=31.5mil|CornerRadius=0mil|HoleSize=0mil|Usage=FLASHONLY|Rotation=45.000|XOffset=0mil|YOffset=0mil|HoleType=Round|Shape=Rectangle|*
%AMROTATEDRECTD26*
4,1,4,0.00278,-0.01949,-0.01949,0.00278,-0.00278,0.01949,0.01949,-0.00278,0.00278,-0.01949,0.0*
%
%ADD26ROTATEDRECTD26*%

%ADD27R,0.03150X0.02362*%
%ADD28C,0.00650*%
%ADD29C,0.00394*%
D13*
X433500Y385000D02*
Y390998D01*
X435499Y388999D01*
X437499Y390998D01*
Y385000D01*
X443497Y389998D02*
X442497Y390998D01*
X440498D01*
X439498Y389998D01*
Y386000D01*
X440498Y385000D01*
X442497D01*
X443497Y386000D01*
X445496Y390998D02*
Y386000D01*
X446496Y385000D01*
X448495D01*
X449495Y386000D01*
Y390998D01*
X451494Y385000D02*
X453493D01*
X452494D01*
Y390998D01*
X451494Y389998D01*
X388000Y385000D02*
Y390998D01*
X389999Y388999D01*
X391999Y390998D01*
Y385000D01*
X394998D02*
X396997D01*
X397997Y386000D01*
Y387999D01*
X396997Y388999D01*
X394998D01*
X393998Y387999D01*
Y386000D01*
X394998Y385000D01*
X403995Y390998D02*
Y385000D01*
X400996D01*
X399996Y386000D01*
Y387999D01*
X400996Y388999D01*
X403995D01*
X405994D02*
Y386000D01*
X406994Y385000D01*
X409993D01*
Y388999D01*
X411992Y385000D02*
X413992D01*
X412992D01*
Y390998D01*
X411992D01*
X417990Y385000D02*
X419990D01*
X420989Y386000D01*
Y387999D01*
X419990Y388999D01*
X417990D01*
X416991Y387999D01*
Y386000D01*
X417990Y385000D01*
X422989Y390998D02*
X426987Y385000D01*
Y390998D02*
X422989Y385000D01*
D15*
X370000Y380571D02*
G03*
X370000Y389429I0J4429D01*
G01*
X466868Y410632D02*
G03*
X473132Y404368I3132J-3132D01*
G01*
X443071Y407500D02*
G03*
X451929Y407500I4429J0D01*
G01*
X366868Y404368D02*
G03*
X373132Y410632I3132J3132D01*
G01*
X470000Y389429D02*
G03*
X470000Y380571I0J-4429D01*
G01*
X473132Y310632D02*
G03*
X466868Y304368I-3132J-3132D01*
G01*
X373132D02*
G03*
X366868Y310632I-3132J3132D01*
G01*
X451929Y307500D02*
G03*
X443071Y307500I-4429J0D01*
G01*
X362500Y389500D02*
Y400000D01*
Y389500D02*
X370000Y389429D01*
X362500Y380500D02*
X370000Y380571D01*
X362500Y315000D02*
Y380500D01*
X473132Y404368D02*
X477500Y400000D01*
X462500Y415000D02*
X466868Y410632D01*
X377500Y415000D02*
X443000D01*
X443071Y407500D01*
X451929D02*
X452000Y415000D01*
X462500D01*
X362500Y400000D02*
X366868Y404368D01*
X373132Y410632D02*
X377500Y415000D01*
X477500Y315000D02*
Y380500D01*
X470000Y380571D02*
X477500Y380500D01*
X470000Y389429D02*
X477500Y389500D01*
Y400000D01*
X462500Y300000D02*
X466868Y304368D01*
X473132Y310632D02*
X477500Y315000D01*
X373132Y304368D02*
X377500Y300000D01*
X362500Y315000D02*
X366868Y310632D01*
X452000Y300000D02*
X462500D01*
X451929Y307500D02*
X452000Y300000D01*
X443000D02*
X443071Y307500D01*
X377500Y300000D02*
X443000D01*
D29*
X420256Y337500D02*
Y355197D01*
Y337500D02*
X443209D01*
Y360453D01*
X425512D02*
X443209D01*
X420256Y355197D02*
X425512Y360453D01*
M02*
