%FSLAX25Y25*%
%MOIN*%
G70*
G01*
G75*
%ADD10O,0.05906X0.01575*%
%ADD11R,0.05906X0.01575*%
%ADD12R,0.01575X0.05906*%
%ADD13R,0.03150X0.02362*%
G04:AMPARAMS|DCode=14|XSize=23.62mil|YSize=31.5mil|CornerRadius=0mil|HoleSize=0mil|Usage=FLASHONLY|Rotation=45.000|XOffset=0mil|YOffset=0mil|HoleType=Round|Shape=Rectangle|*
%AMROTATEDRECTD14*
4,1,4,0.00278,-0.01949,-0.01949,0.00278,-0.00278,0.01949,0.01949,-0.00278,0.00278,-0.01949,0.0*
%
%ADD14ROTATEDRECTD14*%

%ADD15R,0.02362X0.03150*%
G04:AMPARAMS|DCode=16|XSize=23.62mil|YSize=31.5mil|CornerRadius=0mil|HoleSize=0mil|Usage=FLASHONLY|Rotation=135.000|XOffset=0mil|YOffset=0mil|HoleType=Round|Shape=Rectangle|*
%AMROTATEDRECTD16*
4,1,4,0.01949,0.00278,-0.00278,-0.01949,-0.01949,-0.00278,0.00278,0.01949,0.01949,0.00278,0.0*
%
%ADD16ROTATEDRECTD16*%

%ADD17C,0.01000*%
%ADD18C,0.01500*%
%ADD19C,0.00500*%
%ADD20R,0.02500X0.15000*%
%ADD21R,0.02500X0.12500*%
%ADD22R,0.12500X0.02500*%
%ADD23R,0.15000X0.02500*%
%ADD24C,0.02500*%
%ADD25R,0.04803X0.01969*%
%ADD26R,0.09843X0.04724*%
%ADD27C,0.00394*%
%ADD28C,0.00750*%
%ADD29C,0.00700*%
D19*
X411800Y407500D02*
G03*
X421200Y407500I4700J0D01*
G01*
X375823Y304177D02*
G03*
X369177Y310823I-3323J3323D01*
G01*
Y404177D02*
G03*
X375823Y410823I3323J3323D01*
G01*
X469177D02*
G03*
X475823Y404177I3323J-3323D01*
G01*
X421200Y307500D02*
G03*
X411800Y307500I-4700J0D01*
G01*
X475823Y310823D02*
G03*
X469177Y304177I-3323J-3323D01*
G01*
X472500Y368200D02*
G03*
X472500Y358800I0J-4700D01*
G01*
X372500D02*
G03*
X372500Y368200I0J4700D01*
G01*
X421500Y415000D02*
X465000D01*
X380000D02*
X411500D01*
X421197Y407432D02*
X421500Y415000D01*
X411500D02*
X411800Y407500D01*
X365000Y315000D02*
X369177Y310823D01*
X375823Y304177D02*
X380000Y300000D01*
X365000Y400000D02*
X369177Y404177D01*
X375823Y410823D02*
X380000Y415000D01*
X475823Y404177D02*
X480000Y400000D01*
X465000Y415000D02*
X469177Y410823D01*
X475823Y310823D02*
X480000Y315000D01*
X411500Y300000D02*
X411800Y307500D01*
X421197Y307568D02*
X421500Y300000D01*
X380000D02*
X411500D01*
X421500D02*
X465000D01*
X469177Y304177D01*
X472500Y368200D02*
X480000Y368500D01*
X472432Y358803D02*
X480000Y358500D01*
Y368500D02*
Y400000D01*
Y315000D02*
Y358500D01*
X365000Y368500D02*
X372500Y368200D01*
X365000Y358500D02*
X372568Y358803D01*
X365000Y368500D02*
Y400000D01*
Y315000D02*
Y358500D01*
D27*
X420256Y337500D02*
Y355197D01*
Y337500D02*
X443209D01*
Y360453D01*
X425512D02*
X443209D01*
X420256Y355197D02*
X425512Y360453D01*
D28*
X437500Y370000D02*
Y372999D01*
X438500Y371999D01*
X439499Y372999D01*
Y370000D01*
X442498Y372499D02*
X441998Y372999D01*
X440999D01*
X440499Y372499D01*
Y370500D01*
X440999Y370000D01*
X441998D01*
X442498Y370500D01*
X443498Y372999D02*
Y370500D01*
X443998Y370000D01*
X444998D01*
X445497Y370500D01*
Y372999D01*
X446497Y370000D02*
X447497D01*
X446997D01*
Y372999D01*
X446497Y372499D01*
X454499Y327499D02*
X454000Y327999D01*
X453000D01*
X452500Y327499D01*
Y325500D01*
X453000Y325000D01*
X454000D01*
X454499Y325500D01*
X457498Y327999D02*
X456499Y327499D01*
X455499Y326500D01*
Y325500D01*
X455999Y325000D01*
X456998D01*
X457498Y325500D01*
Y326000D01*
X456998Y326500D01*
X455499D01*
X401999Y359999D02*
X401500Y360499D01*
X400500D01*
X400000Y359999D01*
Y358000D01*
X400500Y357500D01*
X401500D01*
X401999Y358000D01*
X404498Y357500D02*
Y360499D01*
X402999Y358999D01*
X404998D01*
X396999Y347499D02*
X396499Y347999D01*
X395500D01*
X395000Y347499D01*
Y345500D01*
X395500Y345000D01*
X396499D01*
X396999Y345500D01*
X399998Y347999D02*
X397999D01*
Y346499D01*
X398999Y346999D01*
X399499D01*
X399998Y346499D01*
Y345500D01*
X399499Y345000D01*
X398499D01*
X397999Y345500D01*
D29*
X410000Y377500D02*
X407879Y379621D01*
X408940Y380681D01*
X409647Y380681D01*
X410353Y379974D01*
X410353Y379267D01*
X409293Y378207D01*
X410000Y378914D02*
X411414Y378914D01*
X412121Y379621D02*
X412827Y380328D01*
X412474Y379974D01*
X410353Y382095D01*
Y381388D01*
X447500Y335499D02*
Y332500D01*
X449499D01*
X450499D02*
X451499D01*
X450999D01*
Y335499D01*
X450499Y334999D01*
X459499Y344999D02*
X458999Y345499D01*
X458000D01*
X457500Y344999D01*
Y343000D01*
X458000Y342500D01*
X458999D01*
X459499Y343000D01*
X460499Y344999D02*
X460999Y345499D01*
X461999D01*
X462498Y344999D01*
Y344499D01*
X461999Y344000D01*
X461499D01*
X461999D01*
X462498Y343500D01*
Y343000D01*
X461999Y342500D01*
X460999D01*
X460499Y343000D01*
X390000Y390000D02*
Y392999D01*
X391499D01*
X391999Y392499D01*
Y391499D01*
X391499Y391000D01*
X390000D01*
X391000D02*
X391999Y390000D01*
X394998D02*
X392999D01*
X394998Y391999D01*
Y392499D01*
X394498Y392999D01*
X393499D01*
X392999Y392499D01*
X385000Y377500D02*
Y380499D01*
X386500D01*
X386999Y379999D01*
Y378999D01*
X386500Y378500D01*
X385000D01*
X389498Y380499D02*
X388499D01*
X387999Y379999D01*
Y378000D01*
X388499Y377500D01*
X389498D01*
X389998Y378000D01*
Y379999D01*
X389498Y380499D01*
X390998D02*
Y377500D01*
X391998Y378500D01*
X392997Y377500D01*
Y380499D01*
X424500Y392500D02*
Y395499D01*
X425999D01*
X426499Y394999D01*
Y394000D01*
X425999Y393500D01*
X424500D01*
X425500D02*
X426499Y392500D01*
X427499Y394999D02*
X427999Y395499D01*
X428999D01*
X429498Y394999D01*
Y394499D01*
X428999Y394000D01*
X428499D01*
X428999D01*
X429498Y393500D01*
Y393000D01*
X428999Y392500D01*
X427999D01*
X427499Y393000D01*
X428883Y390280D02*
X428383Y390779D01*
X427384D01*
X426884Y390280D01*
Y389780D01*
X427384Y389280D01*
X428383D01*
X428883Y388780D01*
Y388280D01*
X428383Y387780D01*
X427384D01*
X426884Y388280D01*
X431882Y390280D02*
X431383Y390779D01*
X430383D01*
X429883Y390280D01*
Y388280D01*
X430383Y387780D01*
X431383D01*
X431882Y388280D01*
X432882Y390779D02*
Y387780D01*
Y388780D01*
X434881Y390779D01*
X433382Y389280D01*
X434881Y387780D01*
X397500Y321499D02*
X399499D01*
X398500D01*
Y318500D01*
X402498Y321499D02*
X400499D01*
Y318500D01*
X402498D01*
X400499Y320000D02*
X401499D01*
X403498Y318500D02*
Y321499D01*
X404998D01*
X405497Y320999D01*
Y320000D01*
X404998Y319500D01*
X403498D01*
X404498D02*
X405497Y318500D01*
X406497D02*
Y321499D01*
X407497Y320499D01*
X408496Y321499D01*
Y318500D01*
X409496Y321499D02*
X410496D01*
X409996D01*
Y318500D01*
X409496D01*
X410496D01*
X411995D02*
Y321499D01*
X413995Y318500D01*
Y321499D01*
X414994Y318500D02*
Y320499D01*
X415994Y321499D01*
X416994Y320499D01*
Y318500D01*
Y320000D01*
X414994D01*
X417993Y321499D02*
X419993D01*
X418993D01*
Y318500D01*
X422992Y321499D02*
X420992D01*
Y318500D01*
X422992D01*
X420992Y320000D02*
X421992D01*
M02*
