%FSLAX24Y24*%
%MOIN*%
G70*
G01*
G75*
G04 Layer_Physical_Order=2*
G04 Layer_Color=16711680*
%ADD10R,0.0236X0.0315*%
G04:AMPARAMS|DCode=11|XSize=15.7mil|YSize=59.1mil|CornerRadius=0mil|HoleSize=0mil|Usage=FLASHONLY|Rotation=315.000|XOffset=0mil|YOffset=0mil|HoleType=Round|Shape=Rectangle|*
%AMROTATEDRECTD11*
4,1,4,-0.0264,-0.0153,0.0153,0.0264,0.0264,0.0153,-0.0153,-0.0264,-0.0264,-0.0153,0.0*
%
%ADD11ROTATEDRECTD11*%

G04:AMPARAMS|DCode=12|XSize=15.7mil|YSize=59.1mil|CornerRadius=0mil|HoleSize=0mil|Usage=FLASHONLY|Rotation=45.000|XOffset=0mil|YOffset=0mil|HoleType=Round|Shape=Rectangle|*
%AMROTATEDRECTD12*
4,1,4,0.0153,-0.0264,-0.0264,0.0153,-0.0153,0.0264,0.0264,-0.0153,0.0153,-0.0264,0.0*
%
%ADD12ROTATEDRECTD12*%

G04:AMPARAMS|DCode=13|XSize=15.7mil|YSize=59.1mil|CornerRadius=0mil|HoleSize=0mil|Usage=FLASHONLY|Rotation=45.000|XOffset=0mil|YOffset=0mil|HoleType=Round|Shape=Round|*
%AMOVALD13*
21,1,0.0433,0.0157,0.0000,0.0000,135.0*
1,1,0.0157,0.0153,-0.0153*
1,1,0.0157,-0.0153,0.0153*
%
%ADD13OVALD13*%

%ADD14R,0.0450X0.0450*%
%ADD15R,0.0472X0.1457*%
%ADD16C,0.0200*%
%ADD17C,0.0100*%
%ADD18C,0.0150*%
%ADD19R,0.0540X0.0670*%
%ADD20R,0.1080X0.0760*%
%ADD21R,0.1260X0.1080*%
%ADD22R,0.0820X0.1791*%
%ADD23R,0.0394X0.1575*%
%ADD24R,0.0394X0.1181*%
%ADD25R,0.1181X0.1575*%
%ADD26R,0.1575X0.0394*%
%ADD27R,0.1181X0.0394*%
%ADD28R,0.1575X0.1181*%
%ADD29C,0.0625*%
G04:AMPARAMS|DCode=30|XSize=62.5mil|YSize=62.5mil|CornerRadius=0mil|HoleSize=0mil|Usage=FLASHONLY|Rotation=180.000|XOffset=0mil|YOffset=0mil|HoleType=Round|Shape=Octagon|*
%AMOCTAGOND30*
4,1,8,-0.0313,0.0156,-0.0313,-0.0156,-0.0156,-0.0313,0.0156,-0.0313,0.0313,-0.0156,0.0313,0.0156,0.0156,0.0313,-0.0156,0.0313,-0.0313,0.0156,0.0*
%
%ADD30OCTAGOND30*%

%ADD31C,0.0250*%
G04:AMPARAMS|DCode=32|XSize=23.6mil|YSize=31.5mil|CornerRadius=0mil|HoleSize=0mil|Usage=FLASHONLY|Rotation=45.000|XOffset=0mil|YOffset=0mil|HoleType=Round|Shape=Rectangle|*
%AMROTATEDRECTD32*
4,1,4,0.0028,-0.0195,-0.0195,0.0028,-0.0028,0.0195,0.0195,-0.0028,0.0028,-0.0195,0.0*
%
%ADD32ROTATEDRECTD32*%

G04:AMPARAMS|DCode=33|XSize=23.6mil|YSize=31.5mil|CornerRadius=0mil|HoleSize=0mil|Usage=FLASHONLY|Rotation=135.000|XOffset=0mil|YOffset=0mil|HoleType=Round|Shape=Rectangle|*
%AMROTATEDRECTD33*
4,1,4,0.0195,0.0028,-0.0028,-0.0195,-0.0195,-0.0028,0.0028,0.0195,0.0195,0.0028,0.0*
%
%ADD33ROTATEDRECTD33*%

%ADD34R,0.0315X0.0236*%
%ADD35R,0.0310X0.0350*%
%ADD36R,0.0440X0.1070*%
G36*
X39308Y24616D02*
X39301Y24580D01*
X39318Y24492D01*
X39368Y24418D01*
X39442Y24368D01*
X39530Y24351D01*
X39618Y24368D01*
X39692Y24418D01*
X39742Y24492D01*
X39759Y24580D01*
X39750Y24628D01*
X39760Y24639D01*
X39795Y24656D01*
X39813Y24644D01*
X39842Y24625D01*
X39910Y24612D01*
X39910Y24612D01*
X40195D01*
Y24415D01*
X40705D01*
Y24917D01*
X41337D01*
X42552Y23702D01*
X42234Y23384D01*
X40234D01*
X39877Y23740D01*
X39084Y24534D01*
X38217Y25400D01*
Y25641D01*
X38263Y25660D01*
X39308Y24616D01*
D02*
G37*
G36*
X32671Y27530D02*
X32070D01*
Y28420D01*
X32020Y28470D01*
X32049Y28540D01*
X32671D01*
Y27530D01*
D02*
G37*
G36*
X38300Y22410D02*
X38251Y22360D01*
X37360D01*
X37340Y22368D01*
Y22908D01*
X38300D01*
Y22410D01*
D02*
G37*
G36*
X39920Y23380D02*
X39893Y23315D01*
X37974D01*
Y25235D01*
X38039Y25261D01*
X39920Y23380D01*
D02*
G37*
G36*
X40250Y28945D02*
X40272Y28925D01*
X40262Y28875D01*
Y28556D01*
X40274Y28498D01*
X40307Y28448D01*
X40567Y28188D01*
Y26883D01*
X40494Y26811D01*
X40450Y26819D01*
X40362Y26802D01*
X40296Y26758D01*
X40263Y26771D01*
X40249Y26782D01*
X40232Y26868D01*
X40182Y26942D01*
X40108Y26992D01*
X40020Y27009D01*
X39941Y26994D01*
X39177Y27757D01*
X39179Y27770D01*
X39162Y27858D01*
X39112Y27932D01*
X39038Y27982D01*
X39006Y27988D01*
X38991Y28038D01*
X39025Y28072D01*
X39077Y28059D01*
X39118Y27998D01*
X39192Y27948D01*
X39280Y27931D01*
X39368Y27948D01*
X39442Y27998D01*
X39492Y28072D01*
X39509Y28160D01*
X39497Y28221D01*
X40231Y28954D01*
X40250Y28945D01*
D02*
G37*
G36*
X42015Y32615D02*
Y32545D01*
X41981Y32511D01*
X41974Y32506D01*
X41974Y32506D01*
X41138Y31671D01*
X41066Y31697D01*
X41022Y31762D01*
X40948Y31812D01*
X40860Y31829D01*
X40772Y31812D01*
X40698Y31762D01*
X40648Y31688D01*
X40631Y31600D01*
X40633Y31588D01*
X39391Y30345D01*
X39380Y30348D01*
X39292Y30330D01*
X39218Y30280D01*
X39168Y30206D01*
X39151Y30118D01*
X39168Y30030D01*
X39218Y29956D01*
X39282Y29913D01*
X39305Y29838D01*
X39108Y29640D01*
X38790D01*
Y29322D01*
X38699Y29231D01*
X38660Y29173D01*
X38647Y29105D01*
Y28934D01*
X38577Y28888D01*
X38520Y28899D01*
X38432Y28882D01*
X38358Y28832D01*
X38352Y28823D01*
X38300D01*
X38254Y28814D01*
X38214Y28840D01*
X38192Y28862D01*
X38199Y28900D01*
X38182Y28988D01*
X38132Y29062D01*
X38123Y29068D01*
Y29187D01*
X38598Y29662D01*
X38631Y29711D01*
X38643Y29770D01*
Y30332D01*
X38652Y30338D01*
X38702Y30412D01*
X38719Y30500D01*
X38702Y30588D01*
X38652Y30662D01*
X38578Y30712D01*
X38490Y30729D01*
X38402Y30712D01*
X38328Y30662D01*
X38278Y30588D01*
X38261Y30500D01*
X38262Y30493D01*
X38208Y30427D01*
X38161Y30425D01*
X37988Y30598D01*
X37939Y30631D01*
X37880Y30643D01*
X37628D01*
X37622Y30652D01*
X37548Y30702D01*
X37460Y30719D01*
X37372Y30702D01*
X37298Y30652D01*
X37248Y30578D01*
X37231Y30490D01*
X37248Y30402D01*
X37298Y30328D01*
X37372Y30278D01*
X37460Y30261D01*
X37548Y30278D01*
X37622Y30328D01*
X37628Y30337D01*
X37817D01*
X37983Y30171D01*
X37981Y30160D01*
X37998Y30072D01*
X38048Y29998D01*
X38122Y29948D01*
X38210Y29931D01*
X38267Y29942D01*
X38331Y29901D01*
X38335Y29831D01*
X37918Y29414D01*
X37856Y29437D01*
X37847Y29443D01*
X37836Y29498D01*
X37803Y29548D01*
X35761Y31591D01*
X35711Y31624D01*
X35652Y31635D01*
X35643Y31634D01*
X35585Y31673D01*
X35582Y31688D01*
X35532Y31762D01*
X35458Y31812D01*
X35370Y31829D01*
X35282Y31812D01*
X35208Y31762D01*
X35158Y31688D01*
X35141Y31600D01*
X35158Y31512D01*
X35208Y31438D01*
X35282Y31388D01*
X35370Y31371D01*
X35458Y31388D01*
X35511Y31424D01*
X35544Y31374D01*
X37542Y29377D01*
Y28515D01*
X37554Y28456D01*
X37587Y28407D01*
X37592Y28402D01*
X37565Y28337D01*
X37407D01*
Y28279D01*
X37132D01*
X37122Y28328D01*
X37114Y28340D01*
Y28495D01*
X37098Y28573D01*
X37054Y28639D01*
X36979Y28714D01*
X36994Y28729D01*
X36629Y29094D01*
X36624Y29089D01*
X36269Y29444D01*
X36259Y29434D01*
X36173Y29520D01*
X36179Y29550D01*
X36164Y29628D01*
Y30110D01*
X36164Y30110D01*
X36148Y30188D01*
X36104Y30254D01*
X36104Y30254D01*
X35474Y30884D01*
X35408Y30928D01*
X35330Y30944D01*
X35310D01*
X35298Y30952D01*
X35210Y30969D01*
X35122Y30952D01*
X35048Y30902D01*
X34998Y30828D01*
X34981Y30740D01*
X34998Y30652D01*
X35048Y30578D01*
X35122Y30528D01*
X35210Y30511D01*
X35261Y30521D01*
X35756Y30026D01*
Y29724D01*
X35686Y29695D01*
X34855Y30527D01*
X34859Y30550D01*
X34859Y30553D01*
X34903Y30607D01*
X34907D01*
Y31043D01*
X34694D01*
X34645Y31053D01*
X34596Y31043D01*
X34393D01*
Y30607D01*
X34393D01*
X34393D01*
X34393Y30607D01*
X34384Y30561D01*
X34311Y30535D01*
X33877Y30969D01*
X33879Y30980D01*
X33862Y31068D01*
X33812Y31142D01*
X33738Y31192D01*
X33650Y31209D01*
X33598Y31199D01*
X33528Y31247D01*
Y31342D01*
X34173Y31987D01*
X34800D01*
X34859Y31999D01*
X34908Y32032D01*
X35009Y32133D01*
X35020Y32131D01*
X35108Y32148D01*
X35182Y32198D01*
X35232Y32272D01*
X35249Y32360D01*
X35232Y32448D01*
X35182Y32522D01*
X35108Y32572D01*
X35020Y32589D01*
X34932Y32572D01*
X34858Y32522D01*
X34808Y32448D01*
X34791Y32360D01*
X34793Y32349D01*
X34737Y32293D01*
X34110D01*
X34051Y32281D01*
X34002Y32248D01*
X33267Y31513D01*
X33234Y31464D01*
X33222Y31405D01*
Y30866D01*
X33234Y30808D01*
X33235Y30805D01*
X33214Y30772D01*
X33202Y30714D01*
Y30355D01*
X33214Y30296D01*
X33247Y30247D01*
X33735Y29759D01*
Y25782D01*
X33746Y25724D01*
X33779Y25674D01*
X33971Y25483D01*
X33948Y25428D01*
X33934Y25320D01*
X33948Y25212D01*
X33990Y25112D01*
X34056Y25026D01*
X34142Y24960D01*
X34242Y24918D01*
X34350Y24904D01*
X34458Y24918D01*
X34558Y24960D01*
X34567Y24967D01*
X34802Y24732D01*
X34851Y24699D01*
X34910Y24687D01*
X35007D01*
X35034Y24622D01*
X34938Y24526D01*
Y24114D01*
X35144Y23907D01*
X35288D01*
X35297Y23896D01*
X35280Y23801D01*
X35268Y23792D01*
X35218Y23718D01*
X35201Y23630D01*
X35218Y23542D01*
X35268Y23468D01*
X35342Y23418D01*
X35430Y23401D01*
X35518Y23418D01*
X35592Y23468D01*
X35642Y23542D01*
X35659Y23630D01*
X35657Y23641D01*
X36028Y24012D01*
X36061Y24061D01*
X36073Y24120D01*
Y24550D01*
X36061Y24609D01*
X36028Y24658D01*
X35994Y24692D01*
X35999Y24720D01*
X35982Y24808D01*
X35932Y24882D01*
X35858Y24932D01*
X35770Y24949D01*
X35742Y24944D01*
X35738Y24948D01*
X35692Y24979D01*
X35688Y24985D01*
X35668Y25057D01*
X35710Y25112D01*
X35725Y25147D01*
X35798Y25156D01*
X36343Y24611D01*
X36341Y24600D01*
X36358Y24512D01*
X36408Y24438D01*
X36482Y24388D01*
X36570Y24371D01*
X36658Y24388D01*
X36732Y24438D01*
X36782Y24512D01*
X36799Y24600D01*
X36782Y24688D01*
X36732Y24762D01*
X36658Y24812D01*
X36570Y24829D01*
X36559Y24827D01*
X35958Y25428D01*
X35909Y25461D01*
X35850Y25473D01*
X35733D01*
X35710Y25528D01*
X35644Y25614D01*
X35558Y25680D01*
X35458Y25722D01*
X35350Y25736D01*
X35242Y25722D01*
X35142Y25680D01*
X35056Y25614D01*
X34990Y25528D01*
X34948Y25428D01*
X34934Y25320D01*
X34948Y25212D01*
X34990Y25112D01*
X34959Y25036D01*
X34934Y25032D01*
X34752Y25214D01*
X34766Y25320D01*
X34752Y25428D01*
X34710Y25528D01*
X34644Y25614D01*
X34558Y25680D01*
X34458Y25722D01*
X34350Y25736D01*
X34242Y25722D01*
X34187Y25699D01*
X34040Y25846D01*
Y29822D01*
X34029Y29881D01*
X34019Y29896D01*
X34073Y29940D01*
X34663Y29351D01*
X34661Y29340D01*
X34678Y29252D01*
X34728Y29178D01*
X34802Y29128D01*
X34890Y29111D01*
X34978Y29128D01*
X35014Y29152D01*
X35106Y29141D01*
X35108Y29138D01*
X35182Y29088D01*
X35270Y29071D01*
X35358Y29088D01*
X35412Y29040D01*
X35418Y29010D01*
X35468Y28935D01*
X35458Y28858D01*
X35438Y28844D01*
X35432Y28835D01*
X35103D01*
Y28847D01*
X34667D01*
Y28811D01*
X34613Y28767D01*
X34600Y28769D01*
X34512Y28752D01*
X34438Y28702D01*
X34388Y28628D01*
X34371Y28540D01*
X34388Y28452D01*
X34438Y28378D01*
X34512Y28328D01*
X34600Y28311D01*
X34688Y28328D01*
X34694Y28333D01*
X34864D01*
X34901Y28263D01*
X34878Y28228D01*
X34861Y28140D01*
X34878Y28052D01*
X34928Y27978D01*
X35002Y27928D01*
X35090Y27911D01*
X35178Y27928D01*
X35252Y27978D01*
X35275Y28012D01*
X36328D01*
X36358Y27968D01*
X36432Y27918D01*
X36520Y27901D01*
X36608Y27918D01*
X36626Y27930D01*
X36696Y27893D01*
Y27640D01*
X36712Y27562D01*
X36756Y27496D01*
X37041Y27211D01*
X37107Y27167D01*
X37136Y27089D01*
X37128Y27078D01*
X37111Y26990D01*
X37128Y26902D01*
X37178Y26828D01*
X37181Y26757D01*
X36887Y26463D01*
X36388D01*
X36382Y26472D01*
X36308Y26522D01*
X36220Y26539D01*
X36132Y26522D01*
X36058Y26472D01*
X36008Y26398D01*
X35991Y26310D01*
X36008Y26222D01*
X36058Y26148D01*
X36132Y26098D01*
X36220Y26081D01*
X36308Y26098D01*
X36382Y26148D01*
X36388Y26157D01*
X36950D01*
X37009Y26169D01*
X37058Y26202D01*
X37448Y26592D01*
X37481Y26641D01*
X37493Y26700D01*
Y26752D01*
X37496Y26758D01*
X37496Y26758D01*
X37566Y26719D01*
Y23315D01*
X33570D01*
X33549Y23320D01*
X33105Y23764D01*
X33092Y23828D01*
X33042Y23902D01*
X32968Y23952D01*
X32880Y23969D01*
Y24450D01*
Y25320D01*
X32945Y25347D01*
X33938Y24353D01*
X33934Y24320D01*
X33948Y24212D01*
X33990Y24112D01*
X34056Y24026D01*
X34142Y23960D01*
X34242Y23918D01*
X34350Y23904D01*
X34458Y23918D01*
X34558Y23960D01*
X34644Y24026D01*
X34710Y24112D01*
X34752Y24212D01*
X34766Y24320D01*
X34752Y24428D01*
X34710Y24528D01*
X34644Y24614D01*
X34558Y24680D01*
X34458Y24722D01*
X34350Y24736D01*
X34242Y24722D01*
X34175Y24694D01*
X33079Y25789D01*
Y32205D01*
X33078Y32210D01*
X33689Y32821D01*
X38393D01*
Y32677D01*
X38907D01*
Y32821D01*
X39973D01*
X40010Y32751D01*
X39988Y32718D01*
X39971Y32630D01*
X39973Y32619D01*
X39767Y32413D01*
X39740D01*
X39716Y32408D01*
X39710Y32409D01*
X39622Y32392D01*
X39548Y32342D01*
X39498Y32268D01*
X39481Y32180D01*
X39498Y32092D01*
X39548Y32018D01*
X39622Y31968D01*
X39710Y31951D01*
X39798Y31968D01*
X39872Y32018D01*
X39922Y32092D01*
X39933Y32149D01*
X39938Y32152D01*
X40189Y32403D01*
X40200Y32401D01*
X40288Y32418D01*
X40362Y32468D01*
X40412Y32542D01*
X40429Y32630D01*
X40412Y32718D01*
X40390Y32751D01*
X40427Y32821D01*
X41745D01*
X41798Y32832D01*
X42015Y32615D01*
D02*
G37*
G36*
X38320Y33825D02*
Y33229D01*
X37300D01*
Y33670D01*
X38266Y33869D01*
X38320Y33825D01*
D02*
G37*
G36*
X43100Y28650D02*
X43150Y28600D01*
X43341D01*
X43353Y28551D01*
X43350Y28550D01*
Y27500D01*
X43200D01*
X43150Y27450D01*
Y27250D01*
Y24300D01*
X42768Y23918D01*
X41508Y25178D01*
X41459Y25211D01*
X41400Y25223D01*
X40543D01*
X40335Y25431D01*
Y25755D01*
X40101D01*
X39607Y26249D01*
X39609Y26260D01*
X39592Y26348D01*
X39542Y26422D01*
X39468Y26472D01*
X39380Y26489D01*
X39292Y26472D01*
X39218Y26422D01*
X39168Y26348D01*
X39151Y26260D01*
X39168Y26172D01*
X39218Y26098D01*
X39292Y26048D01*
X39380Y26031D01*
X39391Y26033D01*
X39825Y25599D01*
Y25205D01*
X40129D01*
X40315Y25018D01*
X40295Y24968D01*
X39984D01*
X39194Y25759D01*
X39182Y25818D01*
X39132Y25892D01*
X39058Y25942D01*
X38970Y25959D01*
X38907Y25947D01*
X38635Y26219D01*
X38521Y26105D01*
X38476Y26123D01*
X38472Y26166D01*
X38668Y26363D01*
X38701Y26413D01*
X38713Y26471D01*
Y27630D01*
X38763Y27645D01*
X38788Y27608D01*
X38862Y27558D01*
X38950Y27541D01*
X38959Y27542D01*
X39808Y26694D01*
X39808Y26692D01*
X39858Y26618D01*
X39932Y26568D01*
X40020Y26551D01*
X40108Y26568D01*
X40174Y26612D01*
X40207Y26599D01*
X40218Y26591D01*
X40223Y26540D01*
X40082Y26398D01*
X40049Y26349D01*
X40037Y26290D01*
X40049Y26231D01*
X40082Y26182D01*
X40131Y26149D01*
X40190Y26137D01*
X40249Y26149D01*
X40298Y26182D01*
X40436Y26319D01*
X40490Y26303D01*
X40498Y26262D01*
X40548Y26188D01*
X40622Y26138D01*
X40710Y26121D01*
X40743Y26127D01*
X40751Y26120D01*
X40768Y26032D01*
X40818Y25958D01*
X40892Y25908D01*
X40980Y25891D01*
X41068Y25908D01*
X41142Y25958D01*
X41192Y26032D01*
X41209Y26120D01*
X41206Y26139D01*
X42111Y27045D01*
X42178Y27058D01*
X42252Y27108D01*
X42302Y27182D01*
X42319Y27270D01*
X42302Y27358D01*
X42252Y27432D01*
X42178Y27482D01*
X42090Y27499D01*
X42002Y27482D01*
X41928Y27432D01*
X41878Y27358D01*
X41861Y27270D01*
X41868Y27234D01*
X41015Y26382D01*
X40960Y26395D01*
X40956Y26410D01*
X41098Y26552D01*
X41131Y26601D01*
X41143Y26660D01*
Y28370D01*
X41131Y28429D01*
X41098Y28478D01*
X40917Y28659D01*
X40919Y28670D01*
X40902Y28758D01*
X40852Y28832D01*
X40778Y28882D01*
X40753Y28887D01*
X40739Y28907D01*
X40733Y28942D01*
X40751Y28963D01*
X40828Y28978D01*
X40902Y29028D01*
X40952Y29102D01*
X40969Y29187D01*
X40972Y29188D01*
X41060Y29171D01*
X41148Y29188D01*
X41222Y29238D01*
X41263Y29299D01*
X41319Y29313D01*
X41508Y29125D01*
X41501Y29090D01*
X41518Y29002D01*
X41568Y28928D01*
X41642Y28878D01*
X41730Y28861D01*
X41818Y28878D01*
X41892Y28928D01*
X41942Y29002D01*
X41959Y29090D01*
X41942Y29178D01*
X41892Y29252D01*
X41818Y29302D01*
X41750Y29315D01*
X40967Y30098D01*
X40917Y30131D01*
X40859Y30143D01*
X40558D01*
X40552Y30152D01*
X40478Y30202D01*
X40390Y30219D01*
X40302Y30202D01*
X40228Y30152D01*
X40178Y30078D01*
X40161Y29990D01*
X40178Y29902D01*
X40195Y29877D01*
X40171Y29833D01*
X39911D01*
X39867Y29824D01*
X39842Y29870D01*
X41922Y31950D01*
X43100D01*
Y28650D01*
D02*
G37*
%LPC*%
G36*
X35350Y26736D02*
X35242Y26722D01*
X35142Y26680D01*
X35056Y26614D01*
X34990Y26528D01*
X34948Y26428D01*
X34934Y26320D01*
X34948Y26212D01*
X34990Y26112D01*
X35056Y26026D01*
X35142Y25960D01*
X35242Y25918D01*
X35350Y25904D01*
X35458Y25918D01*
X35558Y25960D01*
X35644Y26026D01*
X35710Y26112D01*
X35752Y26212D01*
X35766Y26320D01*
X35752Y26428D01*
X35710Y26528D01*
X35644Y26614D01*
X35558Y26680D01*
X35458Y26722D01*
X35350Y26736D01*
D02*
G37*
G36*
X38907Y32483D02*
X38393D01*
Y32047D01*
X38393Y32047D01*
X38393D01*
X38408Y31977D01*
X38401Y31940D01*
X38418Y31852D01*
X38468Y31778D01*
X38542Y31728D01*
X38630Y31711D01*
X38718Y31728D01*
X38792Y31778D01*
X38842Y31852D01*
X38859Y31940D01*
X38852Y31977D01*
X38907Y32047D01*
X38907D01*
Y32483D01*
D02*
G37*
%LPD*%
D10*
X37625Y28080D02*
D03*
X38255D02*
D03*
X34255Y28590D02*
D03*
X34885D02*
D03*
D16*
X34170Y24320D02*
Y24410D01*
X37770Y23112D02*
X41739D01*
X33468D02*
X37770D01*
X33468Y21750D02*
Y23112D01*
X33605Y33025D02*
X41745D01*
X32875Y32295D02*
X33605Y33025D01*
X35210Y30740D02*
X35330D01*
X35960Y30110D01*
X41745Y33025D02*
X42130Y33410D01*
X32875Y25705D02*
Y32205D01*
X32700Y32380D02*
X32875Y32205D01*
X31500Y32380D02*
X32700D01*
X32875Y25705D02*
X34170Y24410D01*
X31500Y23719D02*
X32861D01*
X37485Y27355D02*
X37770Y27070D01*
Y23112D02*
Y27070D01*
X42120Y21760D02*
Y22730D01*
X41739Y23112D02*
X42120Y22730D01*
X42130Y33410D02*
Y34348D01*
X35960Y29445D02*
Y30110D01*
X36490Y29870D02*
X37400Y28960D01*
X37185Y27355D02*
X37485D01*
X37125Y28075D02*
X37520D01*
X37525Y28070D01*
X37120D02*
X37125Y28075D01*
X36910Y28070D02*
X37120D01*
X36900Y27640D02*
X37185Y27355D01*
X36900Y27640D02*
Y28260D01*
X36910D02*
Y28495D01*
X36297Y29107D02*
X36910Y28495D01*
X35960Y29445D02*
X36297Y29107D01*
X42120Y21760D02*
X42130Y21750D01*
D17*
X34110Y32140D02*
X34800D01*
X35020Y32360D01*
X33375Y31405D02*
X34110Y32140D01*
X33355Y30355D02*
X33888Y29822D01*
X33375Y30866D02*
Y31405D01*
X33355Y30355D02*
Y30714D01*
X33375Y30866D02*
X33400Y30841D01*
Y30759D02*
Y30841D01*
X33355Y30714D02*
X33400Y30759D01*
X33630Y30600D02*
X34890Y29340D01*
X35270Y29300D02*
Y29360D01*
X38318Y26229D02*
X38560Y26471D01*
X38318Y25822D02*
X39530Y24610D01*
X38318Y25822D02*
Y26229D01*
X40980Y26120D02*
Y26130D01*
X40690Y28670D02*
X40990Y28370D01*
Y26660D02*
Y28370D01*
X40680Y26350D02*
X40990Y26660D01*
X40415Y28556D02*
X40720Y28251D01*
Y26820D02*
Y28251D01*
X40190Y26290D02*
X40720Y26820D01*
X40980Y26130D02*
X42110Y27260D01*
X40859Y29990D02*
X41744Y29104D01*
X40680Y26350D02*
X40710D01*
X38950Y27768D02*
X39938Y26780D01*
X40020D01*
X40480Y25070D02*
X41400D01*
X40060Y25490D02*
X40480Y25070D01*
X39530Y24580D02*
Y24610D01*
X39380Y26260D02*
X40060Y25580D01*
Y25490D02*
Y25580D01*
X40390Y29990D02*
X40859D01*
X39911Y29680D02*
X40780D01*
X39830Y32260D02*
X40200Y32630D01*
X40780Y29680D02*
X41060Y29400D01*
X39050Y28819D02*
X39911Y29680D01*
X38630Y32245D02*
X38650Y32265D01*
X38630Y31940D02*
Y32245D01*
X37695Y28515D02*
Y29440D01*
X35652Y31483D02*
X37695Y29440D01*
X33888Y25782D02*
Y29822D01*
Y25782D02*
X34350Y25320D01*
X35630Y24840D02*
X35920Y24550D01*
X34910Y24840D02*
X35630D01*
X34540Y25210D02*
X34910Y24840D01*
X35920Y24120D02*
Y24550D01*
X35430Y23630D02*
X35920Y24120D01*
X34420Y25210D02*
X34540D01*
X34350Y25140D02*
X34420Y25210D01*
X34350Y25140D02*
Y25320D01*
X39710Y32180D02*
Y32230D01*
X39740Y32260D01*
X39830D01*
X39380Y30118D02*
X40828Y31567D01*
X37120Y31040D02*
X38600D01*
X37880Y30490D02*
X38210Y30160D01*
X37460Y30490D02*
X37880D01*
X37970Y29250D02*
X38490Y29770D01*
Y30500D01*
X37695Y28515D02*
X37930Y28280D01*
X37330Y27680D02*
X37770D01*
X37260Y27750D02*
X37330Y27680D01*
X37340Y26700D02*
Y26990D01*
X36950Y26310D02*
X37340Y26700D01*
X37770Y27680D02*
X37930Y27840D01*
X37970Y28900D02*
Y29250D01*
X38300Y28670D02*
X38520D01*
X38300D02*
X38310Y28660D01*
X37930Y28280D02*
X38310Y28660D01*
X37930Y27840D02*
Y28280D01*
X39050Y28319D02*
Y28819D01*
X38560Y27829D02*
X39050Y28319D01*
X38560Y26471D02*
Y27829D01*
X40415Y28875D02*
X40730Y29190D01*
X40415Y28556D02*
Y28875D01*
X40410Y29350D02*
Y29370D01*
X40730Y29190D02*
X40740D01*
X38950Y27768D02*
Y27770D01*
X39280Y28220D02*
X40410Y29350D01*
X39280Y28160D02*
Y28220D01*
X35630Y29097D02*
Y29535D01*
X34630Y30535D02*
X35630Y29535D01*
X34630Y30535D02*
Y30550D01*
X33650Y30980D02*
X35270Y29360D01*
X34982Y28682D02*
X35600D01*
X34820Y28520D02*
X34982Y28682D01*
X36220Y26310D02*
X36950D01*
X35090Y28140D02*
X35115Y28165D01*
X36485D02*
X36520Y28130D01*
X35850Y25320D02*
X36570Y24600D01*
X35350Y25320D02*
X35850D01*
X41400Y25070D02*
X42751Y23719D01*
X44098D01*
X36600Y34330D02*
X36618Y34348D01*
X35115Y28165D02*
X36485D01*
X34600Y28540D02*
X34800D01*
X34820Y28520D01*
X34630Y30885D02*
X34645Y30900D01*
X34630Y30550D02*
Y30885D01*
X30713Y33561D02*
X32287Y35136D01*
X30713Y22537D02*
Y33561D01*
Y22537D02*
X32287Y20963D01*
X43311D01*
X44886Y22537D01*
Y33561D01*
X43311Y35136D02*
X44886Y33561D01*
X32287Y35136D02*
X43311D01*
D18*
X38970Y25730D02*
X39910Y24790D01*
X38825Y29105D02*
X42100Y32380D01*
X38435Y28080D02*
X38825Y28470D01*
X38255Y28080D02*
X38435D01*
X38825Y28470D02*
Y29105D01*
X38200Y26500D02*
Y27980D01*
X38663Y25883D02*
X38815Y25730D01*
X38970D01*
X42100Y32380D02*
X44098D01*
X39910Y24790D02*
X40350D01*
D23*
X42130Y34348D02*
D03*
X33468D02*
D03*
X33469Y21750D02*
D03*
X42130D02*
D03*
D24*
X41343Y34152D02*
D03*
X40555D02*
D03*
X39768D02*
D03*
X38980D02*
D03*
X36618D02*
D03*
X35831D02*
D03*
X35043D02*
D03*
X34256D02*
D03*
Y21947D02*
D03*
X35043D02*
D03*
X35831D02*
D03*
X36618D02*
D03*
X38980D02*
D03*
X39768D02*
D03*
X40555D02*
D03*
X41343D02*
D03*
D25*
X37799Y34348D02*
D03*
Y21750D02*
D03*
D26*
X44098Y32380D02*
D03*
Y23719D02*
D03*
X31500Y23719D02*
D03*
Y32380D02*
D03*
D27*
X43902Y31593D02*
D03*
Y30805D02*
D03*
Y30018D02*
D03*
Y29230D02*
D03*
Y26868D02*
D03*
Y26081D02*
D03*
Y25293D02*
D03*
Y24506D02*
D03*
X31697D02*
D03*
Y25293D02*
D03*
Y26081D02*
D03*
Y26868D02*
D03*
Y29230D02*
D03*
Y30018D02*
D03*
Y30805D02*
D03*
Y31593D02*
D03*
D28*
X44098Y28049D02*
D03*
X31500D02*
D03*
D29*
X35350Y26320D02*
D03*
Y25320D02*
D03*
X34350Y24320D02*
D03*
Y25320D02*
D03*
Y26320D02*
D03*
D30*
X35350Y24320D02*
D03*
D31*
X35020Y32360D02*
D03*
X35370Y31600D02*
D03*
X35210Y30740D02*
D03*
X37490Y32530D02*
D03*
X34890Y29340D02*
D03*
X35270Y29300D02*
D03*
X41600Y24260D02*
D03*
X41970Y23910D02*
D03*
X42140Y24830D02*
D03*
X42560Y24540D02*
D03*
X40980Y26120D02*
D03*
X41730Y29090D02*
D03*
X42090Y27270D02*
D03*
X40710Y26350D02*
D03*
X40450Y26590D02*
D03*
X40020Y26780D02*
D03*
X39530Y24580D02*
D03*
X40390Y29990D02*
D03*
X40200Y32630D02*
D03*
X43030Y28400D02*
D03*
X42540Y28420D02*
D03*
X42520Y27590D02*
D03*
X43030Y27610D02*
D03*
X38630Y31940D02*
D03*
X33550Y33030D02*
D03*
X38100Y32470D02*
D03*
X38140Y33350D02*
D03*
X37510Y33370D02*
D03*
X33500Y23100D02*
D03*
X32880Y23740D02*
D03*
X35770Y24720D02*
D03*
X35430Y23630D02*
D03*
X33200Y28370D02*
D03*
Y27770D02*
D03*
X32540Y28370D02*
D03*
X32520Y27780D02*
D03*
X37370Y24130D02*
D03*
Y23480D02*
D03*
X38190Y24131D02*
D03*
X38160Y23510D02*
D03*
X39710Y32180D02*
D03*
X40860Y31600D02*
D03*
X39380Y30118D02*
D03*
X37120Y31040D02*
D03*
X38600D02*
D03*
X37460Y30490D02*
D03*
X38490Y30500D02*
D03*
X38210Y30160D02*
D03*
X36490Y29870D02*
D03*
X37400Y28960D02*
D03*
X37340Y26990D02*
D03*
X37260Y27750D02*
D03*
X37970Y28900D02*
D03*
X38520Y28670D02*
D03*
X38850Y27200D02*
D03*
X39990Y29370D02*
D03*
X40690Y28670D02*
D03*
X39610Y29380D02*
D03*
X40410Y29370D02*
D03*
X40740Y29190D02*
D03*
X41060Y29400D02*
D03*
X38950Y27770D02*
D03*
X39280Y28160D02*
D03*
X36910Y28240D02*
D03*
X35950Y29550D02*
D03*
X35630Y29097D02*
D03*
X35600Y28682D02*
D03*
X36220Y26310D02*
D03*
X35090Y28140D02*
D03*
X36520Y28130D02*
D03*
X33650Y30980D02*
D03*
X33630Y30600D02*
D03*
X39630Y26530D02*
D03*
X39380Y26260D02*
D03*
X38970Y25730D02*
D03*
X36570Y24600D02*
D03*
X34600Y28540D02*
D03*
X34630Y30550D02*
D03*
X38200Y26500D02*
D03*
D32*
X38663Y25883D02*
D03*
X38217Y25437D02*
D03*
X39163Y25383D02*
D03*
X38717Y24937D02*
D03*
X36743Y29553D02*
D03*
X36297Y29107D02*
D03*
X37103Y29203D02*
D03*
X36657Y28757D02*
D03*
D33*
X41477Y32193D02*
D03*
X41923Y31747D02*
D03*
D34*
X38650Y32265D02*
D03*
Y32895D02*
D03*
X34650Y30825D02*
D03*
Y31455D02*
D03*
D35*
X40080Y25480D02*
D03*
X40820D02*
D03*
X40450Y24690D02*
D03*
D36*
X43340Y28045D02*
D03*
M02*
