%FSLAX24Y24*%
%MOIN*%
G70*
G01*
G75*
G04 Layer_Physical_Order=1*
G04 Layer_Color=255*
%ADD10R,0.0236X0.0315*%
G04:AMPARAMS|DCode=11|XSize=15.7mil|YSize=59.1mil|CornerRadius=0mil|HoleSize=0mil|Usage=FLASHONLY|Rotation=315.000|XOffset=0mil|YOffset=0mil|HoleType=Round|Shape=Rectangle|*
%AMROTATEDRECTD11*
4,1,4,-0.0264,-0.0153,0.0153,0.0264,0.0264,0.0153,-0.0153,-0.0264,-0.0264,-0.0153,0.0*
%
%ADD11ROTATEDRECTD11*%

G04:AMPARAMS|DCode=12|XSize=15.7mil|YSize=59.1mil|CornerRadius=0mil|HoleSize=0mil|Usage=FLASHONLY|Rotation=45.000|XOffset=0mil|YOffset=0mil|HoleType=Round|Shape=Rectangle|*
%AMROTATEDRECTD12*
4,1,4,0.0153,-0.0264,-0.0264,0.0153,-0.0153,0.0264,0.0264,-0.0153,0.0153,-0.0264,0.0*
%
%ADD12ROTATEDRECTD12*%

G04:AMPARAMS|DCode=13|XSize=15.7mil|YSize=59.1mil|CornerRadius=0mil|HoleSize=0mil|Usage=FLASHONLY|Rotation=45.000|XOffset=0mil|YOffset=0mil|HoleType=Round|Shape=Round|*
%AMOVALD13*
21,1,0.0433,0.0157,0.0000,0.0000,135.0*
1,1,0.0157,0.0153,-0.0153*
1,1,0.0157,-0.0153,0.0153*
%
%ADD13OVALD13*%

%ADD14R,0.0450X0.0450*%
%ADD15R,0.0472X0.1457*%
%ADD16C,0.0200*%
%ADD17C,0.0100*%
%ADD18C,0.0150*%
%ADD19R,0.0540X0.0670*%
%ADD20R,0.1080X0.0760*%
%ADD21R,0.1260X0.1080*%
%ADD22R,0.0820X0.1791*%
%ADD23R,0.0394X0.1575*%
%ADD24R,0.0394X0.1181*%
%ADD25R,0.1181X0.1575*%
%ADD26R,0.1575X0.0394*%
%ADD27R,0.1181X0.0394*%
%ADD28R,0.1575X0.1181*%
%ADD29C,0.0625*%
G04:AMPARAMS|DCode=30|XSize=62.5mil|YSize=62.5mil|CornerRadius=0mil|HoleSize=0mil|Usage=FLASHONLY|Rotation=180.000|XOffset=0mil|YOffset=0mil|HoleType=Round|Shape=Octagon|*
%AMOCTAGOND30*
4,1,8,-0.0313,0.0156,-0.0313,-0.0156,-0.0156,-0.0313,0.0156,-0.0313,0.0313,-0.0156,0.0313,0.0156,0.0156,0.0313,-0.0156,0.0313,-0.0313,0.0156,0.0*
%
%ADD30OCTAGOND30*%

%ADD31C,0.0250*%
G36*
X43150Y26680D02*
Y26255D01*
X42562D01*
X42151Y26665D01*
X42172Y26715D01*
X43115D01*
X43150Y26680D01*
D02*
G37*
G36*
X38723Y27781D02*
X38721Y27770D01*
X38738Y27682D01*
X38788Y27608D01*
X38862Y27558D01*
X38950Y27541D01*
X39026Y27556D01*
X39076Y27528D01*
Y27321D01*
X39079Y27306D01*
X39015Y27241D01*
X39574Y26682D01*
X39757Y26865D01*
X39803Y26840D01*
X39791Y26780D01*
X39808Y26692D01*
X39858Y26618D01*
X39932Y26568D01*
X40020Y26551D01*
X40108Y26568D01*
X40174Y26612D01*
X40207Y26599D01*
X40218Y26591D01*
X40223Y26540D01*
X39817Y26133D01*
X39621D01*
X39594Y26183D01*
X39609Y26260D01*
X39592Y26348D01*
X39542Y26422D01*
X39468Y26472D01*
X39427Y26480D01*
X39381Y26490D01*
X39381Y26490D01*
X39381D01*
X38822Y27049D01*
X38570Y26796D01*
X38420Y26646D01*
X38370Y26651D01*
X38362Y26662D01*
X38300Y26704D01*
Y28138D01*
X38346Y28158D01*
X38723Y27781D01*
D02*
G37*
G36*
X43100Y28650D02*
X43150Y28600D01*
X43341D01*
X43353Y28551D01*
X43350Y28550D01*
Y27500D01*
X43200D01*
X43150Y27450D01*
Y27250D01*
Y27021D01*
X42212D01*
X42197Y27071D01*
X42252Y27108D01*
X42302Y27182D01*
X42319Y27270D01*
X42302Y27358D01*
X42252Y27432D01*
X42243Y27438D01*
Y28690D01*
X42231Y28749D01*
X42198Y28798D01*
X41951Y29046D01*
X41959Y29090D01*
X41946Y29157D01*
X41978Y29207D01*
X43100D01*
Y28650D01*
D02*
G37*
G36*
X33626Y29602D02*
X33582Y29558D01*
X33549Y29509D01*
X33537Y29450D01*
Y27273D01*
X33285Y27021D01*
X32880D01*
Y29096D01*
X32918Y29122D01*
X33463Y29667D01*
X33599D01*
X33626Y29602D01*
D02*
G37*
G36*
X39886Y25803D02*
X39892Y25779D01*
X38891Y24777D01*
X38840D01*
X38217Y25400D01*
Y25747D01*
X38233D01*
X38274Y25755D01*
X38460Y25569D01*
X38670Y25778D01*
X38746Y25701D01*
X38758Y25642D01*
X38808Y25568D01*
X38882Y25518D01*
X38970Y25501D01*
X39058Y25518D01*
X39132Y25568D01*
X39182Y25642D01*
X39199Y25730D01*
X39190Y25778D01*
X39231Y25827D01*
X39870D01*
X39886Y25803D01*
D02*
G37*
G36*
X40710Y26121D02*
X40743Y26127D01*
X40751Y26120D01*
X40768Y26032D01*
X40818Y25958D01*
X40827Y25952D01*
Y25307D01*
X40637D01*
Y24793D01*
X40827D01*
Y23420D01*
X40320D01*
X39921Y23819D01*
Y24342D01*
X39909Y24401D01*
X39876Y24450D01*
X39757Y24569D01*
X39759Y24580D01*
X39742Y24668D01*
X39692Y24742D01*
X39618Y24792D01*
X39530Y24809D01*
X39442Y24792D01*
X39368Y24742D01*
X39318Y24668D01*
X39301Y24580D01*
X39318Y24492D01*
X39368Y24418D01*
X39442Y24368D01*
X39530Y24351D01*
X39541Y24353D01*
X39615Y24279D01*
Y24172D01*
X39570Y24150D01*
X39121Y24504D01*
X39117Y24571D01*
X40674Y26128D01*
X40710Y26121D01*
D02*
G37*
G36*
X37840Y25502D02*
Y25470D01*
X37950D01*
X38774Y24646D01*
X38769Y24639D01*
X38757Y24580D01*
Y23110D01*
X36771D01*
Y24496D01*
X36782Y24512D01*
X36788Y24541D01*
X37775Y25529D01*
X37840Y25502D01*
D02*
G37*
G36*
X34976Y26882D02*
X34722Y26628D01*
X34689Y26579D01*
X34677Y26520D01*
Y26153D01*
X34507Y25983D01*
X33720D01*
X33661Y25971D01*
X33612Y25938D01*
X32964Y25290D01*
X32894Y25317D01*
X32889Y25362D01*
X34473Y26947D01*
X34949D01*
X34976Y26882D01*
D02*
G37*
G36*
X43150Y24487D02*
Y24077D01*
X42493Y23420D01*
X41495D01*
Y24793D01*
X41703D01*
Y25307D01*
X41495D01*
Y26076D01*
X41542Y26095D01*
X43150Y24487D01*
D02*
G37*
G36*
X41470Y29174D02*
X41507Y29122D01*
X41501Y29090D01*
X41518Y29002D01*
X41568Y28928D01*
X41642Y28878D01*
X41696Y28867D01*
X41937Y28627D01*
Y27438D01*
X41928Y27432D01*
X41887Y27371D01*
X41831Y27357D01*
X40777Y28411D01*
X40791Y28467D01*
X40852Y28508D01*
X40902Y28582D01*
X40915Y28650D01*
X41442Y29177D01*
X41470Y29174D01*
D02*
G37*
G36*
X43100Y30863D02*
X41970D01*
X41954Y30887D01*
X41948Y30911D01*
X42476Y31440D01*
X43100D01*
Y30863D01*
D02*
G37*
G36*
X37757Y30627D02*
Y30509D01*
X37687Y30502D01*
X37672Y30578D01*
X37622Y30652D01*
X37548Y30702D01*
X37481Y30715D01*
X37358Y30838D01*
X37309Y30871D01*
X37250Y30883D01*
X36920D01*
X36855Y30895D01*
Y31442D01*
X36942D01*
X37757Y30627D01*
D02*
G37*
G36*
X38827Y32790D02*
X38839Y32731D01*
X38872Y32682D01*
X39054Y32500D01*
X39027Y32435D01*
X38855D01*
Y32128D01*
X38754D01*
X38718Y32152D01*
X38630Y32169D01*
X38542Y32152D01*
X38468Y32102D01*
X38418Y32028D01*
X38401Y31940D01*
X38418Y31852D01*
X38468Y31778D01*
X38542Y31728D01*
X38630Y31711D01*
X38718Y31728D01*
X38789Y31776D01*
X38855Y31785D01*
X38855Y31785D01*
X38855Y31785D01*
X39505D01*
X39557Y31742D01*
Y30355D01*
X39487Y30317D01*
X39468Y30330D01*
X39380Y30348D01*
X39292Y30330D01*
X39218Y30280D01*
X39168Y30206D01*
X39151Y30118D01*
X39159Y30077D01*
X38959Y29877D01*
X38889D01*
X38683Y30083D01*
X38547Y30219D01*
X38568Y30286D01*
X38578Y30288D01*
X38652Y30338D01*
X38702Y30412D01*
X38719Y30500D01*
X38702Y30588D01*
X38652Y30662D01*
X38578Y30712D01*
X38490Y30729D01*
X38479Y30727D01*
X37863Y31343D01*
Y31603D01*
X37933D01*
Y32117D01*
X37650D01*
X36776Y32992D01*
Y33200D01*
X38827D01*
Y32790D01*
D02*
G37*
G36*
X36470Y32928D02*
X36481Y32870D01*
X36515Y32820D01*
X37153Y32182D01*
X37126Y32117D01*
X36867D01*
Y32098D01*
X36797Y32069D01*
X36681Y32185D01*
X36671Y32236D01*
X36638Y32285D01*
X36526Y32397D01*
X36477Y32430D01*
X36418Y32442D01*
X36360Y32430D01*
X36310Y32397D01*
X36277Y32348D01*
X36265Y32289D01*
X36277Y32231D01*
X36310Y32181D01*
X36379Y32112D01*
X36389Y32061D01*
X36422Y32012D01*
X36616Y31818D01*
X36587Y31748D01*
X36258D01*
X35955Y32051D01*
Y33200D01*
X36470D01*
Y32928D01*
D02*
G37*
G36*
X43100Y30063D02*
X41600D01*
X41579Y30113D01*
X42023Y30557D01*
X43100D01*
Y30063D01*
D02*
G37*
G36*
X38822Y28826D02*
X38822Y28826D01*
X39015Y28633D01*
X39015Y28633D01*
X39225Y28423D01*
X39210Y28376D01*
X39192Y28372D01*
X39118Y28322D01*
X39068Y28248D01*
X39051Y28160D01*
X39068Y28072D01*
X39076Y28060D01*
Y28012D01*
X39026Y27984D01*
X38950Y27999D01*
X38939Y27997D01*
X38542Y28394D01*
X38559Y28448D01*
X38608Y28458D01*
X38682Y28508D01*
X38732Y28582D01*
X38749Y28670D01*
X38732Y28758D01*
X38726Y28766D01*
X38804Y28844D01*
X38822Y28826D01*
D02*
G37*
G36*
X36890Y29849D02*
X36871Y29830D01*
X37430Y29271D01*
X37477Y29318D01*
X37540Y29286D01*
X37542Y29284D01*
Y27844D01*
X37472Y27837D01*
X37472Y27838D01*
X37422Y27912D01*
X37348Y27962D01*
X37260Y27979D01*
X37172Y27962D01*
X37098Y27912D01*
X37068Y27868D01*
X36985Y27852D01*
X36895Y27942D01*
X36902Y27974D01*
X36923Y28013D01*
X36998Y28028D01*
X37072Y28078D01*
X37122Y28152D01*
X37139Y28240D01*
X37122Y28328D01*
X37072Y28402D01*
X37071Y28413D01*
X37218Y28559D01*
X37218Y28559D01*
X37262Y28626D01*
X37278Y28704D01*
X37278Y28704D01*
Y28939D01*
X37262Y29017D01*
X37247Y29040D01*
X37236Y29094D01*
X37192Y29160D01*
X36976Y29376D01*
X36910Y29420D01*
X36893Y29424D01*
X36679Y29638D01*
X36426Y29385D01*
X36640Y29171D01*
X36643Y29154D01*
X36688Y29088D01*
X36852Y28923D01*
X36859Y28887D01*
X36870Y28871D01*
Y28788D01*
X36754Y28672D01*
X36578Y28847D01*
X36575Y28864D01*
X36531Y28931D01*
X36159Y29302D01*
Y29458D01*
X36162Y29462D01*
X36179Y29550D01*
X36162Y29638D01*
X36112Y29712D01*
X36038Y29762D01*
X36029Y29764D01*
X36006Y29840D01*
X36263Y30097D01*
X36641D01*
X36890Y29849D01*
D02*
G37*
G36*
X43100Y31745D02*
X42413D01*
X42354Y31734D01*
X42304Y31701D01*
X40653Y30049D01*
X40605Y30063D01*
X40602Y30078D01*
X40552Y30152D01*
X40543Y30158D01*
Y30593D01*
X41900Y31950D01*
X43100D01*
Y31745D01*
D02*
G37*
G36*
Y29513D02*
X41430D01*
X41409Y29563D01*
X41603Y29757D01*
X43100D01*
Y29513D01*
D02*
G37*
D10*
X37085Y31860D02*
D03*
X37715D02*
D03*
X35925Y31210D02*
D03*
X35295D02*
D03*
X41485Y25050D02*
D03*
X40855D02*
D03*
D11*
X38307Y29900D02*
D03*
X38530Y29677D02*
D03*
X38753Y29455D02*
D03*
X38975Y29232D02*
D03*
X39198Y29009D02*
D03*
X39421Y28786D02*
D03*
X39644Y28564D02*
D03*
X39866Y28341D02*
D03*
X37500Y25975D02*
D03*
X37277Y26197D02*
D03*
X37055Y26420D02*
D03*
X36832Y26643D02*
D03*
X36609Y26866D02*
D03*
X36386Y27088D02*
D03*
X36164Y27311D02*
D03*
X35941Y27534D02*
D03*
D12*
X39866D02*
D03*
X39644Y27311D02*
D03*
X39421Y27088D02*
D03*
X39198Y26866D02*
D03*
X38975Y26643D02*
D03*
X38753Y26420D02*
D03*
X38530Y26197D02*
D03*
X38307Y25975D02*
D03*
X35941Y28341D02*
D03*
X36164Y28564D02*
D03*
X36386Y28786D02*
D03*
X36609Y29009D02*
D03*
X36832Y29232D02*
D03*
X37055Y29455D02*
D03*
X37277Y29677D02*
D03*
D13*
X37500Y29900D02*
D03*
D14*
X39180Y32110D02*
D03*
Y31210D02*
D03*
X36530Y32120D02*
D03*
Y31220D02*
D03*
D15*
X34110Y30962D02*
D03*
Y28718D02*
D03*
D16*
X32880Y23740D02*
X33150Y23470D01*
X33500D01*
X34350Y24320D01*
X33500Y23100D02*
Y23470D01*
X33560Y32840D02*
X35210Y31190D01*
X33560Y32840D02*
Y34257D01*
X35210Y30740D02*
Y31190D01*
X33468Y34348D02*
X33560Y34257D01*
X37348Y29089D02*
Y29213D01*
Y29089D02*
X37374Y29063D01*
Y28986D02*
Y29063D01*
Y28986D02*
X37400Y28960D01*
X37074Y28704D02*
Y28939D01*
X37048Y28965D02*
X37074Y28939D01*
X37048Y28965D02*
Y29016D01*
X36832Y29232D02*
X37048Y29016D01*
X36741Y29819D02*
X37348Y29213D01*
X36275Y29520D02*
X36574Y29819D01*
X36741D01*
X36833Y28463D02*
X37074Y28704D01*
X36833Y28340D02*
Y28463D01*
X36275Y29343D02*
Y29520D01*
Y29343D02*
X36609Y29009D01*
X35955Y29218D02*
X36386Y28786D01*
X35955Y29218D02*
Y29545D01*
X35950Y29550D02*
X35955Y29545D01*
D17*
X35020Y32360D02*
Y33912D01*
X35140Y34032D01*
X34960Y34212D02*
X35140Y34032D01*
X34256Y32714D02*
X35370Y31600D01*
X34256Y32714D02*
Y34348D01*
X35535Y31600D02*
X35925Y31210D01*
X35370Y31600D02*
X35535D01*
X36530Y32120D02*
X36790Y31860D01*
X37085D01*
X36623Y32928D02*
X37710Y31841D01*
Y31280D02*
Y31841D01*
Y31280D02*
X38490Y30500D01*
X36195Y31595D02*
X37005D01*
X35802Y31988D02*
X36195Y31595D01*
X35802Y31988D02*
Y34320D01*
X37005Y31595D02*
X37910Y30690D01*
X36623Y32928D02*
Y34344D01*
X37910Y29826D02*
Y30690D01*
X33690Y29450D02*
X33855Y29615D01*
X34890Y28340D02*
X35090Y28140D01*
X33855Y29615D02*
X35004D01*
X35023Y29596D02*
X35546D01*
X35004Y29615D02*
X35023Y29596D01*
X34890Y28340D02*
Y29340D01*
X35270Y28480D02*
Y29300D01*
X35430Y29820D02*
X36090Y30480D01*
X33400Y29820D02*
X35430D01*
X35270Y30020D02*
X35980Y30730D01*
X31500Y30020D02*
X35270D01*
X35810Y27940D02*
X36280D01*
X35270Y28480D02*
X35810Y27940D01*
X40980Y22395D02*
Y26120D01*
X42090Y27270D02*
Y28690D01*
X41730Y29050D02*
X42090Y28690D01*
X41730Y29050D02*
Y29090D01*
X43969Y29360D02*
X44098Y29230D01*
X41409Y29360D02*
X43969D01*
X40719Y28670D02*
X41409Y29360D01*
X40690Y28670D02*
X40719D01*
X40980Y22395D02*
X40990Y22385D01*
X40660Y22055D02*
X40990Y22385D01*
X38910Y24580D02*
X40680Y26350D01*
X40710D01*
X40450Y26550D02*
Y26590D01*
X39880Y25980D02*
X40450Y26550D01*
X43347Y24506D02*
X44098D01*
X39891Y27080D02*
X40773D01*
X39826Y27145D02*
X39891Y27080D01*
X40773D02*
X43347Y24506D01*
X40120Y26880D02*
X40690D01*
X40020Y26780D02*
X40120Y26880D01*
X41343Y21750D02*
Y26227D01*
X40690Y26880D02*
X41343Y26227D01*
X39818Y27137D02*
X39826Y27145D01*
X39644Y27311D02*
X39818Y27137D01*
X42947Y25293D02*
X44098D01*
X40540Y27700D02*
X42947Y25293D01*
X40033Y27700D02*
X40540D01*
X39866Y27534D02*
X40033Y27700D01*
X42498Y26102D02*
X44098D01*
X40259Y28341D02*
X42498Y26102D01*
X39866Y28341D02*
X40259D01*
X42103Y26868D02*
X44098D01*
X40415Y28556D02*
X42103Y26868D01*
X40660Y22055D02*
X40680Y22035D01*
X40570Y21925D02*
X40680Y22035D01*
X39530Y24580D02*
X39768Y24342D01*
Y21750D02*
Y24342D01*
X40390Y34183D02*
X40555Y34348D01*
X40390Y32829D02*
Y34183D01*
Y32829D02*
X40475Y32744D01*
Y32516D02*
Y32744D01*
X40390Y32431D02*
X40475Y32516D01*
X40390Y29990D02*
Y32431D01*
X40110Y29532D02*
Y32270D01*
X40410Y29590D02*
X42413Y31593D01*
X39780Y33050D02*
X40200Y32630D01*
X39235Y32535D02*
X39844D01*
X39949Y32430D01*
X39950D01*
X40110Y32270D01*
X40410Y29370D02*
Y29590D01*
X42413Y31593D02*
X44098D01*
X41960Y30710D02*
X44003D01*
X40740Y29490D02*
X41960Y30710D01*
X40740Y29190D02*
Y29490D01*
X44003Y30710D02*
X44098Y30805D01*
X43991Y29910D02*
X44098Y30018D01*
X41540Y29910D02*
X43991D01*
X41060Y29430D02*
X41540Y29910D01*
X34960Y34212D02*
X35070Y34322D01*
X35043Y34348D02*
X35070Y34322D01*
X36618Y34348D02*
X36623Y34344D01*
X36418Y32289D02*
X36530Y32177D01*
Y32120D02*
Y32177D01*
X35802Y34320D02*
X35831Y34348D01*
X37893Y29809D02*
X37910Y29826D01*
X37893Y29685D02*
Y29809D01*
Y29685D02*
X37910Y29668D01*
Y29500D02*
Y29668D01*
X37695Y29285D02*
X37910Y29500D01*
X33720Y25830D02*
X34570D01*
X32420Y24530D02*
X33720Y25830D01*
X31524Y24530D02*
X32420D01*
X34200Y27350D02*
X35757D01*
X32931Y26081D02*
X34200Y27350D01*
X31500Y26081D02*
X32931D01*
X33690Y27210D02*
Y29450D01*
X33348Y26868D02*
X33690Y27210D01*
X31500Y26868D02*
X33348D01*
X34410Y27100D02*
X35953D01*
X32603Y25293D02*
X34410Y27100D01*
X31500Y25293D02*
X32603D01*
X34830Y26090D02*
Y26520D01*
X34570Y25830D02*
X34830Y26090D01*
Y26520D02*
X35150Y26840D01*
X36138D01*
X34860Y25520D02*
X35180Y25840D01*
X34860Y24176D02*
Y25520D01*
X34256Y23572D02*
X34860Y24176D01*
X35180Y25840D02*
X36474D01*
X37055Y26420D01*
X34256Y21750D02*
Y23572D01*
X37247Y26197D02*
X37277D01*
X35770Y24720D02*
X37247Y26197D01*
X34350Y25320D02*
X34370D01*
X34170D02*
X34350D01*
X35043Y23243D02*
X35430Y23630D01*
X35043Y21750D02*
Y23243D01*
X35831Y21750D02*
Y23789D01*
X35300Y24320D02*
X35831Y23789D01*
X35757Y27350D02*
X35941Y27534D01*
X38190Y21847D02*
Y24131D01*
X37370Y22179D02*
X38190Y21847D01*
X37370Y22179D02*
Y24130D01*
X39768Y33038D02*
Y34348D01*
Y33038D02*
X39780Y33050D01*
X39710Y29601D02*
X39750Y29561D01*
X39710Y29601D02*
Y32180D01*
X38980Y32790D02*
X39235Y32535D01*
X40860Y31600D02*
X41343Y32083D01*
Y34348D01*
X39330Y30068D02*
X39380Y30118D01*
X39330Y30068D02*
X39348Y30050D01*
X39198Y29009D02*
X39750Y29561D01*
X38980Y32790D02*
Y34348D01*
X39920Y29342D02*
X40110Y29532D01*
X39045Y31975D02*
X39180Y32110D01*
X38640Y31975D02*
X39045D01*
X36620Y31040D02*
X37120D01*
X39010D02*
X39180Y31210D01*
X38600Y31040D02*
X39010D01*
X37250Y30730D02*
X37490Y30490D01*
X37460D02*
X37490D01*
X38210Y30160D02*
X38380Y29990D01*
X35831Y34348D02*
X35990Y34189D01*
X37695Y26170D02*
Y29285D01*
X36200Y30250D02*
X36705D01*
X36090Y30480D02*
X36920D01*
X35546Y29596D02*
X36200Y30250D01*
X36705D02*
X37277Y29677D01*
X36920Y30480D02*
X37144Y30256D01*
X35980Y30730D02*
X37250D01*
X37500Y25975D02*
X37695Y26170D01*
X37340Y26990D02*
X37370Y27020D01*
X37260Y27130D02*
X37370Y27020D01*
X37024Y26854D02*
Y27597D01*
X36832Y26662D02*
X37024Y26854D01*
X36801Y27057D02*
Y27419D01*
X36609Y26866D02*
X36801Y27057D01*
X36520Y28101D02*
Y28130D01*
Y28101D02*
X37024Y27597D01*
X37260Y27130D02*
Y27750D01*
X37925Y28945D02*
X37970Y28900D01*
X37925Y25900D02*
Y28945D01*
X38245Y28475D02*
Y29392D01*
Y28475D02*
X38950Y27770D01*
X38245Y29392D02*
X38530Y29677D01*
X38504Y28760D02*
X38975Y29232D01*
X38850Y27200D02*
X38864D01*
X39990Y29370D02*
X40690Y28670D01*
X40165Y28825D02*
X40415Y28575D01*
X39905Y28825D02*
X40165D01*
X41060Y29400D02*
Y29430D01*
X39229Y27321D02*
Y28109D01*
X39280Y28160D01*
X39229Y27321D02*
X39421Y27129D01*
X35630Y29097D02*
X36164Y28564D01*
X35600Y28682D02*
X35941Y28341D01*
X36832Y26643D02*
Y26662D01*
X36280Y27940D02*
X36801Y27419D01*
X37925Y25900D02*
X38233D01*
X35300Y26310D02*
X36220D01*
X35230Y26380D02*
X35300Y26310D01*
X35170Y26320D02*
X35230Y26380D01*
X36138Y26840D02*
X36386Y27088D01*
X35953Y27100D02*
X36164Y27311D01*
X33037Y31593D02*
X33650Y30980D01*
X33425Y30805D02*
X33630Y30600D01*
X31500Y30805D02*
X33425D01*
X39193Y25980D02*
X39880D01*
X38910Y21820D02*
Y24580D01*
X40570Y21925D02*
X40650Y21845D01*
X39534Y26530D02*
X39630D01*
X39358Y26260D02*
X39380D01*
X38753Y29455D02*
X39348Y30050D01*
X39421Y28786D02*
X39920Y29286D01*
Y29342D01*
X40555Y21750D02*
X40650Y21845D01*
X39198Y26866D02*
X39534Y26530D01*
X43302Y23719D02*
X44098D01*
X38975Y26643D02*
X39358Y26260D01*
X38910Y21820D02*
X38980Y21750D01*
X40415Y28556D02*
Y28575D01*
X38753Y26420D02*
X39193Y25980D01*
X38730Y26420D02*
X38750Y26440D01*
X38380Y29973D02*
Y29990D01*
X38307Y29900D02*
X38380Y29973D01*
X38233Y25900D02*
X38307Y25975D01*
X36618Y24588D02*
X37930Y25900D01*
X36618Y21750D02*
Y24588D01*
X35845Y24320D02*
X37500Y25975D01*
X35170Y24320D02*
X35845D01*
X31500Y24506D02*
X31524Y24530D01*
X33962Y28540D02*
X34600D01*
X33962D02*
X34140Y28718D01*
X31500Y31593D02*
X33037D01*
X34180Y21826D02*
X34256Y21750D01*
X31500Y30018D02*
Y30020D01*
X32810Y29230D02*
X33400Y29820D01*
X37144Y30256D02*
X37500Y29900D01*
X34140Y30962D02*
X34218D01*
X34630Y30550D01*
X34140Y28718D02*
X34222Y28800D01*
X31500Y29230D02*
X32810D01*
X38200Y26500D02*
X38227D01*
X38530Y26197D01*
X39644Y28564D02*
X39905Y28825D01*
X38864Y27200D02*
X39198Y26866D01*
X38730Y26420D02*
X38753D01*
X44098Y26081D02*
Y26102D01*
X30713Y33561D02*
X32287Y35136D01*
X30713Y22537D02*
Y33561D01*
Y22537D02*
X32287Y20963D01*
X43311D01*
X44886Y22537D01*
Y33561D01*
X43311Y35136D02*
X44886Y33561D01*
X32287Y35136D02*
X43311D01*
D18*
X38530Y26170D02*
Y26197D01*
Y26170D02*
X38970Y25730D01*
D19*
X37850Y32765D02*
D03*
D20*
X37830Y33280D02*
D03*
D21*
X32850Y28070D02*
D03*
D22*
X37780Y23235D02*
D03*
D23*
X42130Y34348D02*
D03*
X33468D02*
D03*
X33469Y21750D02*
D03*
X42130D02*
D03*
D24*
X41343Y34152D02*
D03*
X40555D02*
D03*
X39768D02*
D03*
X38980D02*
D03*
X36618D02*
D03*
X35831D02*
D03*
X35043D02*
D03*
X34256D02*
D03*
Y21947D02*
D03*
X35043D02*
D03*
X35831D02*
D03*
X36618D02*
D03*
X38980D02*
D03*
X39768D02*
D03*
X40555D02*
D03*
X41343D02*
D03*
D25*
X37799Y34348D02*
D03*
Y21750D02*
D03*
D26*
X44098Y32380D02*
D03*
Y23719D02*
D03*
X31500Y23719D02*
D03*
Y32380D02*
D03*
D27*
X43902Y31593D02*
D03*
Y30805D02*
D03*
Y30018D02*
D03*
Y29230D02*
D03*
Y26868D02*
D03*
Y26081D02*
D03*
Y25293D02*
D03*
Y24506D02*
D03*
X31697D02*
D03*
Y25293D02*
D03*
Y26081D02*
D03*
Y26868D02*
D03*
Y29230D02*
D03*
Y30018D02*
D03*
Y30805D02*
D03*
Y31593D02*
D03*
D28*
X44098Y28049D02*
D03*
X31500D02*
D03*
D29*
X35350Y26320D02*
D03*
Y25320D02*
D03*
X34350Y24320D02*
D03*
Y25320D02*
D03*
Y26320D02*
D03*
D30*
X35350Y24320D02*
D03*
D31*
X35020Y32360D02*
D03*
X35370Y31600D02*
D03*
X35210Y30740D02*
D03*
X37490Y32530D02*
D03*
X34890Y29340D02*
D03*
X35270Y29300D02*
D03*
X41600Y24260D02*
D03*
X41970Y23910D02*
D03*
X42140Y24830D02*
D03*
X42560Y24540D02*
D03*
X40980Y26120D02*
D03*
X41730Y29090D02*
D03*
X42090Y27270D02*
D03*
X40710Y26350D02*
D03*
X40450Y26590D02*
D03*
X40020Y26780D02*
D03*
X39530Y24580D02*
D03*
X40390Y29990D02*
D03*
X40200Y32630D02*
D03*
X43030Y28400D02*
D03*
X42540Y28420D02*
D03*
X42520Y27590D02*
D03*
X43030Y27610D02*
D03*
X38630Y31940D02*
D03*
X33550Y33030D02*
D03*
X38100Y32470D02*
D03*
X38140Y33350D02*
D03*
X37510Y33370D02*
D03*
X33500Y23100D02*
D03*
X32880Y23740D02*
D03*
X35770Y24720D02*
D03*
X35430Y23630D02*
D03*
X33200Y28370D02*
D03*
Y27770D02*
D03*
X32540Y28370D02*
D03*
X32520Y27780D02*
D03*
X37370Y24130D02*
D03*
Y23480D02*
D03*
X38190Y24131D02*
D03*
X38160Y23510D02*
D03*
X39710Y32180D02*
D03*
X40860Y31600D02*
D03*
X39380Y30118D02*
D03*
X37120Y31040D02*
D03*
X38600D02*
D03*
X37460Y30490D02*
D03*
X38490Y30500D02*
D03*
X38210Y30160D02*
D03*
X36490Y29870D02*
D03*
X37400Y28960D02*
D03*
X37340Y26990D02*
D03*
X37260Y27750D02*
D03*
X37970Y28900D02*
D03*
X38520Y28670D02*
D03*
X38850Y27200D02*
D03*
X39990Y29370D02*
D03*
X40690Y28670D02*
D03*
X39610Y29380D02*
D03*
X40410Y29370D02*
D03*
X40740Y29190D02*
D03*
X41060Y29400D02*
D03*
X38950Y27770D02*
D03*
X39280Y28160D02*
D03*
X36910Y28240D02*
D03*
X35950Y29550D02*
D03*
X35630Y29097D02*
D03*
X35600Y28682D02*
D03*
X36220Y26310D02*
D03*
X35090Y28140D02*
D03*
X36520Y28130D02*
D03*
X33650Y30980D02*
D03*
X33630Y30600D02*
D03*
X39630Y26530D02*
D03*
X39380Y26260D02*
D03*
X38970Y25730D02*
D03*
X36570Y24600D02*
D03*
X34600Y28540D02*
D03*
X34630Y30550D02*
D03*
X38200Y26500D02*
D03*
M02*
