%FSLAX24Y24*%
%MOIN*%
G70*
G01*
G75*
G04 Layer_Color=16711935*
%ADD10R,0.0236X0.0315*%
G04:AMPARAMS|DCode=11|XSize=15.7mil|YSize=59.1mil|CornerRadius=0mil|HoleSize=0mil|Usage=FLASHONLY|Rotation=315.000|XOffset=0mil|YOffset=0mil|HoleType=Round|Shape=Rectangle|*
%AMROTATEDRECTD11*
4,1,4,-0.0264,-0.0153,0.0153,0.0264,0.0264,0.0153,-0.0153,-0.0264,-0.0264,-0.0153,0.0*
%
%ADD11ROTATEDRECTD11*%

G04:AMPARAMS|DCode=12|XSize=15.7mil|YSize=59.1mil|CornerRadius=0mil|HoleSize=0mil|Usage=FLASHONLY|Rotation=45.000|XOffset=0mil|YOffset=0mil|HoleType=Round|Shape=Rectangle|*
%AMROTATEDRECTD12*
4,1,4,0.0153,-0.0264,-0.0264,0.0153,-0.0153,0.0264,0.0264,-0.0153,0.0153,-0.0264,0.0*
%
%ADD12ROTATEDRECTD12*%

G04:AMPARAMS|DCode=13|XSize=15.7mil|YSize=59.1mil|CornerRadius=0mil|HoleSize=0mil|Usage=FLASHONLY|Rotation=45.000|XOffset=0mil|YOffset=0mil|HoleType=Round|Shape=Round|*
%AMOVALD13*
21,1,0.0433,0.0157,0.0000,0.0000,135.0*
1,1,0.0157,0.0153,-0.0153*
1,1,0.0157,-0.0153,0.0153*
%
%ADD13OVALD13*%

%ADD14R,0.0450X0.0450*%
%ADD15R,0.0472X0.1457*%
%ADD16C,0.0200*%
%ADD17C,0.0100*%
%ADD18C,0.0150*%
%ADD19R,0.0540X0.0670*%
%ADD20R,0.1080X0.0760*%
%ADD21R,0.1260X0.1080*%
%ADD22R,0.0820X0.1791*%
%ADD23R,0.0394X0.1575*%
%ADD24R,0.0394X0.1181*%
%ADD25R,0.1181X0.1575*%
%ADD26R,0.1575X0.0394*%
%ADD27R,0.1181X0.0394*%
%ADD28R,0.1575X0.1181*%
%ADD29C,0.0625*%
G04:AMPARAMS|DCode=30|XSize=62.5mil|YSize=62.5mil|CornerRadius=0mil|HoleSize=0mil|Usage=FLASHONLY|Rotation=180.000|XOffset=0mil|YOffset=0mil|HoleType=Round|Shape=Octagon|*
%AMOCTAGOND30*
4,1,8,-0.0313,0.0156,-0.0313,-0.0156,-0.0156,-0.0313,0.0156,-0.0313,0.0313,-0.0156,0.0313,0.0156,0.0156,0.0313,-0.0156,0.0313,-0.0313,0.0156,0.0*
%
%ADD30OCTAGOND30*%

%ADD31C,0.0250*%
G04:AMPARAMS|DCode=32|XSize=23.6mil|YSize=31.5mil|CornerRadius=0mil|HoleSize=0mil|Usage=FLASHONLY|Rotation=45.000|XOffset=0mil|YOffset=0mil|HoleType=Round|Shape=Rectangle|*
%AMROTATEDRECTD32*
4,1,4,0.0028,-0.0195,-0.0195,0.0028,-0.0028,0.0195,0.0195,-0.0028,0.0028,-0.0195,0.0*
%
%ADD32ROTATEDRECTD32*%

G04:AMPARAMS|DCode=33|XSize=23.6mil|YSize=31.5mil|CornerRadius=0mil|HoleSize=0mil|Usage=FLASHONLY|Rotation=135.000|XOffset=0mil|YOffset=0mil|HoleType=Round|Shape=Rectangle|*
%AMROTATEDRECTD33*
4,1,4,0.0195,0.0028,-0.0028,-0.0195,-0.0195,-0.0028,0.0028,0.0195,0.0195,0.0028,0.0*
%
%ADD33ROTATEDRECTD33*%

%ADD34R,0.0315X0.0236*%
%ADD35R,0.0310X0.0350*%
%ADD36R,0.0440X0.1070*%
%ADD37C,0.0039*%
%ADD38C,0.0060*%
%ADD39C,0.0075*%
%ADD40C,0.0070*%
%ADD41R,1.1024X0.1575*%
%ADD42R,0.1575X1.2598*%
%ADD43R,1.4173X0.1575*%
%ADD44R,0.1575X1.2598*%
%ADD45R,0.0316X0.0395*%
G04:AMPARAMS|DCode=46|XSize=23.7mil|YSize=67.1mil|CornerRadius=0mil|HoleSize=0mil|Usage=FLASHONLY|Rotation=315.000|XOffset=0mil|YOffset=0mil|HoleType=Round|Shape=Rectangle|*
%AMROTATEDRECTD46*
4,1,4,-0.0321,-0.0153,0.0153,0.0321,0.0321,0.0153,-0.0153,-0.0321,-0.0321,-0.0153,0.0*
%
%ADD46ROTATEDRECTD46*%

G04:AMPARAMS|DCode=47|XSize=23.7mil|YSize=67.1mil|CornerRadius=0mil|HoleSize=0mil|Usage=FLASHONLY|Rotation=45.000|XOffset=0mil|YOffset=0mil|HoleType=Round|Shape=Rectangle|*
%AMROTATEDRECTD47*
4,1,4,0.0153,-0.0321,-0.0321,0.0153,-0.0153,0.0321,0.0321,-0.0153,0.0153,-0.0321,0.0*
%
%ADD47ROTATEDRECTD47*%

G04:AMPARAMS|DCode=48|XSize=23.7mil|YSize=67.1mil|CornerRadius=0mil|HoleSize=0mil|Usage=FLASHONLY|Rotation=45.000|XOffset=0mil|YOffset=0mil|HoleType=Round|Shape=Round|*
%AMOVALD48*
21,1,0.0433,0.0237,0.0000,0.0000,135.0*
1,1,0.0237,0.0153,-0.0153*
1,1,0.0237,-0.0153,0.0153*
%
%ADD48OVALD48*%

%ADD49R,0.0530X0.0530*%
%ADD50R,0.0552X0.1537*%
%ADD51R,0.0474X0.1655*%
%ADD52R,0.0474X0.1261*%
%ADD53R,0.1261X0.1655*%
%ADD54R,0.1655X0.0474*%
%ADD55R,0.1261X0.0474*%
%ADD56R,0.1655X0.1261*%
%ADD57R,0.0080X0.0080*%
%ADD58C,0.0705*%
G04:AMPARAMS|DCode=59|XSize=70.5mil|YSize=70.5mil|CornerRadius=0mil|HoleSize=0mil|Usage=FLASHONLY|Rotation=180.000|XOffset=0mil|YOffset=0mil|HoleType=Round|Shape=Octagon|*
%AMOCTAGOND59*
4,1,8,-0.0353,0.0176,-0.0353,-0.0176,-0.0176,-0.0353,0.0176,-0.0353,0.0353,-0.0176,0.0353,0.0176,0.0176,0.0353,-0.0176,0.0353,-0.0353,0.0176,0.0*
%
%ADD59OCTAGOND59*%

%ADD60C,0.0330*%
%ADD61R,0.1575X1.1024*%
%ADD62R,1.2598X0.1575*%
G04:AMPARAMS|DCode=63|XSize=31.6mil|YSize=39.5mil|CornerRadius=0mil|HoleSize=0mil|Usage=FLASHONLY|Rotation=45.000|XOffset=0mil|YOffset=0mil|HoleType=Round|Shape=Rectangle|*
%AMROTATEDRECTD63*
4,1,4,0.0028,-0.0251,-0.0251,0.0028,-0.0028,0.0251,0.0251,-0.0028,0.0028,-0.0251,0.0*
%
%ADD63ROTATEDRECTD63*%

G04:AMPARAMS|DCode=64|XSize=31.6mil|YSize=39.5mil|CornerRadius=0mil|HoleSize=0mil|Usage=FLASHONLY|Rotation=135.000|XOffset=0mil|YOffset=0mil|HoleType=Round|Shape=Rectangle|*
%AMROTATEDRECTD64*
4,1,4,0.0251,0.0028,-0.0028,-0.0251,-0.0251,-0.0028,0.0028,0.0251,0.0251,0.0028,0.0*
%
%ADD64ROTATEDRECTD64*%

%ADD65R,0.0395X0.0316*%
%ADD66R,0.0390X0.0430*%
D17*
X30713Y33561D02*
X32287Y35136D01*
X30713Y22537D02*
Y33561D01*
Y22537D02*
X32287Y20963D01*
X43311D01*
X44886Y22537D01*
Y33561D01*
X43311Y35136D02*
X44886Y33561D01*
X32287Y35136D02*
X43311D01*
D42*
X44098Y28837D02*
D03*
D43*
X37799Y21750D02*
D03*
D45*
X37625Y28080D02*
D03*
X38255D02*
D03*
X34255Y28590D02*
D03*
X34885D02*
D03*
D51*
X42130Y34348D02*
D03*
X33468D02*
D03*
X33469Y21750D02*
D03*
X42130D02*
D03*
D52*
X41343Y34152D02*
D03*
X40555D02*
D03*
X39768D02*
D03*
X38980D02*
D03*
X36618D02*
D03*
X35831D02*
D03*
X35043D02*
D03*
X34256D02*
D03*
Y21947D02*
D03*
X35043D02*
D03*
X35831D02*
D03*
X36618D02*
D03*
X38980D02*
D03*
X39768D02*
D03*
X40555D02*
D03*
X41343D02*
D03*
D53*
X37799Y34348D02*
D03*
Y21750D02*
D03*
D54*
X44098Y32380D02*
D03*
Y23719D02*
D03*
X31500Y23719D02*
D03*
Y32380D02*
D03*
D55*
X43902Y31593D02*
D03*
Y30805D02*
D03*
Y30018D02*
D03*
Y29230D02*
D03*
Y26868D02*
D03*
Y26081D02*
D03*
Y25293D02*
D03*
Y24506D02*
D03*
X31697D02*
D03*
Y25293D02*
D03*
Y26081D02*
D03*
Y26868D02*
D03*
Y29230D02*
D03*
Y30018D02*
D03*
Y30805D02*
D03*
Y31593D02*
D03*
D56*
X44098Y28049D02*
D03*
X31500D02*
D03*
D57*
X31697Y34348D02*
D03*
Y21750D02*
D03*
X44295D02*
D03*
X44286Y34348D02*
D03*
D58*
X35350Y26320D02*
D03*
Y25320D02*
D03*
X34350Y24320D02*
D03*
Y25320D02*
D03*
Y26320D02*
D03*
D59*
X35350Y24320D02*
D03*
D60*
X35020Y32360D02*
D03*
X35370Y31600D02*
D03*
X35210Y30740D02*
D03*
X37490Y32530D02*
D03*
X34890Y29340D02*
D03*
X35270Y29300D02*
D03*
X41600Y24260D02*
D03*
X41970Y23910D02*
D03*
X42140Y24830D02*
D03*
X42560Y24540D02*
D03*
X40980Y26120D02*
D03*
X41730Y29090D02*
D03*
X42090Y27270D02*
D03*
X40710Y26350D02*
D03*
X40450Y26590D02*
D03*
X40020Y26780D02*
D03*
X39530Y24580D02*
D03*
X40390Y29990D02*
D03*
X40200Y32630D02*
D03*
X43030Y28400D02*
D03*
X42540Y28420D02*
D03*
X42520Y27590D02*
D03*
X43030Y27610D02*
D03*
X38630Y31940D02*
D03*
X33550Y33030D02*
D03*
X38100Y32470D02*
D03*
X38140Y33350D02*
D03*
X37510Y33370D02*
D03*
X33500Y23100D02*
D03*
X32880Y23740D02*
D03*
X35770Y24720D02*
D03*
X35430Y23630D02*
D03*
X33200Y28370D02*
D03*
Y27770D02*
D03*
X32540Y28370D02*
D03*
X32520Y27780D02*
D03*
X37370Y24130D02*
D03*
Y23480D02*
D03*
X38190Y24131D02*
D03*
X38160Y23510D02*
D03*
X39710Y32180D02*
D03*
X40860Y31600D02*
D03*
X39380Y30118D02*
D03*
X37120Y31040D02*
D03*
X38600D02*
D03*
X37460Y30490D02*
D03*
X38490Y30500D02*
D03*
X38210Y30160D02*
D03*
X36490Y29870D02*
D03*
X37400Y28960D02*
D03*
X37340Y26990D02*
D03*
X37260Y27750D02*
D03*
X37970Y28900D02*
D03*
X38520Y28670D02*
D03*
X38850Y27200D02*
D03*
X39990Y29370D02*
D03*
X40690Y28670D02*
D03*
X39610Y29380D02*
D03*
X40410Y29370D02*
D03*
X40740Y29190D02*
D03*
X41060Y29400D02*
D03*
X38950Y27770D02*
D03*
X39280Y28160D02*
D03*
X36910Y28240D02*
D03*
X35950Y29550D02*
D03*
X35630Y29097D02*
D03*
X35600Y28682D02*
D03*
X36220Y26310D02*
D03*
X35090Y28140D02*
D03*
X36520Y28130D02*
D03*
X33650Y30980D02*
D03*
X33630Y30600D02*
D03*
X39630Y26530D02*
D03*
X39380Y26260D02*
D03*
X38970Y25730D02*
D03*
X36570Y24600D02*
D03*
X34600Y28540D02*
D03*
X34630Y30550D02*
D03*
X38200Y26500D02*
D03*
D61*
X31500Y28049D02*
D03*
D62*
X37012Y34348D02*
D03*
D63*
X38663Y25883D02*
D03*
X38217Y25437D02*
D03*
X39163Y25383D02*
D03*
X38717Y24937D02*
D03*
X36743Y29553D02*
D03*
X36297Y29107D02*
D03*
X37103Y29203D02*
D03*
X36657Y28757D02*
D03*
D64*
X41477Y32193D02*
D03*
X41923Y31747D02*
D03*
D65*
X38650Y32265D02*
D03*
Y32895D02*
D03*
X34650Y30825D02*
D03*
Y31455D02*
D03*
D66*
X40080Y25480D02*
D03*
X40820D02*
D03*
X40450Y24690D02*
D03*
M02*
