M48
;Layer_Color=9474304
;FILE_FORMAT=2:4
INCH,LZ
;TYPE=PLATED
T1F00S00C0.0150
T2F00S00C0.0315
T3F00S00C0.0886
;TYPE=NON_PLATED
T4F00S00C0.0394
T5F00S00C0.0886
%
T01
X0335Y0231
X03288Y02374
X03543Y02363
X03577Y02472
X03657Y0246
X03737Y02413
Y02348
X03816Y02351
X03819Y024131
X03953Y02458
X03897Y02573
X03938Y02626
X03963Y02653
X04002Y02678
X04045Y02659
X04071Y02635
X04098Y02612
X04209Y02727
X04252Y02759
X04303Y02761
Y0284
X04254Y02842
X04173Y02909
X04106Y0294
X04074Y02919
X04041Y02937
X03999
X03961Y02938
X03938Y030118
X04039Y02999
X04069Y02867
X03928Y02816
X03895Y02777
X03885Y0272
X0382Y0265
X03734Y02699
X03726Y02775
X03691Y02824
X03652Y02813
X03509Y02814
X0346Y02854
X03489Y02934
X03527Y0293
X03563Y029097
X0356Y028682
X03595Y02955
X03649Y02987
X03746Y03049
X03712Y03104
X0386
X03849Y0305
X03821Y03016
X03797Y0289
X0374Y02896
X03852Y02867
X03622Y02631
X0332Y02777
Y02837
X03254
X03252Y02778
X03363Y0306
X03365Y03098
X03463Y03055
X03521Y03074
X04214Y02483
X04256Y02454
X04197Y02391
X0416Y02426
X04086Y0316
X0402Y03263
X03971Y03218
X03863Y03194
X0381Y03247
X03749Y03253
X03751Y03337
X03814Y03335
X03502Y03236
X03537Y0316
X03355Y03303
T02
X0315Y023719
Y024506
Y025293
Y026081
Y026868
Y02923
Y030018
Y030805
X033469Y02175
X034256
X035043
X035831
X036618
X03898
X039768
X040555
X041343
X04213
X044098Y023719
Y024506
Y025293
Y026081
Y026868
Y02923
Y030018
Y030805
Y031593
Y03238
X04213Y034348
X041343
X040555
X039768
X03898
X036618
X035831
X035043
X034256
X033468
X0315Y03238
Y031593
T03
X037799Y02175
X044098Y028049
X0315
X037799Y034348
T04
X03435Y02432
X03535
Y02532
Y02632
X03435
Y02532
T05
X0315Y02175
X044098
X044089Y034348
X0315
M30
