M48
;Layer_Color=9474304
;FILE_FORMAT=2:5
INCH,LZ
;TYPE=NON_PLATED
T1F00S00C0.01500
T2F00S00C0.03937
%
T01
X01Y0111
Y0117
Y0123
Y0129
Y0135
Y0141
Y0147
X02
Y0141
Y0135
Y0129
Y0123
Y0117
Y0111
Y0165
Y0171
Y0177
Y0183
Y0189
X01
Y0183
Y0177
Y0171
Y0165
T02
X012Y0115
X013
X014
Y0125
Y0135
Y0145
Y0155
X013
Y0145
Y0135
Y0125
X012
Y0135
Y0145
Y0155
X015
Y0145
Y0135
Y0125
Y0115
X016
X017
X018
Y0125
Y0135
Y0145
Y0155
X017
Y0145
Y0135
Y0125
X016
Y0135
Y0145
Y0155
Y0165
X017
X018
Y0175
Y0185
X017
Y0175
X016
Y0185
X015
X014
Y0175
Y0165
X013
Y0175
Y0185
X012
Y0175
Y0165
X015
Y0175
M30
