%FSLAX25Y25*%
%MOIN*%
G70*
G01*
G75*
%ADD10C,0.01500*%
%ADD11C,0.00500*%
%ADD12R,0.15000X0.02500*%
%ADD13R,0.12500X0.02500*%
%ADD14R,0.05000X0.05000*%
D11*
X100000Y151300D02*
G03*
X100000Y160700I0J4700D01*
G01*
X200000D02*
G03*
X200000Y151300I0J-4700D01*
G01*
X203323Y103323D02*
G03*
X196677Y96676I-3323J-3323D01*
G01*
X148700Y100000D02*
G03*
X139300Y100000I-4700J0D01*
G01*
X196677Y203323D02*
G03*
X203323Y196677I3323J-3323D01*
G01*
X96676D02*
G03*
X103323Y203323I3323J3323D01*
G01*
Y96676D02*
G03*
X96676Y103323I-3323J3323D01*
G01*
X139300Y200000D02*
G03*
X148700Y200000I4700J0D01*
G01*
X92500Y107500D02*
Y151000D01*
Y161000D02*
Y192500D01*
Y151000D02*
X100068Y151303D01*
X92500Y161000D02*
X100000Y160700D01*
X207500Y107500D02*
Y151000D01*
Y161000D02*
Y192500D01*
X199932Y151303D02*
X207500Y151000D01*
X200000Y160700D02*
X207500Y161000D01*
X192500Y92500D02*
X196677Y96676D01*
X149000Y92500D02*
X192500D01*
X107500D02*
X139000D01*
X148697Y100068D02*
X149000Y92500D01*
X139000D02*
X139300Y100000D01*
X203323Y103323D02*
X207500Y107500D01*
X192500Y207500D02*
X196677Y203323D01*
X203323Y196677D02*
X207500Y192500D01*
X103323Y203323D02*
X107500Y207500D01*
X92500Y192500D02*
X96676Y196677D01*
X103323Y96676D02*
X107500Y92500D01*
X92500Y107500D02*
X96676Y103323D01*
X139000Y207500D02*
X139300Y200000D01*
X148697Y199932D02*
X149000Y207500D01*
X107500D02*
X139000D01*
X149000D02*
X192500D01*
D12*
X200000Y189000D02*
D03*
Y123000D02*
D03*
X100000Y189000D02*
D03*
Y123000D02*
D03*
D13*
X200000Y141000D02*
D03*
Y111000D02*
D03*
Y117000D02*
D03*
Y129000D02*
D03*
Y135000D02*
D03*
Y165000D02*
D03*
Y171000D02*
D03*
Y177000D02*
D03*
Y183000D02*
D03*
Y147000D02*
D03*
X100000Y141000D02*
D03*
Y111000D02*
D03*
Y117000D02*
D03*
Y129000D02*
D03*
Y135000D02*
D03*
Y165000D02*
D03*
Y171000D02*
D03*
Y177000D02*
D03*
Y183000D02*
D03*
Y147000D02*
D03*
D14*
X140000Y185000D02*
D03*
Y175000D02*
D03*
Y165000D02*
D03*
Y155000D02*
D03*
Y145000D02*
D03*
Y135000D02*
D03*
Y125000D02*
D03*
Y115000D02*
D03*
X130000Y185000D02*
D03*
Y175000D02*
D03*
Y165000D02*
D03*
Y155000D02*
D03*
Y145000D02*
D03*
Y135000D02*
D03*
Y125000D02*
D03*
Y115000D02*
D03*
X180000D02*
D03*
Y125000D02*
D03*
Y135000D02*
D03*
Y145000D02*
D03*
Y155000D02*
D03*
Y165000D02*
D03*
Y175000D02*
D03*
Y185000D02*
D03*
X120000Y115000D02*
D03*
Y125000D02*
D03*
Y135000D02*
D03*
Y145000D02*
D03*
Y155000D02*
D03*
Y165000D02*
D03*
Y175000D02*
D03*
Y185000D02*
D03*
X170000D02*
D03*
Y175000D02*
D03*
Y165000D02*
D03*
Y155000D02*
D03*
Y145000D02*
D03*
Y135000D02*
D03*
Y125000D02*
D03*
Y115000D02*
D03*
X160000Y185000D02*
D03*
Y175000D02*
D03*
Y165000D02*
D03*
Y155000D02*
D03*
Y145000D02*
D03*
Y135000D02*
D03*
Y125000D02*
D03*
Y115000D02*
D03*
X150000D02*
D03*
Y125000D02*
D03*
Y135000D02*
D03*
Y145000D02*
D03*
Y155000D02*
D03*
Y165000D02*
D03*
Y175000D02*
D03*
Y185000D02*
D03*
M02*
