%FSLAX24Y24*%
%MOIN*%
G70*
G01*
G75*
G04 Layer_Physical_Order=2*
G04 Layer_Color=16711680*
%ADD10R,0.0450X0.0450*%
%ADD11R,0.0236X0.0315*%
%ADD12C,0.0100*%
%ADD13C,0.0200*%
%ADD14R,0.0591X0.0591*%
%ADD15R,0.1181X0.1575*%
%ADD16R,0.1575X0.0394*%
%ADD17R,0.1181X0.0394*%
%ADD18R,0.1575X0.1181*%
%ADD19R,0.0625X0.0625*%
%ADD20C,0.0250*%
%ADD21R,0.0159X0.0280*%
%ADD22R,0.0315X0.0236*%
%ADD23R,0.0315X0.0197*%
%ADD24R,0.0310X0.0350*%
G36*
X37400Y34845D02*
X33890D01*
X33831Y34834D01*
X33782Y34801D01*
X31759Y32778D01*
X31750Y32779D01*
X31662Y32762D01*
X31624Y32736D01*
X31554Y32774D01*
Y35183D01*
X31600Y35221D01*
X31688Y35238D01*
X31745Y35276D01*
X37030D01*
X37108Y35292D01*
X37115Y35296D01*
X37400D01*
Y34845D01*
D02*
G37*
G36*
X33093Y30900D02*
Y30617D01*
X33197D01*
Y29750D01*
X33209Y29691D01*
X33242Y29642D01*
X33536Y29348D01*
X33509Y29283D01*
X33143D01*
Y29269D01*
X32475D01*
Y29365D01*
X32279D01*
X32272Y29435D01*
X32288Y29438D01*
X32362Y29488D01*
X32412Y29562D01*
X32429Y29650D01*
X32412Y29738D01*
X32362Y29812D01*
X32353Y29818D01*
Y30252D01*
X33028Y30927D01*
X33093Y30900D01*
D02*
G37*
G36*
X37400Y34248D02*
X34008D01*
X33988Y34262D01*
X33900Y34279D01*
X33812Y34262D01*
X33738Y34212D01*
X33688Y34138D01*
X33671Y34050D01*
X33688Y33962D01*
X33738Y33888D01*
X33812Y33838D01*
X33900Y33821D01*
X33988Y33838D01*
X34062Y33888D01*
X34099Y33942D01*
X37400D01*
Y31885D01*
X37750Y31650D01*
Y30650D01*
X37500Y30400D01*
X37400Y30300D01*
X37400Y26650D01*
X36600Y25850D01*
X32950D01*
X32650Y25550D01*
X31600Y25600D01*
X31400Y25800D01*
Y25850D01*
X28200D01*
X28150Y25800D01*
X27150Y26800D01*
X26899Y26800D01*
X26850Y26850D01*
Y27693D01*
X28809Y29652D01*
X28885Y29629D01*
X28888Y29612D01*
X28938Y29538D01*
X29012Y29488D01*
X29100Y29471D01*
X29111Y29473D01*
X29442Y29142D01*
X29491Y29109D01*
X29550Y29097D01*
X30587D01*
X30944Y28740D01*
X30921Y28664D01*
X30912Y28662D01*
X30838Y28612D01*
X30788Y28538D01*
X30771Y28450D01*
X30788Y28362D01*
X30838Y28288D01*
X30847Y28282D01*
Y26913D01*
X30738D01*
Y26088D01*
X31562D01*
Y26913D01*
X31153D01*
Y28282D01*
X31162Y28288D01*
X31212Y28362D01*
X31214Y28371D01*
X31290Y28394D01*
X31492Y28192D01*
X31541Y28159D01*
X31595Y28148D01*
Y28025D01*
X31909D01*
X31997Y27937D01*
Y26913D01*
X31737D01*
Y26088D01*
X32562D01*
Y26913D01*
X32303D01*
Y28000D01*
X32291Y28059D01*
X32258Y28108D01*
X32105Y28261D01*
Y28575D01*
X31595D01*
X31595Y28575D01*
Y28575D01*
X31528Y28589D01*
X30758Y29358D01*
X30709Y29391D01*
X30650Y29403D01*
X29613D01*
X29327Y29689D01*
X29329Y29700D01*
X29312Y29788D01*
X29262Y29862D01*
X29188Y29912D01*
X29171Y29915D01*
X29148Y29991D01*
X29685Y30528D01*
X29924D01*
Y30573D01*
X29994D01*
X30052Y30585D01*
X30102Y30618D01*
X30211Y30727D01*
X30276Y30700D01*
Y30528D01*
X30329D01*
Y29968D01*
X30345Y29890D01*
X30347Y29887D01*
Y29543D01*
X30783D01*
Y29596D01*
X31426D01*
X31965Y29057D01*
Y28815D01*
X32475D01*
Y28861D01*
X33143D01*
Y28847D01*
X33657D01*
Y29135D01*
X33722Y29162D01*
X33797Y29087D01*
Y28113D01*
X33042Y27358D01*
X33009Y27309D01*
X32997Y27250D01*
Y26913D01*
X32738D01*
Y26088D01*
X33563D01*
Y26913D01*
X33303D01*
Y27187D01*
X34058Y27942D01*
X34091Y27991D01*
X34103Y28050D01*
Y29150D01*
X34091Y29209D01*
X34058Y29258D01*
X33503Y29813D01*
Y30617D01*
X33607D01*
Y31053D01*
X33246D01*
X33219Y31118D01*
X33348Y31247D01*
X33607D01*
Y31683D01*
X33503D01*
Y32267D01*
X33607D01*
Y32703D01*
X33093D01*
Y32267D01*
X33197D01*
Y31683D01*
X33093D01*
Y31424D01*
X32610Y30941D01*
X32545Y30968D01*
Y31545D01*
X31755D01*
Y30755D01*
X32332D01*
X32359Y30690D01*
X32092Y30423D01*
X32059Y30373D01*
X32047Y30315D01*
Y29818D01*
X32038Y29812D01*
X31988Y29738D01*
X31983Y29714D01*
X31907Y29691D01*
X31654Y29944D01*
X31588Y29988D01*
X31510Y30004D01*
X30783D01*
Y30057D01*
X30737D01*
Y30522D01*
X30926D01*
X31004Y30538D01*
X31070Y30582D01*
X31494Y31006D01*
X31538Y31072D01*
X31554Y31150D01*
Y32326D01*
X31624Y32364D01*
X31662Y32338D01*
X31750Y32321D01*
X31838Y32338D01*
X31912Y32388D01*
X31962Y32462D01*
X31979Y32550D01*
X31977Y32563D01*
X33953Y34540D01*
X37400D01*
Y34248D01*
D02*
G37*
G36*
X33000Y36400D02*
X36800D01*
X37350Y35850D01*
X37400Y35800D01*
Y35704D01*
X37050D01*
X36972Y35688D01*
X36965Y35684D01*
X29829D01*
Y35751D01*
X29471D01*
Y35684D01*
X27075D01*
X27049Y35749D01*
X27650Y36350D01*
X27700Y36400D01*
X31300D01*
X31650Y36750D01*
X32650D01*
X33000Y36400D01*
D02*
G37*
G36*
X31146Y31234D02*
X30842Y30930D01*
X30533D01*
X30505Y30924D01*
X30500D01*
X30473Y30989D01*
X30482Y30998D01*
X30515Y31048D01*
X30527Y31106D01*
Y31276D01*
X30791D01*
Y31672D01*
X30737D01*
X30722Y31712D01*
X30715Y31742D01*
X30762Y31812D01*
X30779Y31900D01*
X30762Y31988D01*
X30712Y32062D01*
X30638Y32112D01*
X30550Y32129D01*
X30462Y32112D01*
X30388Y32062D01*
X30338Y31988D01*
X30321Y31900D01*
X30338Y31812D01*
X30385Y31742D01*
X30378Y31712D01*
X30363Y31672D01*
X30276D01*
Y31589D01*
X30266Y31582D01*
X30233Y31533D01*
X30221Y31474D01*
Y31170D01*
X29989Y30938D01*
X29924Y30924D01*
X29924Y30924D01*
X29924Y30924D01*
X29409D01*
Y30685D01*
X28975Y30251D01*
X28893Y30267D01*
X28862Y30312D01*
X28788Y30362D01*
X28703Y30379D01*
Y30737D01*
X29287Y31321D01*
X29409D01*
Y31276D01*
X29924D01*
Y31672D01*
X29409D01*
Y31627D01*
X29224D01*
X29165Y31615D01*
X29116Y31582D01*
X28442Y30908D01*
X28409Y30859D01*
X28397Y30800D01*
Y30300D01*
X28409Y30241D01*
X28442Y30192D01*
X28473Y30161D01*
X28471Y30150D01*
X28488Y30062D01*
X28538Y29988D01*
X28583Y29957D01*
X28599Y29875D01*
X26915Y28190D01*
X26850Y28217D01*
Y30400D01*
X26492Y30699D01*
X26550Y31650D01*
X26785Y31885D01*
Y35276D01*
X29471D01*
Y35272D01*
X29829D01*
Y35276D01*
X31146D01*
Y31234D01*
D02*
G37*
D11*
X30565Y29800D02*
D03*
X29935D02*
D03*
D12*
X30374Y31106D02*
Y31474D01*
X29994Y30726D02*
X30374Y31106D01*
X30533Y31474D02*
X30550Y31457D01*
Y31900D01*
X33350Y31465D02*
Y32450D01*
X25800Y27606D02*
X26547D01*
X29667Y30726D01*
X29994D01*
X30374Y31474D02*
X30533D01*
X32150Y26500D02*
Y28000D01*
X31850Y28300D02*
X32150Y28000D01*
X31750Y32550D02*
Y32553D01*
X33890Y34693D01*
X38398D01*
X29100Y29700D02*
X29550Y29250D01*
X28550Y30300D02*
X28700Y30150D01*
X28550Y30300D02*
Y30800D01*
X29224Y31474D01*
X29667D01*
X33150Y26500D02*
Y27250D01*
X33950Y28050D01*
Y29150D01*
X33350Y29750D02*
Y30835D01*
Y29750D02*
X33950Y29150D01*
X29550Y29250D02*
X30650D01*
X31600Y28300D01*
X31850D01*
X32200Y29650D02*
Y30315D01*
X33350Y31465D01*
X31000Y26650D02*
Y28450D01*
Y26650D02*
X31150Y26500D01*
X38208Y34095D02*
X38398Y33905D01*
X33945Y34095D02*
X38208D01*
X33900Y34050D02*
X33945Y34095D01*
X25013Y36661D02*
X26587Y38236D01*
X25013Y25637D02*
Y36661D01*
Y25637D02*
X26587Y24063D01*
X37611D01*
X39186Y25637D01*
Y36661D01*
X37611Y38236D02*
X39186Y36661D01*
X26587Y38236D02*
X37611D01*
D13*
X37030Y35480D02*
X37050Y35500D01*
X38378D01*
X38398Y35480D01*
X30533Y30726D02*
X30926D01*
X31350Y31150D01*
Y35480D01*
X25800D02*
X31350D01*
X37030D01*
X32220Y29090D02*
X32245Y29065D01*
X33400D01*
X30533Y29968D02*
Y30726D01*
X30565Y29800D02*
X31510D01*
X32220Y29090D01*
D14*
X32150Y31150D02*
D03*
X34650Y28650D02*
D03*
X29650D02*
D03*
Y33650D02*
D03*
X34650D02*
D03*
D15*
X32099Y37448D02*
D03*
Y24850D02*
D03*
D16*
X38398Y35480D02*
D03*
Y26819D02*
D03*
X25800Y26818D02*
D03*
Y35480D02*
D03*
D17*
X38202Y34693D02*
D03*
Y33905D02*
D03*
Y33118D02*
D03*
Y32330D02*
D03*
Y29968D02*
D03*
Y29181D02*
D03*
Y28393D02*
D03*
Y27606D02*
D03*
X25997D02*
D03*
Y28393D02*
D03*
Y29181D02*
D03*
Y29968D02*
D03*
Y32330D02*
D03*
Y33118D02*
D03*
Y33905D02*
D03*
Y34693D02*
D03*
D18*
X38398Y31149D02*
D03*
X25800D02*
D03*
D19*
X31150Y26500D02*
D03*
X32150D02*
D03*
X33150D02*
D03*
D20*
X29050Y30700D02*
D03*
X30550Y31900D02*
D03*
X31750Y32550D02*
D03*
X29100Y29700D02*
D03*
X28700Y30150D02*
D03*
X31600Y35450D02*
D03*
X31000Y28450D02*
D03*
X32200Y29650D02*
D03*
X33900Y34050D02*
D03*
X29400Y32600D02*
D03*
X27750Y31150D02*
D03*
X29900Y29950D02*
D03*
X36550Y31150D02*
D03*
X34400Y31400D02*
D03*
X35600Y29850D02*
D03*
X34450Y29400D02*
D03*
X32700Y28500D02*
D03*
X36500Y33700D02*
D03*
X36250Y36000D02*
D03*
X28150D02*
D03*
X32650Y34100D02*
D03*
X35050Y26850D02*
D03*
X29000Y26700D02*
D03*
X32850Y29650D02*
D03*
X30650Y31100D02*
D03*
X37050Y28000D02*
D03*
X27200Y28800D02*
D03*
D21*
X29650Y34689D02*
D03*
Y35511D02*
D03*
D22*
X33350Y32485D02*
D03*
Y33115D02*
D03*
X33400Y29065D02*
D03*
Y28435D02*
D03*
X33350Y30835D02*
D03*
Y31465D02*
D03*
D23*
X30533Y30726D02*
D03*
Y31474D02*
D03*
X29667Y30726D02*
D03*
Y31100D02*
D03*
Y31474D02*
D03*
D24*
X31850Y28300D02*
D03*
X32220Y29090D02*
D03*
X31480D02*
D03*
M02*
