%FSLAX24Y24*%
%MOIN*%
G70*
G01*
G75*
%ADD10R,0.0450X0.0450*%
%ADD11R,0.0236X0.0315*%
%ADD12C,0.0100*%
%ADD13C,0.0200*%
%ADD14R,0.0591X0.0591*%
%ADD15R,0.1181X0.1575*%
%ADD16R,0.1575X0.0394*%
%ADD17R,0.1181X0.0394*%
%ADD18R,0.1575X0.1181*%
%ADD19R,0.0625X0.0625*%
%ADD20C,0.0250*%
%ADD21R,0.0159X0.0280*%
%ADD22R,0.0315X0.0236*%
%ADD23R,0.0315X0.0197*%
%ADD24R,0.0310X0.0350*%
%ADD25C,0.0060*%
D12*
X29150Y35500D02*
X28950D01*
X29050D01*
Y35000D01*
X28950Y34900D01*
X28850D01*
X28750Y35000D01*
X29350Y34900D02*
X29550D01*
X29450D01*
Y35500D01*
X29350Y35400D01*
X31250Y35650D02*
Y35250D01*
X31450Y35050D01*
X31650Y35250D01*
Y35650D01*
X32250Y35550D02*
X32150Y35650D01*
X31950D01*
X31850Y35550D01*
Y35150D01*
X31950Y35050D01*
X32150D01*
X32250Y35150D01*
X32849Y35550D02*
X32750Y35650D01*
X32550D01*
X32450Y35550D01*
Y35150D01*
X32550Y35050D01*
X32750D01*
X32849Y35150D01*
X34500Y35800D02*
Y36400D01*
X34800D01*
X34900Y36300D01*
Y36100D01*
X34800Y36000D01*
X34500D01*
X34700D02*
X34900Y35800D01*
X35100Y36300D02*
X35200Y36400D01*
X35400D01*
X35500Y36300D01*
Y36200D01*
X35400Y36100D01*
X35300D01*
X35400D01*
X35500Y36000D01*
Y35900D01*
X35400Y35800D01*
X35200D01*
X35100Y35900D01*
X28850Y26250D02*
X29050D01*
X28950D01*
Y26850D01*
X28850Y26750D01*
X29750Y26850D02*
X29550Y26750D01*
X29350Y26550D01*
Y26350D01*
X29450Y26250D01*
X29650D01*
X29750Y26350D01*
Y26450D01*
X29650Y26550D01*
X29350D01*
X29950Y26650D02*
X30350Y26250D01*
X30150Y26450D01*
X30350Y26650D01*
X29950Y26250D01*
X34000D02*
X34200D01*
X34100D01*
Y26850D01*
X34000Y26750D01*
X34500Y26650D02*
X34900Y26250D01*
X34700Y26450D01*
X34900Y26650D01*
X34500Y26250D01*
X25013Y36661D02*
X26587Y38236D01*
X25013Y25637D02*
Y36661D01*
Y25637D02*
X26587Y24063D01*
X37611D01*
X39186Y25637D01*
Y36661D01*
X37611Y38236D02*
X39186Y36661D01*
X26587Y38236D02*
X37611D01*
D25*
X31950Y36000D02*
Y36300D01*
Y36150D02*
X32150Y36000D01*
X31950Y36150D02*
X32150Y36300D01*
Y36000D02*
Y36300D01*
M02*
