M48
;Layer_Color=9474304
;FILE_FORMAT=2:4
INCH,LZ
;TYPE=PLATED
T1F00S00C0.0150
T2F00S00C0.0315
T3F00S00C0.0886
;TYPE=NON_PLATED
T4F00S00C0.0394
T5F00S00C0.0886
%
T01
X0327Y0285
X03285Y02965
X0322
X03445Y0294
X0356Y02985
X03655Y03115
X03705Y028
X03505Y02685
X031Y02845
X0299Y02995
X0291Y0297
X0287Y03015
X02905Y0307
X02775Y03115
X0272Y0288
X029Y0267
X03065Y0311
X03055Y0319
X0294Y0326
X02815Y036
X0316Y03545
X03265Y0341
X0339Y03405
X0365Y0337
X03625Y036
X0344Y0314
X03175Y03255
T02
X038398Y026819
Y027606
Y028393
Y029181
Y029968
X0258Y029968
Y029181
Y028393
Y027606
Y026818
Y03233
Y033118
Y033905
Y034693
Y03548
X038398Y03548
Y034693
Y033905
Y033118
Y03233
T03
X032099Y02485
X038398Y031149
X0258
X032099Y037448
T04
X03215Y0265
X03315
X03465Y02865
X03215Y03115
X02965Y02865
X03115Y0265
X02965Y03365
X03465
T05
X038398Y02485
X0258
Y037448
X038389
M30
