%FSLAX24Y24*%
%MOIN*%
G70*
G01*
G75*
G04 Layer_Color=255*
%ADD10R,0.0450X0.0450*%
%ADD11R,0.0236X0.0315*%
%ADD12C,0.0100*%
%ADD13C,0.0200*%
%ADD14R,0.0591X0.0591*%
%ADD15R,0.1181X0.1575*%
%ADD16R,0.1575X0.0394*%
%ADD17R,0.1181X0.0394*%
%ADD18R,0.1575X0.1181*%
%ADD19R,0.0625X0.0625*%
%ADD20C,0.0250*%
%ADD21R,0.0159X0.0280*%
%ADD22R,0.0315X0.0236*%
%ADD23R,0.0315X0.0197*%
%ADD24R,0.0310X0.0350*%
D11*
X30565Y29800D02*
D03*
X29935D02*
D03*
D12*
X25013Y36661D02*
X26587Y38236D01*
X25013Y25637D02*
Y36661D01*
Y25637D02*
X26587Y24063D01*
X37611D01*
X39186Y25637D01*
Y36661D01*
X37611Y38236D02*
X39186Y36661D01*
X26587Y38236D02*
X37611D01*
D14*
X32150Y31150D02*
D03*
X34650Y28650D02*
D03*
X29650D02*
D03*
Y33650D02*
D03*
X34650D02*
D03*
D15*
X32099Y37448D02*
D03*
Y24850D02*
D03*
D16*
X38398Y35480D02*
D03*
Y26819D02*
D03*
X25800Y26818D02*
D03*
Y35480D02*
D03*
D17*
X38202Y34693D02*
D03*
Y33905D02*
D03*
Y33118D02*
D03*
Y32330D02*
D03*
Y29968D02*
D03*
Y29181D02*
D03*
Y28393D02*
D03*
Y27606D02*
D03*
X25997D02*
D03*
Y28393D02*
D03*
Y29181D02*
D03*
Y29968D02*
D03*
Y32330D02*
D03*
Y33118D02*
D03*
Y33905D02*
D03*
Y34693D02*
D03*
D18*
X38398Y31149D02*
D03*
X25800D02*
D03*
D19*
X31150Y26500D02*
D03*
X32150D02*
D03*
X33150D02*
D03*
D21*
X29650Y34689D02*
D03*
Y35511D02*
D03*
D22*
X33350Y32485D02*
D03*
Y33115D02*
D03*
X33400Y29065D02*
D03*
Y28435D02*
D03*
X33350Y30835D02*
D03*
Y31465D02*
D03*
D23*
X30533Y30726D02*
D03*
Y31474D02*
D03*
X29667Y30726D02*
D03*
Y31100D02*
D03*
Y31474D02*
D03*
D24*
X31850Y28300D02*
D03*
X32220Y29090D02*
D03*
X31480D02*
D03*
M02*
