M48
;Layer_Color=9474304
;FILE_FORMAT=2:4
INCH,LZ
;TYPE=PLATED
T1F00S00C0.0150
T2F00S00C0.0315
T3F00S00C0.0886
;TYPE=NON_PLATED
T4F00S00C0.0150
T5F00S00C0.0886
%
T01
X09438Y059628
Y060428
X09443Y061228
Y061978
X096407Y061132
X09728Y060328
X09733Y059828
X098002Y059291
Y05878
X099026Y058701
X099577
X09868Y059328
X09808Y061178
X09778Y062128
X097378Y062078
X098444Y062128
X098878
X10163Y061278
X10233Y060378
X10163Y059028
X10143Y058678
X10188
X092894Y058474
X093278Y06003
X093297Y060778
X09243Y061628
X092687Y062844
X09243Y064728
X092707Y065089
X09448Y065278
X09518Y065978
X096516Y066112
X096535Y066742
X09653Y067328
Y067728
X09598Y068128
X09463Y067728
X09448Y066778
X095285Y06437
X096465Y064763
X096472Y065386
X098032Y065522
X09858Y066478
X099183Y066496
X099577
X09973Y067078
X099419Y067717
X098907
X09833Y067578
X101671Y06772
X10168Y066328
X10238Y065428
X10168Y064128
X10148Y063778
X10193
X10168Y062928
X098878Y063128
X098444
X097815
X09738Y063176
X09743Y064228
X097413Y064588
T02
X09098Y058847
Y059634
Y060422
Y061209
Y061996
Y064359
Y065146
Y065933
Y066721
Y067508
T03
X094129Y056888
X095704
X098854
X100428
X103568Y060028
X103578Y061603
X09098Y063178
X094129Y069467
X095704Y069477
X098854
X100428
X103578Y066327
X103568Y064752
T04
X10028Y059628
Y060078
Y060528
X10083
Y060078
Y059628
X10088Y064728
Y065178
Y065628
X10033
Y065178
Y064728
T05
X097279Y056888
X102003
X103578Y056878
X103568Y058453
X092554Y056878
X09098
Y069477
X092554Y069467
X097279
X102003
X103568Y069477
X103578Y067902
Y063178
M30
