%FSLAX24Y24*%
%MOIN*%
G70*
G01*
G75*
G04 Layer_Color=255*
%ADD10R,0.0280X0.0159*%
%ADD11R,0.0450X0.0450*%
%ADD12R,0.0315X0.0236*%
%ADD13R,0.0236X0.0315*%
%ADD14R,0.0689X0.0433*%
%ADD15R,0.0689X0.0256*%
G04:AMPARAMS|DCode=16|XSize=68.9mil|YSize=25.6mil|CornerRadius=0mil|HoleSize=0mil|Usage=FLASHONLY|Rotation=0.000|XOffset=0mil|YOffset=0mil|HoleType=Round|Shape=Octagon|*
%AMOCTAGOND16*
4,1,8,0.0344,-0.0064,0.0344,0.0064,0.0281,0.0128,-0.0281,0.0128,-0.0344,0.0064,-0.0344,-0.0064,-0.0281,-0.0128,0.0281,-0.0128,0.0344,-0.0064,0.0*
%
%ADD16OCTAGOND16*%

%ADD17R,0.0950X0.1300*%
%ADD18R,0.0984X0.0394*%
%ADD19C,0.0100*%
%ADD20C,0.0197*%
%ADD21C,0.0256*%
%ADD22C,0.0787*%
%ADD23C,0.0315*%
%ADD24R,0.0400X0.0850*%
%ADD25R,0.0550X0.0150*%
%ADD26R,0.1000X0.0300*%
%ADD27R,0.0950X0.0700*%
%ADD28R,0.0600X0.0700*%
%ADD29R,0.1575X0.0394*%
%ADD30R,0.1181X0.0394*%
%ADD31R,0.1575X0.1181*%
%ADD32R,0.1181X0.1575*%
%ADD33C,0.0220*%
%ADD34C,0.0250*%
G04:AMPARAMS|DCode=35|XSize=59.1mil|YSize=26.7mil|CornerRadius=0mil|HoleSize=0mil|Usage=FLASHONLY|Rotation=0.000|XOffset=0mil|YOffset=0mil|HoleType=Round|Shape=Octagon|*
%AMOCTAGOND35*
4,1,8,0.0295,-0.0067,0.0295,0.0067,0.0229,0.0133,-0.0229,0.0133,-0.0295,0.0067,-0.0295,-0.0067,-0.0229,-0.0133,0.0229,-0.0133,0.0295,-0.0067,0.0*
%
%ADD35OCTAGOND35*%

%ADD36R,0.0591X0.0267*%
%ADD37R,0.1102X0.0276*%
%ADD38R,0.1063X0.0315*%
%ADD39R,0.1102X0.0236*%
%ADD40R,0.1102X0.0197*%
%ADD41R,0.1142X0.0315*%
%ADD42R,0.1181X0.0354*%
%ADD43R,0.1142X0.0394*%
D12*
X98430Y65793D02*
D03*
Y65163D02*
D03*
X98480Y60843D02*
D03*
Y60213D02*
D03*
X96880Y61413D02*
D03*
Y62043D02*
D03*
D13*
X100665Y62928D02*
D03*
X101294D02*
D03*
X100615Y67728D02*
D03*
X101244D02*
D03*
X97494Y60778D02*
D03*
X96865D02*
D03*
X98444Y63528D02*
D03*
X97815D02*
D03*
X98444Y62628D02*
D03*
X97815D02*
D03*
X98444Y61678D02*
D03*
X97815D02*
D03*
D29*
X90980Y67508D02*
D03*
Y58847D02*
D03*
D30*
X91176Y66721D02*
D03*
Y65933D02*
D03*
Y65146D02*
D03*
Y64359D02*
D03*
Y61996D02*
D03*
Y61209D02*
D03*
Y60422D02*
D03*
Y59634D02*
D03*
D31*
X90980Y63178D02*
D03*
X103578Y61603D02*
D03*
X103568Y60028D02*
D03*
Y64752D02*
D03*
X103578Y66327D02*
D03*
D32*
X98854Y69477D02*
D03*
X94129Y69467D02*
D03*
X95704Y69477D02*
D03*
X100428D02*
D03*
X94129Y56888D02*
D03*
X95704D02*
D03*
X98854D02*
D03*
X100428D02*
D03*
D33*
X100330Y65178D02*
D03*
X100880D02*
D03*
Y64728D02*
D03*
X100330D02*
D03*
X100880Y65628D02*
D03*
X100330D02*
D03*
X100280Y60078D02*
D03*
X100830D02*
D03*
Y59628D02*
D03*
X100280D02*
D03*
X100830Y60528D02*
D03*
X100280D02*
D03*
D35*
X93780Y64778D02*
D03*
D36*
Y65278D02*
D03*
Y65778D02*
D03*
Y66278D02*
D03*
Y66778D02*
D03*
Y67278D02*
D03*
Y67778D02*
D03*
X95945Y64778D02*
D03*
Y65278D02*
D03*
Y65778D02*
D03*
Y66278D02*
D03*
Y66778D02*
D03*
Y67278D02*
D03*
Y67778D02*
D03*
M02*
