%FSLAX24Y24*%
%MOIN*%
G70*
G01*
G75*
G04 Layer_Physical_Order=1*
G04 Layer_Color=255*
%ADD10R,0.0280X0.0159*%
%ADD11R,0.0450X0.0450*%
%ADD12R,0.0315X0.0236*%
%ADD13R,0.0236X0.0315*%
%ADD14R,0.0689X0.0433*%
%ADD15R,0.0689X0.0256*%
G04:AMPARAMS|DCode=16|XSize=68.9mil|YSize=25.6mil|CornerRadius=0mil|HoleSize=0mil|Usage=FLASHONLY|Rotation=0.000|XOffset=0mil|YOffset=0mil|HoleType=Round|Shape=Octagon|*
%AMOCTAGOND16*
4,1,8,0.0344,-0.0064,0.0344,0.0064,0.0281,0.0128,-0.0281,0.0128,-0.0344,0.0064,-0.0344,-0.0064,-0.0281,-0.0128,0.0281,-0.0128,0.0344,-0.0064,0.0*
%
%ADD16OCTAGOND16*%

%ADD17R,0.0950X0.1300*%
%ADD18R,0.0984X0.0394*%
%ADD19C,0.0100*%
%ADD20C,0.0197*%
%ADD21C,0.0256*%
%ADD22C,0.0787*%
%ADD23C,0.0315*%
%ADD24R,0.0400X0.0850*%
%ADD25R,0.0550X0.0150*%
%ADD26R,0.1000X0.0300*%
%ADD27R,0.0950X0.0700*%
%ADD28R,0.0600X0.0700*%
%ADD29R,0.1575X0.0394*%
%ADD30R,0.1181X0.0394*%
%ADD31R,0.1575X0.1181*%
%ADD32R,0.1181X0.1575*%
%ADD33C,0.0220*%
%ADD34C,0.0250*%
G36*
X102880Y61028D02*
X102230D01*
Y61328D01*
X102880Y61978D01*
Y61028D01*
D02*
G37*
G36*
X95754Y68589D02*
X96394D01*
Y68678D01*
X98163D01*
Y68589D01*
X98854D01*
Y68304D01*
X99554D01*
X99880Y67978D01*
X100223Y67635D01*
X100196Y67570D01*
X100144D01*
Y67304D01*
X100588D01*
Y67204D01*
X100144D01*
Y67019D01*
X100139D01*
Y66752D01*
X100584D01*
Y66652D01*
X100139D01*
Y66386D01*
X100630D01*
Y65928D01*
Y65178D01*
Y64378D01*
Y62670D01*
X100588D01*
Y62354D01*
X100538D01*
Y62304D01*
X100094D01*
Y62119D01*
X100089D01*
Y61852D01*
X100534D01*
Y61802D01*
X100584D01*
Y61486D01*
X100630D01*
Y60828D01*
X100580D01*
Y60078D01*
Y59328D01*
X100630D01*
Y58678D01*
X100580Y58628D01*
X99847D01*
X99829Y58651D01*
X99357D01*
X99365Y58613D01*
X99380Y58591D01*
Y57775D01*
X98904D01*
Y56888D01*
X98804D01*
Y57775D01*
X98330D01*
Y58178D01*
X98280Y58228D01*
X96280D01*
Y57775D01*
X95754D01*
Y56888D01*
X95654D01*
Y57775D01*
X95130D01*
Y59528D01*
X95580Y59978D01*
Y59993D01*
X95622Y60045D01*
X95650Y60045D01*
X95830D01*
Y60263D01*
Y60482D01*
X95650D01*
X95622Y60482D01*
X95580Y60534D01*
X95580Y60534D01*
Y60623D01*
X95622Y60675D01*
X96137D01*
Y61007D01*
X96207Y61027D01*
X96245Y60970D01*
X96320Y60920D01*
X96375Y60909D01*
X96568Y60716D01*
Y59736D01*
X96481D01*
Y59378D01*
X96960D01*
Y59736D01*
X96873D01*
Y60780D01*
X96862Y60838D01*
X96829Y60888D01*
X96628Y61088D01*
X96637Y61132D01*
X96619Y61220D01*
X96570Y61294D01*
X96495Y61344D01*
X96407Y61361D01*
X96320Y61344D01*
X96271Y61311D01*
X96201Y61344D01*
Y61893D01*
X95580D01*
Y62143D01*
X96201D01*
Y62285D01*
X97177D01*
Y62183D01*
X97166Y62166D01*
X97148Y62078D01*
X97166Y61991D01*
X97215Y61916D01*
X97290Y61866D01*
X97378Y61849D01*
X97465Y61866D01*
X97540Y61916D01*
X97553Y61936D01*
X97617Y61966D01*
X97692Y61916D01*
X97780Y61899D01*
X97813Y61906D01*
X97867Y61861D01*
Y61264D01*
X97850Y61178D01*
X97868Y61091D01*
X97917Y61016D01*
X97992Y60966D01*
X98080Y60949D01*
X98082Y60949D01*
X98100Y60946D01*
X98189Y60964D01*
X98264Y61014D01*
X98314Y61089D01*
X98332Y61178D01*
Y61855D01*
X98394Y61902D01*
Y62128D01*
X98494D01*
Y61909D01*
X98532Y61916D01*
X98607Y61966D01*
X98619Y61984D01*
X98703D01*
X98715Y61966D01*
X98790Y61916D01*
X98828Y61909D01*
Y62128D01*
X98878D01*
Y62178D01*
X99097D01*
X99089Y62216D01*
X99059Y62262D01*
X99095Y62332D01*
X99468D01*
Y62578D01*
X98876D01*
Y62678D01*
X99468D01*
Y62925D01*
X99095D01*
X99059Y62995D01*
X99089Y63041D01*
X99097Y63078D01*
X98878D01*
Y63128D01*
X98828D01*
Y63348D01*
X98790Y63340D01*
X98715Y63291D01*
X98703Y63272D01*
X98619D01*
X98607Y63291D01*
X98532Y63340D01*
X98494Y63348D01*
Y63128D01*
X98394D01*
Y63355D01*
X98332Y63402D01*
Y63552D01*
X98976Y64196D01*
X99480D01*
X99502Y64200D01*
X99924D01*
Y64630D01*
X99924Y64656D01*
Y64678D01*
Y64700D01*
X99924Y64726D01*
Y65156D01*
X99924D01*
Y65200D01*
X99924D01*
Y65656D01*
X99865D01*
X99836Y65726D01*
X99924Y65814D01*
Y65878D01*
X99035D01*
Y65814D01*
X99123Y65726D01*
X99094Y65656D01*
X99035D01*
Y65581D01*
X98630D01*
X98571Y65570D01*
X98521Y65536D01*
X97883Y64898D01*
X97813Y64927D01*
Y65078D01*
X97376D01*
Y64882D01*
X97376Y64871D01*
X97361Y64807D01*
X97326Y64800D01*
X97251Y64750D01*
X97201Y64676D01*
X97184Y64588D01*
X97201Y64500D01*
X97251Y64426D01*
X97267Y64415D01*
Y64391D01*
X97218Y64316D01*
X97200Y64228D01*
X97218Y64141D01*
X97267Y64066D01*
X97342Y64016D01*
X97430Y63999D01*
X97517Y64016D01*
X97592Y64066D01*
X97598Y64075D01*
X98030D01*
X98088Y64087D01*
X98138Y64120D01*
X98793Y64775D01*
X98984D01*
X99035Y64705D01*
Y64700D01*
X98981Y64661D01*
X98981Y64661D01*
X98880D01*
X98791Y64643D01*
X98715Y64593D01*
X97935Y63813D01*
X97885Y63737D01*
X97867Y63648D01*
Y63401D01*
X97815Y63358D01*
X97727Y63340D01*
X97652Y63291D01*
X97652Y63290D01*
X97571Y63295D01*
X97542Y63339D01*
X97467Y63388D01*
X97380Y63406D01*
X97292Y63388D01*
X97217Y63339D01*
X97168Y63264D01*
X97150Y63176D01*
X97168Y63089D01*
X97177Y63074D01*
Y62925D01*
X96787D01*
Y62591D01*
X96201D01*
Y62793D01*
X95580D01*
Y63218D01*
X95609Y63276D01*
X96045D01*
Y63791D01*
X95934D01*
X95907Y63856D01*
X96922Y64871D01*
X97183D01*
Y65132D01*
X97212Y65160D01*
Y65453D01*
X97276Y65480D01*
X97343Y65414D01*
X97352Y65407D01*
X97376Y65386D01*
X97376D01*
Y65178D01*
X97813D01*
Y65320D01*
X97835Y65335D01*
X97883Y65351D01*
X97944Y65310D01*
X98032Y65292D01*
X98119Y65310D01*
X98194Y65359D01*
X98243Y65434D01*
X98261Y65522D01*
X98243Y65609D01*
X98194Y65684D01*
X98119Y65734D01*
X98032Y65751D01*
X97944Y65734D01*
X97883Y65693D01*
X97835Y65708D01*
X97813Y65724D01*
Y65878D01*
X97594D01*
Y65978D01*
X97813D01*
Y66186D01*
X97781D01*
Y66419D01*
X97846Y66445D01*
X98196Y66095D01*
X98246Y66062D01*
X98305Y66050D01*
X98693D01*
X98752Y66062D01*
X98802Y66095D01*
X99016Y66310D01*
X99029Y66329D01*
X99095Y66284D01*
X99183Y66267D01*
X99271Y66284D01*
X99335Y66327D01*
X99372Y66334D01*
X99388D01*
X99425Y66327D01*
X99489Y66284D01*
X99577Y66267D01*
X99665Y66284D01*
X99739Y66334D01*
X99789Y66408D01*
X99806Y66496D01*
X99789Y66584D01*
X99739Y66658D01*
X99665Y66708D01*
X99577Y66725D01*
X99489Y66708D01*
X99425Y66665D01*
X99388Y66658D01*
X99372D01*
X99335Y66665D01*
X99271Y66708D01*
X99237Y66715D01*
X99204Y66788D01*
X99217Y66808D01*
X99234Y66821D01*
X99463D01*
Y66925D01*
X99561D01*
X99567Y66916D01*
X99642Y66866D01*
X99730Y66849D01*
X99817Y66866D01*
X99892Y66916D01*
X99941Y66991D01*
X99959Y67078D01*
X99941Y67166D01*
X99892Y67241D01*
X99817Y67290D01*
X99730Y67308D01*
X99642Y67290D01*
X99567Y67241D01*
X99561Y67231D01*
X99463D01*
Y67336D01*
X99026D01*
Y67077D01*
X98897Y66947D01*
X98833Y66974D01*
Y67336D01*
X98759D01*
X98756Y67352D01*
X98723Y67401D01*
X98557Y67567D01*
X98559Y67578D01*
X98541Y67666D01*
X98492Y67741D01*
X98417Y67790D01*
X98330Y67808D01*
X98242Y67790D01*
X98167Y67741D01*
X98118Y67666D01*
X98100Y67578D01*
X98118Y67491D01*
X98167Y67416D01*
X98242Y67366D01*
X98330Y67349D01*
X98340Y67351D01*
X98396Y67295D01*
Y66821D01*
X98427D01*
Y66647D01*
X98417Y66641D01*
X98368Y66566D01*
X98350Y66478D01*
X98351Y66472D01*
X98287Y66437D01*
X97874Y66850D01*
X97824Y66883D01*
X97781Y66892D01*
X97781Y66895D01*
Y66971D01*
X97813D01*
Y67178D01*
X97594D01*
Y67278D01*
X97813D01*
Y67486D01*
X97781D01*
Y67871D01*
X97813D01*
Y68078D01*
X97594D01*
Y68128D01*
X97544D01*
Y68386D01*
X97376D01*
Y68380D01*
X97183D01*
Y68386D01*
X96746D01*
Y68281D01*
X96148D01*
X96142Y68291D01*
X96067Y68340D01*
X95980Y68358D01*
X95892Y68340D01*
X95817Y68291D01*
X95811Y68281D01*
X95527D01*
X95283Y68525D01*
X95310Y68589D01*
X95654D01*
Y69477D01*
X95754D01*
Y68589D01*
D02*
G37*
G36*
X102830Y59478D02*
X102780D01*
X102380Y59878D01*
Y59928D01*
X102830Y60378D01*
Y59478D01*
D02*
G37*
G36*
Y65728D02*
X102780D01*
X102480Y66028D01*
X102230D01*
X102830Y66628D01*
Y65728D01*
D02*
G37*
G36*
X97376Y67871D02*
X97680D01*
Y67486D01*
X97376D01*
Y66971D01*
X97680D01*
Y66895D01*
X96704D01*
X96698Y66904D01*
X96623Y66954D01*
X96535Y66972D01*
X96448Y66954D01*
X96373Y66904D01*
X96323Y66830D01*
X96306Y66742D01*
X96323Y66654D01*
X96373Y66580D01*
X96448Y66530D01*
X96535Y66513D01*
X96623Y66530D01*
X96698Y66580D01*
X96704Y66589D01*
X97680D01*
Y66186D01*
X97434D01*
X97425Y66230D01*
X97392Y66279D01*
X97274Y66398D01*
X97224Y66431D01*
X97165Y66442D01*
X96693D01*
X96634Y66431D01*
X96585Y66398D01*
X96527Y66339D01*
X96516Y66342D01*
X96428Y66324D01*
X96354Y66274D01*
X96304Y66200D01*
X96286Y66112D01*
X96304Y66024D01*
X96354Y65950D01*
X96428Y65900D01*
X96516Y65883D01*
X96604Y65900D01*
X96676Y65949D01*
X96686Y65947D01*
X96746Y65926D01*
Y65827D01*
X96525Y65605D01*
X96472Y65615D01*
X96384Y65598D01*
X96310Y65548D01*
X96260Y65474D01*
X96243Y65386D01*
X96260Y65298D01*
X96310Y65224D01*
X96384Y65174D01*
X96472Y65156D01*
X96560Y65174D01*
X96604Y65119D01*
X96476Y64991D01*
X96465Y64993D01*
X96377Y64975D01*
X96302Y64926D01*
X96253Y64851D01*
X96235Y64763D01*
X96253Y64676D01*
X96302Y64601D01*
X96307Y64556D01*
X95485Y63734D01*
X95420Y63741D01*
X95415Y63742D01*
Y63791D01*
X94979D01*
Y63276D01*
X95403D01*
X95473Y63247D01*
X95458Y62193D01*
X95453Y60702D01*
X94780Y60028D01*
Y59978D01*
Y58378D01*
X94730Y58328D01*
X94630Y58228D01*
X93056D01*
X93035Y58298D01*
X93056Y58312D01*
X93106Y58387D01*
X93123Y58474D01*
X93106Y58562D01*
X93056Y58637D01*
X92981Y58686D01*
X92894Y58704D01*
X92806Y58686D01*
X92731Y58637D01*
X92682Y58562D01*
X92664Y58474D01*
X92682Y58387D01*
X92731Y58312D01*
X92752Y58298D01*
X92731Y58228D01*
X92280D01*
Y59475D01*
X94211D01*
X94217Y59466D01*
X94292Y59416D01*
X94380Y59399D01*
X94467Y59416D01*
X94542Y59466D01*
X94591Y59541D01*
X94609Y59628D01*
X94591Y59716D01*
X94542Y59791D01*
X94467Y59840D01*
X94380Y59858D01*
X94292Y59840D01*
X94217Y59791D01*
X94211Y59781D01*
X93437D01*
X93416Y59851D01*
X93440Y59867D01*
X93490Y59942D01*
X93507Y60030D01*
X93490Y60117D01*
X93440Y60192D01*
X93419Y60205D01*
X93441Y60275D01*
X94211D01*
X94217Y60266D01*
X94292Y60216D01*
X94380Y60199D01*
X94467Y60216D01*
X94542Y60266D01*
X94591Y60341D01*
X94609Y60428D01*
X94591Y60516D01*
X94542Y60591D01*
X94467Y60640D01*
X94380Y60658D01*
X94292Y60640D01*
X94217Y60591D01*
X94211Y60581D01*
X93521D01*
X93483Y60651D01*
X93509Y60690D01*
X93527Y60778D01*
X93509Y60865D01*
X93459Y60940D01*
X93385Y60989D01*
X93305Y61005D01*
X93312Y61075D01*
X94261D01*
X94267Y61066D01*
X94342Y61016D01*
X94430Y60999D01*
X94517Y61016D01*
X94592Y61066D01*
X94641Y61141D01*
X94655Y61209D01*
X94676Y61237D01*
X94724Y61262D01*
X95345D01*
Y61912D01*
X94717D01*
X94657Y61967D01*
X94659Y61978D01*
X94641Y62066D01*
X94592Y62141D01*
X94525Y62185D01*
X94517Y62190D01*
X94487Y62197D01*
X94463Y62203D01*
X94463Y62210D01*
X94463Y62212D01*
X94463Y62224D01*
Y62224D01*
X94463Y62293D01*
Y62375D01*
X94695D01*
Y62162D01*
X95345D01*
Y62812D01*
X94695D01*
Y62681D01*
X94463D01*
Y62786D01*
X94026D01*
Y62271D01*
X94348D01*
X94393Y62221D01*
X94393D01*
X94393Y62221D01*
X94393D01*
X94394Y62211D01*
X94394Y62209D01*
X94395Y62201D01*
X94393Y62201D01*
X94342Y62190D01*
X94267Y62141D01*
X94259Y62128D01*
X93087D01*
Y62240D01*
X92572D01*
Y62128D01*
X92280D01*
Y62528D01*
X92230Y62578D01*
X91867D01*
Y63128D01*
X90980D01*
Y63228D01*
X91867D01*
Y63728D01*
X92172D01*
Y63713D01*
X92380D01*
Y63882D01*
X92280D01*
Y64075D01*
X92687D01*
Y64511D01*
X92632D01*
Y64626D01*
X92641Y64641D01*
X92659Y64728D01*
X92645Y64800D01*
X92675Y64845D01*
X92695Y64861D01*
X92707Y64859D01*
X92794Y64877D01*
X92869Y64926D01*
X92919Y65001D01*
X92935Y65085D01*
X92952Y65095D01*
X93002Y65117D01*
X93390Y64728D01*
Y64529D01*
X93286D01*
Y64093D01*
X93801D01*
Y64529D01*
X93696D01*
Y64792D01*
X93687Y64841D01*
X93685Y64850D01*
X93664Y64880D01*
X93721Y64920D01*
X93986Y64655D01*
X94036Y64622D01*
X94046Y64620D01*
X94094Y64610D01*
X94922D01*
Y64545D01*
X95027D01*
Y64476D01*
X95038Y64417D01*
X95059Y64386D01*
X95056Y64370D01*
X95073Y64282D01*
X95123Y64208D01*
X95198Y64158D01*
X95285Y64141D01*
X95373Y64158D01*
X95448Y64208D01*
X95497Y64282D01*
X95515Y64370D01*
X95497Y64458D01*
X95448Y64532D01*
X95445Y64534D01*
X95437Y64545D01*
X95437D01*
Y64981D01*
X94922D01*
Y64916D01*
X94158D01*
X93982Y65092D01*
Y65478D01*
X93971Y65537D01*
X93938Y65586D01*
X93488Y66036D01*
X93438Y66070D01*
X93380Y66081D01*
X93113D01*
Y66186D01*
X92779D01*
Y66397D01*
X92853Y66471D01*
X93113D01*
Y66730D01*
X94358Y67975D01*
X94468D01*
X94490Y67905D01*
X94467Y67891D01*
X94418Y67816D01*
X94400Y67728D01*
X94418Y67641D01*
X94467Y67566D01*
X94542Y67516D01*
X94630Y67499D01*
X94717Y67516D01*
X94792Y67566D01*
X94798Y67575D01*
X96361D01*
X96367Y67566D01*
X96371Y67563D01*
Y67507D01*
X96363Y67485D01*
X96318Y67416D01*
X96300Y67328D01*
X96318Y67241D01*
X96367Y67166D01*
X96442Y67116D01*
X96530Y67099D01*
X96617Y67116D01*
X96676Y67156D01*
X96730Y67137D01*
X96746Y67125D01*
Y66971D01*
X97183D01*
Y67486D01*
X96746D01*
X96746Y67486D01*
X96721Y67490D01*
X96693Y67564D01*
X96696Y67572D01*
X96741Y67641D01*
X96759Y67728D01*
X96744Y67802D01*
X96771Y67851D01*
X96789Y67871D01*
X97183D01*
Y68278D01*
X97376D01*
Y67871D01*
D02*
G37*
G36*
X102930Y64578D02*
X102880Y64528D01*
X102780D01*
X102530Y64778D01*
X102480D01*
Y65028D01*
X102780Y65328D01*
X102930D01*
Y64578D01*
D02*
G37*
%LPC*%
G36*
X99760Y61056D02*
X99480D01*
Y60878D01*
X99874D01*
Y60942D01*
X99760Y61056D01*
D02*
G37*
G36*
X99380D02*
X99099D01*
X98985Y60942D01*
Y60878D01*
X99380D01*
Y61056D01*
D02*
G37*
G36*
X99097Y62078D02*
X98928D01*
Y61909D01*
X98965Y61916D01*
X99040Y61966D01*
X99089Y62041D01*
X99097Y62078D01*
D02*
G37*
G36*
X100484Y61752D02*
X100089D01*
Y61486D01*
X100484D01*
Y61752D01*
D02*
G37*
G36*
X93833Y62786D02*
X93665D01*
Y62578D01*
X93833D01*
Y62786D01*
D02*
G37*
G36*
X93565D02*
X93396D01*
Y62578D01*
X93565D01*
Y62786D01*
D02*
G37*
G36*
X98928Y63348D02*
Y63178D01*
X99097D01*
X99089Y63216D01*
X99040Y63291D01*
X98965Y63340D01*
X98928Y63348D01*
D02*
G37*
G36*
X92687Y63074D02*
X92599Y63056D01*
X92525Y63007D01*
X92475Y62932D01*
X92458Y62844D01*
X92475Y62757D01*
X92525Y62682D01*
X92599Y62633D01*
X92687Y62615D01*
X92775Y62633D01*
X92849Y62682D01*
X92899Y62757D01*
X92916Y62844D01*
X92899Y62932D01*
X92849Y63007D01*
X92775Y63056D01*
X92687Y63074D01*
D02*
G37*
G36*
X100488Y62670D02*
X100094D01*
Y62404D01*
X100488D01*
Y62670D01*
D02*
G37*
G36*
X93833Y62478D02*
X93665D01*
Y62271D01*
X93833D01*
Y62478D01*
D02*
G37*
G36*
X93565D02*
X93396D01*
Y62271D01*
X93565D01*
Y62478D01*
D02*
G37*
G36*
X93087Y62508D02*
X92880D01*
Y62340D01*
X93087D01*
Y62508D01*
D02*
G37*
G36*
X92780D02*
X92572D01*
Y62340D01*
X92780D01*
Y62508D01*
D02*
G37*
G36*
X99527Y58920D02*
X99489Y58913D01*
X99415Y58863D01*
X99365Y58789D01*
X99357Y58751D01*
X99527D01*
Y58920D01*
D02*
G37*
G36*
X99076D02*
Y58751D01*
X99245D01*
X99238Y58789D01*
X99188Y58863D01*
X99113Y58913D01*
X99076Y58920D01*
D02*
G37*
G36*
X100480Y60028D02*
X99955D01*
Y59328D01*
X100480D01*
Y60028D01*
D02*
G37*
G36*
X99627Y58920D02*
Y58751D01*
X99796D01*
X99789Y58789D01*
X99739Y58863D01*
X99665Y58913D01*
X99627Y58920D01*
D02*
G37*
G36*
X99245Y58651D02*
X99076D01*
Y58481D01*
X99113Y58489D01*
X99188Y58539D01*
X99238Y58613D01*
X99245Y58651D01*
D02*
G37*
G36*
X98976D02*
X98806D01*
X98814Y58613D01*
X98863Y58539D01*
X98938Y58489D01*
X98976Y58481D01*
Y58651D01*
D02*
G37*
G36*
Y58920D02*
X98938Y58913D01*
X98863Y58863D01*
X98814Y58789D01*
X98806Y58751D01*
X98976D01*
Y58920D01*
D02*
G37*
G36*
X98002Y59521D02*
X97914Y59503D01*
X97840Y59454D01*
X97790Y59379D01*
X97773Y59291D01*
X97790Y59204D01*
X97840Y59129D01*
X97914Y59079D01*
X97956Y59071D01*
Y59000D01*
X97914Y58991D01*
X97840Y58942D01*
X97790Y58867D01*
X97773Y58780D01*
X97790Y58692D01*
X97840Y58617D01*
X97914Y58568D01*
X98002Y58550D01*
X98090Y58568D01*
X98164Y58617D01*
X98214Y58692D01*
X98231Y58780D01*
X98214Y58867D01*
X98164Y58942D01*
X98090Y58991D01*
X98048Y59000D01*
Y59071D01*
X98090Y59079D01*
X98164Y59129D01*
X98214Y59204D01*
X98231Y59291D01*
X98214Y59379D01*
X98164Y59454D01*
X98090Y59503D01*
X98002Y59521D01*
D02*
G37*
G36*
X100480Y60828D02*
X99955D01*
Y60128D01*
X100480D01*
Y60828D01*
D02*
G37*
G36*
X96137Y60213D02*
X95930D01*
Y60045D01*
X96137D01*
Y60213D01*
D02*
G37*
G36*
X99874Y60778D02*
X98985D01*
Y60714D01*
X99073Y60626D01*
X99044Y60556D01*
X98985D01*
Y60481D01*
X97448D01*
X97442Y60491D01*
X97367Y60540D01*
X97280Y60558D01*
X97192Y60540D01*
X97117Y60491D01*
X97068Y60416D01*
X97050Y60328D01*
X97068Y60241D01*
X97117Y60166D01*
X97192Y60116D01*
X97229Y60109D01*
X97238Y60060D01*
X97236Y60036D01*
X97167Y59991D01*
X97118Y59916D01*
X97100Y59828D01*
X97118Y59741D01*
X97167Y59666D01*
X97242Y59616D01*
X97330Y59599D01*
X97417Y59616D01*
X97492Y59666D01*
X97498Y59675D01*
X98934D01*
X98985Y59605D01*
Y59600D01*
X98931Y59561D01*
X98931Y59561D01*
X98680D01*
X98591Y59543D01*
X98516Y59493D01*
X98466Y59417D01*
X98448Y59328D01*
X98466Y59239D01*
X98516Y59164D01*
X98591Y59114D01*
X98680Y59096D01*
X99430D01*
X99452Y59100D01*
X99874D01*
Y59530D01*
X99874Y59556D01*
Y59578D01*
Y59600D01*
X99874Y59626D01*
Y60030D01*
X99874Y60056D01*
Y60078D01*
Y60100D01*
X99874Y60126D01*
Y60556D01*
X99815D01*
X99786Y60626D01*
X99874Y60714D01*
Y60778D01*
D02*
G37*
G36*
X95930Y60482D02*
Y60313D01*
X96137D01*
Y60482D01*
X95930D01*
D02*
G37*
G36*
X96137Y59507D02*
X95948D01*
Y59378D01*
X96137D01*
Y59507D01*
D02*
G37*
G36*
X95848D02*
X95658D01*
Y59378D01*
X95848D01*
Y59507D01*
D02*
G37*
G36*
X96137Y59736D02*
X95948D01*
Y59607D01*
X96137D01*
Y59736D01*
D02*
G37*
G36*
X95848D02*
X95658D01*
Y59607D01*
X95848D01*
Y59736D01*
D02*
G37*
G36*
X95437Y66681D02*
X95230D01*
Y66513D01*
X95437D01*
Y66681D01*
D02*
G37*
G36*
Y67311D02*
X94922D01*
Y67246D01*
X94855D01*
X94805Y67256D01*
X94756Y67247D01*
X94746Y67245D01*
X94696Y67211D01*
X94490Y67006D01*
X94480Y67008D01*
X94392Y66990D01*
X94317Y66941D01*
X94268Y66866D01*
X94250Y66778D01*
X94268Y66691D01*
X94317Y66616D01*
X94327Y66610D01*
Y66511D01*
X94222D01*
Y66075D01*
X94737D01*
Y66511D01*
X94632D01*
Y66610D01*
X94642Y66616D01*
X94691Y66691D01*
X94709Y66778D01*
X94707Y66789D01*
X94852Y66935D01*
X94922Y66926D01*
Y66875D01*
X95437D01*
Y67311D01*
D02*
G37*
G36*
X98857Y67667D02*
X98688D01*
X98696Y67629D01*
X98745Y67554D01*
X98820Y67505D01*
X98857Y67497D01*
Y67667D01*
D02*
G37*
G36*
X95130Y66681D02*
X94922D01*
Y66513D01*
X95130D01*
Y66681D01*
D02*
G37*
G36*
X99430Y66156D02*
X99149D01*
X99035Y66042D01*
Y65978D01*
X99430D01*
Y66156D01*
D02*
G37*
G36*
X99810D02*
X99530D01*
Y65978D01*
X99924D01*
Y66042D01*
X99810Y66156D01*
D02*
G37*
G36*
X95437Y66413D02*
X94922D01*
Y66245D01*
X95048D01*
X95069Y66175D01*
X95017Y66141D01*
X94968Y66066D01*
X94960Y66028D01*
X95399D01*
X95391Y66066D01*
X95342Y66141D01*
X95290Y66175D01*
X95311Y66245D01*
X95437D01*
Y66413D01*
D02*
G37*
G36*
X99127Y67667D02*
X98957D01*
Y67497D01*
X98995Y67505D01*
X99070Y67554D01*
X99119Y67629D01*
X99127Y67667D01*
D02*
G37*
G36*
X99369Y67936D02*
X99332Y67928D01*
X99257Y67879D01*
X99207Y67804D01*
X99200Y67767D01*
X99369D01*
Y67936D01*
D02*
G37*
G36*
X99469D02*
Y67767D01*
X99639D01*
X99631Y67804D01*
X99582Y67879D01*
X99507Y67928D01*
X99469Y67936D01*
D02*
G37*
G36*
X97813Y68386D02*
X97644D01*
Y68178D01*
X97813D01*
Y68386D01*
D02*
G37*
G36*
X98957Y67936D02*
Y67767D01*
X99127D01*
X99119Y67804D01*
X99070Y67879D01*
X98995Y67928D01*
X98957Y67936D01*
D02*
G37*
G36*
X99369Y67667D02*
X99200D01*
X99207Y67629D01*
X99257Y67554D01*
X99332Y67505D01*
X99369Y67497D01*
Y67667D01*
D02*
G37*
G36*
X99639D02*
X99469D01*
Y67497D01*
X99507Y67505D01*
X99582Y67554D01*
X99631Y67629D01*
X99639Y67667D01*
D02*
G37*
G36*
X98857Y67936D02*
X98820Y67928D01*
X98745Y67879D01*
X98696Y67804D01*
X98688Y67767D01*
X98857D01*
Y67936D01*
D02*
G37*
G36*
X95399Y65928D02*
X95230D01*
Y65759D01*
X95267Y65766D01*
X95342Y65816D01*
X95391Y65891D01*
X95399Y65928D01*
D02*
G37*
G36*
X92687Y63882D02*
X92480D01*
Y63713D01*
X92687D01*
Y63882D01*
D02*
G37*
G36*
X93493Y63899D02*
X93286D01*
Y63731D01*
X93493D01*
Y63899D01*
D02*
G37*
G36*
X93801D02*
X93593D01*
Y63731D01*
X93801D01*
Y63899D01*
D02*
G37*
G36*
Y63631D02*
X93593D01*
Y63463D01*
X93801D01*
Y63631D01*
D02*
G37*
G36*
X92380Y63613D02*
X92172D01*
Y63445D01*
X92380D01*
Y63613D01*
D02*
G37*
G36*
X92687D02*
X92480D01*
Y63445D01*
X92687D01*
Y63613D01*
D02*
G37*
G36*
X93493Y63631D02*
X93286D01*
Y63463D01*
X93493D01*
Y63631D01*
D02*
G37*
G36*
X100530Y65128D02*
X100005D01*
Y64428D01*
X100530D01*
Y65128D01*
D02*
G37*
G36*
X95130Y65611D02*
X94922D01*
Y65443D01*
X95130D01*
Y65611D01*
D02*
G37*
G36*
X95437D02*
X95230D01*
Y65443D01*
X95437D01*
Y65611D01*
D02*
G37*
G36*
X95130Y65928D02*
X94960D01*
X94968Y65891D01*
X95017Y65816D01*
X95092Y65766D01*
X95130Y65759D01*
Y65928D01*
D02*
G37*
G36*
X100530D02*
X100005D01*
Y65228D01*
X100530D01*
Y65928D01*
D02*
G37*
G36*
X94737Y65882D02*
X94222D01*
Y65445D01*
X94236D01*
X94274Y65375D01*
X94268Y65366D01*
X94250Y65278D01*
X94268Y65191D01*
X94317Y65116D01*
X94392Y65066D01*
X94480Y65049D01*
X94567Y65066D01*
X94642Y65116D01*
X94691Y65191D01*
X94709Y65278D01*
X94691Y65366D01*
X94685Y65375D01*
X94723Y65445D01*
X94737D01*
Y65882D01*
D02*
G37*
G36*
X95130Y65343D02*
X94922D01*
Y65175D01*
X95130D01*
Y65343D01*
D02*
G37*
G36*
X95437D02*
X95230D01*
Y65175D01*
X95437D01*
Y65343D01*
D02*
G37*
%LPD*%
D10*
X95898Y59557D02*
D03*
X96720D02*
D03*
D11*
X95020Y61587D02*
D03*
Y62487D02*
D03*
X95876Y62468D02*
D03*
Y61568D02*
D03*
D12*
X95880Y60263D02*
D03*
Y60893D02*
D03*
X95180Y66463D02*
D03*
Y67093D02*
D03*
X94480Y65663D02*
D03*
Y66293D02*
D03*
X95180Y65393D02*
D03*
Y64763D02*
D03*
X93543Y63681D02*
D03*
Y64311D02*
D03*
X92830Y62290D02*
D03*
Y61660D02*
D03*
X92430Y63663D02*
D03*
Y64293D02*
D03*
D13*
X93615Y62528D02*
D03*
X94244D02*
D03*
X92265Y65928D02*
D03*
X92894D02*
D03*
X92265Y66728D02*
D03*
X92894D02*
D03*
X98615Y67078D02*
D03*
X99244D02*
D03*
X96965Y65128D02*
D03*
X97594D02*
D03*
X96965Y68128D02*
D03*
X97594D02*
D03*
Y65928D02*
D03*
X96965D02*
D03*
X97594Y67228D02*
D03*
X96965D02*
D03*
X95197Y63533D02*
D03*
X95827D02*
D03*
D14*
X100538Y62354D02*
D03*
X100534Y61802D02*
D03*
X101621D02*
D03*
Y62354D02*
D03*
X100588Y67254D02*
D03*
X100584Y66702D02*
D03*
X101671D02*
D03*
Y67254D02*
D03*
D15*
X101684Y64428D02*
D03*
Y64928D02*
D03*
Y65428D02*
D03*
Y65928D02*
D03*
X99480Y64428D02*
D03*
Y64928D02*
D03*
Y65428D02*
D03*
X101634Y59328D02*
D03*
Y59828D02*
D03*
Y60328D02*
D03*
Y60828D02*
D03*
X99430Y59328D02*
D03*
Y59828D02*
D03*
Y60328D02*
D03*
D16*
X99480Y65928D02*
D03*
X99430Y60828D02*
D03*
D17*
X100580Y65178D02*
D03*
X100530Y60078D02*
D03*
D18*
X97380Y62628D02*
D03*
X98876D02*
D03*
D19*
X96388Y61112D02*
X96720Y60780D01*
Y59557D02*
Y60780D01*
X95880Y59575D02*
X95898Y59557D01*
X95880Y59575D02*
Y60263D01*
X97451Y65522D02*
X98032D01*
X97283Y65689D02*
X97451Y65522D01*
X97283Y65689D02*
Y66171D01*
X97165Y66289D02*
X97283Y66171D01*
X96693Y66289D02*
X97165D01*
X96516Y66112D02*
X96693Y66289D01*
X99244Y67078D02*
X99730D01*
X98908Y66742D02*
X99244Y67078D01*
X98908Y66418D02*
Y66742D01*
X98693Y66203D02*
X98908Y66418D01*
X98305Y66203D02*
X98693D01*
X97766Y66742D02*
X98305Y66203D01*
X96535Y66742D02*
X97766D01*
X97413Y64588D02*
X97770D01*
X97780Y64578D01*
X98630Y65428D01*
X97430Y64228D02*
X98030D01*
X98730Y64928D01*
X95180Y64476D02*
Y64763D01*
Y64476D02*
X95285Y64370D01*
X97190Y62438D02*
X97380Y62628D01*
X95880Y62438D02*
X97190D01*
X92830Y61655D02*
X94833D01*
X92830D02*
Y61660D01*
X94244Y62528D02*
X95130D01*
X96530Y67328D02*
X96965D01*
X96522Y65386D02*
X96965Y65828D01*
X96472Y65386D02*
X96522D01*
X94630Y67728D02*
X96530D01*
X98330Y67578D02*
X98615Y67293D01*
Y67078D02*
Y67293D01*
X96465Y64763D02*
X96880Y65178D01*
X96965D01*
X95980Y68128D02*
X96965D01*
X94294D02*
X95980D01*
X92626Y66460D02*
X92894Y66728D01*
X92626Y65709D02*
Y66460D01*
X92894Y66728D02*
X94294Y68128D01*
X98580Y67043D02*
X98615Y67078D01*
X98580Y66478D02*
Y67043D01*
X94094Y64763D02*
X95180D01*
X93830Y65028D02*
X94094Y64763D01*
X93830Y65028D02*
Y65478D01*
X93380Y65928D02*
X93830Y65478D01*
X92894Y65928D02*
X93380D01*
X90980Y66721D02*
X90987Y66728D01*
X92265D01*
X90980Y65933D02*
X90985Y65928D01*
X92265D01*
X94805Y67103D02*
X94815Y67093D01*
X95180D01*
X90985Y59628D02*
X94380D01*
X90980Y59634D02*
X90985Y59628D01*
X90986Y60428D02*
X94380D01*
X91230Y61975D02*
X94426D01*
X90980Y61996D02*
X90998Y61978D01*
X94426Y61975D02*
X94430Y61978D01*
X98630Y65428D02*
X99480D01*
X90980Y61209D02*
X90999Y61228D01*
X94430D01*
X98730Y64928D02*
X99480D01*
X94480Y66293D02*
Y66778D01*
X94805Y67103D01*
X94480Y65278D02*
Y65663D01*
X90980Y60422D02*
X90986Y60428D01*
X97280Y60328D02*
X99430D01*
X97330Y59828D02*
X99430D01*
X101621Y61802D02*
Y62354D01*
X101671Y66702D02*
Y67254D01*
X95876Y60897D02*
Y61568D01*
Y60897D02*
X95880Y60893D01*
X93543Y64293D02*
Y64792D01*
X92626Y65709D02*
X93543Y64792D01*
D20*
X95180Y65978D02*
Y66463D01*
Y65393D02*
Y65978D01*
X92430Y64293D02*
Y64728D01*
X97380Y62628D02*
Y63176D01*
X97378Y62078D02*
X97380Y62080D01*
Y62628D01*
X92444Y61613D02*
X92830D01*
X92430Y61628D02*
X92444Y61613D01*
D21*
X98100Y61178D02*
Y63648D01*
X98680Y59328D02*
X99430D01*
X98876Y63126D02*
X98878Y63128D01*
X98876Y62628D02*
Y63126D01*
X98100Y63648D02*
X98880Y64428D01*
X98876Y62130D02*
X98878Y62128D01*
X98876Y62130D02*
Y62628D01*
X99480Y65928D02*
X100580D01*
X100630Y65978D01*
X103179Y65928D02*
X103578Y66327D01*
X101684Y65928D02*
X103179D01*
X101684Y65428D02*
X102380D01*
X101680Y66328D02*
Y66494D01*
X101671Y66502D02*
X101680Y66494D01*
X98880Y64428D02*
X99480D01*
X99430Y60828D02*
X100580D01*
X100630Y60778D01*
X100580Y65528D02*
X100630Y65578D01*
X101680Y62413D02*
Y62928D01*
X101621Y62354D02*
X101680Y62413D01*
X101621Y61287D02*
Y61802D01*
Y61287D02*
X101630Y61278D01*
X101671Y67328D02*
Y67720D01*
X102280Y60328D02*
X102330Y60378D01*
X101634Y60328D02*
X102280D01*
X103369Y59828D02*
X103568Y60028D01*
X101634Y59828D02*
X103369D01*
X102704Y61603D02*
X103578D01*
X101930Y60828D02*
X102704Y61603D01*
X101634Y60828D02*
X101930D01*
X103028Y66327D02*
X103578D01*
D22*
X99080Y58628D02*
X100580D01*
X98830Y58378D02*
X99080Y58628D01*
X100580D02*
X100630Y58678D01*
Y60778D02*
Y65578D01*
Y65978D02*
Y67428D01*
Y65578D02*
Y65978D01*
Y58678D02*
Y60778D01*
X100080Y67978D02*
X100630Y67428D01*
X99180Y67978D02*
X100080D01*
X98854Y56888D02*
Y58354D01*
X98830Y58378D02*
X98854Y58354D01*
Y68304D02*
X99180Y67978D01*
X98854Y68304D02*
Y69477D01*
D23*
X103392Y64928D02*
X103568Y64752D01*
X101684Y64928D02*
X103392D01*
X103344Y64528D02*
X103568Y64752D01*
D24*
X91830Y63153D02*
D03*
D25*
X96405Y68603D02*
D03*
D26*
X95780Y68678D02*
D03*
D27*
X95705Y57828D02*
D03*
D28*
X101630Y59028D02*
D03*
X101680Y64078D02*
D03*
D29*
X90980Y67508D02*
D03*
Y58847D02*
D03*
D30*
X91176Y66721D02*
D03*
Y65933D02*
D03*
Y65146D02*
D03*
Y64359D02*
D03*
Y61996D02*
D03*
Y61209D02*
D03*
Y60422D02*
D03*
Y59634D02*
D03*
D31*
X90980Y63178D02*
D03*
X103578Y61603D02*
D03*
X103568Y60028D02*
D03*
Y64752D02*
D03*
X103578Y66327D02*
D03*
D32*
X98854Y69477D02*
D03*
X94129Y69467D02*
D03*
X95704Y69477D02*
D03*
X100428D02*
D03*
X94129Y56888D02*
D03*
X95704D02*
D03*
X98854D02*
D03*
X100428D02*
D03*
D33*
X100330Y65178D02*
D03*
X100880D02*
D03*
Y64728D02*
D03*
X100330D02*
D03*
X100880Y65628D02*
D03*
X100330D02*
D03*
X100280Y60078D02*
D03*
X100830D02*
D03*
Y59628D02*
D03*
X100280D02*
D03*
X100830Y60528D02*
D03*
X100280D02*
D03*
D34*
X96407Y61132D02*
D03*
X96516Y66112D02*
D03*
X98032Y65522D02*
D03*
X96535Y66742D02*
D03*
X97413Y64588D02*
D03*
X97430Y64228D02*
D03*
X98002Y58780D02*
D03*
Y59291D02*
D03*
X99026Y58701D02*
D03*
X99577D02*
D03*
X98907Y67717D02*
D03*
X99419D02*
D03*
X99577Y66496D02*
D03*
X99183D02*
D03*
X95285Y64370D02*
D03*
X96530Y67328D02*
D03*
X96472Y65386D02*
D03*
X94630Y67728D02*
D03*
X96530D02*
D03*
X98330Y67578D02*
D03*
X95980Y68128D02*
D03*
X98580Y66478D02*
D03*
X95180Y65978D02*
D03*
X96465Y64763D02*
D03*
X94380Y59628D02*
D03*
Y60428D02*
D03*
X94430Y61978D02*
D03*
Y61228D02*
D03*
X92430Y64728D02*
D03*
X94480Y66778D02*
D03*
Y65278D02*
D03*
X97280Y60328D02*
D03*
X98680Y59328D02*
D03*
X97330Y59828D02*
D03*
X98080Y61178D02*
D03*
X98444Y62128D02*
D03*
X97780D02*
D03*
X97815Y63128D02*
D03*
X98444D02*
D03*
X101680Y64128D02*
D03*
X101930Y63778D02*
D03*
X101480D02*
D03*
X101630Y59028D02*
D03*
X101880Y58678D02*
D03*
X101430D02*
D03*
X98878Y63128D02*
D03*
X97380Y63176D02*
D03*
X97378Y62078D02*
D03*
X98878Y62128D02*
D03*
X102380Y65428D02*
D03*
X101680Y66328D02*
D03*
Y62928D02*
D03*
X101630Y61278D02*
D03*
X101671Y67720D02*
D03*
X99730Y67078D02*
D03*
X102330Y60378D02*
D03*
X92430Y61628D02*
D03*
X92894Y58474D02*
D03*
X92707Y65089D02*
D03*
X93297Y60778D02*
D03*
X93278Y60030D02*
D03*
X92687Y62844D02*
D03*
M02*
