%FSLAX24Y24*%
%MOIN*%
G70*
G01*
G75*
%ADD10R,0.0280X0.0159*%
%ADD11R,0.0450X0.0450*%
%ADD12R,0.0315X0.0236*%
%ADD13R,0.0236X0.0315*%
%ADD14R,0.0689X0.0433*%
%ADD15R,0.0689X0.0256*%
G04:AMPARAMS|DCode=16|XSize=68.9mil|YSize=25.6mil|CornerRadius=0mil|HoleSize=0mil|Usage=FLASHONLY|Rotation=0.000|XOffset=0mil|YOffset=0mil|HoleType=Round|Shape=Octagon|*
%AMOCTAGOND16*
4,1,8,0.0344,-0.0064,0.0344,0.0064,0.0281,0.0128,-0.0281,0.0128,-0.0344,0.0064,-0.0344,-0.0064,-0.0281,-0.0128,0.0281,-0.0128,0.0344,-0.0064,0.0*
%
%ADD16OCTAGOND16*%

%ADD17R,0.0950X0.1300*%
%ADD18R,0.0984X0.0394*%
%ADD19C,0.0100*%
%ADD20C,0.0197*%
%ADD21C,0.0256*%
%ADD22C,0.0787*%
%ADD23C,0.0315*%
%ADD24R,0.0400X0.0850*%
%ADD25R,0.0550X0.0150*%
%ADD26R,0.1000X0.0300*%
%ADD27R,0.0950X0.0700*%
%ADD28R,0.0600X0.0700*%
%ADD29R,0.1575X0.0394*%
%ADD30R,0.1181X0.0394*%
%ADD31R,0.1575X0.1181*%
%ADD32R,0.1181X0.1575*%
%ADD33C,0.0220*%
%ADD34C,0.0250*%
G04:AMPARAMS|DCode=35|XSize=59.1mil|YSize=26.7mil|CornerRadius=0mil|HoleSize=0mil|Usage=FLASHONLY|Rotation=0.000|XOffset=0mil|YOffset=0mil|HoleType=Round|Shape=Octagon|*
%AMOCTAGOND35*
4,1,8,0.0295,-0.0067,0.0295,0.0067,0.0229,0.0133,-0.0229,0.0133,-0.0295,0.0067,-0.0295,-0.0067,-0.0229,-0.0133,0.0229,-0.0133,0.0295,-0.0067,0.0*
%
%ADD35OCTAGOND35*%

%ADD36R,0.0591X0.0267*%
%ADD37R,0.1102X0.0276*%
%ADD38R,0.1063X0.0315*%
%ADD39R,0.1102X0.0236*%
%ADD40R,0.1102X0.0197*%
%ADD41R,0.1142X0.0315*%
%ADD42R,0.1181X0.0354*%
%ADD43R,0.1142X0.0394*%
%ADD44C,0.0050*%
%ADD45C,0.0060*%
%ADD46C,0.0075*%
D19*
X98778Y61828D02*
Y62128D01*
X97428Y61828D02*
Y62128D01*
X97278Y61978D02*
X97578D01*
X96878Y61378D02*
X99378D01*
X96878Y63878D02*
X99378D01*
X96878Y62978D02*
Y63878D01*
Y61378D02*
Y62278D01*
X99378Y62978D02*
Y63878D01*
Y61378D02*
Y62278D01*
D44*
X96159Y59282D02*
Y59833D01*
X95935Y59282D02*
Y59357D01*
X96683Y59282D02*
Y59357D01*
Y59757D02*
Y59833D01*
X95935Y59757D02*
Y59833D01*
X96683D01*
X95935Y59282D02*
X96683D01*
D45*
X94870Y61937D02*
X95170D01*
X95020Y62137D02*
X95170Y61937D01*
X94870D02*
X95020Y62137D01*
X94870D02*
X95170D01*
X95726Y62118D02*
X96026D01*
X95726D02*
X95876Y61918D01*
X96026Y62118D01*
X95726Y61918D02*
X96026D01*
D46*
X95945Y59020D02*
X96145D01*
Y58970D01*
X95945Y58770D01*
Y58720D01*
X96145D01*
X96245Y59020D02*
Y58720D01*
X96395D01*
X96445Y58770D01*
Y58970D01*
X96395Y59020D01*
X96245D01*
X96545Y58720D02*
X96645D01*
X96595D01*
Y59020D01*
X96545Y58970D01*
X94537Y63174D02*
Y62974D01*
X94637Y62874D01*
X94737Y62974D01*
Y63174D01*
X95037Y63124D02*
X94987Y63174D01*
X94887D01*
X94837Y63124D01*
Y62924D01*
X94887Y62874D01*
X94987D01*
X95037Y62924D01*
X95337Y63124D02*
X95287Y63174D01*
X95187D01*
X95137Y63124D01*
Y62924D01*
X95187Y62874D01*
X95287D01*
X95337Y62924D01*
X95887Y63174D02*
X95787D01*
X95737Y63124D01*
Y62924D01*
X95787Y62874D01*
X95887D01*
X95937Y62924D01*
Y63124D01*
X95887Y63174D01*
X96037Y62874D02*
Y63174D01*
X96237Y62874D01*
Y63174D01*
X94774Y60453D02*
Y60753D01*
X94924D01*
X94974Y60703D01*
Y60603D01*
X94924Y60553D01*
X94774D01*
X94874D02*
X94974Y60453D01*
X95273D02*
X95074D01*
X95273Y60653D01*
Y60703D01*
X95223Y60753D01*
X95124D01*
X95074Y60703D01*
X95373D02*
X95423Y60753D01*
X95523D01*
X95573Y60703D01*
Y60653D01*
X95523Y60603D01*
X95473D01*
X95523D01*
X95573Y60553D01*
Y60503D01*
X95523Y60453D01*
X95423D01*
X95373Y60503D01*
X93445Y61860D02*
Y62160D01*
X93595D01*
X93645Y62110D01*
Y62010D01*
X93595Y61960D01*
X93445D01*
X93545D02*
X93645Y61860D01*
X93945D02*
X93745D01*
X93945Y62060D01*
Y62110D01*
X93895Y62160D01*
X93795D01*
X93745Y62110D01*
X94245Y61860D02*
X94045D01*
X94245Y62060D01*
Y62110D01*
X94195Y62160D01*
X94095D01*
X94045Y62110D01*
X95591Y62884D02*
Y63184D01*
X95740D01*
X95790Y63134D01*
Y63034D01*
X95740Y62984D01*
X95591D01*
X96040Y63184D02*
X95940D01*
X95890Y63134D01*
Y62934D01*
X95940Y62884D01*
X96040D01*
X96090Y62934D01*
Y63134D01*
X96040Y63184D01*
X96190D02*
Y62884D01*
X96290Y62984D01*
X96390Y62884D01*
Y63184D01*
X96940D02*
X96840D01*
X96790Y63134D01*
Y62934D01*
X96840Y62884D01*
X96940D01*
X96990Y62934D01*
Y63134D01*
X96940Y63184D01*
X97090Y62884D02*
Y63184D01*
X97290Y62884D01*
Y63184D01*
X100394Y63150D02*
Y63450D01*
X100544D01*
X100594Y63400D01*
Y63300D01*
X100544Y63250D01*
X100394D01*
X100494D02*
X100594Y63150D01*
X100894Y63400D02*
X100844Y63450D01*
X100744D01*
X100694Y63400D01*
Y63350D01*
X100744Y63300D01*
X100844D01*
X100894Y63250D01*
Y63200D01*
X100844Y63150D01*
X100744D01*
X100694Y63200D01*
X101193Y63450D02*
X100994D01*
Y63150D01*
X101193D01*
X100994Y63300D02*
X101093D01*
X101293Y63150D02*
Y63450D01*
X101493Y63150D01*
Y63450D01*
X101793Y63400D02*
X101743Y63450D01*
X101643D01*
X101593Y63400D01*
Y63350D01*
X101643Y63300D01*
X101743D01*
X101793Y63250D01*
Y63200D01*
X101743Y63150D01*
X101643D01*
X101593Y63200D01*
X102093Y63450D02*
X101893D01*
Y63150D01*
X102093D01*
X101893Y63300D02*
X101993D01*
X102393Y63150D02*
X102193D01*
X102393Y63350D01*
Y63400D01*
X102343Y63450D01*
X102243D01*
X102193Y63400D01*
X100689Y67825D02*
Y68125D01*
X100839D01*
X100889Y68075D01*
Y67975D01*
X100839Y67925D01*
X100689D01*
X100789D02*
X100889Y67825D01*
X101189Y68075D02*
X101139Y68125D01*
X101039D01*
X100989Y68075D01*
Y68025D01*
X101039Y67975D01*
X101139D01*
X101189Y67925D01*
Y67875D01*
X101139Y67825D01*
X101039D01*
X100989Y67875D01*
X101489Y68125D02*
X101289D01*
Y67825D01*
X101489D01*
X101289Y67975D02*
X101389D01*
X101589Y67825D02*
Y68125D01*
X101789Y67825D01*
Y68125D01*
X102089Y68075D02*
X102039Y68125D01*
X101939D01*
X101889Y68075D01*
Y68025D01*
X101939Y67975D01*
X102039D01*
X102089Y67925D01*
Y67875D01*
X102039Y67825D01*
X101939D01*
X101889Y67875D01*
X102388Y68125D02*
X102188D01*
Y67825D01*
X102388D01*
X102188Y67975D02*
X102288D01*
X102488Y67825D02*
X102588D01*
X102538D01*
Y68125D01*
X102488Y68075D01*
X95561Y66634D02*
Y66934D01*
X95711D01*
X95761Y66884D01*
Y66784D01*
X95711Y66734D01*
X95561D01*
X95661D02*
X95761Y66634D01*
X96061D02*
X95861D01*
X96061Y66834D01*
Y66884D01*
X96011Y66934D01*
X95911D01*
X95861Y66884D01*
X96161Y66634D02*
X96261D01*
X96211D01*
Y66934D01*
X96161Y66884D01*
X94833Y65512D02*
Y65812D01*
X94983D01*
X95033Y65762D01*
Y65662D01*
X94983Y65612D01*
X94833D01*
X94933D02*
X95033Y65512D01*
X95333D02*
X95133D01*
X95333Y65712D01*
Y65762D01*
X95283Y65812D01*
X95183D01*
X95133Y65762D01*
X95432D02*
X95482Y65812D01*
X95582D01*
X95632Y65762D01*
Y65562D01*
X95582Y65512D01*
X95482D01*
X95432Y65562D01*
Y65762D01*
X92215Y65384D02*
Y65684D01*
X92365D01*
X92415Y65634D01*
Y65534D01*
X92365Y65484D01*
X92215D01*
X92315D02*
X92415Y65384D01*
X92514D02*
X92614D01*
X92564D01*
Y65684D01*
X92514Y65634D01*
X92764D02*
X92814Y65684D01*
X92914D01*
X92964Y65634D01*
Y65584D01*
X92914Y65534D01*
X92864D01*
X92914D01*
X92964Y65484D01*
Y65434D01*
X92914Y65384D01*
X92814D01*
X92764Y65434D01*
X92215Y66171D02*
Y66471D01*
X92365D01*
X92415Y66421D01*
Y66321D01*
X92365Y66271D01*
X92215D01*
X92315D02*
X92415Y66171D01*
X92514D02*
X92614D01*
X92564D01*
Y66471D01*
X92514Y66421D01*
X92964Y66171D02*
X92764D01*
X92964Y66371D01*
Y66421D01*
X92914Y66471D01*
X92814D01*
X92764Y66421D01*
X98799Y67530D02*
Y67829D01*
X98949D01*
X98999Y67779D01*
Y67679D01*
X98949Y67629D01*
X98799D01*
X98899D02*
X98999Y67530D01*
X99099D02*
X99199D01*
X99149D01*
Y67829D01*
X99099Y67779D01*
X99349D02*
X99399Y67829D01*
X99499D01*
X99549Y67779D01*
Y67580D01*
X99499Y67530D01*
X99399D01*
X99349Y67580D01*
Y67779D01*
X97874Y64961D02*
Y65261D01*
X98024D01*
X98074Y65211D01*
Y65111D01*
X98024Y65061D01*
X97874D01*
X97974D02*
X98074Y64961D01*
X98174Y65011D02*
X98224Y64961D01*
X98324D01*
X98374Y65011D01*
Y65211D01*
X98324Y65261D01*
X98224D01*
X98174Y65211D01*
Y65161D01*
X98224Y65111D01*
X98374D01*
X97008Y67520D02*
Y67820D01*
X97158D01*
X97208Y67770D01*
Y67670D01*
X97158Y67620D01*
X97008D01*
X97108D02*
X97208Y67520D01*
X97308Y67770D02*
X97358Y67820D01*
X97458D01*
X97508Y67770D01*
Y67720D01*
X97458Y67670D01*
X97508Y67620D01*
Y67570D01*
X97458Y67520D01*
X97358D01*
X97308Y67570D01*
Y67620D01*
X97358Y67670D01*
X97308Y67720D01*
Y67770D01*
X97358Y67670D02*
X97458D01*
X97904Y65778D02*
Y66077D01*
X98054D01*
X98103Y66027D01*
Y65928D01*
X98054Y65878D01*
X97904D01*
X98004D02*
X98103Y65778D01*
X98203Y66077D02*
X98403D01*
Y66027D01*
X98203Y65828D01*
Y65778D01*
X97008Y66604D02*
Y66904D01*
X97158D01*
X97208Y66854D01*
Y66754D01*
X97158Y66704D01*
X97008D01*
X97108D02*
X97208Y66604D01*
X97508Y66904D02*
X97408Y66854D01*
X97308Y66754D01*
Y66654D01*
X97358Y66604D01*
X97458D01*
X97508Y66654D01*
Y66704D01*
X97458Y66754D01*
X97308D01*
X100335Y66024D02*
Y66324D01*
X100435Y66224D01*
X100535Y66324D01*
Y66024D01*
X100834D02*
X100635D01*
X100834Y66224D01*
Y66274D01*
X100785Y66324D01*
X100685D01*
X100635Y66274D01*
X100335Y61024D02*
Y61324D01*
X100435Y61224D01*
X100535Y61324D01*
Y61024D01*
X100635D02*
X100735D01*
X100685D01*
Y61324D01*
X100635Y61274D01*
X94974Y64089D02*
X94924Y64138D01*
X94824D01*
X94774Y64089D01*
Y63889D01*
X94824Y63839D01*
X94924D01*
X94974Y63889D01*
Y63989D01*
X94874D01*
X95074Y63839D02*
Y64138D01*
X95273Y63839D01*
Y64138D01*
X95373D02*
Y63839D01*
X95523D01*
X95573Y63889D01*
Y64089D01*
X95523Y64138D01*
X95373D01*
X95973D02*
X96173D01*
X96073D01*
Y63839D01*
X96273Y64138D02*
X96373D01*
X96323D01*
Y63839D01*
X96273D01*
X96373D01*
X96723Y64138D02*
X96523D01*
Y63839D01*
X96723D01*
X96523Y63989D02*
X96623D01*
X95751Y65211D02*
X95701Y65261D01*
X95601D01*
X95551Y65211D01*
Y65011D01*
X95601Y64961D01*
X95701D01*
X95751Y65011D01*
X95851Y65211D02*
X95901Y65261D01*
X96001D01*
X96051Y65211D01*
Y65161D01*
X96001Y65111D01*
X96051Y65061D01*
Y65011D01*
X96001Y64961D01*
X95901D01*
X95851Y65011D01*
Y65061D01*
X95901Y65111D01*
X95851Y65161D01*
Y65211D01*
X95901Y65111D02*
X96001D01*
X94068Y64148D02*
X94018Y64198D01*
X93918D01*
X93868Y64148D01*
Y63948D01*
X93918Y63898D01*
X94018D01*
X94068Y63948D01*
X94168Y64198D02*
X94368D01*
Y64148D01*
X94168Y63948D01*
Y63898D01*
X93074Y62829D02*
X93024Y62879D01*
X92924D01*
X92874Y62829D01*
Y62629D01*
X92924Y62579D01*
X93024D01*
X93074Y62629D01*
X93374Y62879D02*
X93274Y62829D01*
X93174Y62729D01*
Y62629D01*
X93224Y62579D01*
X93324D01*
X93374Y62629D01*
Y62679D01*
X93324Y62729D01*
X93174D01*
X92887Y64131D02*
X92837Y64181D01*
X92737D01*
X92687Y64131D01*
Y63931D01*
X92737Y63882D01*
X92837D01*
X92887Y63931D01*
X93187Y64181D02*
X92987D01*
Y64031D01*
X93087Y64081D01*
X93137D01*
X93187Y64031D01*
Y63931D01*
X93137Y63882D01*
X93037D01*
X92987Y63931D01*
X97099Y64458D02*
X97049Y64508D01*
X96950D01*
X96900Y64458D01*
Y64258D01*
X96950Y64208D01*
X97049D01*
X97099Y64258D01*
X97199Y64208D02*
X97299D01*
X97249D01*
Y64508D01*
X97199Y64458D01*
X101909Y59754D02*
Y60054D01*
X102009Y59954D01*
X102109Y60054D01*
Y59754D01*
X102209D02*
X102309D01*
X102259D01*
Y60054D01*
X102209Y60004D01*
X102459Y59754D02*
Y59954D01*
X102559Y60054D01*
X102659Y59954D01*
Y59754D01*
Y59904D01*
X102459D01*
X101890Y61083D02*
Y61383D01*
X101990Y61283D01*
X102090Y61383D01*
Y61083D01*
X102190D02*
X102290D01*
X102240D01*
Y61383D01*
X102190Y61333D01*
X102440Y61383D02*
Y61083D01*
X102590D01*
X102640Y61133D01*
Y61183D01*
X102590Y61233D01*
X102440D01*
X102590D01*
X102640Y61283D01*
Y61333D01*
X102590Y61383D01*
X102440D01*
X101841Y64803D02*
Y65103D01*
X101941Y65003D01*
X102040Y65103D01*
Y64803D01*
X102340D02*
X102140D01*
X102340Y65003D01*
Y65053D01*
X102290Y65103D01*
X102190D01*
X102140Y65053D01*
X102440Y64803D02*
Y65003D01*
X102540Y65103D01*
X102640Y65003D01*
Y64803D01*
Y64953D01*
X102440D01*
X101860Y65856D02*
Y66156D01*
X101960Y66056D01*
X102060Y66156D01*
Y65856D01*
X102360D02*
X102160D01*
X102360Y66056D01*
Y66106D01*
X102310Y66156D01*
X102210D01*
X102160Y66106D01*
X102460Y66156D02*
Y65856D01*
X102610D01*
X102660Y65906D01*
Y65956D01*
X102610Y66006D01*
X102460D01*
X102610D01*
X102660Y66056D01*
Y66106D01*
X102610Y66156D01*
X102460D01*
X91998Y60595D02*
X92098D01*
X92048D01*
Y60295D01*
X91998D01*
X92098D01*
X92248D02*
Y60595D01*
X92448Y60295D01*
Y60595D01*
X92748Y60295D02*
X92548D01*
X92748Y60495D01*
Y60545D01*
X92698Y60595D01*
X92598D01*
X92548Y60545D01*
X92848Y60595D02*
Y60295D01*
X92998D01*
X93048Y60345D01*
Y60395D01*
X92998Y60445D01*
X92848D01*
X92998D01*
X93048Y60495D01*
Y60545D01*
X92998Y60595D01*
X92848D01*
X91998Y59788D02*
X92098D01*
X92048D01*
Y59488D01*
X91998D01*
X92098D01*
X92248D02*
Y59788D01*
X92448Y59488D01*
Y59788D01*
X92748Y59488D02*
X92548D01*
X92748Y59688D01*
Y59738D01*
X92698Y59788D01*
X92598D01*
X92548Y59738D01*
X92848Y59488D02*
Y59688D01*
X92948Y59788D01*
X93048Y59688D01*
Y59488D01*
Y59638D01*
X92848D01*
X91988Y61343D02*
X92088D01*
X92038D01*
Y61043D01*
X91988D01*
X92088D01*
X92238D02*
Y61343D01*
X92438Y61043D01*
Y61343D01*
X92538Y61043D02*
X92638D01*
X92588D01*
Y61343D01*
X92538Y61293D01*
X92788Y61043D02*
Y61243D01*
X92888Y61343D01*
X92988Y61243D01*
Y61043D01*
Y61193D01*
X92788D01*
X91998Y62121D02*
X92098D01*
X92048D01*
Y61821D01*
X91998D01*
X92098D01*
X92248D02*
Y62121D01*
X92448Y61821D01*
Y62121D01*
X92548Y61821D02*
X92648D01*
X92598D01*
Y62121D01*
X92548Y62071D01*
X92798Y62121D02*
Y61821D01*
X92948D01*
X92998Y61871D01*
Y61921D01*
X92948Y61971D01*
X92798D01*
X92948D01*
X92998Y62021D01*
Y62071D01*
X92948Y62121D01*
X92798D01*
X93238Y66028D02*
X93338D01*
X93288D01*
Y65728D01*
X93238D01*
X93338D01*
X93488D02*
X93588D01*
X93538D01*
Y66028D01*
X93488Y65978D01*
X93218Y66865D02*
X93318D01*
X93268D01*
Y66565D01*
X93218D01*
X93318D01*
X93668D02*
X93468D01*
X93668Y66765D01*
Y66815D01*
X93618Y66865D01*
X93518D01*
X93468Y66815D01*
X91988Y67323D02*
Y67523D01*
X92088Y67623D01*
X92188Y67523D01*
Y67323D01*
Y67473D01*
X91988D01*
X92288Y67623D02*
Y67423D01*
X92388Y67323D01*
X92488Y67423D01*
Y67623D01*
X92788Y67573D02*
X92738Y67623D01*
X92638D01*
X92588Y67573D01*
Y67373D01*
X92638Y67323D01*
X92738D01*
X92788Y67373D01*
X93088Y67573D02*
X93038Y67623D01*
X92938D01*
X92888Y67573D01*
Y67373D01*
X92938Y67323D01*
X93038D01*
X93088Y67373D01*
X91988Y58681D02*
Y58881D01*
X92088Y58981D01*
X92188Y58881D01*
Y58681D01*
Y58831D01*
X91988D01*
X92288Y58681D02*
Y58981D01*
X92438D01*
X92488Y58931D01*
Y58831D01*
X92438Y58781D01*
X92288D01*
X92388D02*
X92488Y58681D01*
X92788Y58981D02*
X92588D01*
Y58681D01*
X92788D01*
X92588Y58831D02*
X92688D01*
X93088Y58981D02*
X92888D01*
Y58831D01*
X92988D01*
X92888D01*
Y58681D01*
X91988Y63012D02*
Y63212D01*
X92088Y63312D01*
X92188Y63212D01*
Y63012D01*
Y63162D01*
X91988D01*
X92488Y63262D02*
X92438Y63312D01*
X92338D01*
X92288Y63262D01*
Y63062D01*
X92338Y63012D01*
X92438D01*
X92488Y63062D01*
Y63162D01*
X92388D01*
X92588Y63012D02*
Y63312D01*
X92788Y63012D01*
Y63312D01*
X92888D02*
Y63012D01*
X93038D01*
X93088Y63062D01*
Y63262D01*
X93038Y63312D01*
X92888D01*
X95157Y57884D02*
Y58184D01*
X95307D01*
X95357Y58134D01*
Y58034D01*
X95307Y57984D01*
X95157D01*
X95657Y58134D02*
X95607Y58184D01*
X95507D01*
X95457Y58134D01*
Y57934D01*
X95507Y57884D01*
X95607D01*
X95657Y57934D01*
Y58034D01*
X95557D01*
X95757Y57884D02*
Y58184D01*
X95957Y57884D01*
Y58184D01*
X96057D02*
Y57884D01*
X96207D01*
X96257Y57934D01*
Y58134D01*
X96207Y58184D01*
X96057D01*
X98317Y57884D02*
Y58184D01*
X98467D01*
X98517Y58134D01*
Y58034D01*
X98467Y57984D01*
X98317D01*
X98817Y58134D02*
X98767Y58184D01*
X98667D01*
X98617Y58134D01*
Y57934D01*
X98667Y57884D01*
X98767D01*
X98817Y57934D01*
Y58034D01*
X98717D01*
X98917Y57884D02*
Y58184D01*
X99117Y57884D01*
Y58184D01*
X99217D02*
Y57884D01*
X99367D01*
X99417Y57934D01*
Y58134D01*
X99367Y58184D01*
X99217D01*
X99390Y68514D02*
Y68214D01*
X99240D01*
X99190Y68264D01*
Y68364D01*
X99240Y68414D01*
X99390D01*
X98890Y68264D02*
X98940Y68214D01*
X99040D01*
X99090Y68264D01*
Y68464D01*
X99040Y68514D01*
X98940D01*
X98890Y68464D01*
Y68364D01*
X98990D01*
X98790Y68514D02*
Y68214D01*
X98590Y68514D01*
Y68214D01*
X98490D02*
Y68514D01*
X98340D01*
X98290Y68464D01*
Y68264D01*
X98340Y68214D01*
X98490D01*
X96220Y68514D02*
Y68214D01*
X96071D01*
X96021Y68264D01*
Y68364D01*
X96071Y68414D01*
X96220D01*
X95721Y68264D02*
X95771Y68214D01*
X95871D01*
X95921Y68264D01*
Y68464D01*
X95871Y68514D01*
X95771D01*
X95721Y68464D01*
Y68364D01*
X95821D01*
X95621Y68514D02*
Y68214D01*
X95421Y68514D01*
Y68214D01*
X95321D02*
Y68514D01*
X95171D01*
X95121Y68464D01*
Y68264D01*
X95171Y68214D01*
X95321D01*
X94685Y68344D02*
X94485D01*
X94585Y68244D02*
Y68444D01*
X94385Y68494D02*
X94285D01*
X94335D01*
Y68194D01*
X94385Y68244D01*
X93935Y68494D02*
X94135D01*
X93935Y68294D01*
Y68244D01*
X93985Y68194D01*
X94085D01*
X94135Y68244D01*
X93835Y68194D02*
Y68394D01*
X93735Y68494D01*
X93635Y68394D01*
Y68194D01*
X100906Y68344D02*
X100706D01*
X100806Y68244D02*
Y68444D01*
X100606Y68494D02*
X100506D01*
X100556D01*
Y68194D01*
X100606Y68244D01*
X100156Y68494D02*
X100356D01*
X100156Y68294D01*
Y68244D01*
X100206Y68194D01*
X100306D01*
X100356Y68244D01*
X100056Y68194D02*
Y68394D01*
X99956Y68494D01*
X99856Y68394D01*
Y68194D01*
X93632Y58034D02*
X93832D01*
X93732Y58134D02*
Y57934D01*
X93932Y57884D02*
X94032D01*
X93982D01*
Y58184D01*
X93932Y58134D01*
X94382Y57884D02*
X94182D01*
X94382Y58084D01*
Y58134D01*
X94332Y58184D01*
X94232D01*
X94182Y58134D01*
X94482Y58184D02*
Y57984D01*
X94582Y57884D01*
X94682Y57984D01*
Y58184D01*
X99902Y58034D02*
X100102D01*
X100002Y58134D02*
Y57934D01*
X100201Y57884D02*
X100301D01*
X100251D01*
Y58184D01*
X100201Y58134D01*
X100651Y57884D02*
X100451D01*
X100651Y58084D01*
Y58134D01*
X100601Y58184D01*
X100501D01*
X100451Y58134D01*
X100751Y58184D02*
Y57984D01*
X100851Y57884D01*
X100951Y57984D01*
Y58184D01*
M02*
