%FSLAX24Y24*%
%MOIN*%
G70*
G01*
G75*
G04 Layer_Physical_Order=2*
G04 Layer_Color=16711680*
%ADD10R,0.0280X0.0159*%
%ADD11R,0.0450X0.0450*%
%ADD12R,0.0315X0.0236*%
%ADD13R,0.0236X0.0315*%
%ADD14R,0.0689X0.0433*%
%ADD15R,0.0689X0.0256*%
G04:AMPARAMS|DCode=16|XSize=68.9mil|YSize=25.6mil|CornerRadius=0mil|HoleSize=0mil|Usage=FLASHONLY|Rotation=0.000|XOffset=0mil|YOffset=0mil|HoleType=Round|Shape=Octagon|*
%AMOCTAGOND16*
4,1,8,0.0344,-0.0064,0.0344,0.0064,0.0281,0.0128,-0.0281,0.0128,-0.0344,0.0064,-0.0344,-0.0064,-0.0281,-0.0128,0.0281,-0.0128,0.0344,-0.0064,0.0*
%
%ADD16OCTAGOND16*%

%ADD17R,0.0950X0.1300*%
%ADD18R,0.0984X0.0394*%
%ADD19C,0.0100*%
%ADD20C,0.0197*%
%ADD21C,0.0256*%
%ADD22C,0.0787*%
%ADD23C,0.0315*%
%ADD24R,0.0400X0.0850*%
%ADD25R,0.0550X0.0150*%
%ADD26R,0.1000X0.0300*%
%ADD27R,0.0950X0.0700*%
%ADD28R,0.0600X0.0700*%
%ADD29R,0.1575X0.0394*%
%ADD30R,0.1181X0.0394*%
%ADD31R,0.1575X0.1181*%
%ADD32R,0.1181X0.1575*%
%ADD33C,0.0220*%
%ADD34C,0.0250*%
G04:AMPARAMS|DCode=35|XSize=59.1mil|YSize=26.7mil|CornerRadius=0mil|HoleSize=0mil|Usage=FLASHONLY|Rotation=0.000|XOffset=0mil|YOffset=0mil|HoleType=Round|Shape=Octagon|*
%AMOCTAGOND35*
4,1,8,0.0295,-0.0067,0.0295,0.0067,0.0229,0.0133,-0.0229,0.0133,-0.0295,0.0067,-0.0295,-0.0067,-0.0229,-0.0133,0.0229,-0.0133,0.0295,-0.0067,0.0*
%
%ADD35OCTAGOND35*%

%ADD36R,0.0591X0.0267*%
%ADD37R,0.1102X0.0276*%
%ADD38R,0.1063X0.0315*%
%ADD39R,0.1102X0.0236*%
%ADD40R,0.1102X0.0197*%
%ADD41R,0.1142X0.0315*%
%ADD42R,0.1181X0.0354*%
%ADD43R,0.1142X0.0394*%
G36*
X100478Y68589D02*
X101106D01*
X101674Y68021D01*
X101644Y67952D01*
X101463D01*
Y67986D01*
X101026D01*
Y67471D01*
X101463D01*
Y67487D01*
X101671D01*
X101760Y67505D01*
X101835Y67555D01*
X101886Y67631D01*
X101899Y67697D01*
X101960Y67724D01*
X101970Y67725D01*
X102411Y67283D01*
Y65817D01*
X102347Y65790D01*
X101912Y66225D01*
Y66328D01*
X101894Y66417D01*
X101844Y66493D01*
X101768Y66543D01*
X101680Y66561D01*
X101591Y66543D01*
X101515Y66493D01*
X101465Y66417D01*
X101447Y66328D01*
Y66128D01*
X101465Y66039D01*
X101515Y65964D01*
X102215Y65264D01*
X102291Y65214D01*
X102380Y65196D01*
X102411Y65170D01*
Y60717D01*
X102347Y60690D01*
X101862Y61175D01*
Y61278D01*
X101844Y61367D01*
X101794Y61443D01*
X101718Y61493D01*
X101630Y61511D01*
X101541Y61493D01*
X101465Y61443D01*
X101415Y61367D01*
X101397Y61278D01*
Y61078D01*
X101415Y60989D01*
X101465Y60914D01*
X102165Y60214D01*
X102241Y60164D01*
X102330Y60146D01*
X102357Y60151D01*
X102411Y60107D01*
Y59409D01*
X102411D01*
X101937Y58935D01*
X101857Y58954D01*
X101848Y58973D01*
X101849Y58978D01*
X101410D01*
X101418Y58941D01*
X101364Y58895D01*
X101342Y58890D01*
X101267Y58841D01*
X101218Y58766D01*
X101210Y58728D01*
X101430D01*
Y58628D01*
X101210D01*
X101218Y58591D01*
X101267Y58516D01*
X101342Y58466D01*
X101365Y58462D01*
X101388Y58386D01*
X101033Y58032D01*
Y57775D01*
X100478D01*
Y56888D01*
X100378D01*
Y57775D01*
X99852D01*
Y58032D01*
Y61614D01*
X98769D01*
X98747Y61684D01*
X98792Y61714D01*
X99042Y61964D01*
X99092Y62039D01*
X99110Y62128D01*
X99092Y62217D01*
X99042Y62293D01*
X98967Y62343D01*
X98878Y62361D01*
X98789Y62343D01*
X98747Y62315D01*
X98677Y62353D01*
Y62628D01*
Y62904D01*
X98747Y62941D01*
X98789Y62914D01*
X98878Y62896D01*
X98967Y62914D01*
X99042Y62964D01*
X99092Y63039D01*
X99110Y63128D01*
X99092Y63217D01*
X99042Y63293D01*
X98842Y63493D01*
X98766Y63543D01*
X98678Y63561D01*
X98663D01*
Y63786D01*
X98226D01*
Y63400D01*
X98212Y63328D01*
Y62628D01*
Y62128D01*
Y61878D01*
X98226Y61806D01*
Y61750D01*
X98212Y61678D01*
X98214Y61668D01*
X98170Y61614D01*
X98033D01*
Y61628D01*
X97596D01*
Y61614D01*
X97137D01*
Y61631D01*
X96622D01*
Y61614D01*
X95915D01*
Y60481D01*
X94598D01*
X94591Y60516D01*
X94542Y60591D01*
X94467Y60640D01*
X94380Y60658D01*
X94292Y60640D01*
X94217Y60591D01*
X94168Y60516D01*
X94150Y60428D01*
X94168Y60341D01*
X94217Y60266D01*
X94292Y60216D01*
X94380Y60199D01*
X94398Y60203D01*
X94421Y60187D01*
X94480Y60175D01*
X95653D01*
X95717Y60160D01*
Y59801D01*
X95655Y59781D01*
X94548D01*
X94542Y59791D01*
X94467Y59840D01*
X94380Y59858D01*
X94292Y59840D01*
X94217Y59791D01*
X94168Y59716D01*
X94150Y59628D01*
X94168Y59541D01*
X94217Y59466D01*
X94292Y59416D01*
X94380Y59399D01*
X94467Y59416D01*
X94542Y59466D01*
X94548Y59475D01*
X95774D01*
Y59071D01*
X94734Y58032D01*
Y57775D01*
X94179D01*
Y56888D01*
X94079D01*
Y57775D01*
X93553D01*
Y64545D01*
X94058D01*
X94175Y64662D01*
Y64895D01*
X94095Y64975D01*
X94124Y65045D01*
X94175D01*
Y65125D01*
X94311D01*
X94317Y65116D01*
X94392Y65066D01*
X94480Y65049D01*
X94567Y65066D01*
X94642Y65116D01*
X94691Y65191D01*
X94709Y65278D01*
X94691Y65366D01*
X94642Y65441D01*
X94567Y65490D01*
X94480Y65508D01*
X94392Y65490D01*
X94317Y65441D01*
X94311Y65431D01*
X94175D01*
Y65512D01*
X94175D01*
Y65545D01*
X94175D01*
Y66012D01*
X94175D01*
Y66045D01*
X94175D01*
Y66512D01*
X94175D01*
Y66545D01*
X94175D01*
Y66625D01*
X94311D01*
X94317Y66616D01*
X94392Y66566D01*
X94480Y66549D01*
X94567Y66566D01*
X94642Y66616D01*
X94691Y66691D01*
X94709Y66778D01*
X94691Y66866D01*
X94642Y66941D01*
X94567Y66990D01*
X94480Y67008D01*
X94392Y66990D01*
X94317Y66941D01*
X94311Y66931D01*
X94175D01*
Y67012D01*
X94175D01*
Y67045D01*
X94175D01*
Y67512D01*
X94175Y67512D01*
X94190Y67575D01*
X94461D01*
X94467Y67566D01*
X94542Y67516D01*
X94630Y67499D01*
X94717Y67516D01*
X94792Y67566D01*
X94841Y67641D01*
X94859Y67728D01*
X94841Y67816D01*
X94792Y67891D01*
X94717Y67940D01*
X94630Y67958D01*
X94542Y67940D01*
X94467Y67891D01*
X94461Y67881D01*
X94175D01*
Y68012D01*
X93553D01*
Y68580D01*
X94079D01*
Y69467D01*
X94179D01*
Y68580D01*
X94820D01*
Y68585D01*
X94887Y68603D01*
X95550Y67499D01*
Y67082D01*
X95550Y67045D01*
X95550Y67045D01*
Y67012D01*
X95550D01*
X95550Y67012D01*
Y66545D01*
X95550Y66545D01*
X95536Y66481D01*
X95480D01*
X95402Y66465D01*
X95336Y66421D01*
X95109Y66194D01*
X95092Y66190D01*
X95017Y66141D01*
X94968Y66066D01*
X94950Y65978D01*
X94968Y65891D01*
X95017Y65816D01*
X95092Y65766D01*
X95180Y65749D01*
X95267Y65766D01*
X95342Y65816D01*
X95391Y65891D01*
X95395Y65908D01*
X95480Y65992D01*
X95550Y65963D01*
Y65545D01*
X95550D01*
Y65512D01*
X95550D01*
Y65045D01*
X95550D01*
Y65012D01*
X95550D01*
Y64599D01*
X95479Y64529D01*
X95448Y64532D01*
X95373Y64582D01*
X95285Y64599D01*
X95198Y64582D01*
X95123Y64532D01*
X95073Y64458D01*
X95056Y64370D01*
X95073Y64282D01*
X95123Y64208D01*
X95198Y64158D01*
X95285Y64141D01*
X95373Y64158D01*
X95439Y64202D01*
X95522D01*
X95580Y64214D01*
X95630Y64247D01*
X95709Y64327D01*
X95755Y64308D01*
X95774Y64292D01*
Y63693D01*
X95776Y63683D01*
X95776Y63673D01*
X95776Y63671D01*
X95777Y63669D01*
X95777Y63667D01*
X95781Y63659D01*
X95782Y63654D01*
X95786Y63647D01*
X95792Y63634D01*
X95793Y63632D01*
X95794Y63631D01*
X95802Y63623D01*
X95804Y63621D01*
X95805Y63619D01*
X95807Y63618D01*
X95819Y63552D01*
X95817Y63538D01*
X95814Y63529D01*
X94482Y62197D01*
X94430Y62208D01*
X94342Y62190D01*
X94267Y62141D01*
X94218Y62066D01*
X94200Y61978D01*
X94218Y61891D01*
X94267Y61816D01*
X94342Y61766D01*
X94430Y61749D01*
X94517Y61766D01*
X94592Y61816D01*
X94641Y61891D01*
X94650Y61932D01*
X95851Y63133D01*
X95915Y63106D01*
Y62930D01*
X94440Y61456D01*
X94430Y61458D01*
X94342Y61440D01*
X94267Y61391D01*
X94218Y61316D01*
X94200Y61228D01*
X94218Y61141D01*
X94267Y61066D01*
X94342Y61016D01*
X94430Y60999D01*
X94517Y61016D01*
X94592Y61066D01*
X94641Y61141D01*
X94659Y61228D01*
X94657Y61239D01*
X95851Y62433D01*
D01*
X97419Y64001D01*
X97430Y63999D01*
X97517Y64016D01*
X97592Y64066D01*
X97641Y64141D01*
X97659Y64228D01*
X97641Y64316D01*
X97626Y64339D01*
X97663Y64409D01*
X98967D01*
X100413Y62964D01*
X100446Y62930D01*
Y62671D01*
X100883D01*
Y63186D01*
X100623D01*
X99464Y64345D01*
X99491Y64409D01*
X99852D01*
Y66886D01*
X99894Y66914D01*
X100451Y67471D01*
X100833D01*
Y67656D01*
X100847Y67728D01*
X100833Y67800D01*
Y67986D01*
X100396D01*
Y67961D01*
X100380D01*
X100291Y67943D01*
X100215Y67893D01*
X99917Y67595D01*
X99852Y67621D01*
Y68589D01*
X100378D01*
Y69477D01*
X100478D01*
Y68589D01*
D02*
G37*
G36*
X98494Y61421D02*
X98663D01*
Y61480D01*
X98669Y61487D01*
X98694Y61505D01*
X98710Y61514D01*
X98728Y61520D01*
X98733Y61519D01*
X98744Y61517D01*
X98758Y61513D01*
X98764Y61513D01*
X98769Y61512D01*
X99695D01*
Y58970D01*
X99627Y58922D01*
Y58701D01*
Y58480D01*
X99695Y58431D01*
Y58228D01*
X99341D01*
X99419Y58150D01*
Y57775D01*
X98904D01*
Y56888D01*
X98804D01*
Y57775D01*
X98317D01*
Y58268D01*
X96361D01*
X96294Y58283D01*
X96294Y58283D01*
D01*
X96270Y58307D01*
X96230Y58268D01*
X96230Y58249D01*
Y58247D01*
D01*
Y58247D01*
X96230Y58177D01*
Y57775D01*
X95754D01*
Y56888D01*
X95654D01*
Y57775D01*
X95167D01*
Y58189D01*
Y58268D01*
X95797Y58898D01*
X95876Y58976D01*
Y59475D01*
X97130D01*
X97188Y59487D01*
X97238Y59520D01*
X97319Y59601D01*
X97330Y59599D01*
X97417Y59616D01*
X97492Y59666D01*
X97541Y59741D01*
X97559Y59828D01*
X97541Y59916D01*
X97492Y59991D01*
X97417Y60040D01*
X97380Y60048D01*
X97371Y60097D01*
X97373Y60120D01*
X97442Y60166D01*
X97491Y60241D01*
X97499Y60281D01*
X97575Y60304D01*
X97830Y60049D01*
X97906Y59999D01*
X97994Y59981D01*
X98247D01*
Y59528D01*
X98265Y59439D01*
X98315Y59364D01*
X98515Y59164D01*
X98591Y59114D01*
X98680Y59096D01*
X98768Y59114D01*
X98844Y59164D01*
X98894Y59239D01*
X98912Y59328D01*
X98894Y59417D01*
X98844Y59493D01*
X98712Y59625D01*
Y59995D01*
X98737D01*
Y60431D01*
X98551D01*
X98480Y60446D01*
X98091D01*
X97791Y60746D01*
X97991Y60946D01*
X98080D01*
X98152Y60960D01*
X98222Y60922D01*
Y60893D01*
X98430D01*
Y61061D01*
X98353D01*
X98303Y61131D01*
X98312Y61178D01*
X98294Y61267D01*
X98244Y61343D01*
X98232Y61351D01*
X98253Y61421D01*
X98394D01*
Y61678D01*
X98494D01*
Y61421D01*
D02*
G37*
G36*
X98904Y68589D02*
X99380D01*
X99380Y68189D01*
X99656D01*
X99695Y68173D01*
Y67825D01*
X99663Y67815D01*
X99625Y67814D01*
X99582Y67879D01*
X99507Y67928D01*
X99469Y67936D01*
Y67717D01*
Y67497D01*
X99507Y67505D01*
X99582Y67554D01*
X99625Y67619D01*
X99663Y67618D01*
X99695Y67608D01*
Y67372D01*
X99565Y67243D01*
X99515Y67167D01*
X99497Y67078D01*
X99515Y66989D01*
X99565Y66914D01*
X99641Y66864D01*
X99695Y66853D01*
Y66766D01*
X99625Y66716D01*
X99577Y66725D01*
X99489Y66708D01*
X99425Y66665D01*
X99388Y66658D01*
X99372D01*
X99335Y66665D01*
X99271Y66708D01*
X99183Y66725D01*
X99095Y66708D01*
X99021Y66658D01*
X98971Y66584D01*
X98954Y66496D01*
X98971Y66408D01*
X99021Y66334D01*
X99095Y66284D01*
X99183Y66267D01*
X99271Y66284D01*
X99335Y66327D01*
X99372Y66334D01*
X99388D01*
X99425Y66327D01*
X99489Y66284D01*
X99577Y66267D01*
X99625Y66276D01*
X99695Y66227D01*
Y64511D01*
X99491D01*
X99452Y64504D01*
X99419Y64482D01*
X99336Y64473D01*
X98687Y65122D01*
Y65381D01*
X98428D01*
X98304Y65505D01*
X98333Y65575D01*
X98687D01*
Y66011D01*
X98582D01*
Y66250D01*
X98667Y66266D01*
X98742Y66316D01*
X98791Y66391D01*
X98809Y66478D01*
X98791Y66566D01*
X98742Y66641D01*
X98667Y66690D01*
X98580Y66708D01*
X98492Y66690D01*
X98417Y66641D01*
X98368Y66566D01*
X98350Y66478D01*
X98352Y66467D01*
X98321Y66436D01*
X98288Y66387D01*
X98277Y66328D01*
Y66011D01*
X98172D01*
Y65776D01*
X98102Y65737D01*
X98032Y65751D01*
X97944Y65734D01*
X97869Y65684D01*
X97820Y65609D01*
X97802Y65522D01*
X97820Y65434D01*
X97869Y65359D01*
X97944Y65310D01*
X98032Y65292D01*
X98076Y65301D01*
X98172Y65205D01*
Y64945D01*
X98431D01*
X98801Y64576D01*
X98774Y64511D01*
X97699D01*
X97645Y64566D01*
X97641Y64578D01*
X97643Y64588D01*
X97625Y64676D01*
X97576Y64750D01*
X97501Y64800D01*
X97413Y64818D01*
X97326Y64800D01*
X97251Y64750D01*
X97245Y64741D01*
X97089D01*
X97031Y64729D01*
X96981Y64696D01*
X95961Y63677D01*
X95942Y63671D01*
X95892Y63681D01*
X95876Y63691D01*
X95876Y63693D01*
Y64300D01*
X95876Y64300D01*
X95876Y64300D01*
Y64300D01*
Y64493D01*
X95928Y64545D01*
X96340D01*
X96340Y64545D01*
X96410Y64545D01*
X96465Y64534D01*
X96552Y64551D01*
X96627Y64601D01*
X96677Y64676D01*
X96679Y64687D01*
X96691Y64705D01*
X96703Y64763D01*
X96691Y64822D01*
X96679Y64840D01*
X96677Y64851D01*
X96627Y64926D01*
X96552Y64975D01*
X96465Y64993D01*
X96410Y64982D01*
X96340Y65012D01*
Y65045D01*
X96340D01*
Y65125D01*
X96365D01*
X96423Y65137D01*
X96457Y65159D01*
X96472Y65156D01*
X96560Y65174D01*
X96634Y65224D01*
X96684Y65298D01*
X96701Y65386D01*
X96684Y65474D01*
X96634Y65548D01*
X96560Y65598D01*
X96472Y65615D01*
X96447Y65610D01*
X96378Y65659D01*
X96374Y65706D01*
X96559Y65891D01*
X96604Y65900D01*
X96678Y65950D01*
X96728Y66024D01*
X96745Y66112D01*
X96728Y66200D01*
X96678Y66274D01*
X96604Y66324D01*
X96516Y66342D01*
X96428Y66324D01*
X96410Y66312D01*
X96340Y66350D01*
Y66512D01*
X96340D01*
Y66545D01*
X96410Y66555D01*
X96448Y66530D01*
X96535Y66513D01*
X96623Y66530D01*
X96698Y66580D01*
X96747Y66654D01*
X96765Y66742D01*
X96747Y66830D01*
X96698Y66904D01*
X96623Y66954D01*
X96535Y66972D01*
X96448Y66954D01*
X96414Y66931D01*
X96340D01*
Y67012D01*
X96340D01*
Y67045D01*
X96355Y67104D01*
X96418Y67132D01*
X96442Y67116D01*
X96530Y67099D01*
X96617Y67116D01*
X96692Y67166D01*
X96741Y67241D01*
X96759Y67328D01*
X96744Y67405D01*
X96775Y67475D01*
X98128D01*
X98167Y67416D01*
X98242Y67366D01*
X98330Y67349D01*
X98417Y67366D01*
X98492Y67416D01*
X98541Y67491D01*
X98559Y67578D01*
X98541Y67666D01*
X98492Y67741D01*
X98417Y67790D01*
X98330Y67808D01*
X98242Y67790D01*
X98228Y67781D01*
X96748D01*
X96741Y67816D01*
X96692Y67891D01*
X96617Y67940D01*
X96530Y67958D01*
X96442Y67940D01*
X96410Y67919D01*
X96340Y67957D01*
Y68012D01*
X96250D01*
X96200Y68082D01*
X96209Y68128D01*
X96191Y68216D01*
X96142Y68291D01*
X96067Y68340D01*
X95980Y68358D01*
X95892Y68340D01*
X95817Y68291D01*
X95768Y68216D01*
X95758Y68169D01*
X95682Y68146D01*
X95304Y68525D01*
X95331Y68589D01*
X95654D01*
Y69477D01*
X95754D01*
Y68589D01*
X96394D01*
Y68661D01*
X98163D01*
Y68589D01*
X98804D01*
Y69477D01*
X98904D01*
Y68589D01*
D02*
G37*
%LPC*%
G36*
X98737Y60793D02*
X98530D01*
Y60625D01*
X98737D01*
Y60793D01*
D02*
G37*
G36*
X100830Y60742D02*
X100748Y60726D01*
X100678Y60680D01*
X100632Y60610D01*
X100615Y60528D01*
X100632Y60446D01*
X100678Y60377D01*
X100730Y60342D01*
X100734Y60326D01*
Y60280D01*
X100730Y60264D01*
X100678Y60230D01*
X100632Y60160D01*
X100615Y60078D01*
X100632Y59996D01*
X100678Y59927D01*
X100730Y59892D01*
X100734Y59876D01*
Y59830D01*
X100730Y59814D01*
X100678Y59780D01*
X100632Y59710D01*
X100615Y59628D01*
X100632Y59546D01*
X100678Y59477D01*
X100748Y59431D01*
X100830Y59414D01*
X100911Y59431D01*
X100981Y59477D01*
X101027Y59546D01*
X101044Y59628D01*
X101027Y59710D01*
X100981Y59780D01*
X100929Y59814D01*
X100925Y59830D01*
Y59876D01*
X100929Y59892D01*
X100981Y59927D01*
X101027Y59996D01*
X101044Y60078D01*
X101027Y60160D01*
X100981Y60230D01*
X100929Y60264D01*
X100925Y60280D01*
Y60326D01*
X100929Y60342D01*
X100981Y60377D01*
X101027Y60446D01*
X101044Y60528D01*
X101027Y60610D01*
X100981Y60680D01*
X100911Y60726D01*
X100830Y60742D01*
D02*
G37*
G36*
X98430Y60793D02*
X98222D01*
Y60625D01*
X98430D01*
Y60793D01*
D02*
G37*
G36*
X97328Y62298D02*
X97290Y62290D01*
X97215Y62241D01*
X97207Y62228D01*
X97137Y62249D01*
Y62261D01*
X96930D01*
Y62043D01*
Y61825D01*
X97137D01*
Y61907D01*
X97207Y61929D01*
X97215Y61916D01*
X97290Y61866D01*
X97328Y61859D01*
Y62078D01*
Y62298D01*
D02*
G37*
G36*
X98033Y62578D02*
X97596D01*
Y62371D01*
X97612D01*
X97633Y62301D01*
X97617Y62291D01*
X97604Y62271D01*
X97540Y62241D01*
X97465Y62290D01*
X97428Y62298D01*
Y62078D01*
Y61859D01*
X97465Y61866D01*
X97526Y61907D01*
X97575Y61892D01*
X97596Y61876D01*
Y61728D01*
X98033D01*
Y61936D01*
X98006D01*
X97968Y62006D01*
X97991Y62041D01*
X97999Y62078D01*
X97780D01*
Y62178D01*
X97999D01*
X97991Y62216D01*
X97942Y62291D01*
X97926Y62301D01*
X97948Y62371D01*
X98033D01*
Y62578D01*
D02*
G37*
G36*
X96830Y62261D02*
X96622D01*
Y62093D01*
X96830D01*
Y62261D01*
D02*
G37*
G36*
X98737Y61061D02*
X98530D01*
Y60893D01*
X98737D01*
Y61061D01*
D02*
G37*
G36*
X96830Y61993D02*
X96622D01*
Y61825D01*
X96830D01*
Y61993D01*
D02*
G37*
G36*
X100280Y60742D02*
X100198Y60726D01*
X100128Y60680D01*
X100082Y60610D01*
X100065Y60528D01*
X100082Y60446D01*
X100128Y60377D01*
X100180Y60342D01*
X100184Y60326D01*
Y60280D01*
X100180Y60264D01*
X100128Y60230D01*
X100082Y60160D01*
X100065Y60078D01*
X100082Y59996D01*
X100128Y59927D01*
X100180Y59892D01*
X100184Y59876D01*
Y59830D01*
X100180Y59814D01*
X100128Y59780D01*
X100082Y59710D01*
X100065Y59628D01*
X100082Y59546D01*
X100128Y59477D01*
X100198Y59431D01*
X100280Y59414D01*
X100361Y59431D01*
X100431Y59477D01*
X100477Y59546D01*
X100494Y59628D01*
X100477Y59710D01*
X100431Y59780D01*
X100379Y59814D01*
X100375Y59830D01*
Y59876D01*
X100379Y59892D01*
X100431Y59927D01*
X100477Y59996D01*
X100494Y60078D01*
X100477Y60160D01*
X100431Y60230D01*
X100379Y60264D01*
X100375Y60280D01*
Y60326D01*
X100379Y60342D01*
X100431Y60377D01*
X100477Y60446D01*
X100494Y60528D01*
X100477Y60610D01*
X100431Y60680D01*
X100361Y60726D01*
X100280Y60742D01*
D02*
G37*
G36*
X99527Y58651D02*
X99357D01*
X99365Y58613D01*
X99415Y58539D01*
X99489Y58489D01*
X99527Y58481D01*
Y58651D01*
D02*
G37*
G36*
X98002Y59521D02*
X97914Y59503D01*
X97840Y59454D01*
X97790Y59379D01*
X97773Y59291D01*
X97790Y59204D01*
X97840Y59129D01*
X97914Y59079D01*
X97956Y59071D01*
Y59000D01*
X97914Y58991D01*
X97840Y58942D01*
X97790Y58867D01*
X97773Y58780D01*
X97790Y58692D01*
X97840Y58617D01*
X97914Y58568D01*
X98002Y58550D01*
X98090Y58568D01*
X98164Y58617D01*
X98214Y58692D01*
X98231Y58780D01*
X98214Y58867D01*
X98164Y58942D01*
X98090Y58991D01*
X98048Y59000D01*
Y59071D01*
X98090Y59079D01*
X98164Y59129D01*
X98214Y59204D01*
X98231Y59291D01*
X98214Y59379D01*
X98164Y59454D01*
X98090Y59503D01*
X98002Y59521D01*
D02*
G37*
G36*
X98976Y58651D02*
X98806D01*
X98814Y58613D01*
X98863Y58539D01*
X98938Y58489D01*
X98976Y58481D01*
Y58651D01*
D02*
G37*
G36*
X99245D02*
X99076D01*
Y58481D01*
X99113Y58489D01*
X99188Y58539D01*
X99238Y58613D01*
X99245Y58651D01*
D02*
G37*
G36*
X98976Y58920D02*
X98938Y58913D01*
X98863Y58863D01*
X98814Y58789D01*
X98806Y58751D01*
X98976D01*
Y58920D01*
D02*
G37*
G36*
X101580Y59248D02*
X101542Y59240D01*
X101467Y59191D01*
X101418Y59116D01*
X101410Y59078D01*
X101580D01*
Y59248D01*
D02*
G37*
G36*
X101680D02*
Y59078D01*
X101849D01*
X101841Y59116D01*
X101792Y59191D01*
X101717Y59240D01*
X101680Y59248D01*
D02*
G37*
G36*
X99076Y58920D02*
Y58751D01*
X99245D01*
X99238Y58789D01*
X99188Y58863D01*
X99113Y58913D01*
X99076Y58920D01*
D02*
G37*
G36*
X99527D02*
X99489Y58913D01*
X99415Y58863D01*
X99365Y58789D01*
X99357Y58751D01*
X99527D01*
Y58920D01*
D02*
G37*
G36*
X100880Y65842D02*
X100798Y65826D01*
X100728Y65780D01*
X100682Y65710D01*
X100665Y65628D01*
X100682Y65546D01*
X100728Y65477D01*
X100780Y65442D01*
X100784Y65426D01*
Y65380D01*
X100780Y65364D01*
X100728Y65330D01*
X100682Y65260D01*
X100665Y65178D01*
X100682Y65096D01*
X100728Y65027D01*
X100780Y64992D01*
X100784Y64976D01*
Y64930D01*
X100780Y64914D01*
X100728Y64880D01*
X100682Y64810D01*
X100665Y64728D01*
X100682Y64646D01*
X100728Y64577D01*
X100798Y64531D01*
X100880Y64514D01*
X100961Y64531D01*
X101031Y64577D01*
X101077Y64646D01*
X101094Y64728D01*
X101077Y64810D01*
X101031Y64880D01*
X100979Y64914D01*
X100975Y64930D01*
Y64976D01*
X100979Y64992D01*
X101031Y65027D01*
X101077Y65096D01*
X101094Y65178D01*
X101077Y65260D01*
X101031Y65330D01*
X100979Y65364D01*
X100975Y65380D01*
Y65426D01*
X100979Y65442D01*
X101031Y65477D01*
X101077Y65546D01*
X101094Y65628D01*
X101077Y65710D01*
X101031Y65780D01*
X100961Y65826D01*
X100880Y65842D01*
D02*
G37*
G36*
X98857Y67667D02*
X98688D01*
X98696Y67629D01*
X98745Y67554D01*
X98820Y67505D01*
X98857Y67497D01*
Y67667D01*
D02*
G37*
G36*
X101730Y64348D02*
Y64178D01*
X101899D01*
X101891Y64216D01*
X101842Y64291D01*
X101767Y64340D01*
X101730Y64348D01*
D02*
G37*
G36*
X100330Y65842D02*
X100248Y65826D01*
X100178Y65780D01*
X100132Y65710D01*
X100115Y65628D01*
X100132Y65546D01*
X100178Y65477D01*
X100230Y65442D01*
X100234Y65426D01*
Y65380D01*
X100230Y65364D01*
X100178Y65330D01*
X100132Y65260D01*
X100115Y65178D01*
X100132Y65096D01*
X100178Y65027D01*
X100230Y64992D01*
X100234Y64976D01*
Y64930D01*
X100230Y64914D01*
X100178Y64880D01*
X100132Y64810D01*
X100115Y64728D01*
X100132Y64646D01*
X100178Y64577D01*
X100248Y64531D01*
X100330Y64514D01*
X100411Y64531D01*
X100481Y64577D01*
X100527Y64646D01*
X100544Y64728D01*
X100527Y64810D01*
X100481Y64880D01*
X100429Y64914D01*
X100425Y64930D01*
Y64976D01*
X100429Y64992D01*
X100481Y65027D01*
X100527Y65096D01*
X100544Y65178D01*
X100527Y65260D01*
X100481Y65330D01*
X100429Y65364D01*
X100425Y65380D01*
Y65426D01*
X100429Y65442D01*
X100481Y65477D01*
X100527Y65546D01*
X100544Y65628D01*
X100527Y65710D01*
X100481Y65780D01*
X100411Y65826D01*
X100330Y65842D01*
D02*
G37*
G36*
X99127Y67667D02*
X98957D01*
Y67497D01*
X98995Y67505D01*
X99070Y67554D01*
X99119Y67629D01*
X99127Y67667D01*
D02*
G37*
G36*
X98957Y67936D02*
Y67767D01*
X99127D01*
X99119Y67804D01*
X99070Y67879D01*
X98995Y67928D01*
X98957Y67936D01*
D02*
G37*
G36*
X99369D02*
X99332Y67928D01*
X99257Y67879D01*
X99207Y67804D01*
X99200Y67767D01*
X99369D01*
Y67936D01*
D02*
G37*
G36*
Y67667D02*
X99200D01*
X99207Y67629D01*
X99257Y67554D01*
X99332Y67505D01*
X99369Y67497D01*
Y67667D01*
D02*
G37*
G36*
X98857Y67936D02*
X98820Y67928D01*
X98745Y67879D01*
X98696Y67804D01*
X98688Y67767D01*
X98857D01*
Y67936D01*
D02*
G37*
G36*
X101630Y64348D02*
X101592Y64340D01*
X101517Y64291D01*
X101468Y64216D01*
X101460Y64178D01*
X101630D01*
Y64348D01*
D02*
G37*
G36*
X97330Y63396D02*
X97292Y63388D01*
X97217Y63339D01*
X97168Y63264D01*
X97160Y63226D01*
X97330D01*
Y63396D01*
D02*
G37*
G36*
X98033Y63478D02*
X97596D01*
Y63380D01*
X97580Y63367D01*
X97526Y63349D01*
X97467Y63388D01*
X97430Y63396D01*
Y63176D01*
Y62957D01*
X97467Y62964D01*
X97542Y63014D01*
X97542Y63014D01*
X97623Y63010D01*
X97652Y62966D01*
X97668Y62956D01*
X97647Y62886D01*
X97596D01*
Y62678D01*
X98033D01*
Y62886D01*
X97983D01*
X97961Y62956D01*
X97977Y62966D01*
X98027Y63041D01*
X98034Y63078D01*
X97815D01*
Y63178D01*
X98034D01*
X98030Y63201D01*
X98033Y63271D01*
X98033Y63271D01*
X98033Y63271D01*
Y63478D01*
D02*
G37*
G36*
X101513Y63186D02*
X101076D01*
Y63000D01*
X101062Y62928D01*
X101076Y62856D01*
Y62671D01*
X101513D01*
Y62696D01*
X101680D01*
X101768Y62714D01*
X101844Y62764D01*
X101894Y62839D01*
X101912Y62928D01*
X101894Y63017D01*
X101844Y63093D01*
X101768Y63143D01*
X101680Y63161D01*
X101513D01*
Y63186D01*
D02*
G37*
G36*
X97330Y63126D02*
X97160D01*
X97168Y63089D01*
X97217Y63014D01*
X97292Y62964D01*
X97330Y62957D01*
Y63126D01*
D02*
G37*
G36*
X101430Y63728D02*
X101260D01*
X101268Y63691D01*
X101317Y63616D01*
X101392Y63566D01*
X101430Y63559D01*
Y63728D01*
D02*
G37*
G36*
X97765Y63786D02*
X97596D01*
Y63578D01*
X97765D01*
Y63786D01*
D02*
G37*
G36*
X98033D02*
X97865D01*
Y63578D01*
X98033D01*
Y63786D01*
D02*
G37*
G36*
X101899Y64078D02*
X101460D01*
X101468Y64041D01*
X101414Y63995D01*
X101392Y63990D01*
X101317Y63941D01*
X101268Y63866D01*
X101260Y63828D01*
X101480D01*
Y63778D01*
X101530D01*
Y63559D01*
X101567Y63566D01*
X101642Y63616D01*
X101662Y63647D01*
X101747D01*
X101767Y63616D01*
X101842Y63566D01*
X101880Y63559D01*
Y63778D01*
X101930D01*
Y63828D01*
X102149D01*
X102141Y63866D01*
X102092Y63941D01*
X102017Y63990D01*
X101950Y64004D01*
X101923Y64021D01*
X101898Y64073D01*
X101899Y64078D01*
D02*
G37*
G36*
X102149Y63728D02*
X101980D01*
Y63559D01*
X102017Y63566D01*
X102092Y63616D01*
X102141Y63691D01*
X102149Y63728D01*
D02*
G37*
%LPD*%
D12*
X98430Y65793D02*
D03*
Y65163D02*
D03*
X98480Y60843D02*
D03*
Y60213D02*
D03*
X96880Y61413D02*
D03*
Y62043D02*
D03*
D13*
X100665Y62928D02*
D03*
X101294D02*
D03*
X100615Y67728D02*
D03*
X101244D02*
D03*
X97494Y60778D02*
D03*
X96865D02*
D03*
X98444Y63528D02*
D03*
X97815D02*
D03*
X98444Y62628D02*
D03*
X97815D02*
D03*
X98444Y61678D02*
D03*
X97815D02*
D03*
D19*
X96865Y61132D02*
Y61398D01*
Y60778D02*
Y61132D01*
X96407D02*
X96865D01*
Y61398D02*
X96880Y61413D01*
X96230Y65778D02*
X96540Y66088D01*
X95945Y65778D02*
X96230D01*
X97089Y64588D02*
X97413D01*
X94480Y61978D02*
X97089Y64588D01*
X94430Y61228D02*
X97430Y64228D01*
X95285Y64370D02*
X95300Y64355D01*
X95522D01*
X95945Y64778D01*
Y67278D02*
X95995Y67328D01*
X96530D01*
X93780Y67778D02*
X93830Y67728D01*
X94630D01*
X96530D02*
X96630Y67628D01*
X98280D01*
X98330Y67578D01*
X98157Y65436D02*
X98430Y65163D01*
X96365Y65278D02*
X96472Y65386D01*
X95945Y65278D02*
X96365D01*
X95945Y67778D02*
X95980Y67813D01*
Y68128D01*
X93780Y67278D02*
Y67778D01*
X98430Y66328D02*
X98580Y66478D01*
X98430Y65793D02*
Y66328D01*
Y65163D02*
X100665Y62928D01*
X95945Y64778D02*
X95960Y64763D01*
X96465D01*
X96550D01*
X93230Y65778D02*
X93780D01*
X94380Y60428D02*
X94480Y60328D01*
X97280D01*
X94380Y59628D02*
X97130D01*
X97330Y59828D01*
X94430Y61978D02*
X94480D01*
X93780Y66778D02*
X94480D01*
X93780Y65278D02*
X94480D01*
X93780Y64778D02*
Y65278D01*
X97280Y60328D02*
Y60378D01*
X90980Y59634D02*
X90985Y59628D01*
X90980Y59634D02*
X91124Y59778D01*
X90980Y58847D02*
X92026D01*
X92970Y59791D01*
Y65519D02*
X93230Y65778D01*
X92970Y59791D02*
Y64963D01*
X92982Y64975D01*
Y65202D01*
X92970Y65214D02*
X92982Y65202D01*
X92970Y65214D02*
Y65519D01*
X95945Y66778D02*
X96496D01*
D20*
X95180Y65978D02*
X95480Y66278D01*
X95945D01*
X92330D02*
X93780D01*
X90980Y67508D02*
X92050D01*
X97578Y61878D02*
X97815D01*
X97343Y62043D02*
X97378Y62078D01*
X96880Y62043D02*
X97343D01*
X97815Y62628D02*
Y63328D01*
Y61878D02*
Y62628D01*
X97378Y62078D02*
X97578Y61878D01*
X97531Y63328D02*
X97815D01*
X97380Y63176D02*
X97531Y63328D01*
X92330Y61628D02*
Y66278D01*
Y67228D01*
X92050Y67508D02*
X92330Y67228D01*
D21*
X98444Y62128D02*
Y62628D01*
Y61878D02*
Y62128D01*
Y61878D02*
X98628D01*
X98444Y61678D02*
X98480Y61643D01*
Y60843D02*
Y61643D01*
X97494Y60713D02*
Y60778D01*
Y60713D02*
X97994Y60213D01*
X98480D01*
Y59528D02*
Y60213D01*
Y59528D02*
X98680Y59328D01*
X97494Y60778D02*
X97894Y61178D01*
X98080D01*
X98444Y63328D02*
X98678D01*
X98444Y62628D02*
Y63328D01*
X98678D02*
X98878Y63128D01*
X98628Y61878D02*
X98878Y62128D01*
X101680Y66128D02*
Y66328D01*
Y66128D02*
X102380Y65428D01*
X100380Y67728D02*
X100615D01*
X99730Y67078D02*
X100380Y67728D01*
X101353Y67720D02*
X101671D01*
X101294Y62928D02*
X101680D01*
X101630Y61078D02*
Y61278D01*
Y61078D02*
X102330Y60378D01*
D29*
X90980Y67508D02*
D03*
Y58847D02*
D03*
D30*
X91176Y66721D02*
D03*
Y65933D02*
D03*
Y65146D02*
D03*
Y64359D02*
D03*
Y61996D02*
D03*
Y61209D02*
D03*
Y60422D02*
D03*
Y59634D02*
D03*
D31*
X90980Y63178D02*
D03*
X103578Y61603D02*
D03*
X103568Y60028D02*
D03*
Y64752D02*
D03*
X103578Y66327D02*
D03*
D32*
X98854Y69477D02*
D03*
X94129Y69467D02*
D03*
X95704Y69477D02*
D03*
X100428D02*
D03*
X94129Y56888D02*
D03*
X95704D02*
D03*
X98854D02*
D03*
X100428D02*
D03*
D33*
X100330Y65178D02*
D03*
X100880D02*
D03*
Y64728D02*
D03*
X100330D02*
D03*
X100880Y65628D02*
D03*
X100330D02*
D03*
X100280Y60078D02*
D03*
X100830D02*
D03*
Y59628D02*
D03*
X100280D02*
D03*
X100830Y60528D02*
D03*
X100280D02*
D03*
D34*
X96407Y61132D02*
D03*
X96516Y66112D02*
D03*
X98032Y65522D02*
D03*
X96535Y66742D02*
D03*
X97413Y64588D02*
D03*
X97430Y64228D02*
D03*
X98002Y58780D02*
D03*
Y59291D02*
D03*
X99026Y58701D02*
D03*
X99577D02*
D03*
X98907Y67717D02*
D03*
X99419D02*
D03*
X99577Y66496D02*
D03*
X99183D02*
D03*
X95285Y64370D02*
D03*
X96530Y67328D02*
D03*
X96472Y65386D02*
D03*
X94630Y67728D02*
D03*
X96530D02*
D03*
X98330Y67578D02*
D03*
X95980Y68128D02*
D03*
X98580Y66478D02*
D03*
X95180Y65978D02*
D03*
X96465Y64763D02*
D03*
X94380Y59628D02*
D03*
Y60428D02*
D03*
X94430Y61978D02*
D03*
Y61228D02*
D03*
X92430Y64728D02*
D03*
X94480Y66778D02*
D03*
Y65278D02*
D03*
X97280Y60328D02*
D03*
X98680Y59328D02*
D03*
X97330Y59828D02*
D03*
X98080Y61178D02*
D03*
X98444Y62128D02*
D03*
X97780D02*
D03*
X97815Y63128D02*
D03*
X98444D02*
D03*
X101680Y64128D02*
D03*
X101930Y63778D02*
D03*
X101480D02*
D03*
X101630Y59028D02*
D03*
X101880Y58678D02*
D03*
X101430D02*
D03*
X98878Y63128D02*
D03*
X97380Y63176D02*
D03*
X97378Y62078D02*
D03*
X98878Y62128D02*
D03*
X102380Y65428D02*
D03*
X101680Y66328D02*
D03*
Y62928D02*
D03*
X101630Y61278D02*
D03*
X101671Y67720D02*
D03*
X99730Y67078D02*
D03*
X102330Y60378D02*
D03*
X92430Y61628D02*
D03*
X92894Y58474D02*
D03*
X92707Y65089D02*
D03*
X93297Y60778D02*
D03*
X93278Y60030D02*
D03*
X92687Y62844D02*
D03*
D35*
X93780Y64778D02*
D03*
D36*
Y65278D02*
D03*
Y65778D02*
D03*
Y66278D02*
D03*
Y66778D02*
D03*
Y67278D02*
D03*
Y67778D02*
D03*
X95945Y64778D02*
D03*
Y65278D02*
D03*
Y65778D02*
D03*
Y66278D02*
D03*
Y66778D02*
D03*
Y67278D02*
D03*
Y67778D02*
D03*
D37*
X98868Y57697D02*
D03*
D38*
X95699Y57756D02*
D03*
D39*
X98829Y68622D02*
D03*
D40*
X95718Y68642D02*
D03*
D41*
X94124Y68622D02*
D03*
D42*
X100443Y68642D02*
D03*
D43*
X100463Y57717D02*
D03*
X94124D02*
D03*
M02*
