M48
;Layer_Color=9474304
;FILE_FORMAT=2:5
INCH,LZ
;TYPE=PLATED
T1F00S00C0.02800
T2F00S00C0.03937
%
T01
X039Y01525
X03765Y01565
X0368
X0413Y01605
X03965Y01805
X0397Y02105
X0396Y02205
X03965Y02905
X03905Y02875
X0373Y0287
X03515Y029
T02
X0355Y01525
X0365
X0375
X0385
X0405Y01505
X0465
Y01605
Y01705
Y01805
Y01905
Y02005
Y02105
Y02205
Y02305
Y02405
Y02505
Y02605
Y02705
Y02805
Y02905
X0405
Y02805
Y02705
Y02605
Y02505
Y02405
Y02305
Y02205
Y02105
Y02005
Y01905
Y01805
Y01705
Y01605
X0356Y0198
Y0208
Y0218
Y0228
Y0238
Y0248
Y02905
X0366
X0376
X0386
M30
