%FSLAX25Y25*%
%MOIN*%
G70*
G01*
G75*
G04 Layer_Physical_Order=2*
G04 Layer_Color=16711680*
%ADD10C,0.01000*%
%ADD11R,0.07087X0.07087*%
%ADD12C,0.07087*%
%ADD13O,0.14000X0.06800*%
%ADD14R,0.14000X0.06800*%
%ADD15R,0.07087X0.07087*%
%ADD16C,0.05000*%
D10*
X383900Y180500D02*
X405000D01*
X465000Y290500D02*
X473500D01*
X356000Y260500D02*
X386000Y290500D01*
X356000Y248000D02*
Y260500D01*
X376400Y188000D02*
X383900Y180500D01*
X376400Y188000D02*
Y207600D01*
X356000Y228000D02*
X376400Y207600D01*
X473500Y178000D02*
Y290500D01*
X471000Y175500D02*
X473500Y178000D01*
X446500Y175500D02*
X471000D01*
X436600Y165600D02*
X446500Y175500D01*
X378300Y165600D02*
X436600D01*
X350900Y193000D02*
X378300Y165600D01*
X350900Y193000D02*
Y212900D01*
X356000Y218000D01*
X368000Y145500D02*
X375000Y152500D01*
X349900Y145500D02*
X368000D01*
X348900Y146500D02*
X349900Y145500D01*
X348900Y146500D02*
Y273400D01*
X366000Y290500D01*
X443500Y270500D02*
X465000D01*
X437000Y264000D02*
X443500Y270500D01*
X437000Y180000D02*
Y264000D01*
X432600Y175600D02*
X437000Y180000D01*
X378400Y175600D02*
X432600D01*
X356000Y198000D02*
X378400Y175600D01*
X439500Y280500D02*
X465000D01*
X435000Y276000D02*
X439500Y280500D01*
X435000Y240000D02*
Y276000D01*
X430600Y235600D02*
X435000Y240000D01*
X398900Y235600D02*
X430600D01*
X396500Y238000D02*
X398900Y235600D01*
X356000Y238000D02*
X396500D01*
X363000Y160500D02*
X405000D01*
X355000Y152500D02*
X363000Y160500D01*
X342000Y138500D02*
X478000D01*
Y304500D01*
X342000D02*
X478000D01*
X342000Y138500D02*
Y304500D01*
D11*
X385000Y152500D02*
D03*
X356000Y290500D02*
D03*
D12*
X375000Y152500D02*
D03*
X365000D02*
D03*
X355000D02*
D03*
X356000Y198000D02*
D03*
Y208000D02*
D03*
Y218000D02*
D03*
Y228000D02*
D03*
Y238000D02*
D03*
X366000Y290500D02*
D03*
X376000D02*
D03*
X386000D02*
D03*
D13*
X465000Y150500D02*
D03*
Y160500D02*
D03*
Y170500D02*
D03*
Y180500D02*
D03*
Y190500D02*
D03*
Y200500D02*
D03*
Y210500D02*
D03*
Y220500D02*
D03*
Y230500D02*
D03*
Y240500D02*
D03*
Y250500D02*
D03*
Y260500D02*
D03*
Y270500D02*
D03*
Y280500D02*
D03*
Y290500D02*
D03*
X405000Y150500D02*
D03*
Y160500D02*
D03*
Y170500D02*
D03*
Y180500D02*
D03*
Y190500D02*
D03*
Y200500D02*
D03*
Y210500D02*
D03*
Y220500D02*
D03*
Y230500D02*
D03*
Y240500D02*
D03*
Y250500D02*
D03*
Y260500D02*
D03*
Y270500D02*
D03*
Y280500D02*
D03*
D14*
Y290500D02*
D03*
D15*
X356000Y248000D02*
D03*
D16*
X373000Y287000D02*
D03*
X376500Y156500D02*
D03*
X396000Y220500D02*
D03*
X397000Y210500D02*
D03*
X368000Y156500D02*
D03*
X390000Y152500D02*
D03*
X396500Y290500D02*
D03*
X351500Y290000D02*
D03*
X390500Y287500D02*
D03*
X396500Y180500D02*
D03*
X413000Y160500D02*
D03*
M02*
