M48
;Layer_Color=9474304
;FILE_FORMAT=2:4
INCH,LZ
;TYPE=PLATED
T1F00S00C0.0315
T2F00S00C0.0394
T3F00S00C0.0886
;TYPE=NON_PLATED
T4F00S00C0.0394
T5F00S00C0.0886
%
T01
X032197Y025683
Y026471
Y027258
Y028045
Y028833
Y031195
X044795Y031195
Y028833
Y028045
Y027258
Y026471
Y025683
Y031982
Y03277
Y033557
Y034345
X032197Y034345
Y033557
Y03277
Y031982
T02
X034Y0265
Y0275
Y0285
Y0295
Y0305
X035
Y0295
Y0285
Y0275
Y0265
X036
Y0275
Y0285
Y0295
Y0305
X041
Y0295
Y0285
Y0275
Y0265
X042
Y0275
Y0285
Y0295
Y0305
X043
Y0295
Y0285
Y0275
Y0265
Y0315
X042
X041
Y0325
Y0335
X042
Y0325
X043
Y0335
X036
X035
X034
Y0325
Y0315
X035
Y0325
X036
Y0315
T03
X032197Y030014
X044795
X038496Y023715
Y036313
T04
X034Y0255
X035
X036
X037
Y0275
X038
X039
X04
Y0255
X041
X042
X043
Y0345
X042
X041
X04
X039925Y032486
X038925
X037925
X036925
X037Y0345
X036
X035
X034
T05
X032197Y023715
X044795
X044786Y036313
X032197
M30
