%FSLAX24Y24*%
%MOIN*%
G70*
G01*
G75*
G04 Layer_Physical_Order=1*
G04 Layer_Color=255*
G04:AMPARAMS|DCode=10|XSize=100mil|YSize=17mil|CornerRadius=0mil|HoleSize=0mil|Usage=FLASHONLY|Rotation=90.000|XOffset=0mil|YOffset=0mil|HoleType=Round|Shape=Octagon|*
%AMOCTAGOND10*
4,1,8,0.0043,0.0500,-0.0043,0.0500,-0.0085,0.0458,-0.0085,-0.0458,-0.0043,-0.0500,0.0043,-0.0500,0.0085,-0.0458,0.0085,0.0458,0.0043,0.0500,0.0*
%
%ADD10OCTAGOND10*%

%ADD11R,0.0170X0.1000*%
%ADD12C,0.0100*%
%ADD13C,0.0200*%
%ADD14R,0.0625X0.0625*%
%ADD15R,0.0625X0.0625*%
%ADD16R,0.1575X0.0394*%
%ADD17R,0.1181X0.0394*%
%ADD18R,0.1575X0.1181*%
%ADD19R,0.1181X0.1575*%
G36*
X38300Y26951D02*
X38300Y25100D01*
X36649D01*
X36600Y25150D01*
X36600Y26000D01*
Y27000D01*
X38251D01*
X38300Y26951D01*
D02*
G37*
G36*
X40400Y27000D02*
X40400Y25150D01*
X40350Y25100D01*
X38600Y25100D01*
X38600Y26951D01*
X38649Y27000D01*
X40400Y27000D01*
D02*
G37*
G36*
X38300Y33049D02*
X38251Y33000D01*
X36600D01*
Y34000D01*
X36600Y34850D01*
X36649Y34900D01*
X38300D01*
X38300Y33049D01*
D02*
G37*
G36*
X40400Y34900D02*
X40400Y33049D01*
X40350Y33000D01*
X38600Y33000D01*
X38600Y34850D01*
X38649Y34900D01*
X40400Y34900D01*
D02*
G37*
D10*
X37774Y28812D02*
D03*
D11*
X38274D02*
D03*
X38774D02*
D03*
X39274D02*
D03*
X37774Y31312D02*
D03*
X38274D02*
D03*
X38774D02*
D03*
X39274D02*
D03*
D12*
X32197Y30014D02*
X44795D01*
X38774Y32335D02*
X38925Y32486D01*
X38774Y31312D02*
Y32335D01*
X37925Y32486D02*
X38274Y32137D01*
Y31312D02*
Y32137D01*
X38000Y27500D02*
X38274Y27774D01*
Y28812D01*
X37000Y27500D02*
X37774Y28274D01*
Y28812D01*
X38774Y27726D02*
X39000Y27500D01*
X38774Y27726D02*
Y28812D01*
X39274Y28226D02*
Y28812D01*
Y28226D02*
X40000Y27500D01*
X39274Y31835D02*
X39925Y32486D01*
X39274Y31312D02*
Y31835D01*
X36925Y32486D02*
X37774Y31637D01*
Y31312D02*
Y31637D01*
X44738Y33500D02*
X44795Y33557D01*
X43000Y33500D02*
X44738D01*
X43870Y32770D02*
X44795D01*
X43500Y32400D02*
X43870Y32770D01*
X43100Y32400D02*
X43500D01*
X43300Y31500D02*
X43782Y31982D01*
X43000Y31500D02*
X43300D01*
X43782Y31982D02*
X44795D01*
X43000Y32500D02*
X43100Y32400D01*
X43000Y30500D02*
X43695Y31195D01*
X44795D01*
X43000Y29500D02*
X43667Y28833D01*
X44795D01*
X43000Y28500D02*
X43500D01*
X43955Y28045D01*
X44795D01*
X43000Y27500D02*
X43242Y27258D01*
X44795D01*
X43000Y26500D02*
X43029Y26471D01*
X44795D01*
X33943Y33557D02*
X34000Y33500D01*
X32197Y33557D02*
X33943D01*
X33400Y32500D02*
X34000D01*
X33130Y32770D02*
X33400Y32500D01*
X32197Y32770D02*
X33130D01*
X33518Y31982D02*
X34000Y31500D01*
X32197Y31982D02*
X33518D01*
X33305Y31195D02*
X34000Y30500D01*
X32197Y31195D02*
X33305D01*
X32197Y28833D02*
X33333D01*
X34000Y29500D01*
X32197Y28045D02*
X32242Y28000D01*
X33300D01*
X33800Y28500D01*
X34000D01*
X32197Y27258D02*
X32255Y27200D01*
X33200D01*
X33500Y27500D01*
X34000D01*
X32197Y26471D02*
X32226Y26500D01*
X34000D01*
X32984Y37101D02*
X44008D01*
X45582Y35526D01*
Y24502D02*
Y35526D01*
X44008Y22927D02*
X45582Y24502D01*
X32984Y22927D02*
X44008D01*
X31409Y24502D02*
X32984Y22927D01*
X31409Y24502D02*
Y35526D01*
X32984Y37101D01*
D13*
X44640Y34500D02*
X44795Y34345D01*
X32352Y34500D02*
X44640D01*
X32197Y34345D02*
X32352Y34500D01*
X44612Y25500D02*
X44795Y25683D01*
X32380Y25500D02*
X44612D01*
X32197Y25683D02*
X32380Y25500D01*
D14*
X34000Y33500D02*
D03*
Y32500D02*
D03*
Y31500D02*
D03*
Y30500D02*
D03*
Y29500D02*
D03*
Y28500D02*
D03*
Y27500D02*
D03*
Y26500D02*
D03*
X35000Y33500D02*
D03*
Y32500D02*
D03*
Y31500D02*
D03*
Y30500D02*
D03*
Y29500D02*
D03*
Y28500D02*
D03*
Y27500D02*
D03*
Y26500D02*
D03*
X36000Y33500D02*
D03*
Y32500D02*
D03*
Y31500D02*
D03*
Y30500D02*
D03*
Y29500D02*
D03*
Y28500D02*
D03*
Y27500D02*
D03*
Y26500D02*
D03*
X41000D02*
D03*
Y27500D02*
D03*
Y28500D02*
D03*
Y29500D02*
D03*
Y30500D02*
D03*
Y31500D02*
D03*
Y32500D02*
D03*
Y33500D02*
D03*
X42000Y26500D02*
D03*
Y27500D02*
D03*
Y28500D02*
D03*
Y29500D02*
D03*
Y30500D02*
D03*
Y31500D02*
D03*
Y32500D02*
D03*
Y33500D02*
D03*
X43000Y26500D02*
D03*
Y27500D02*
D03*
Y28500D02*
D03*
Y29500D02*
D03*
Y30500D02*
D03*
Y31500D02*
D03*
Y32500D02*
D03*
Y33500D02*
D03*
D15*
X37000Y25500D02*
D03*
X36000D02*
D03*
X35000D02*
D03*
X34000D02*
D03*
X37000Y34500D02*
D03*
X36000D02*
D03*
X35000D02*
D03*
X34000D02*
D03*
X43000Y25500D02*
D03*
X42000D02*
D03*
X41000D02*
D03*
X40000D02*
D03*
X43000Y34500D02*
D03*
X42000D02*
D03*
X41000D02*
D03*
X40000D02*
D03*
Y27500D02*
D03*
X39000D02*
D03*
X38000D02*
D03*
X37000D02*
D03*
X36925Y32486D02*
D03*
X37925D02*
D03*
X38925D02*
D03*
X39925D02*
D03*
D16*
X32197Y34345D02*
D03*
Y25683D02*
D03*
X44795Y25683D02*
D03*
Y34345D02*
D03*
D17*
X32394Y33557D02*
D03*
Y32770D02*
D03*
Y31982D02*
D03*
Y31195D02*
D03*
Y28833D02*
D03*
Y28045D02*
D03*
Y27258D02*
D03*
Y26471D02*
D03*
X44598D02*
D03*
Y27258D02*
D03*
Y28045D02*
D03*
Y28833D02*
D03*
Y31195D02*
D03*
Y31982D02*
D03*
Y32770D02*
D03*
Y33557D02*
D03*
D18*
X32197Y30014D02*
D03*
X44795D02*
D03*
D19*
X38496Y23715D02*
D03*
Y36313D02*
D03*
M02*
