%FSLAX24Y24*%
%MOIN*%
G70*
G01*
G75*
G04 Layer_Color=32896*
G04:AMPARAMS|DCode=10|XSize=100mil|YSize=17mil|CornerRadius=0mil|HoleSize=0mil|Usage=FLASHONLY|Rotation=90.000|XOffset=0mil|YOffset=0mil|HoleType=Round|Shape=Octagon|*
%AMOCTAGOND10*
4,1,8,0.0043,0.0500,-0.0043,0.0500,-0.0085,0.0458,-0.0085,-0.0458,-0.0043,-0.0500,0.0043,-0.0500,0.0085,-0.0458,0.0085,0.0458,0.0043,0.0500,0.0*
%
%ADD10OCTAGOND10*%

%ADD11R,0.0170X0.1000*%
%ADD12C,0.0100*%
%ADD13C,0.0200*%
%ADD14R,0.0625X0.0625*%
%ADD15R,0.0625X0.0625*%
%ADD16R,0.1575X0.0394*%
%ADD17R,0.1181X0.0394*%
%ADD18R,0.1575X0.1181*%
%ADD19R,0.1181X0.1575*%
%ADD20R,0.0197X0.0315*%
%ADD21R,0.0350X0.0310*%
%ADD22R,0.3700X0.1900*%
%ADD23R,0.3800X0.1900*%
%ADD24R,0.1575X1.2598*%
%ADD25R,1.4173X0.1575*%
%ADD26R,0.1575X1.2598*%
%ADD27R,1.1024X0.1575*%
G04:AMPARAMS|DCode=28|XSize=108mil|YSize=25mil|CornerRadius=0mil|HoleSize=0mil|Usage=FLASHONLY|Rotation=90.000|XOffset=0mil|YOffset=0mil|HoleType=Round|Shape=Octagon|*
%AMOCTAGOND28*
4,1,8,0.0063,0.0540,-0.0063,0.0540,-0.0125,0.0478,-0.0125,-0.0478,-0.0063,-0.0540,0.0063,-0.0540,0.0125,-0.0478,0.0125,0.0478,0.0063,0.0540,0.0*
%
%ADD28OCTAGOND28*%

%ADD29R,0.0250X0.1080*%
%ADD30R,0.0705X0.0705*%
%ADD31R,0.0705X0.0705*%
%ADD32R,0.0080X0.0080*%
%ADD33R,0.1655X0.0474*%
%ADD34R,0.1261X0.0474*%
%ADD35R,0.1655X0.1261*%
%ADD36R,0.1261X0.1655*%
%ADD37R,1.2598X0.1575*%
%ADD38R,0.1575X1.1024*%
%ADD39R,0.0277X0.0395*%
%ADD40R,0.0430X0.0390*%
%ADD41C,0.0050*%
%ADD42C,0.0060*%
%ADD43C,0.0088*%
%ADD44C,0.0075*%
D12*
X32984Y37101D02*
X44008D01*
X45582Y35526D01*
Y24502D02*
Y35526D01*
X44008Y22927D02*
X45582Y24502D01*
X32984Y22927D02*
X44008D01*
X31409Y24502D02*
X32984Y22927D01*
X31409Y24502D02*
Y35526D01*
X32984Y37101D01*
D41*
X38450Y28650D02*
X38900D01*
Y28800D01*
Y29400D02*
Y29550D01*
X38450D02*
X38900D01*
D42*
Y31500D02*
Y31600D01*
X37200Y32100D02*
X37900Y31400D01*
X38100Y31900D02*
X38500Y31500D01*
X39100Y30600D02*
X39900Y31400D01*
Y32100D01*
X38200Y30100D02*
X38500Y29800D01*
X39500D01*
X40000Y29300D01*
Y28400D02*
Y29300D01*
X38900Y28400D02*
Y28800D01*
X38300Y29200D02*
X38500Y29000D01*
Y28000D02*
Y29000D01*
X38400Y27900D02*
X38500Y28000D01*
X37300Y27900D02*
X37900Y28500D01*
D43*
X41800Y24600D02*
Y24900D01*
X41725D01*
X41650Y24825D01*
Y24600D01*
Y24825D01*
X41575Y24900D01*
X41500Y24825D01*
Y24600D01*
X41275D02*
X41125D01*
X41050Y24675D01*
Y24825D01*
X41125Y24900D01*
X41275D01*
X41350Y24825D01*
Y24675D01*
X41275Y24600D01*
X40600Y25050D02*
Y24600D01*
X40825D01*
X40900Y24675D01*
Y24825D01*
X40825Y24900D01*
X40600D01*
X40450D02*
Y24675D01*
X40375Y24600D01*
X40151D01*
Y24900D01*
X40001Y24600D02*
X39851D01*
X39926D01*
Y25050D01*
X40001D01*
X39551Y24900D02*
X39401D01*
X39326Y24825D01*
Y24600D01*
X39551D01*
X39626Y24675D01*
X39551Y24750D01*
X39326D01*
X39176Y24900D02*
Y24600D01*
Y24750D01*
X39101Y24825D01*
X39026Y24900D01*
X38951D01*
X38726Y24975D02*
X38651Y25050D01*
X38501D01*
X38426Y24975D01*
Y24900D01*
X38501Y24825D01*
X38426Y24750D01*
Y24675D01*
X38501Y24600D01*
X38651D01*
X38726Y24675D01*
Y24750D01*
X38651Y24825D01*
X38726Y24900D01*
Y24975D01*
X38651Y24825D02*
X38501D01*
X38276Y24600D02*
Y24675D01*
X38201D01*
Y24600D01*
X38276D01*
X37601Y24900D02*
X37826D01*
X37901Y24825D01*
Y24675D01*
X37826Y24600D01*
X37601D01*
X37376D02*
X37226D01*
X37152Y24675D01*
Y24825D01*
X37226Y24900D01*
X37376D01*
X37451Y24825D01*
Y24675D01*
X37376Y24600D01*
X37002D02*
Y24900D01*
X36927D01*
X36852Y24825D01*
Y24600D01*
Y24825D01*
X36777Y24900D01*
X36702Y24825D01*
Y24600D01*
X36552D02*
X36252Y24900D01*
X36102Y24975D02*
X36027Y25050D01*
X35877D01*
X35802Y24975D01*
Y24675D01*
X35877Y24600D01*
X36027D01*
X36102Y24675D01*
Y24975D01*
X35652D02*
X35577Y25050D01*
X35427D01*
X35352Y24975D01*
Y24675D01*
X35427Y24600D01*
X35577D01*
X35652Y24675D01*
Y24975D01*
X34902Y25050D02*
X35202D01*
Y24825D01*
X35052Y24900D01*
X34977D01*
X34902Y24825D01*
Y24675D01*
X34977Y24600D01*
X35127D01*
X35202Y24675D01*
D44*
X39900Y28300D02*
X40100D01*
Y28150D01*
X40000Y28200D01*
X39950D01*
X39900Y28150D01*
Y28050D01*
X39950Y28000D01*
X40050D01*
X40100Y28050D01*
X39950Y32000D02*
Y31700D01*
X39800Y31850D01*
X40000D01*
X38800Y31750D02*
X38850Y31700D01*
X38950D01*
X39000Y31750D01*
Y31800D01*
X38950Y31850D01*
X38900D01*
X38950D01*
X39000Y31900D01*
Y31950D01*
X38950Y32000D01*
X38850D01*
X38800Y31950D01*
X38000Y32000D02*
X37800D01*
X38000Y31800D01*
Y31750D01*
X37950Y31700D01*
X37850D01*
X37800Y31750D01*
X36900Y32000D02*
X37000D01*
X36950D01*
Y31700D01*
X36900Y31750D01*
X39100Y28250D02*
X39050Y28300D01*
X38950D01*
X38900Y28250D01*
Y28200D01*
X38950Y28150D01*
X39000D01*
X38950D01*
X38900Y28100D01*
Y28050D01*
X38950Y28000D01*
X39050D01*
X39100Y28050D01*
X37900Y28000D02*
X38100D01*
X37900Y28200D01*
Y28250D01*
X37950Y28300D01*
X38050D01*
X38100Y28250D01*
X37000Y28000D02*
X36900D01*
X36950D01*
Y28300D01*
X37000Y28250D01*
M02*
