%FSLAX24Y24*%
%MOIN*%
G70*
G01*
G75*
G04 Layer_Color=16711935*
G04:AMPARAMS|DCode=10|XSize=100mil|YSize=17mil|CornerRadius=0mil|HoleSize=0mil|Usage=FLASHONLY|Rotation=90.000|XOffset=0mil|YOffset=0mil|HoleType=Round|Shape=Octagon|*
%AMOCTAGOND10*
4,1,8,0.0043,0.0500,-0.0043,0.0500,-0.0085,0.0458,-0.0085,-0.0458,-0.0043,-0.0500,0.0043,-0.0500,0.0085,-0.0458,0.0085,0.0458,0.0043,0.0500,0.0*
%
%ADD10OCTAGOND10*%

%ADD11R,0.0170X0.1000*%
%ADD12C,0.0100*%
%ADD13C,0.0200*%
%ADD14R,0.0625X0.0625*%
%ADD15R,0.0625X0.0625*%
%ADD16R,0.1575X0.0394*%
%ADD17R,0.1181X0.0394*%
%ADD18R,0.1575X0.1181*%
%ADD19R,0.1181X0.1575*%
%ADD20R,0.0197X0.0315*%
%ADD21R,0.0350X0.0310*%
%ADD22R,0.3700X0.1900*%
%ADD23R,0.3800X0.1900*%
%ADD24R,0.1575X1.2598*%
%ADD25R,1.4173X0.1575*%
%ADD26R,0.1575X1.2598*%
%ADD27R,1.1024X0.1575*%
G04:AMPARAMS|DCode=28|XSize=108mil|YSize=25mil|CornerRadius=0mil|HoleSize=0mil|Usage=FLASHONLY|Rotation=90.000|XOffset=0mil|YOffset=0mil|HoleType=Round|Shape=Octagon|*
%AMOCTAGOND28*
4,1,8,0.0063,0.0540,-0.0063,0.0540,-0.0125,0.0478,-0.0125,-0.0478,-0.0063,-0.0540,0.0063,-0.0540,0.0125,-0.0478,0.0125,0.0478,0.0063,0.0540,0.0*
%
%ADD28OCTAGOND28*%

%ADD29R,0.0250X0.1080*%
%ADD30R,0.0705X0.0705*%
%ADD31R,0.0705X0.0705*%
%ADD32R,0.0080X0.0080*%
%ADD33R,0.1655X0.0474*%
%ADD34R,0.1261X0.0474*%
%ADD35R,0.1655X0.1261*%
%ADD36R,0.1261X0.1655*%
%ADD37R,1.2598X0.1575*%
%ADD38R,0.1575X1.1024*%
%ADD39R,0.0277X0.0395*%
%ADD40R,0.0430X0.0390*%
D12*
X32984Y37101D02*
X44008D01*
X45582Y35526D01*
Y24502D02*
Y35526D01*
X44008Y22927D02*
X45582Y24502D01*
X32984Y22927D02*
X44008D01*
X31409Y24502D02*
X32984Y22927D01*
X31409Y24502D02*
Y35526D01*
X32984Y37101D01*
D23*
X38500Y33950D02*
D03*
Y26050D02*
D03*
D25*
X38496Y23715D02*
D03*
D26*
X44795Y30801D02*
D03*
D30*
X34000Y33500D02*
D03*
Y32500D02*
D03*
Y31500D02*
D03*
Y30500D02*
D03*
Y29500D02*
D03*
Y28500D02*
D03*
Y27500D02*
D03*
Y26500D02*
D03*
X35000Y33500D02*
D03*
Y32500D02*
D03*
Y31500D02*
D03*
Y30500D02*
D03*
Y29500D02*
D03*
Y28500D02*
D03*
Y27500D02*
D03*
Y26500D02*
D03*
X36000Y33500D02*
D03*
Y32500D02*
D03*
Y31500D02*
D03*
Y30500D02*
D03*
Y29500D02*
D03*
Y28500D02*
D03*
Y27500D02*
D03*
Y26500D02*
D03*
X41000D02*
D03*
Y27500D02*
D03*
Y28500D02*
D03*
Y29500D02*
D03*
Y30500D02*
D03*
Y31500D02*
D03*
Y32500D02*
D03*
Y33500D02*
D03*
X42000Y26500D02*
D03*
Y27500D02*
D03*
Y28500D02*
D03*
Y29500D02*
D03*
Y30500D02*
D03*
Y31500D02*
D03*
Y32500D02*
D03*
Y33500D02*
D03*
X43000Y26500D02*
D03*
Y27500D02*
D03*
Y28500D02*
D03*
Y29500D02*
D03*
Y30500D02*
D03*
Y31500D02*
D03*
Y32500D02*
D03*
Y33500D02*
D03*
D31*
X37000Y25500D02*
D03*
X36000D02*
D03*
X35000D02*
D03*
X34000D02*
D03*
X37000Y34500D02*
D03*
X36000D02*
D03*
X35000D02*
D03*
X34000D02*
D03*
X43000Y25500D02*
D03*
X42000D02*
D03*
X41000D02*
D03*
X40000D02*
D03*
X43000Y34500D02*
D03*
X42000D02*
D03*
X41000D02*
D03*
X40000D02*
D03*
Y27500D02*
D03*
X39000D02*
D03*
X38000D02*
D03*
X37000D02*
D03*
X36925Y32486D02*
D03*
X37925D02*
D03*
X38925D02*
D03*
X39925D02*
D03*
D32*
X44982Y36313D02*
D03*
X44992Y23715D02*
D03*
X32394D02*
D03*
Y36313D02*
D03*
D33*
X32197Y34345D02*
D03*
Y25683D02*
D03*
X44795Y25683D02*
D03*
Y34345D02*
D03*
D34*
X32394Y33557D02*
D03*
Y32770D02*
D03*
Y31982D02*
D03*
Y31195D02*
D03*
Y28833D02*
D03*
Y28045D02*
D03*
Y27258D02*
D03*
Y26471D02*
D03*
X44598D02*
D03*
Y27258D02*
D03*
Y28045D02*
D03*
Y28833D02*
D03*
Y31195D02*
D03*
Y31982D02*
D03*
Y32770D02*
D03*
Y33557D02*
D03*
D35*
X32197Y30014D02*
D03*
X44795D02*
D03*
D36*
X38496Y23715D02*
D03*
Y36313D02*
D03*
D37*
X37708D02*
D03*
D38*
X32197Y30014D02*
D03*
D39*
X38874Y31233D02*
D03*
X38500D02*
D03*
X38126D02*
D03*
X38874Y30367D02*
D03*
X38126D02*
D03*
D40*
X38110Y28730D02*
D03*
Y29470D02*
D03*
X38900Y29100D02*
D03*
M02*
